<svg xmlns="http://www.w3.org/2000/svg" fill="none" viewBox="0 0 200 66" height="66" width="200">
<path fill="#949494" d="M80.9515 0.0281768C80.457 0.0634283 79.7874 0.212327 79.4633 0.359121C78.4376 0.823705 77.4461 1.95614 77.1951 2.94967C76.9906 3.75835 76.8302 3.32429 76.7297 1.69044L76.6358 0.166728L75.6639 0.112711C75.0079 0.0764069 74.6434 0.133406 74.5427 0.288092C74.2946 0.66972 74.3514 8.74215 74.6039 8.98839C74.8927 9.27005 76.2722 9.25742 76.5161 8.97085C76.6227 8.84545 76.7338 8.07605 76.7628 7.26088C76.7921 6.43835 76.8946 5.77892 76.993 5.77892C77.0906 5.77892 77.1972 5.93676 77.23 6.12968C77.542 7.96416 79.2628 9.18253 81.5566 9.19288C82.6408 9.19779 83.0326 9.11834 83.7174 8.75478C84.7587 8.20198 85.7716 6.83909 85.6859 6.10618C85.6303 5.63195 85.5733 5.60055 84.6823 5.55057C83.7688 5.49918 83.7253 5.51795 83.3608 6.12056C82.6334 7.32297 81.0959 7.57569 80.0167 6.6702C79.5542 6.28226 79.5293 6.18071 79.5214 4.64192L79.513 3.0221L80.1355 2.51525C80.6093 2.12942 80.9424 2.00823 81.5293 2.00823C82.1928 2.00823 82.398 2.10609 82.9986 2.70975C83.5857 3.29973 83.812 3.41127 84.4223 3.41127C84.8215 3.41127 85.2759 3.36339 85.4323 3.30482C86.2786 2.98808 85.118 1.11379 83.662 0.445759C82.7803 0.0411557 82.1445 -0.0567076 80.9515 0.0281768ZM63.7188 0.196016C63.6528 0.260206 63.5988 2.22359 63.5988 4.55897C63.5988 7.7537 63.6546 8.84475 63.8236 8.96506C63.9473 9.05293 64.3699 9.1208 64.763 9.11606C65.4661 9.10729 65.4801 9.09432 65.6254 8.32001C65.7067 7.88699 65.7329 7.09866 65.6835 6.56813C65.6342 6.0376 65.6522 5.28785 65.7234 4.90201L65.8529 4.20049L66.1643 4.6342C66.3357 4.87255 66.476 5.23173 66.476 5.43219C66.476 5.63247 66.5452 5.87134 66.6297 5.96307C66.8174 6.16616 67.3751 7.84823 67.3751 8.21075C67.3751 8.66604 67.9167 9.02364 68.6016 9.02083C69.4313 9.01732 69.6523 8.8807 69.8082 8.27476C69.8765 8.00941 70.0044 7.74914 70.0923 7.69618C70.1803 7.64304 70.2522 7.37225 70.2522 7.09427C70.2522 6.81629 70.3261 6.54428 70.4164 6.48991C70.5066 6.43537 70.6339 6.08268 70.6992 5.70596C70.7645 5.32924 70.9738 4.88325 71.1644 4.71506C71.5046 4.41463 71.5109 4.44672 71.5136 6.4971C71.5153 7.64549 71.5784 8.67989 71.6539 8.79599C71.881 9.1443 73.1996 9.27566 73.4552 8.97541C73.7547 8.62342 73.7968 0.991018 73.5023 0.454002C73.321 0.12376 73.1417 0.079388 71.9992 0.081668C71.2856 0.0832464 70.6106 0.14235 70.4991 0.213204C70.3076 0.334918 69.4691 2.68239 68.965 4.5074C68.7093 5.43377 68.454 5.60389 68.454 4.84782C68.454 4.57686 68.3351 4.20207 68.19 4.01476C68.0447 3.82763 67.9222 3.5165 67.9176 3.32358C67.9095 2.98124 67.5241 1.74551 67.2067 1.04363C67.1193 0.850713 67.0028 0.554846 66.9474 0.385954C66.8622 0.125864 66.6171 0.0790374 65.3427 0.0790374C64.5154 0.0790374 63.7846 0.131652 63.7188 0.196016ZM86.3012 0.191106C86.1302 0.261609 86.0764 1.30512 86.0764 4.55967C86.0764 8.60781 86.095 8.84545 86.4242 9.01732C86.6155 9.11712 86.9851 9.19884 87.2453 9.19884C88.2559 9.19884 88.4141 8.96226 88.4141 7.45135C88.4141 5.65229 88.5466 5.51584 90.2941 5.51584C91.791 5.51584 91.9053 5.63721 91.7113 7.01746C91.5746 7.99064 91.921 8.99891 92.4292 9.10589C92.6439 9.15132 93.5868 9.17096 94.5246 9.14974L96.2295 9.11115L96.651 8.36578C97.098 7.57534 97.2615 7.52588 99.2933 7.56552C100.305 7.58516 100.381 7.62094 100.726 8.24635C100.916 8.59062 101.197 8.93016 101.351 9.00101C101.505 9.07187 103.506 9.15289 105.799 9.18113C109.762 9.22971 109.982 9.21533 110.271 8.88579C110.558 8.5587 110.593 8.55625 110.883 8.83949C111.142 9.09256 111.618 9.14588 113.907 9.17867C116.956 9.22234 117.006 9.20183 117.006 7.89068C117.006 7.07498 116.465 6.84558 114.872 6.98484C112.992 7.14917 113.05 7.25913 113.05 3.49616V0.261083L112.628 0.157783C112.396 0.101135 111.89 0.0799143 111.504 0.110606C110.921 0.157257 110.792 0.237582 110.741 0.585888L110.68 1.00505L110.466 0.585888L110.252 0.166728H106.84H103.429L103.383 3.67435C103.358 5.60354 103.294 7.29421 103.242 7.43118C103.179 7.59691 103.029 7.46503 102.794 7.03727C102.599 6.68353 102.44 6.31698 102.44 6.2228C102.44 6.12863 102.252 5.6351 102.022 5.12597C101.792 4.61702 101.46 3.80588 101.284 3.32358C100.101 0.0748281 100.104 0.0790374 98.7684 0.0790374C97.6245 0.0790374 97.3872 0.25512 96.9419 1.43508C96.7684 1.89493 96.5589 2.34636 96.4764 2.43791C96.3939 2.52963 96.3262 2.74763 96.3262 2.92266C96.3262 3.09752 96.2552 3.37778 96.1684 3.54527C95.8461 4.16699 95.4271 5.18227 95.4271 5.34169C95.4271 5.43219 95.2333 5.92273 94.9965 6.43186C94.7596 6.94081 94.5151 7.50677 94.4529 7.68934C94.3906 7.87191 94.2979 7.98065 94.2468 7.93066C94.1955 7.88086 94.1249 6.17843 94.0898 4.14752C94.0546 2.11661 93.9722 0.370345 93.9066 0.267045C93.7165 -0.0330312 92.2563 0.0397523 91.9217 0.365961C91.6827 0.599217 91.6502 0.858957 91.7482 1.75147C91.919 3.30798 91.7983 3.4453 90.1789 3.53685C89.1868 3.59297 88.7867 3.55018 88.6348 3.37164C88.522 3.23923 88.406 2.46387 88.3771 1.6487L88.3242 0.166728L87.4251 0.132704C86.9306 0.113938 86.4249 0.140245 86.3012 0.191106ZM119.547 0.385954C119.455 0.554846 119.383 2.4686 119.386 4.63894C119.392 7.74511 119.446 8.64499 119.643 8.86685C119.853 9.10484 120.277 9.14167 122.36 9.10308C125.144 9.05135 125.876 8.86422 126.764 7.97714L127.345 7.39628L127.442 8.07833C127.58 9.06275 127.722 9.19884 128.611 9.19884C129.896 9.19884 129.933 9.06538 129.895 4.53424C129.87 1.54399 129.807 0.592728 129.616 0.368942C129.31 0.0095865 127.928 -0.0256654 127.635 0.318432C127.505 0.47189 127.425 1.52768 127.414 3.25606C127.404 4.84168 127.337 5.80154 127.251 5.58389C127.171 5.38028 126.897 5.05319 126.641 4.85711C126.102 4.44374 126.061 4.17681 126.47 3.73643C126.767 3.41636 126.878 1.70499 126.628 1.30968C126.563 1.20761 126.091 0.889648 125.579 0.603251C124.671 0.0953475 124.586 0.0823701 122.182 0.0806163C120.016 0.0792132 119.695 0.116393 119.547 0.385954ZM130.507 0.48066C130.42 0.701464 130.362 2.64135 130.376 4.7917C130.4 8.32369 130.433 8.72321 130.723 8.92981C130.953 9.09379 131.717 9.15184 133.42 9.13483C135.659 9.11255 135.856 9.08186 136.821 8.605C137.384 8.32667 137.894 7.97381 137.955 7.8207C138.05 7.57903 138.086 7.57639 138.231 7.80071C138.323 7.94277 138.4 8.23846 138.402 8.45786C138.406 9.09221 140.009 9.49261 140.526 8.98839C140.833 8.68954 140.833 0.588343 140.526 0.289494C140.24 0.00993678 138.645 0.0166018 138.466 0.298263C138.39 0.418926 138.342 1.48349 138.361 2.66415C138.379 3.84464 138.336 4.95533 138.264 5.13194C138.148 5.42096 138.076 5.39553 137.554 4.87956L136.974 4.30589L137.419 3.7894C138.064 3.04157 138.043 1.86617 137.37 1.15868C136.526 0.270378 135.765 0.0790374 133.073 0.0790374C130.727 0.0790374 130.659 0.0897357 130.507 0.48066ZM109.746 2.20974C109.529 2.33233 108.913 2.35829 108.019 2.28235C106.094 2.11854 105.677 2.24166 105.677 2.973C105.677 3.68715 105.972 3.81711 107.241 3.66242C107.764 3.59876 108.548 3.59858 108.984 3.66224C109.852 3.78922 110.058 4.1021 109.872 5.01022L109.77 5.5048L107.768 5.55408L105.767 5.60354V6.21737V6.8312L107.835 6.92485C108.972 6.97642 110.044 7.08357 110.217 7.16285C110.576 7.32735 110.595 7.17109 110.612 3.89427C110.623 1.8916 110.552 1.75322 109.746 2.20974ZM121.981 2.12521C121.78 2.32128 121.847 3.32779 122.077 3.55158C122.384 3.85113 123.686 3.81202 124.158 3.48897C124.593 3.19205 124.686 2.55349 124.342 2.21868C124.117 1.99858 122.189 1.92229 121.981 2.12521ZM133.046 2.21868C132.726 2.53016 132.774 3.52825 133.114 3.65558C133.643 3.85341 134.725 3.76379 135.127 3.48897C135.997 2.89548 135.318 2.00823 133.995 2.00823C133.591 2.00823 133.164 2.10293 133.046 2.21868ZM98.4242 3.17749C98.3582 3.24168 98.3043 3.46336 98.3043 3.67014C98.3043 3.87673 98.1854 4.19891 98.0403 4.38622C97.895 4.57335 97.7736 4.90429 97.7706 5.12124C97.7653 5.47866 97.8497 5.51584 98.6639 5.51584C99.7078 5.51584 99.7599 5.37957 99.2726 3.92654C99.005 3.12891 98.7263 2.88268 98.4242 3.17749ZM121.988 5.62581C121.774 5.83416 121.847 6.88978 122.085 7.03306C122.435 7.24422 123.697 7.25562 124.253 7.05271C124.694 6.89171 124.75 6.79016 124.702 6.23613L124.648 5.60354L123.381 5.55267C122.685 5.52479 122.058 5.55776 121.988 5.62581ZM132.95 5.63282C132.884 5.69701 132.83 6.04374 132.83 6.40327C132.83 7.14285 133.018 7.26965 134.115 7.26965C135.4 7.26965 136.207 6.50184 135.604 5.85205C135.36 5.58986 135.047 5.51584 134.181 5.51584C133.57 5.51584 133.016 5.56846 132.95 5.63282ZM98.2142 10.8348C97.066 11.2722 96.8256 11.5598 96.8109 12.5148C96.7999 13.2175 96.8855 13.4936 97.2225 13.8435C97.4562 14.0862 97.7907 14.2849 97.9653 14.2849C98.1401 14.2849 98.333 14.3638 98.3942 14.4603C98.4553 14.5567 98.7231 14.6374 98.9892 14.6395C99.2553 14.6416 99.8171 14.7956 100.237 14.9817C101.086 15.3575 101.229 15.8196 100.716 16.5338C100.464 16.8853 100.302 16.9254 99.3301 16.8796C98.2697 16.8298 98.2122 16.8025 97.7423 16.1264C97.2097 15.3601 96.9218 15.2597 96.6156 15.7334C96.3491 16.1455 96.7609 16.8614 97.5713 17.3939C98.6071 18.0749 100.997 17.8711 101.682 17.0435C101.996 16.6638 102.099 15.4535 101.857 14.9864C101.609 14.5081 100.258 13.7775 99.6008 13.7659C99.3744 13.7621 98.8686 13.5993 98.4769 13.4045C97.9263 13.1305 97.7648 12.948 97.7648 12.5995C97.7648 12.0828 98.392 11.4934 98.9509 11.4846C99.5143 11.476 100.387 11.9548 100.725 12.4583C101.069 12.9706 101.77 12.9832 101.869 12.479C101.967 11.9767 101.095 11.0102 100.424 10.8776C99.2381 10.6431 98.743 10.6335 98.2142 10.8348ZM120.602 10.8067C120.337 10.9142 118.81 10.9779 116.887 10.9618C114.61 10.9427 113.584 10.9947 113.495 11.1342C113.281 11.4723 113.734 11.7287 114.717 11.8252L115.657 11.9172L115.59 14.2968C115.536 16.2528 115.577 16.7756 115.82 17.2344C116.144 17.8456 116.133 17.8388 116.541 17.6861C116.784 17.5952 116.826 17.1752 116.826 14.8273C116.826 13.3136 116.903 12 116.996 11.9085C117.09 11.8168 117.583 11.7696 118.09 11.8036C118.93 11.8597 119.005 11.8995 118.922 12.2421C118.682 13.228 120.085 14.6357 121.308 14.6357C121.952 14.6357 122.642 14.9759 123.069 15.5045C123.379 15.8887 123.355 16.0001 122.858 16.485C122.51 16.8249 122.235 16.9144 121.554 16.9098C120.643 16.9037 120.112 16.6085 119.717 15.8893C119.408 15.3258 118.689 15.4314 118.776 16.0276C118.939 17.1559 119.991 17.7925 121.689 17.7925C122.815 17.7925 122.984 17.7437 123.557 17.253C124.773 16.2116 124.542 14.8216 123.039 14.1323C122.591 13.9268 122.104 13.7587 121.956 13.7587C121.809 13.7587 121.362 13.6314 120.964 13.476C119.721 12.9911 119.792 12.0158 121.095 11.6649C121.878 11.4541 122.691 11.8048 122.948 12.4639C123.074 12.7868 123.229 12.891 123.525 12.8501C123.866 12.8027 123.921 12.7003 123.879 12.1933C123.824 11.5372 123.441 11.1817 122.4 10.8237C121.65 10.5654 121.206 10.5612 120.602 10.8067ZM80.1979 11.1719C80.1179 11.2925 80.0801 12.6933 80.1139 14.2849C80.1776 17.2737 80.3085 17.7943 80.9375 17.5589C81.1558 17.4772 81.2213 17.1887 81.2213 16.3072V15.1618H82.6471C84.0283 15.1618 84.0936 15.1427 84.737 14.5509C85.1024 14.2149 85.4722 13.9827 85.5589 14.0351C85.6458 14.0874 85.7168 14.8207 85.7168 15.6648C85.7168 17.2016 85.9736 17.9837 86.3947 17.7297C86.5008 17.6657 86.6443 17.0815 86.7136 16.4314C86.7828 15.7814 86.9203 15.1509 87.0194 15.0303C87.2304 14.7733 88.7337 14.7382 89.3729 14.9752C89.7399 15.1113 89.8372 15.2991 89.9413 16.0713C90.0922 17.1929 90.4549 17.8253 90.8602 17.6736C91.1015 17.5833 91.128 17.38 91.0249 16.4077C90.9575 15.7707 90.7991 15.0431 90.673 14.7909C90.4759 14.3963 90.49 14.2738 90.7737 13.914C91.285 13.2654 91.2182 12.157 90.6336 11.5868C90.012 10.9805 89.7468 10.9279 87.6159 10.9891L85.8288 11.0403L85.6762 11.6159L85.5237 12.1915L84.9247 11.5721L84.3257 10.9527H82.3345C80.9391 10.9527 80.2999 11.0182 80.1979 11.1719ZM91.7757 11.0647C91.5461 11.2889 91.6306 17.3518 91.8667 17.5821C92.1634 17.8714 95.9936 17.8714 96.2903 17.5821C96.8267 17.0589 96.5251 16.9284 94.6629 16.8779L92.8197 16.8279L92.7661 15.7318L92.7127 14.6357H94.2137C95.6917 14.6357 96.1464 14.4845 96.1464 13.9934C96.1464 13.8347 95.6753 13.7577 94.4831 13.7216L92.8197 13.6711L92.7654 12.7503L92.7109 11.8296L93.4847 11.805C93.9102 11.7915 94.5674 11.7989 94.945 11.8213C95.7355 11.8683 96.7308 11.5228 96.633 11.2355C96.5589 11.0179 91.9886 10.8572 91.7757 11.0647ZM102.481 14.3233L102.53 17.7048L104.686 17.7546C106.501 17.7965 106.875 17.7597 107.054 17.5215C107.226 17.292 107.339 17.2769 107.654 17.4414C108.459 17.8616 108.554 17.6224 108.554 15.1672C108.554 13.8422 108.626 12.8818 108.725 12.8818C108.936 12.8818 109.813 13.9834 109.813 14.2489C109.813 14.3556 109.914 14.5059 110.038 14.583C110.161 14.6602 110.418 14.9996 110.609 15.3372C110.799 15.6748 111.001 15.9905 111.058 16.0387C111.214 16.1708 111.59 16.7795 111.781 17.2074C112.024 17.752 112.69 17.9191 112.995 17.5121C113.181 17.2636 113.226 16.4775 113.188 14.1167C113.143 11.2701 113.115 11.0402 112.801 10.9814C112.258 10.8797 112.156 11.2687 112.153 13.4518C112.152 14.5853 112.09 15.5119 112.016 15.511C111.941 15.5103 111.529 14.9538 111.1 14.2745C110.67 13.5953 110.124 12.8347 109.886 12.5844C109.648 12.334 109.45 12.0419 109.447 11.9355C109.444 11.829 109.298 11.5749 109.123 11.3706C108.823 11.0205 108.624 10.9977 105.619 10.9705L102.432 10.9416L102.481 14.3233ZM107.14 11.5256C107.01 11.6531 106.203 11.7778 105.174 11.8296L103.429 11.9172L103.373 12.5872C103.286 13.6134 103.518 13.7587 105.239 13.7587C106.756 13.7587 107.144 13.9161 106.755 14.3736C106.609 14.5452 106.059 14.6381 104.986 14.6728L103.429 14.7233L103.375 15.7263C103.312 16.9107 103.244 16.8767 105.814 16.9535C107.169 16.994 107.495 16.9542 107.562 16.7402C107.661 16.4263 107.545 11.4884 107.436 11.3827C107.395 11.3423 107.262 11.4065 107.14 11.5256ZM81.9406 11.8182C81.3268 11.9148 81.3101 11.9392 81.2644 12.7942C81.2387 13.2764 81.2909 13.7805 81.3801 13.9141C81.6341 14.2944 83.6409 14.2782 84.0373 13.8927C84.4194 13.5211 84.4509 12.4429 84.0894 12.1121C83.7701 11.8197 82.7854 11.685 81.9406 11.8182ZM86.9835 11.908C86.8506 12.0642 86.7031 12.5839 86.656 13.063L86.5702 13.9341H87.9174C89.0082 13.9341 89.3549 13.8649 89.7385 13.5706C89.9991 13.3708 90.2123 13.0698 90.2123 12.9022C90.2123 12.3767 89.5322 11.8296 88.8791 11.8296C88.5492 11.8296 88.0421 11.7833 87.7522 11.7268C87.3864 11.6554 87.1512 11.7108 86.9835 11.908ZM24.7575 24.3779C24.6091 24.4184 23.7595 24.5287 22.8694 24.6229C20.9201 24.8293 19.7185 25.1445 18.1802 25.8535C17.5443 26.1464 16.9844 26.3862 16.9358 26.3862C16.7644 26.3862 14.0515 28.4216 13.5187 28.9497C12.1767 30.2803 10.5516 32.4761 10.5516 32.9587C10.5516 33.0943 10.4705 33.2543 10.3713 33.3141C10.1602 33.4414 9.6135 34.594 9.29018 35.5937C9.16538 35.9795 9.0048 36.453 8.93359 36.646C8.55974 37.6568 8.21898 39.0424 8.11397 39.9782C8.04905 40.5569 7.9034 41.8197 7.79029 42.7843L7.58458 44.5381L6.41574 44.594C5.40263 44.6424 4.71068 44.5639 2.67996 44.1701C1.93945 44.0265 0.849919 42.8988 0.726921 42.1487C0.665603 41.7748 0.542965 41.4689 0.454133 41.4689C0.0914344 41.4689 -0.0125016 42.4237 0.00116478 45.6342C0.0142917 48.7607 0.0392867 49.0103 0.338509 49.0103C0.557711 49.0103 0.661467 48.8779 0.661467 48.5982C0.661467 47.9308 1.6138 46.8189 2.48629 46.4676C3.34997 46.1199 7.21972 45.8659 7.49934 46.1386C7.58673 46.2239 7.70955 46.9971 7.77231 47.857C7.83507 48.7169 7.96004 49.6096 8.05013 49.8406C8.14022 50.0717 8.21395 50.5395 8.21395 50.88C8.21395 51.5314 8.64858 53.2691 8.94115 53.787C9.03573 53.9545 9.11413 54.2307 9.11557 54.4008C9.11989 54.9019 10.8102 58.1854 11.6363 59.2971C12.6244 60.627 14.1774 62.1989 15.3478 63.0538C16.4411 63.8524 19.0016 65.1453 19.49 65.1453C19.6772 65.1453 19.9072 65.2137 20.0012 65.2976C20.0951 65.3812 20.7789 65.585 21.5207 65.7504C23.741 66.2453 29.7551 65.9535 30.4055 65.3191C30.5035 65.2236 30.7169 65.1453 30.8797 65.1453C31.1674 65.1453 32.0285 64.8027 32.7595 64.3972C32.9573 64.2874 33.3619 64.0738 33.6586 63.9224C36.0141 62.72 38.8637 59.721 40.162 57.0778C41.1302 55.1067 41.2863 54.6811 42.0266 51.9918C42.3639 50.7666 42.6096 49.2406 42.7184 47.6949L42.8295 46.1165L43.4387 46.0597C43.7739 46.0285 44.2391 46.0497 44.4727 46.1069L44.8974 46.2109L44.8964 53.3543C44.8953 60.4855 44.7931 62.0741 44.2654 63.159C43.9446 63.8182 43.0573 64.5206 42.335 64.6872C41.64 64.8475 41.7204 65.0801 42.5148 65.2081C43.3999 65.3509 47.6735 65.3516 48.7384 65.2092C49.6724 65.0843 49.8258 64.8537 49.0783 64.6986C48.4433 64.5669 47.5663 64.1045 47.2858 63.7533C46.976 63.3652 46.5467 61.8533 46.5111 61.0239C46.4946 60.6381 46.4888 57.1355 46.4984 53.2403L46.5158 46.1583L47.136 46.2565C48.5861 46.486 49.5037 47.237 49.7461 48.3928C49.8087 48.6908 49.9722 48.9226 50.1196 48.9226C50.3392 48.9226 50.3899 48.3531 50.4309 45.4374C50.4645 43.031 50.4165 41.8783 50.2755 41.7125C50.0051 41.3947 49.7526 41.5671 49.7526 42.0694C49.7526 42.9227 48.1009 44.275 47.0589 44.275H46.5158L46.5216 36.2513L46.5271 28.2277L46.9262 28.735C47.4482 29.399 48.0628 30.3768 48.371 31.0338C48.5068 31.3231 48.7519 31.6683 48.9155 31.8005C49.0792 31.9329 49.2131 32.1538 49.2131 32.2912C49.2131 32.4289 49.5142 32.9914 49.8819 33.5414C50.7673 34.8655 50.9734 35.1922 51.1209 35.506C51.1888 35.6507 51.4161 36.0058 51.626 36.2952C51.836 36.5846 52.1275 37.0558 52.2737 37.3424C52.4201 37.629 52.8119 38.2603 53.1442 38.7454C53.4767 39.2305 53.8205 39.7853 53.9081 39.9782C54.0892 40.3768 54.3519 40.7984 54.8913 41.5566C55.0972 41.846 55.5484 42.5968 55.894 43.2252C56.2395 43.8536 56.7793 44.7138 57.0934 45.1368C57.4076 45.56 57.6647 45.9785 57.6647 46.0669C57.6647 46.1553 57.867 46.4862 58.1143 46.8024C58.3615 47.1186 58.5638 47.4305 58.5638 47.4954C58.5638 47.5603 58.9684 48.2497 59.4629 49.0273C59.9574 49.805 60.362 50.4688 60.362 50.5024C60.362 50.5363 60.6733 51.0233 61.054 51.5847C61.4345 52.1463 62.0128 53.0762 62.3393 53.6512C62.87 54.5862 63.6342 55.8374 64.2742 56.819C64.3985 57.0096 64.5546 57.2839 64.6207 57.4286C64.6871 57.5733 64.7979 57.7311 64.8669 57.7793C64.9358 57.8276 65.1446 58.1433 65.3307 58.4809C65.5166 58.8185 66.3157 60.141 67.1064 61.4199C67.8971 62.6988 68.7178 64.0404 68.9302 64.4014C69.4099 65.2165 70.2833 65.5408 70.7564 65.0796C71.0387 64.8042 71.0641 63.4331 71.0972 46.5925L71.1328 28.4031L71.6206 27.4837C72.2948 26.2138 72.6456 25.9442 73.5979 25.9646C75.4348 26.0037 76.1176 27.7975 76.1618 32.6999C76.1888 35.6929 76.3672 38.1165 76.5695 38.2386C76.6554 38.2903 76.7257 38.4519 76.7257 38.5972C76.7257 38.8912 77.4035 39.8463 78.2436 40.7364C78.8739 41.404 81.097 42.5112 81.8695 42.5421C82.3051 42.5594 82.2579 42.5957 81.5809 42.7638C79.2598 43.3401 77.442 45.2277 76.5792 47.958C76.2798 48.9053 76.121 51.8257 76.1023 56.7271C76.093 59.1868 76.0205 61.5544 75.9412 61.9885C75.6596 63.5301 74.947 64.3563 73.6184 64.6815C72.7409 64.8963 73.0396 65.2637 74.1633 65.3518C74.7321 65.3963 81.3703 65.4274 88.9151 65.4205C100.657 65.4102 102.656 65.3719 102.793 65.1557C102.967 64.8807 103.027 60.7991 102.869 60.0155C102.761 59.4841 102.441 59.353 102.439 59.8401C102.437 60.7007 100.133 62.8457 99.1944 62.8608C99.0412 62.8633 98.8355 62.9436 98.7375 63.0392C98.5287 63.2428 97.2642 63.5178 95.5821 63.7255C94.9256 63.8065 94.284 63.9356 94.1567 64.0124C93.8415 64.2025 81.4153 64.2581 80.9026 64.0718L80.4941 63.9235L80.5689 57.3875C80.6721 48.3726 80.924 46.8407 82.4752 45.8008C82.9909 45.455 84.4117 45.4039 85.3584 45.6974C85.7039 45.8043 86.3507 45.9567 86.7957 46.0358C87.2408 46.1149 88.3332 46.3077 89.2233 46.4645C94.6097 47.4124 97.2027 46.6981 98.7466 43.8406C99.1617 43.0726 99.2201 42.7538 99.2332 41.1864C99.2503 39.1623 99.0619 38.6732 97.9872 37.9532C97.1937 37.4215 95.8472 36.909 95.2473 36.9103C95.0001 36.9108 94.566 37.0292 94.2827 37.1731C93.9994 37.3173 93.6151 37.4352 93.4286 37.4352C93.2421 37.4352 93.0895 37.5055 93.0895 37.5916C93.0895 37.6775 92.9073 37.7968 92.6849 37.8564C92.4624 37.9162 91.7077 38.4969 91.0079 39.1471C90.3082 39.797 89.3591 40.5112 88.8991 40.7339C88.4391 40.9566 88.0156 41.213 87.9581 41.3039C87.9005 41.3946 87.6317 41.4689 87.3605 41.4689C87.0894 41.4689 86.7666 41.5677 86.6429 41.6882C86.4972 41.8302 85.8626 41.9074 84.8396 41.9074C83.3959 41.9074 83.2061 41.8663 82.6145 41.4263C81.0109 40.2334 80.4604 37.5199 80.5306 31.1507C80.5673 27.8171 80.6322 26.8102 80.8224 26.6249C81.2999 26.1591 90.5585 26.3339 94.528 26.8834C97.5303 27.2992 100.258 28.8643 100.541 30.3338C100.655 30.9317 101.063 31.1667 101.222 30.7268C101.421 30.1767 101.38 25.6545 101.173 25.4119C100.988 25.1941 98.5281 25.1585 83.7017 25.1585C70.3158 25.1585 66.4621 25.2059 66.5182 25.37C66.5579 25.4863 66.9491 25.7657 67.3875 25.9909C68.3977 26.5102 68.6912 26.819 69.0578 27.7489C69.3225 28.4204 69.3531 29.9112 69.3531 42.1636C69.3531 51.1021 69.2907 55.867 69.1729 55.938C69.0738 55.9978 68.9104 55.8644 68.8097 55.6415C68.709 55.4187 68.3867 54.8812 68.0936 54.4471C67.8005 54.013 67.5038 53.5395 67.4342 53.3948C67.3648 53.2501 66.9751 52.6188 66.5684 51.9918C66.1616 51.3648 65.6419 50.4967 65.4134 50.0626C65.185 49.6285 64.9462 49.2339 64.8829 49.1857C64.7042 49.0496 64.3192 48.4298 64.2019 48.0896C64.1439 47.9208 64.0248 47.7826 63.9374 47.7826C63.8502 47.7826 63.7786 47.6909 63.7786 47.5788C63.7786 47.3975 62.77 45.7263 62.5258 45.5027C62.4731 45.4545 62.2698 45.0993 62.0739 44.7135C61.8781 44.3276 61.5852 43.8146 61.4228 43.5735C60.6515 42.4283 57.668 37.5902 57.2047 36.7336C56.9177 36.2031 56.4096 35.3744 56.0753 34.8921C55.7412 34.4098 55.3957 33.8574 55.308 33.6645C55.1379 33.2913 54.9167 32.9324 54.338 32.0904C53.9191 31.481 53.7689 31.2337 53.1956 30.2105C52.9629 29.7952 52.4274 28.9423 52.0054 28.3154C51.5834 27.6884 51.0926 26.8597 50.9148 26.4739C50.2779 25.0922 50.5237 25.1585 46.0384 25.1585C43.8284 25.1585 42.0203 25.2195 42.0203 25.2941C42.0203 25.3686 42.3186 25.5856 42.6831 25.7764C43.4768 26.1917 44.1782 26.8923 44.1782 27.2701C44.1782 27.4206 44.2499 27.6187 44.3377 27.7103C44.757 28.1486 44.8974 30.5318 44.8974 37.2088C44.8974 45.0607 44.9627 44.6879 43.607 44.5926L42.8295 44.5381L42.7194 43.0474C42.6006 41.4349 42.3075 39.4675 42.0403 38.4875C40.8306 34.0498 39.7141 31.9343 37.255 29.4206C36.4638 28.6118 35.4119 27.6994 34.9174 27.393C34.4229 27.0868 33.9778 26.7874 33.9284 26.728C33.7277 26.4865 30.9554 25.2893 30.0032 25.0329C28.2933 24.5726 25.3777 24.2085 24.7575 24.3779ZM114.668 25.4146C114.668 25.5584 114.963 25.7571 115.342 25.8679C116.675 26.258 117.218 27.0149 117.54 28.9292C117.821 30.5955 117.708 61.3636 117.418 62.5146C117.189 63.4212 116.035 64.562 115.255 64.6524C114.609 64.7274 114.544 65.0775 115.155 65.1964C115.431 65.25 121.896 65.3028 129.521 65.3135C140.744 65.3293 143.422 65.2893 143.58 65.1034C143.76 64.8916 143.84 63.3449 143.811 60.6293C143.8 59.654 143.759 59.5332 143.439 59.5332C143.185 59.5332 143.08 59.6501 143.08 59.9325C143.08 60.7191 141.797 62.1497 140.681 62.6064C140.27 62.7751 139.69 63.0101 139.393 63.1285C138.742 63.3889 137.28 63.6509 134.988 63.9184C132.983 64.1522 122.986 64.2697 122.553 64.0645C122.28 63.9352 122.255 62.5886 122.243 47.5203C122.235 38.3017 122.305 30.3447 122.402 29.3543C122.554 27.7927 122.639 27.5035 123.147 26.8138C123.514 26.3158 123.856 26.0354 124.099 26.0354C124.522 26.0354 125.277 25.5794 125.277 25.3239C125.277 25.2241 123.177 25.1585 119.973 25.1585C115.442 25.1585 114.668 25.1959 114.668 25.4146ZM129.094 25.3635C129.132 25.4763 129.479 25.675 129.865 25.8053C130.819 26.1273 131.351 26.6503 131.86 27.7671L132.29 28.7098L132.29 43.0253C132.29 56.5045 132.271 57.3905 131.959 58.1911C131.509 59.3462 130.933 59.9802 130.114 60.2192C129.43 60.4192 129.102 60.6907 129.305 60.8885C129.429 61.0106 139.683 60.9751 139.809 60.8522C139.969 60.6965 139.44 60.2347 139.102 60.2347C138.917 60.2347 138.461 59.967 138.09 59.64C136.865 58.5601 136.899 59.0588 136.94 42.7276C136.972 29.7626 137.009 28.0404 137.262 27.5514C137.703 26.6992 138.237 26.2153 139.166 25.8255C139.635 25.6289 139.974 25.3984 139.92 25.3134C139.762 25.0645 129.009 25.1145 129.094 25.3635ZM144.911 25.4596C144.946 25.6341 145.247 25.8381 145.626 25.9425C146.506 26.1854 146.928 26.5922 147.394 27.65C147.732 28.4162 147.807 29.0344 147.937 32.1536C148.105 36.1768 148.243 36.7122 149.485 38.1625C150.234 39.0367 151.771 40.0659 152.327 40.0659C152.445 40.0659 152.696 40.1758 152.884 40.3102C153.202 40.5368 153.142 40.5919 152.064 41.0692C151.211 41.4474 150.651 41.8602 149.959 42.6226C149.44 43.1938 149.015 43.7743 149.015 43.9127C149.014 44.0511 148.851 44.4934 148.651 44.8955C148.08 46.0455 147.931 48.0776 147.884 55.324C147.841 61.9781 147.834 62.0886 147.423 62.9308C146.893 64.0183 146.232 64.6192 145.565 64.6192C145.095 64.6192 144.688 65.0184 144.924 65.2483C145.041 65.363 154.348 65.4647 154.993 65.3584C155.669 65.2469 155.616 64.85 154.906 64.6978C154.111 64.5276 153.579 64.1602 153.178 63.505C152.473 62.3528 152.394 61.2161 152.492 53.5672C152.543 49.5657 152.639 45.9995 152.706 45.6423C152.773 45.285 153.093 44.6931 153.418 44.3269C154.002 43.6682 154.022 43.6612 155.332 43.6631C156.508 43.6647 157.311 43.8231 159.381 44.4613C159.693 44.5574 161.155 44.6535 162.631 44.6747C165.266 44.7128 165.332 44.7045 166.338 44.2087C167.671 43.5516 169.154 41.7141 169.154 40.7188C169.154 40.5399 169.241 40.2348 169.347 40.0406C169.657 39.4773 169.197 37.3708 168.585 36.5472C167.832 35.5335 166.878 35.1552 165.074 35.1552C164.252 35.1552 163.579 35.2255 163.579 35.3117C163.579 35.3976 163.373 35.5186 163.12 35.5803C162.868 35.6423 161.939 36.4004 161.056 37.2656C160.173 38.1306 159.38 38.8382 159.294 38.8382C159.207 38.8382 158.923 39.0306 158.663 39.2658C158.074 39.7988 156.083 40.0513 155.062 39.7228C154.414 39.5145 153.329 38.4373 153.329 38.0029C153.329 37.8768 153.217 37.5988 153.08 37.3852C152.641 36.7003 152.398 33.8337 152.461 30.0692L152.52 26.4739L158.185 26.4188C162.795 26.3741 164.167 26.417 165.557 26.6498C167.658 27.0012 169.67 27.4332 170.043 27.613C170.197 27.6868 170.69 27.9118 171.139 28.113C171.933 28.4686 172.341 28.8229 172.979 29.7137C173.248 30.0888 173.29 30.6122 173.29 33.5957C173.29 36.3138 173.346 37.1507 173.558 37.5467C173.706 37.8229 173.827 38.1781 173.828 38.3359C173.83 38.7672 174.201 39.384 175.068 40.3931C175.854 41.3085 177.019 41.9861 178.583 42.4376L179.314 42.6485L178.684 42.7817C177.065 43.1242 175.814 44.101 174.707 45.888C173.389 48.0159 173.312 48.5462 173.298 55.6748L173.285 61.9008L172.756 62.9187C172.149 64.0862 171.647 64.5478 170.817 64.702C170.243 64.8086 170.017 65.2171 170.457 65.3521C170.581 65.39 177.185 65.406 185.132 65.3874C195.697 65.363 199.637 65.3 199.787 65.1532C200.071 64.8763 200.071 59.9777 199.786 59.7001C199.631 59.5482 199.548 59.6433 199.452 60.0858C199.272 60.9146 198.593 61.7249 197.604 62.291C196.613 62.8589 195.144 63.3915 194.569 63.3915C194.347 63.3915 193.98 63.462 193.753 63.5482C192.761 63.9245 189.702 64.1322 184.259 64.193C180.818 64.2316 178.304 64.1909 178.145 64.0945C177.912 63.9528 177.876 62.9336 177.885 56.6001C177.895 49.8893 177.925 49.1683 178.245 48.0683C178.455 47.3454 178.813 46.6195 179.143 46.2459C179.625 45.7005 179.816 45.6149 180.712 45.5425C181.379 45.4885 182.043 45.5586 182.625 45.7444C183.116 45.9008 183.753 46.0288 184.041 46.0288C184.329 46.0288 184.799 46.1056 185.086 46.1996C185.868 46.4559 189.219 46.9057 190.347 46.9057C191.292 46.9057 191.685 46.8221 193.361 46.264C194.459 45.8983 196.124 44.0476 196.13 43.185C196.131 42.9646 196.249 42.4686 196.391 42.0828C196.728 41.172 196.729 40.4505 196.396 39.8267C196.248 39.5503 196.127 39.1921 196.127 39.0306C196.127 38.6672 194.759 37.5299 194.149 37.3864C193.902 37.3282 193.352 37.1796 192.927 37.0565C192.253 36.8608 192.036 36.8734 191.221 37.1558C190.049 37.5618 189.501 37.9275 187.848 39.4082C187.121 40.0592 186.408 40.592 186.264 40.592C186.119 40.592 185.736 40.7893 185.412 41.0305C185.087 41.2716 184.651 41.4689 184.442 41.4689C184.232 41.4689 183.834 41.5833 183.557 41.7231C182.887 42.0612 180.956 42.0422 180.198 41.6899C179.598 41.4105 178.505 40.1194 178.503 39.6865C178.503 39.5575 178.387 39.237 178.247 38.9741C177.883 38.2942 177.713 26.8383 178.062 26.5554C178.352 26.3209 187.336 26.3458 189.294 26.5866C190.035 26.6778 191.047 26.7974 191.541 26.8525C193.289 27.0467 196.091 28.1558 196.889 28.9692C197.151 29.2366 197.472 29.77 197.601 30.1544C197.739 30.5658 197.967 30.8782 198.154 30.9136C198.451 30.9692 198.47 30.7726 198.424 28.1098L198.375 25.2462L171.613 25.2018C146.365 25.1599 144.855 25.1745 144.911 25.4596ZM22.9593 25.8364C22.2175 26.0005 21.3679 26.2657 21.0711 26.426C20.7744 26.5861 20.1904 26.8992 19.7732 27.1217C18.7748 27.654 17.1136 29.2349 16.3992 30.3322C14.8619 32.6943 13.7057 35.7713 13.236 38.7505C13.1295 39.4257 13.0283 41.0042 13.0109 42.2581L12.9792 44.5381L25.1551 44.5832C36.6145 44.6256 37.3406 44.6102 37.4947 44.3201C37.7841 43.7754 37.2619 38.1674 36.815 37.0213C36.7109 36.754 36.6257 36.2801 36.6257 35.9681C36.6257 35.6561 36.5581 35.3257 36.4755 35.2341C36.393 35.1426 36.1837 34.6729 36.0101 34.1906C35.7246 33.3963 35.329 32.5794 34.4707 31.0131C34.0995 30.3356 32.9395 28.9178 32.2201 28.2624C29.8232 26.0789 26.1793 25.1243 22.9593 25.8364ZM163.672 35.8176C163.209 36.0789 162.17 36.9478 160.791 38.2277C159.431 39.4898 157.812 40.353 156.469 40.5326C156.028 40.5915 155.667 40.6915 155.667 40.7549C155.667 40.8183 156.132 41.0135 156.701 41.1887C157.27 41.3641 158.018 41.6085 158.364 41.7324C161.176 42.7375 164.875 42.8832 166.76 42.0631C167.693 41.6571 168.566 40.5201 168.706 39.5285C168.97 37.6523 168.412 36.5304 166.871 35.8427C165.92 35.4181 164.402 35.4064 163.672 35.8176ZM94.528 37.6105C94.3797 37.704 94.1047 37.7817 93.9172 37.7833C93.6257 37.7856 92.5798 38.5041 91.7903 39.2449C91.0528 39.9366 88.8446 41.4689 88.5851 41.4689C88.4165 41.4689 88.1777 41.5873 88.0545 41.732C87.9313 41.8767 87.643 41.9951 87.4138 41.9951C87.1843 41.9951 86.9468 42.074 86.8856 42.1705C86.8245 42.2669 86.4758 42.3471 86.1108 42.3485C85.2642 42.352 84.7503 42.6238 85.2723 42.792C85.4674 42.8548 85.9101 43.0063 86.2563 43.1286C86.6024 43.2508 87.3307 43.4507 87.8746 43.5728C88.4186 43.6949 88.9532 43.8638 89.0627 43.9478C89.4587 44.2524 91.0656 44.4951 93.2053 44.5735C95.2739 44.6495 95.4399 44.6296 96.3521 44.1993C98.1505 43.3508 98.7162 42.558 98.7385 40.8551C98.7572 39.4171 98.3422 38.6095 97.357 38.1674C95.6078 37.3824 95.0608 37.2747 94.528 37.6105ZM191.362 37.6802C190.376 38.0515 189.642 38.4992 188.943 39.1544C187.738 40.2837 187.36 40.592 187.177 40.592C187.08 40.592 186.906 40.7032 186.79 40.839C186.674 40.9747 186.321 41.2137 186.004 41.37C185.687 41.5261 185.306 41.7211 185.158 41.8032C184.652 42.0828 183.605 42.3458 182.987 42.3485C181.744 42.3539 181.857 42.6285 183.304 43.1186C184.076 43.3804 184.991 43.6663 185.338 43.7538C185.684 43.8415 186.493 44.0497 187.136 44.2164C188.384 44.5404 192.141 44.6365 193.16 44.3704C194.12 44.12 195.123 43.2236 195.668 42.1298C196.154 41.1534 196.169 41.0533 195.964 40.1587C195.845 39.6402 195.631 39.1215 195.488 39.0057C195.345 38.8899 195.227 38.7063 195.226 38.5976C195.225 38.4887 194.881 38.253 194.462 38.0736C194.042 37.8941 193.559 37.6772 193.387 37.5913C192.976 37.3855 192.034 37.4269 191.362 37.6802ZM13.0123 46.1426C12.8253 46.325 12.8736 49.3537 13.0763 50.1503C13.1745 50.5361 13.3043 51.3648 13.3647 51.9918C13.4252 52.6188 13.5453 53.2647 13.6316 53.4271C13.7177 53.5897 13.7911 53.9054 13.7943 54.1286C13.8004 54.5576 14.3734 56.3037 14.5712 56.4966C14.6352 56.559 14.6875 56.7292 14.6875 56.8744C14.6875 57.3763 16.1597 60.0219 16.8574 60.7738C17.2422 61.1886 17.579 61.5723 17.6058 61.6267C17.652 61.7203 18.6036 62.5392 19.5554 63.3042C19.9363 63.6104 20.6718 63.9578 21.9703 64.4454C24.4944 65.3932 28.0232 64.9833 30.4673 63.4584C31.8527 62.5941 32.9929 61.6567 33.4533 61.0036C34.5845 59.3986 35.1871 58.4539 35.1871 58.2853C35.1871 58.1815 35.3038 57.887 35.4462 57.631C36.1013 56.4547 36.7596 54.2347 37.1705 51.8164C37.4778 50.0084 37.7204 47.1702 37.6159 46.6069L37.5116 46.045L25.3236 46.0337C18.62 46.0276 13.0801 46.0765 13.0123 46.1426Z" clip-rule="evenodd" fill-rule="evenodd"></path>
</svg>
