<svg xmlns="http://www.w3.org/2000/svg" fill="none" viewBox="0 0 200 32" height="32" width="200">
<path fill="#949494" d="M0.00378526 29.9981C0.10788 29.5212 0.229008 29.0462 0.316069 28.5638C0.838435 25.66 1.35323 22.7562 1.86803 19.8525C2.00051 19.1057 2.11975 18.359 2.25412 17.6123C2.28819 17.4237 2.37714 17.2426 2.40743 17.0541C2.47935 16.6031 2.52098 16.1465 2.5948 15.6955C2.74242 14.7861 2.89383 13.8767 3.06795 12.9729C3.09256 12.849 3.23261 12.7252 3.34996 12.642C3.52029 12.5219 3.58086 12.3832 3.44648 12.2317C3.23829 11.9951 3.27804 11.7382 3.32724 11.4757C3.72091 9.35009 4.12972 7.22817 4.50825 5.10071C4.73536 3.83088 4.91705 2.55366 5.11957 1.28014C5.12524 1.25057 5.12903 1.21915 5.13471 1.18957C5.27665 0.487196 5.30315 0.47241 6.02614 0.644307C6.15673 0.675729 6.29678 0.672032 6.43116 0.688668C6.60717 0.709 6.78319 0.733028 6.9592 0.755209C7.03869 0.683123 7.13143 0.533405 7.25445 0.50568C7.66326 0.409565 8.2443 0.509377 8.373 0.620278C8.62093 0.570373 8.82912 0.496438 9.03542 0.49459C10.3281 0.4835 11.6208 0.487196 12.9134 0.490893C13.2087 0.490893 13.5796 0.39293 13.4945 0.949287C13.6572 0.86611 13.7556 0.816205 13.8749 0.757057C13.96 0.853172 14.049 0.952983 14.1417 1.06019C14.172 1.02137 14.1834 1.01398 14.1834 1.00659C14.1626 0.49459 14.1626 0.496438 14.7133 0.498287C15.5745 0.498287 16.4375 0.501983 17.2986 0.489045C17.6052 0.4835 17.7207 0.616582 17.7699 0.895684C18.033 2.3984 18.2847 3.90482 18.5913 5.40014C18.7541 6.19309 18.8052 6.99897 18.966 7.79007C19.1288 8.58302 19.2689 9.37966 19.4089 10.1763C20.0638 13.8989 20.7073 17.6215 21.3678 21.3441C21.7047 23.2405 22.0681 25.1314 22.4144 27.0241C22.5583 27.8097 22.6794 28.5989 22.827 29.3845C22.8554 29.5379 22.9633 29.6784 23.0579 29.878C22.8384 30.1793 23.0466 30.5452 23.1052 30.9094C23.1469 31.1644 23.1601 31.3567 22.8005 31.3585C22.7116 31.3585 22.5904 31.4583 22.5431 31.5434C22.4315 31.7448 22.2914 31.767 22.1438 31.6191C21.8201 31.2957 21.4908 31.2217 21.2164 31.4879C20.8644 31.4269 20.5956 31.3437 20.3269 31.3419C18.72 31.3345 17.1113 31.3456 15.5044 31.3493C15.0672 31.3493 15.0805 31.3437 15.0199 30.9334C14.8439 29.7486 14.6622 28.5656 14.4692 27.3827C14.4124 27.0389 14.3367 27.0241 14.0414 27.1942C13.9733 27.233 13.8597 27.22 13.7746 27.1997C13.6061 27.1627 13.4434 27.0592 13.2787 27.0611C12.0826 27.0796 10.8845 27.1202 9.68838 27.1443C9.41773 27.1498 9.14519 27.1387 8.87644 27.1073C8.67014 27.0833 8.5774 27.1646 8.54712 27.342C8.44681 27.9261 8.33136 28.5083 8.25944 29.0961C8.20266 29.5693 8.23673 30.0554 8.16292 30.5249C8.11939 30.8077 7.95851 31.0776 7.81656 31.3345C7.78439 31.3918 7.60648 31.3881 7.49671 31.3844C7.24688 31.377 6.99516 31.3363 6.74534 31.3363C4.63316 31.3326 2.52098 31.3363 0.408808 31.3382C0.272539 31.3382 0.136269 31.3474 0 31.353C0 30.902 0 30.451 0 30L0.00378526 29.9981ZM11.581 6.76793C11.5394 6.76793 11.4958 6.76608 11.4542 6.76423C11.4163 6.94722 11.3652 7.13021 11.3406 7.31504C11.2422 8.08581 11.1684 8.86027 11.0567 9.62919C10.8221 11.2594 10.559 12.886 10.3262 14.5181C10.1048 16.067 9.90981 17.6215 9.69405 19.1723C9.61835 19.7194 9.51425 20.2628 9.42341 20.8081C9.39313 20.9855 9.4007 21.1556 9.63349 21.1759C9.86628 21.1981 9.95334 21.3312 10.0063 21.5271C10.0272 21.6066 10.0839 21.6768 10.1407 21.7822C10.207 21.7045 10.2637 21.6713 10.2675 21.6324C10.3054 21.2387 10.576 21.2092 10.8997 21.211C11.6454 21.2166 12.3911 21.211 13.1367 21.1981C13.6099 21.1907 13.6345 21.1463 13.5664 20.6916C13.4225 19.7416 13.2787 18.7897 13.1481 17.8378C12.851 15.6678 12.5652 13.496 12.268 11.3278C12.0731 9.90829 11.8668 8.49245 11.6624 7.07475C11.6472 6.97125 11.6075 6.87143 11.581 6.76977V6.76793Z"></path>
<path fill="#949494" d="M111.838 1.12488C111.852 1.01398 111.867 0.92341 111.87 0.83284C111.882 0.579615 112.005 0.485348 112.274 0.490893C113.303 0.51677 114.333 0.531557 115.36 0.533406C116.485 0.533406 117.609 0.50568 118.733 0.50568C119.025 0.50568 119.314 0.568525 119.606 0.599947C119.689 0.609188 119.789 0.640611 119.852 0.60734C120.204 0.416959 120.569 0.527861 120.93 0.531557C121.296 0.535254 121.663 0.485348 122.028 0.501984C122.657 0.527861 123.287 0.568525 123.911 0.635066C125.753 0.830992 127.464 1.3892 128.942 2.49821C130.583 3.72922 131.641 5.3373 132.065 7.32798C132.354 8.68652 132.496 10.058 132.494 11.4461C132.489 14.7307 132.519 18.017 132.47 21.3016C132.449 22.7026 132.265 24.1111 131.794 25.4438C130.98 27.7487 129.44 29.4399 127.106 30.3789C125.395 31.0665 123.599 31.34 121.752 31.3363C118.589 31.3289 115.425 31.3308 112.262 31.34C111.95 31.34 111.869 31.2384 111.872 30.9519C111.895 29.2717 111.916 27.5916 111.912 25.9114C111.908 22.2221 111.888 18.5327 111.878 14.8453C111.867 10.6033 111.861 6.36314 111.853 2.12115C111.853 1.90674 111.835 1.70896 112.092 1.57588C112.285 1.47422 112.16 1.23948 111.836 1.12858L111.838 1.12488ZM120.17 10.3704C120.064 10.5515 119.901 10.7049 119.901 10.8547C119.907 11.631 119.956 12.4054 119.986 13.1817C119.992 13.313 119.99 13.4461 119.979 13.5773C119.956 13.8305 119.899 14.0837 119.897 14.337C119.891 16.7454 119.893 19.1519 119.893 21.5604C119.893 22.5954 119.891 23.6305 119.89 24.6638C119.89 24.9854 119.994 25.1221 120.308 25.1018C120.974 25.0575 121.657 25.0519 122.301 24.8985C123.234 24.6767 123.786 24.0187 124.017 23.113C124.265 22.1407 124.248 21.1482 124.254 20.1575C124.263 18.4255 124.267 16.6955 124.269 14.9636C124.273 12.9969 124.288 11.0321 124.082 9.07098C123.917 7.50357 122.306 6.41859 120.749 6.84001C120.622 6.87513 120.455 6.84186 120.327 6.79195C119.988 6.66257 119.901 6.72726 119.908 7.07845C119.926 7.9786 119.927 8.8806 119.926 9.78075C119.926 9.97853 119.893 10.1763 119.873 10.4C120.003 10.387 120.081 10.3778 120.168 10.3704H120.17ZM124.608 11.4406C124.542 11.5755 124.483 11.6476 124.475 11.7271C124.472 11.7659 124.559 11.814 124.604 11.8583C124.665 11.7955 124.75 11.74 124.773 11.6642C124.786 11.6236 124.693 11.5515 124.606 11.4406H124.608Z"></path>
<path fill="#949494" d="M40.7263 15.3962C40.8417 15.4812 40.8928 15.5348 40.9553 15.5644C42.2612 16.1873 42.8574 17.2815 43.0504 18.6197C43.1375 19.226 43.1564 19.8433 43.1867 20.4552C43.2207 21.1095 43.251 21.7656 43.2472 22.42C43.2435 23.4532 43.198 24.4864 43.1923 25.5197C43.1886 26.2535 43.2416 26.9891 43.2397 27.7248C43.2359 28.8301 43.2037 29.9354 43.1886 31.0389C43.1848 31.3679 42.9425 31.3512 42.7249 31.3512C42.0246 31.3494 41.3224 31.3328 40.6222 31.3291C39.8443 31.3254 39.0664 31.3217 38.2885 31.3291C37.4406 31.3365 36.5909 31.2736 35.7543 31.5102C35.3304 31.6303 35.143 31.427 35.1449 30.9428C35.1468 27.9392 35.1525 24.9374 35.1562 21.9338C35.1562 21.298 35.1562 20.6622 35.1487 20.0282C35.1411 19.1447 34.6736 18.6364 33.7689 18.5366C33.4888 18.5051 33.2049 18.4867 32.921 18.483C32.5122 18.4774 32.463 18.5292 32.463 18.921C32.463 20.4385 32.463 21.9542 32.463 23.4717C32.463 25.9004 32.4649 28.3292 32.4592 30.7579C32.4592 31.0167 32.4138 31.2755 32.3949 31.4695C32.0788 31.4178 31.8139 31.342 31.547 31.3383C30.5382 31.3217 29.5295 31.3143 28.5207 31.3346C27.9926 31.3457 27.4438 31.5361 26.9422 31.4437C26.4066 31.3439 25.8824 31.3531 25.3505 31.3309C25.1404 31.3217 24.9304 31.3254 24.7203 31.3346C24.5045 31.3457 24.4193 31.257 24.4193 31.0463C24.425 29.1295 24.425 27.2128 24.4269 25.296C24.4288 23.9486 24.4364 22.6011 24.4364 21.2555C24.4345 16.3056 24.4307 11.3557 24.4212 6.40577C24.4212 5.94368 24.5121 5.51486 24.7184 5.10082C24.7998 4.93817 24.8338 4.75148 24.8679 4.57219C24.919 4.30233 24.9739 4.02508 24.548 3.98626C24.4988 3.98257 24.4345 3.84948 24.4269 3.77185C24.4042 3.55744 24.4023 3.34303 24.4042 3.12677C24.408 2.40037 24.4231 1.67396 24.4212 0.947557C24.4212 0.69618 24.5348 0.563098 24.7771 0.522434C24.8793 0.503951 24.9852 0.491012 25.0893 0.491012C28.7156 0.491012 32.3419 0.468832 35.9663 0.505799C37.4028 0.520586 38.8204 0.698029 40.1906 1.22481C42.0189 1.92534 42.9823 3.23398 43.2416 5.06386C43.5519 7.25416 43.5482 9.45926 43.3608 11.657C43.2662 12.7567 42.9009 13.7863 42.0265 14.5626C41.788 14.7733 41.5003 14.9323 41.2316 15.1078C41.0858 15.2021 40.9288 15.2816 40.7263 15.3943V15.3962ZM32.4592 9.47035C32.4592 10.4648 32.4592 11.4573 32.4592 12.4518C32.4592 12.7937 32.5387 12.8732 32.8927 12.8492C33.3015 12.8214 33.7103 12.7863 34.1134 12.7235C34.6604 12.6384 35.0824 12.2004 35.143 11.6607C35.3001 10.2522 35.3474 8.84375 35.1619 7.43346C35.0711 6.74402 34.7153 6.35956 34.015 6.24126C33.644 6.17842 33.2655 6.14884 32.8889 6.12482C32.5236 6.10264 32.4611 6.16733 32.4592 6.51852C32.4574 7.50184 32.4592 8.48517 32.4592 9.4685V9.47035Z"></path>
<path fill="#949494" d="M161.815 0.906911C161.917 0.426337 162.218 0.507665 162.481 0.507665C164.383 0.503968 166.285 0.465152 168.183 0.51321C169.733 0.552025 171.295 0.587144 172.76 1.20635C174.45 1.92166 175.443 3.18224 175.746 4.92894C176.057 6.71631 175.928 8.52585 175.937 10.328C175.941 11.2226 175.894 12.108 175.591 12.9656C175.239 13.9619 174.614 14.7216 173.625 15.1726C173.539 15.2114 173.456 15.2557 173.377 15.3056C173.354 15.3204 173.344 15.3537 173.31 15.4092C173.413 15.4794 173.507 15.5533 173.613 15.6125C174.845 16.3148 175.483 17.3721 175.574 18.751C175.614 19.3646 175.653 19.9783 175.653 20.592C175.661 24.004 175.657 27.4161 175.657 30.83C175.657 31.1627 175.491 31.3291 175.158 31.3291C172.845 31.3291 170.534 31.3291 168.221 31.3291C168.106 31.3291 167.975 31.3513 167.879 31.3088C167.786 31.2662 167.668 31.1535 167.663 31.0666C167.638 30.6729 167.648 30.2755 167.648 29.88C167.648 26.6213 167.648 23.3626 167.648 20.104C167.648 19.0948 167.167 18.5994 166.128 18.5384C165.835 18.5218 165.541 18.507 165.248 18.4996C165.03 18.4941 164.9 18.6031 164.922 18.8194C165.079 20.3628 164.85 21.9043 164.9 23.4495C164.949 24.9855 164.911 26.5233 164.911 28.0612C164.911 29.0353 164.903 30.0075 164.917 30.9816C164.92 31.2478 164.835 31.3383 164.557 31.3365C162.14 31.3291 159.723 31.3309 157.306 31.342C157.022 31.342 156.915 31.2588 156.915 30.9742C156.924 26.7119 156.924 22.4477 156.928 18.1854C156.928 17.2631 156.928 16.3407 156.928 15.4184C156.928 11.8862 156.924 8.35396 156.932 4.82174C156.932 4.08609 156.983 3.35229 156.985 2.61664C156.986 2.02887 156.968 1.43924 156.928 0.85146C156.909 0.570509 157.013 0.485484 157.284 0.498423C157.776 0.5243 158.27 0.54648 158.764 0.544632C159.487 0.542783 160.212 0.515058 160.934 0.505816C161.256 0.50212 161.603 0.43373 161.818 0.910607L161.815 0.906911ZM164.903 9.45928C164.903 10.4112 164.901 11.3631 164.903 12.315C164.903 12.6551 165.04 12.8233 165.337 12.8473C165.944 12.8954 166.529 12.8067 167.082 12.5442C167.419 12.3834 167.623 12.1265 167.648 11.7549C167.674 11.3372 167.706 10.9176 167.712 10.4999C167.723 9.56833 167.733 8.63676 167.718 7.70518C167.703 6.781 167.248 6.31152 166.315 6.20801C166.045 6.17844 165.772 6.15256 165.501 6.13223C165.049 6.09711 164.905 6.22465 164.903 6.66271C164.9 7.59428 164.903 8.52585 164.903 9.45743V9.45928Z"></path>
<path fill="#949494" d="M79.9131 31.8409C79.6462 31.8853 79.3813 31.9315 79.1144 31.9758C79.0633 31.9851 79.0122 32.0017 78.9611 31.9999C78.505 31.9832 78.0489 31.9536 77.5927 31.9463C77.0931 31.9389 76.5896 31.9758 76.0919 31.9389C75.8648 31.9222 75.6547 31.7577 75.4257 31.7004C75.0301 31.6025 74.61 31.5784 74.2276 31.4472C73.6258 31.242 73.0258 31.0128 72.4618 30.7263C70.9912 29.9796 69.8216 28.8928 69.0078 27.4917C68.4211 26.4807 67.946 25.4086 67.8608 24.2164C67.8419 23.965 67.7321 23.7211 67.6678 23.4734C67.6318 23.3347 67.558 23.1869 67.5807 23.0556C67.6829 22.4808 67.5012 21.9226 67.4974 21.3552C67.4937 20.7822 67.3612 20.1962 67.4426 19.638C67.6148 18.4643 67.3498 17.3072 67.4047 16.1391C67.4596 14.9635 67.4123 13.7824 67.4274 12.6032C67.4388 11.7788 67.4728 10.9526 67.5145 10.1301C67.5239 9.94337 67.6091 9.76038 67.647 9.5737C67.6659 9.47758 67.6905 9.36668 67.6602 9.27796C67.5277 8.8972 67.6053 8.54416 67.7151 8.16894C67.8495 7.7087 67.8627 7.21519 68.0066 6.75864C68.2394 6.01745 68.5043 5.2818 68.8185 4.57018C68.9586 4.25411 69.2481 3.99904 69.4734 3.71994C69.7345 3.39463 69.9881 3.06007 70.2683 2.74955C70.5408 2.44827 70.8569 2.19874 71.2732 2.08968C71.3698 2.06566 71.4436 1.95475 71.5212 1.87527C71.7199 1.67565 71.8145 1.32816 72.2177 1.42797C72.2461 1.43536 72.2953 1.3984 72.3236 1.37067C72.8252 0.873463 73.4971 0.720049 74.1425 0.511184C74.3715 0.43725 74.5948 0.339286 74.8276 0.289381C75.0244 0.246868 75.2345 0.257959 75.4389 0.239475C75.738 0.21175 76.037 0.180327 76.336 0.145209C76.7411 0.0971512 77.1593 -0.0414759 77.5492 0.0121266C78.3176 0.117483 79.0766 -0.0285373 79.8431 0.039852C81.1717 0.158147 82.4379 0.442795 83.651 1.01394C84.6996 1.50745 85.6516 2.1322 86.4237 2.95472C87.2735 3.86041 87.8924 4.90659 88.3334 6.09693C88.7952 7.34273 88.729 8.6107 88.9201 9.86574C89.0053 10.4202 89.1605 10.9507 89.0148 11.5256C88.9523 11.7751 89.0961 12.0671 89.1094 12.3425C89.1226 12.5921 89.0886 12.8434 89.0678 13.0948C89.0583 13.2057 88.9921 13.3203 89.0072 13.4238C89.1321 14.2907 89.0034 15.1539 88.9939 16.0208C88.975 17.6584 89.011 19.2979 88.9864 20.9356C88.9731 21.7119 88.869 22.4863 88.8066 23.2627C88.7971 23.3846 88.763 23.5103 88.7782 23.6305C88.8785 24.4327 88.4754 25.1221 88.271 25.8559C88.2009 26.1091 88.1498 26.3698 88.0798 26.6248C88.0571 26.708 88.0173 26.7912 87.9662 26.8614C87.83 27.0463 87.6559 27.2089 87.5423 27.4067C86.9802 28.39 86.2137 29.1996 85.3071 29.8779C84.0996 30.7836 82.7502 31.3973 81.2342 31.6468C80.7951 31.7189 80.3673 31.8446 79.9339 31.9463C79.9264 31.913 79.9188 31.8797 79.9112 31.8464L79.9131 31.8409ZM78.1397 25.3864C78.1454 25.4123 78.153 25.44 78.1586 25.4659C78.5712 25.3716 79.0141 25.3421 79.3888 25.1702C80.1894 24.8042 80.5396 24.0648 80.6001 23.2719C80.7213 21.6712 80.7496 20.0631 80.7932 18.4569C80.8216 17.3738 80.8064 16.2869 80.8102 15.2038C80.8102 14.8988 80.8121 14.5957 80.8045 14.2907C80.7989 14.117 80.7572 13.9451 80.7591 13.7732C80.7686 12.9063 80.8178 12.0376 80.7932 11.1707C80.7686 10.3056 80.6796 9.44246 80.6077 8.57928C80.5017 7.31315 79.792 6.60153 78.5069 6.45921C77.0098 6.29286 75.8856 7.15419 75.7985 8.62179C75.7152 10.0487 75.7115 11.4812 75.6869 12.9118C75.666 14.1687 75.6471 15.4256 75.6641 16.6825C75.6944 18.8617 75.7304 21.0428 75.8061 23.222C75.8534 24.551 76.7808 25.3753 78.1397 25.3883V25.3864ZM81.3061 23.9687C81.2077 23.8615 81.1414 23.7894 81.0752 23.7174C80.9843 23.843 80.8613 23.9595 80.8159 24.1C80.7989 24.1536 80.9522 24.2626 81.026 24.3458C81.1111 24.2312 81.1963 24.1166 81.3061 23.9687Z"></path>
<path fill="#949494" d="M196.15 7.9159C196.06 8.02495 195.942 8.11922 195.889 8.24121C195.038 10.1358 194.199 12.0359 193.347 13.9305C193.198 14.265 193.198 14.5682 193.34 14.9046C194.332 17.252 195.314 19.6049 196.296 21.9579C197.477 24.784 198.656 27.6102 199.835 30.4382C199.868 30.514 199.898 30.5916 199.922 30.6692C200.097 31.1868 199.994 31.3254 199.444 31.3272C196.932 31.3328 194.419 31.3346 191.907 31.3494C191.583 31.3494 191.394 31.2662 191.273 30.9446C190.442 28.7562 189.592 26.5714 188.745 24.3885C188.01 22.5013 187.268 20.6178 186.528 18.7344C186.507 18.6808 186.471 18.6345 186.356 18.5791C186.333 18.7362 186.288 18.8952 186.288 19.0523C186.284 21.7065 186.284 24.3626 186.284 27.0169C186.284 28.2774 186.284 29.538 186.284 30.7986C186.284 31.3106 186.267 31.3198 185.728 31.3272C184.573 31.3439 183.419 31.3808 182.264 31.3808C181.004 31.3808 179.743 31.3476 178.483 31.3328C178.305 31.3309 178.235 31.2552 178.24 31.0906C178.261 30.5177 178.29 29.9447 178.295 29.3717C178.297 29.1129 178.231 28.8523 178.229 28.5917C178.223 27.771 178.239 26.9522 178.239 26.1315C178.239 21.5494 178.239 16.9673 178.239 12.3852C178.239 9.4944 178.235 6.60541 178.242 3.71457C178.242 3.25433 178.301 2.79409 178.301 2.33385C178.301 1.87361 178.259 1.41521 178.242 0.954972C178.227 0.542787 178.275 0.489185 178.697 0.489185C180.599 0.487337 182.501 0.487337 184.405 0.489185C184.908 0.489185 185.41 0.515062 185.913 0.500275C186.246 0.489185 186.29 0.655538 186.288 0.919853C186.282 3.04177 186.284 5.16369 186.284 7.28561C186.284 8.10443 186.284 8.92141 186.284 9.74023C186.284 9.81232 186.271 9.89919 186.305 9.95094C186.371 10.0471 186.456 10.145 186.559 10.1912C186.593 10.206 186.736 10.0766 186.771 9.98976C187.176 8.96762 187.558 7.93623 187.969 6.91778C188.775 4.91786 189.602 2.92532 190.406 0.925398C190.539 0.59639 190.741 0.470701 191.101 0.492882C191.758 0.535394 192.416 0.564968 193.075 0.56312C193.997 0.561271 194.92 0.51691 195.842 0.503972C196.828 0.491033 197.814 0.49473 198.8 0.496579C199.19 0.496579 199.207 0.524304 199.056 0.886583C198.685 1.76825 198.302 2.64437 197.937 3.52789C197.738 4.01031 197.585 4.50937 197.375 4.9881C197 5.84389 196.595 6.68489 196.213 7.53883C196.16 7.65898 196.166 7.80315 196.149 7.91775L196.15 7.9159Z"></path>
<path fill="#949494" d="M154.66 21.8913C154.251 22.176 154.232 22.4662 154.296 22.8229C154.764 25.3921 155.22 27.9632 155.659 30.538C155.807 31.4012 155.903 31.3235 155 31.3272C154.518 31.3272 154.033 31.3309 153.551 31.3328C153.322 31.3328 153.092 31.2995 152.924 31.5287C152.888 31.5768 152.701 31.5287 152.587 31.5084C152.379 31.4751 152.173 31.4049 151.964 31.3975C151.482 31.379 150.997 31.3975 150.515 31.3882C149.695 31.3734 148.878 31.342 148.058 31.3328C147.787 31.3291 147.674 31.2441 147.64 30.9649C147.496 29.7968 147.318 28.6323 147.169 27.4642C147.129 27.1536 146.97 27.0501 146.667 27.0501C145.017 27.0538 143.366 27.0483 141.718 27.0501C141.307 27.0501 141.254 27.1056 141.19 27.4974C141 28.6693 140.806 29.8411 140.624 31.0149C140.588 31.2514 140.488 31.3457 140.236 31.3439C137.787 31.3346 135.338 31.3383 132.891 31.3346C132.535 31.3346 132.506 31.294 132.565 30.9594C132.894 29.0408 133.22 27.1222 133.555 25.2055C133.585 25.0299 133.68 24.8654 133.742 24.6935C133.767 24.6269 133.807 24.5548 133.799 24.4901C133.687 23.6473 133.99 22.8525 134.119 22.0411C134.429 20.0781 134.778 18.1225 135.13 16.167C135.408 14.6254 135.724 13.0894 136.012 11.5479C136.129 10.9139 136.216 10.2744 136.316 9.63671C136.326 9.57571 136.324 9.51287 136.343 9.45372C136.685 8.38722 136.682 7.26341 136.926 6.18028C137.168 5.10083 137.346 4.00845 137.545 2.91977C137.669 2.23587 137.789 1.54828 137.9 0.862541C137.942 0.60377 138.08 0.496565 138.349 0.500262C139.944 0.520594 141.542 0.537229 143.137 0.546471C143.44 0.546471 143.745 0.496565 144.048 0.496565C145.971 0.494717 147.893 0.496566 149.816 0.502111C150.301 0.502111 150.352 0.535381 150.437 1.00486C150.808 3.09351 151.168 5.18216 151.541 7.27081C151.8 8.72362 152.086 10.1709 152.341 11.6237C152.67 13.4998 152.979 15.3796 153.301 17.2575C153.52 18.5403 153.755 19.8193 153.959 21.1021C154.02 21.4866 154.156 21.7804 154.661 21.8987L154.66 21.8913ZM144.186 6.96953C144.148 6.96953 144.112 6.96953 144.074 6.96953C144.038 7.07858 143.983 7.18394 143.968 7.29669C143.904 7.81423 143.864 8.33546 143.794 8.85301C143.671 9.755 143.533 10.6552 143.402 11.5553C143.37 11.7827 143.364 11.9971 143.571 12.1745C143.629 12.2244 143.646 12.3723 143.62 12.4536C143.55 12.6662 143.438 12.8658 143.355 13.0728C143.258 13.3149 143.126 13.5534 143.09 13.8048C142.95 14.7548 142.857 15.7104 142.719 16.6605C142.596 17.5089 142.435 18.3536 142.297 19.2001C142.257 19.4497 142.153 19.7269 142.59 19.8914C142.013 20.0707 142.089 20.5069 142.038 20.8784C142.024 20.9709 142.127 21.1649 142.17 21.1649C142.429 21.1575 142.675 21.542 142.946 21.2019C142.959 21.1853 143.037 21.1908 143.06 21.2111C143.327 21.4644 143.627 21.3239 143.923 21.298C144.519 21.2481 145.115 21.0004 145.715 21.2888C145.759 21.3091 145.836 21.2758 145.895 21.2574C146.27 21.1409 146.217 20.8526 146.179 20.5735C145.842 18.1207 145.505 15.6679 145.164 13.217C145.032 12.2651 144.892 11.3132 144.755 10.3613C144.61 9.33912 144.47 8.31513 144.318 7.29299C144.301 7.18024 144.233 7.07488 144.188 6.96768L144.186 6.96953Z"></path>
<path fill="#949494" d="M102.301 0.588779C102.468 0.570295 102.632 0.544418 102.799 0.537025C103.06 0.524086 103.323 0.525934 103.584 0.512996C103.779 0.501906 103.918 0.54257 103.921 0.769918C103.94 1.90481 103.974 3.03971 103.98 4.17275C103.984 4.93982 103.944 5.70689 103.929 6.47396C103.921 6.89169 103.902 6.90648 103.488 6.91941C102.975 6.93605 102.462 6.9915 101.949 6.98411C101.111 6.97302 100.272 6.9379 99.4339 6.88799C98.9664 6.86027 98.8661 6.92126 98.8661 7.37966C98.8661 8.82507 98.8756 10.2705 98.8718 11.7159C98.8718 11.9932 98.9418 12.1318 99.2617 12.117C99.8806 12.0856 100.499 12.0856 101.118 12.0708C101.151 12.0708 101.185 12.0579 101.213 12.0671C101.936 12.2981 102.663 11.9839 103.393 12.0856C103.706 12.1299 103.857 12.2187 103.855 12.5273C103.851 13.1706 103.855 13.8138 103.853 14.457C103.853 15.6049 103.853 16.7527 103.853 17.9005C103.853 18.3238 103.817 18.3608 103.39 18.3571C102.025 18.3423 100.66 18.3238 99.2957 18.3053C98.9418 18.2998 98.8623 18.3478 98.8585 18.7064C98.8434 20.0797 98.8415 21.4531 98.8434 22.8264C98.8453 24.1794 98.8623 25.5324 98.8661 26.8854C98.8699 28.1257 98.8661 29.3659 98.8661 30.6062C98.8661 30.7392 98.8585 30.8723 98.8529 31.0054C98.8415 31.242 98.7261 31.3381 98.4706 31.3381C96.0423 31.3307 93.6141 31.3307 91.1858 31.3381C90.9038 31.3381 90.8243 31.2346 90.8243 30.9758C90.83 26.9076 90.8281 22.8375 90.8281 18.7693C90.8281 16.2703 90.8243 13.7731 90.8319 11.2742C90.8319 11.0024 90.8981 10.7307 90.9341 10.459C90.9398 10.4184 90.9549 10.3777 90.953 10.3389C90.9095 9.39992 90.8508 8.46095 90.8243 7.52198C90.8054 6.87875 90.8262 6.23182 90.8357 5.58859C90.8357 5.50912 90.8432 5.41115 90.8887 5.35385C91.0344 5.17271 91.0022 5.00082 90.9208 4.80674C90.8716 4.68659 90.8432 4.54982 90.8432 4.42043C90.8338 3.23194 90.8395 2.04344 90.8262 0.853094C90.8224 0.566598 90.9379 0.477877 91.2199 0.488967C92.0034 0.522238 92.7889 0.555508 93.5724 0.55366C94.5244 0.551812 95.4764 0.498209 96.4284 0.492664C98.1185 0.483422 99.8105 0.488967 101.503 0.501906C101.764 0.503754 102.025 0.579537 102.286 0.620201C102.292 0.610959 102.297 0.599869 102.303 0.590627L102.301 0.588779Z"></path>
<path fill="#949494" d="M55.2137 0.906713C55.4143 0.472348 55.4143 0.501922 55.931 0.525951C56.4742 0.551828 57.0212 0.501922 57.5681 0.50377C58.3346 0.507467 59.1012 0.518557 59.8677 0.542586C60.2576 0.555524 60.2784 0.598037 60.2746 0.991737C60.2708 1.59615 60.2689 2.20057 60.2708 2.80498C60.2746 4.0212 60.2822 5.23927 60.2859 6.45549C60.2859 6.87322 60.2443 6.91204 59.8147 6.91204C58.9535 6.91389 58.0905 6.91204 57.2293 6.91573C56.6483 6.91758 56.5612 7.01739 56.5669 7.57929C56.5726 8.29461 56.5612 9.00993 56.5612 9.72709C56.5612 10.2372 56.565 10.7474 56.5612 11.2575C56.5499 12.8712 56.5272 14.4848 56.5272 16.0984C56.5272 17.4884 56.5669 18.8783 56.565 20.2683C56.5594 23.5066 56.5348 26.7449 56.5291 29.9833C56.5291 30.316 56.5877 30.6542 56.654 30.9832C56.6994 31.2032 56.6199 31.3104 56.4193 31.3252C56.0124 31.3548 55.6036 31.3769 55.1948 31.3751C54.4812 31.3751 53.7677 31.3455 53.0542 31.34C51.6991 31.3289 50.3421 31.3289 48.9869 31.3159C48.8753 31.3159 48.7655 31.2457 48.6538 31.2069C48.7012 31.0831 48.7409 30.9574 48.7958 30.8372C48.8885 30.6394 48.9907 30.4454 49.0778 30.2735C49.0172 30.2088 49.004 30.1829 48.9888 30.1811C48.4911 30.0979 48.4854 30.0979 48.5062 29.5748C48.5346 28.8909 48.5857 28.207 48.6008 27.5231C48.6065 27.2403 48.5119 26.9557 48.5119 26.671C48.5062 23.0316 48.5081 19.394 48.5157 15.7546C48.5176 14.7103 48.5611 13.6678 48.5592 12.6235C48.5554 10.8509 48.5289 9.07832 48.5176 7.30574C48.5157 7.01924 48.3851 6.90464 48.0917 6.90649C47.1151 6.91389 46.1366 6.91019 45.16 6.90834C44.7607 6.90834 44.7285 6.87877 44.7285 6.48691C44.7285 4.63116 44.7285 2.77725 44.7285 0.9215C44.7285 0.501922 44.7512 0.48159 45.1733 0.48159C46.1726 0.48159 47.17 0.485287 48.1693 0.487135C49.1951 0.488983 50.2209 0.487135 51.2467 0.494528C51.5363 0.496377 51.8335 0.476045 52.0795 0.697848C52.1325 0.744057 52.2877 0.690455 52.3937 0.668274C52.6454 0.614672 52.8933 0.518557 53.1469 0.501922C53.6182 0.472348 54.0933 0.49268 54.5645 0.479742C54.8314 0.472348 55.0471 0.511164 55.0945 0.817992C55.0964 0.836475 55.1153 0.854959 55.1323 0.866049C55.1474 0.877139 55.1702 0.880836 55.2156 0.899319L55.2137 0.906713Z"></path>
</svg>
