<svg xmlns="http://www.w3.org/2000/svg" fill="none" viewBox="0 0 200 76" height="76" width="200">
<path fill="#949494" d="M91.1968 1.52253C88.7216 3.29775 87.2034 3.81643 86.8812 2.99682C86.766 2.70375 86.5272 2.46386 86.3503 2.46386C85.8551 2.46386 84.4546 3.74718 84.4546 4.20124C84.4546 4.42364 84.3201 4.60569 84.1559 4.60569C83.9913 4.60569 83.5953 5.77013 83.2753 7.19373C81.994 12.8928 81.7896 14.8283 82.0726 18.5765C82.5466 24.8563 82.2551 31.7316 81.4744 32.6797C81.2894 32.9046 80.9855 36.3583 80.7994 40.3546C80.433 48.2244 80.3675 48.5839 78.6478 52.1721L77.4926 54.5817H75.8716C73.9427 54.5817 72.404 53.9724 72.3455 53.1856C72.2745 52.231 72.4493 51.2001 72.7141 51.012C73.4417 50.4951 73.9142 47.3323 74.1011 41.7307C74.2155 38.2949 74.4258 35.3231 74.568 35.1268C74.7106 34.9304 75.122 33.8281 75.4826 32.6772C76.2256 30.3048 76.1477 24.3341 75.3549 22.888C74.4236 21.1892 75.337 7.47396 76.4702 6.14102C77.0443 5.46599 76.5752 5.11937 74.3987 4.61033C69.9441 3.56833 67.9995 3.85641 67.9995 5.55845C67.9995 6.01609 67.8565 6.39055 67.6814 6.39055C66.875 6.39055 66.5225 15.3652 66.9178 25.8455C67.0301 28.8212 66.7529 30.9198 65.4091 37.2686C64.5863 41.1556 64.5867 41.9902 65.4138 42.8566C65.872 43.3367 66.0914 43.8929 65.9503 44.217C65.819 44.5183 65.6384 45.1666 65.5488 45.6574C65.3257 46.8818 63.5983 50.298 63.2023 50.298C63.0249 50.298 62.8801 50.4862 62.8801 50.7161C62.8801 50.9459 62.5923 51.445 62.2402 51.8252C61.7388 52.366 61.6025 53.146 61.6101 55.4227C61.6189 58.06 61.737 58.537 62.8827 60.561C63.5774 61.7882 64.2726 62.7921 64.4273 62.7921C64.5819 62.7921 64.7085 62.9473 64.7085 63.1369C64.7085 63.4464 66.1093 65.1256 67.6627 66.6773C68.7656 67.7797 70.2012 68.8606 70.5621 68.8606C70.7614 68.8606 70.9248 69.0212 70.9248 69.2175C70.9248 69.4139 71.2539 69.5745 71.6562 69.5745C72.0584 69.5745 72.3875 69.7123 72.3875 69.8812C72.3875 70.0496 73.6125 70.392 75.1096 70.6419C77.2762 71.0038 78.7875 71.0095 82.5144 70.6693C85.0898 70.4344 87.3112 70.1321 87.4506 69.9975C88.1435 69.3282 88.6265 65.9131 88.8726 59.9363C89.0226 56.3041 89.3305 52.2078 89.5575 50.8335C89.7843 49.4592 90.0969 44.881 90.2523 40.6598C90.4326 35.755 90.6973 32.6926 90.9855 32.1746C91.3146 31.5824 91.4148 28.9836 91.357 22.5364C91.3014 16.3418 91.4056 13.4757 91.7058 12.9288C91.941 12.4998 92.1329 10.8934 92.1319 9.35912C92.1304 6.47658 93.1583 0.679004 93.6713 0.679004C93.8311 0.679004 93.962 0.518367 93.962 0.322033C93.962 -0.306594 93.4168 -0.0699195 91.1968 1.52253ZM95.3797 1.85665C95.0536 2.09904 94.6634 3.01788 94.5127 3.89782C94.0421 6.65007 94.1504 15.6604 94.708 20.134C95.0444 22.8327 95.2024 26.729 95.1347 30.6646C95.0675 34.5963 95.1889 37.5991 95.4627 38.7668C95.8266 40.3175 95.7926 41.1667 95.2561 43.9429C94.9029 45.7695 94.4674 47.6329 94.2882 48.0838C94.1087 48.5346 93.962 49.3781 93.962 49.9579C93.962 50.5376 93.8304 51.012 93.6691 51.012C93.5079 51.012 93.151 52.2489 92.876 53.7607C92.4767 55.9546 92.4621 57.0009 92.8032 58.9435C93.0384 60.2822 93.2307 61.8243 93.2307 62.3705C93.2307 62.9163 93.3792 63.516 93.5609 63.7023C93.7426 63.889 93.9799 64.7643 94.0882 65.6478C94.1968 66.5313 94.3975 68.1777 94.5347 69.3068L94.784 71.3594L97.3898 71.3554C98.8229 71.3533 100.803 71.1124 101.791 70.82C102.778 70.5276 104.373 70.2885 105.334 70.2885C106.296 70.2885 107.185 70.1278 107.309 69.9315C107.433 69.7351 108.183 69.5745 108.976 69.5745C109.769 69.5745 110.417 69.4378 110.417 69.2711C110.417 69.104 111.884 68.8659 113.677 68.7417C117.746 68.4597 119.925 67.6012 119.925 66.28C119.925 66.0109 120.102 65.6171 120.32 65.4051C120.575 65.1559 120.64 63.9636 120.503 62.0317C120.387 60.3886 120.148 56.2327 119.972 52.7968C119.674 46.9925 119.08 43.5156 118.386 43.5156C118.227 43.5156 118.096 43.0658 118.096 42.5161C118.096 41.9663 117.918 41.3424 117.7 41.1296C117.432 40.8683 117.377 39.253 117.529 36.1498C117.943 27.7132 117.924 27.3873 116.646 21.2049C116.402 20.0269 116.065 18.7418 115.895 18.3491C115.579 17.6166 115.467 17.0783 114.672 12.4591C114.18 9.60079 113.845 8.62948 113.097 7.89019C112.839 7.63495 112.5 7.22515 112.345 6.97955C111.912 6.29416 109.826 4.96266 109.185 4.96266C108.381 4.96266 105.443 3.95922 103.31 2.95577C102.316 2.48885 101.215 2.10689 100.863 2.10689C100.51 2.10689 100.12 1.94625 99.9956 1.74992C99.6756 1.24445 96.0921 1.32726 95.3797 1.85665ZM35.272 3.05929C34.8698 3.14461 34.2116 3.34808 33.8094 3.51122C28.5492 5.64448 23.8456 6.16815 19.018 5.15793C16.4397 4.61854 16.0093 4.80167 15.4889 6.65828C15.365 7.10021 15.1171 7.46146 14.9379 7.46146C14.7583 7.46146 14.6117 7.76953 14.6117 8.14578C14.6117 8.52203 14.4713 8.88328 14.3001 8.94897C13.9092 9.09818 12.4232 13.1759 11.9803 15.3148C11.7975 16.1983 11.5009 18.2063 11.3218 19.777C10.6526 25.6381 10.1527 29.0793 9.86969 29.7722C9.70953 30.1649 9.13908 31.8515 8.60191 33.5204C8.06511 35.1892 7.47602 36.8759 7.29318 37.2686C7.10998 37.6613 6.78929 38.9374 6.58012 40.1044C6.18813 42.2912 4.39927 46.1832 3.2156 47.4234C2.84664 47.81 2.54459 48.374 2.54459 48.6767C2.54459 48.9794 2.41624 49.2271 2.25901 49.2271C1.98512 49.2271 1.55217 50.1003 0.488433 52.7968C-0.0721389 54.2187 -0.174527 57.7138 0.308523 58.9378C0.486604 59.3887 0.92102 60.9626 1.27389 62.4351C1.62676 63.9076 2.05716 65.2648 2.23012 65.4515C2.40308 65.6378 2.54459 66.2308 2.54459 66.7691C2.54459 67.3074 2.70915 67.8468 2.91026 67.9681C3.11138 68.0895 3.27593 68.4857 3.27593 68.8484C3.27593 69.6159 4.13818 69.7391 13.149 70.2603C16.2664 70.4405 20.5633 70.7043 22.6978 70.8464C24.8322 70.9881 26.9819 71.0056 27.4752 70.8846C28.6081 70.6072 29.9227 69.5038 30.5684 68.2891C31.0837 67.3195 30.9304 66.5395 29.5932 63.3275C29.3482 62.7385 29.0238 61.9353 28.8728 61.5427C28.7218 61.15 28.4161 60.3857 28.1934 59.8442C27.4306 57.9879 27.0448 54.4514 27.3842 52.4177C27.5641 51.3368 28.2084 49.3938 28.8158 48.0998C29.4228 46.8054 30.0225 45.2044 30.1483 44.5419C30.3691 43.3767 30.3172 43.3107 28.5675 42.5339C27.5721 42.092 26.5757 41.7307 26.3526 41.7307C26.1299 41.7307 25.9475 41.5701 25.9475 41.3738C25.9475 41.1774 25.7105 41.0168 25.4205 41.0168C25.1306 41.0168 24.8011 40.8708 24.6881 40.6919C24.3725 40.1936 24.8665 39.2319 25.4381 39.2319C25.7182 39.2319 25.9475 39.0713 25.9475 38.875C25.9475 38.6786 26.2766 38.518 26.6788 38.518C27.081 38.518 27.4101 38.3748 27.4101 38.1996C27.4101 38.0247 27.8215 37.7805 28.3243 37.6573C28.8271 37.5342 29.2385 37.2757 29.2385 37.0833C29.2385 36.8905 29.5745 36.7331 29.9852 36.7331C30.3958 36.7331 30.9308 36.5707 31.1736 36.3722C31.4164 36.1738 32.0677 35.6801 32.6209 35.2756C33.1742 34.8708 33.6265 34.2568 33.6265 33.9109C33.6265 33.5654 33.7443 33.1677 33.888 33.0271C34.804 32.1328 35.5368 26.659 36.1635 16.0288C36.323 13.3237 36.7289 10.2701 37.0891 9.06783C37.4419 7.88983 37.8087 6.10497 37.9034 5.10153C38.0625 3.42447 38.0072 3.25883 37.2229 3.05358C36.7534 2.93114 36.2868 2.84689 36.1862 2.86724C36.0857 2.88723 35.6743 2.97362 35.272 3.05929ZM175.506 4.17269C174.4 4.70529 173.44 5.2618 173.373 5.40888C173.306 5.55595 172.936 5.67661 172.551 5.67661C172.165 5.67661 171.85 5.83724 171.85 6.03358C171.85 6.22991 171.442 6.39055 170.942 6.39055C170.284 6.39055 169.973 6.14995 169.81 5.51276C169.361 3.76859 168.697 3.69863 167.142 5.23182C164.65 7.68921 163.805 9.31879 163.805 11.6666C163.805 12.8093 163.936 13.8969 164.096 14.0833C164.255 14.2696 164.686 15.3862 165.052 16.5642C165.419 17.7422 165.857 19.0273 166.027 19.42C166.197 19.8127 166.602 21.0175 166.926 22.0973C167.249 23.1771 167.667 24.3394 167.854 24.6803C168.04 25.0212 168.193 25.6945 168.193 26.1764C168.193 26.6583 168.358 27.152 168.559 27.2734C168.76 27.3948 168.924 27.8859 168.924 28.3654C168.924 28.8448 168.76 29.2367 168.559 29.2367C168.358 29.2367 168.193 29.4538 168.193 29.719C168.193 29.9842 167.782 30.9566 167.279 31.8797C166.776 32.8029 166.365 33.8613 166.365 34.2322C166.365 34.6027 166.2 35.0054 165.999 35.1268C165.563 35.3898 165.511 37.1622 165.925 37.6434C166.086 37.8297 166.522 38.866 166.893 39.9459C167.266 41.0257 167.689 42.0699 167.835 42.2662C168.635 43.3428 169.709 47.2652 169.529 48.4557C169.159 50.9024 168.875 52.2603 168.583 52.9753C167.692 55.1539 167.462 57.722 167.462 65.4743V73.8582H171.045C173.016 73.8582 174.785 74.0045 174.976 74.1837C175.167 74.3629 176.277 74.5635 177.443 74.6299C179.439 74.7435 179.576 74.6992 179.809 73.8582C180.157 72.6031 180.125 67.467 179.746 63.8051C179.403 60.4914 179.607 59.1556 180.345 59.8767C180.58 60.1058 181.305 60.2933 181.957 60.2933C182.609 60.2933 183.232 60.4353 183.342 60.6092C183.452 60.7827 184.31 61.0372 185.249 61.1746C187.29 61.4734 187.939 62.0224 187.939 63.4507C187.939 64.0375 188.062 64.5708 188.213 64.6365C188.545 64.7804 189.775 69.4378 189.77 70.5351C189.769 70.9653 189.932 71.4165 190.133 71.5379C190.334 71.6592 190.499 72.4546 190.499 73.3056C190.499 74.907 191.295 75.7223 192.096 74.9409C192.553 74.4943 195.334 74.4493 195.819 74.8805C196.113 75.1411 199.169 76 199.803 76C200.119 76 200.043 74.0317 199.663 72.346C199.004 69.4282 197.744 62.9602 197.558 61.5427C197.456 60.7573 197.224 59.962 197.044 59.7756C196.863 59.5889 196.714 58.5448 196.713 57.4553C196.71 54.7791 195.751 48.7267 195.172 47.7357C194.715 46.9525 194.445 46.5898 193.516 45.5064C193.264 45.2133 193.059 44.806 193.059 44.6015C193.059 44.3969 192.929 44.2295 192.772 44.2295C192.614 44.2295 192.176 43.7194 191.799 43.0958C191.421 42.4722 190.859 41.6722 190.548 41.3181C189.501 40.124 188.702 35.7457 188.686 31.1108C188.676 28.4435 188.528 26.7379 188.305 26.7379C188.104 26.7379 187.939 26.5066 187.939 26.2242C187.939 25.9415 187.364 24.6164 186.661 23.2792C185.958 21.942 185.382 20.6473 185.381 20.4017C185.38 20.1564 185.251 19.9555 185.094 19.9555C184.937 19.9555 184.49 19.1523 184.1 18.1706C183.709 17.1889 183.262 16.3858 183.105 16.3858C182.948 16.3858 182.82 16.0645 182.82 15.6718C182.82 15.2791 182.655 14.9579 182.454 14.9579C182.253 14.9579 182.088 14.7815 182.088 14.5656C182.088 14.3499 181.825 13.5867 181.503 12.8699C181.18 12.1531 180.769 11.2054 180.588 10.7634C180.408 10.3215 180.098 9.59901 179.901 9.15708C179.546 8.36175 178.919 6.05535 178.543 4.15948C178.304 2.95327 178.037 2.95434 175.506 4.17269ZM153.749 4.33475C153.24 4.63817 151.126 4.75776 146.809 4.72742C140.891 4.68601 140.57 4.71957 139.926 5.44814C139.554 5.8683 138.75 6.75002 138.139 7.40756C135.23 10.5375 134.543 13.4083 136.197 15.5251C136.7 16.1687 137.111 16.8666 137.111 17.0758C137.111 17.2853 137.255 17.4567 137.432 17.4567C137.609 17.4567 137.961 17.9457 138.215 18.5436C138.69 19.6628 138.588 22.0338 137.785 28.5228C137.285 32.5705 137.277 37.6106 137.768 39.5889C138.78 43.6648 139.142 44.9039 139.397 45.152C139.548 45.299 139.671 46.0276 139.671 46.7712C139.671 47.5144 139.867 48.5435 140.107 49.0583C140.446 49.7837 140.446 50.1474 140.107 50.6768C139.867 51.052 139.671 51.6827 139.671 52.0779C139.671 52.4734 139.497 52.7968 139.285 52.7968C139.027 52.7968 138.951 54.3532 139.056 57.5267C139.21 62.197 139.437 64.0743 140.017 65.4693C141.388 68.7649 141.844 69.5624 143.035 70.7475C143.782 71.4911 145.31 72.4949 146.431 72.9786C148.279 73.7764 148.942 73.8582 153.577 73.8582C156.493 73.8582 158.686 73.7154 158.686 73.5251C158.686 73.342 159.045 73.081 159.484 72.945C160.69 72.5713 163.805 69.4189 163.805 68.5725C163.805 68.1652 163.969 67.7325 164.171 67.6112C164.579 67.3645 164.62 56.7328 164.217 55.3296C163.801 53.8778 163.073 53.6843 159.6 54.1044C157.864 54.3143 156.266 54.6592 156.049 54.8705C155.833 55.0822 155.537 56.5661 155.393 58.1686C155.095 61.4773 154.802 61.8361 152.668 61.5027C150.401 61.1482 149.178 60.0744 149.178 58.4363C149.178 57.6852 149.322 56.7917 149.498 56.4508C149.674 56.1099 150.102 54.8673 150.449 53.6893C150.796 52.5113 151.243 51.244 151.443 50.8735C151.676 50.4426 151.682 49.9268 151.461 49.4456C150.838 48.0863 150.195 46.2111 150.009 45.2112C149.909 44.6715 149.681 44.2295 149.503 44.2295C149.324 44.2295 149.178 44.0132 149.178 43.749C149.178 43.301 148.486 41.6568 147.692 40.2186C147.504 39.8777 147.35 39.3554 147.35 39.0584C147.35 38.7611 147.185 38.518 146.984 38.518C146.783 38.518 146.618 38.13 146.618 37.6552C146.618 37.1808 146.438 36.7338 146.217 36.6621C145.51 36.4318 145.403 33.3862 146.028 31.2868C146.727 28.9397 146.764 27.8288 146.201 25.9947C145.691 24.3362 146.315 22.4543 147.372 22.4543C147.739 22.4543 148.14 22.2936 148.264 22.0973C148.388 21.901 148.809 21.7403 149.2 21.7403C149.59 21.7403 149.91 21.901 149.91 22.0973C149.91 22.2936 150.081 22.4543 150.292 22.4543C151.437 22.4543 153.146 25.2447 153.3 27.3651L153.383 28.5214L157.314 28.5221L161.245 28.5228V27.2944C161.245 26.6187 161.1 25.9783 160.922 25.8712C160.745 25.7641 160.486 24.7935 160.348 23.714C160.21 22.6345 159.944 21.6593 159.757 21.5465C159.57 21.4337 159.417 20.9011 159.417 20.3628C159.417 19.8245 159.274 19.2315 159.1 19.0452C158.926 18.8585 158.501 17.5816 158.155 16.2073C157.809 14.8329 157.376 13.4297 157.192 13.0888C157.008 12.7479 156.857 11.9365 156.857 11.2861C156.857 10.6353 156.701 9.95027 156.509 9.76357C156.318 9.57688 156.112 8.21931 156.052 6.74716C155.955 4.37794 155.859 4.06024 155.212 3.98456C154.809 3.93744 154.151 4.09522 153.749 4.33475ZM57.5779 5.01692C55.4098 5.49383 53.3142 5.64555 49.4827 5.60307C43.9534 5.54167 43.8031 5.58415 42.8761 7.46146C41.9422 9.35306 41.3056 11.1501 41.3056 11.8958C41.3056 12.3234 41.156 12.8257 40.9736 13.0124C40.549 13.4461 40.33 15.6404 39.8542 24.2252C39.6425 28.0462 39.3065 31.3311 39.1075 31.5253C38.9086 31.7195 38.7459 33.3722 38.7459 35.1982C38.7459 37.1733 38.5978 38.518 38.3802 38.518C38.1791 38.518 38.0146 38.7775 38.0146 39.0949C38.0146 39.746 36.843 43.2414 36.5329 43.5156C36.4217 43.6138 36.0469 44.2563 35.6999 44.9435C34.8259 46.6741 34.3136 47.4366 33.3131 48.4943C31.3429 50.5776 30.3355 52.5327 30.3355 54.2736C30.3355 55.2053 30.5 56.0667 30.7012 56.1881C30.9023 56.3094 31.0668 56.8031 31.0668 57.2851C31.0668 57.767 31.2197 58.4402 31.4065 58.7811C31.5934 59.122 32.0457 60.1633 32.4121 61.095C32.7782 62.0271 33.2016 62.7899 33.3523 62.7906C33.5029 62.7913 33.6265 63.058 33.6265 63.3832C33.6265 63.708 34.0379 64.5005 34.5407 65.1441C35.0435 65.7878 35.4549 66.4242 35.4549 66.5588C35.4549 66.9558 37.7911 68.8488 38.2888 68.8549C38.5404 68.8581 38.7459 68.9891 38.7459 69.1458C38.7459 69.5317 40.9575 70.2885 42.0856 70.2885C42.5865 70.2885 43.6941 69.9593 44.5465 69.5574L46.0966 68.8263L47.9977 70.1703C49.0432 70.9096 49.9811 71.6 50.0817 71.7046C51.0554 72.718 55.9474 73.2727 56.4809 72.4303C56.6052 72.2339 57.0729 72.0733 57.5205 72.0733C58.7005 72.0733 59.5891 70.383 59.5891 68.1384C59.5891 66.31 58.7466 61.1739 58.0931 59.0185C57.9103 58.4156 57.7607 56.8549 57.7607 55.5505C57.7607 53.6632 57.9567 52.8304 58.7202 51.4707C59.2475 50.5312 59.8235 49.6098 60.0001 49.4235C60.1763 49.2368 60.3204 48.7245 60.3204 48.2844C60.3204 47.8442 60.4608 47.3998 60.6327 47.2959C60.8042 47.1924 61.0532 45.7774 61.186 44.1514C61.5425 39.7835 62.1897 35.6797 62.5572 35.458C62.7349 35.3509 62.8801 34.9033 62.8801 34.4631C62.8801 34.023 63.0841 33.464 63.3332 33.2209C63.6327 32.9285 63.7862 31.5777 63.7862 29.2367C63.7862 26.8957 63.6327 25.5449 63.3332 25.2526C63.0841 25.0095 62.8801 24.2802 62.8801 23.6323C62.8801 22.9844 62.7335 22.4543 62.5539 22.4543C62.3748 22.4543 62.1316 22.0794 62.0138 21.6211C61.8961 21.1627 61.2847 20.1589 60.6557 19.39C59.5982 18.0981 59.5276 17.8433 59.7247 16.0288C59.8421 14.9489 60.0462 13.0213 60.1778 11.7451C60.3098 10.4689 60.5896 9.21312 60.7998 8.95467C61.2935 8.34747 61.3461 5.09474 60.8689 4.68637C60.6557 4.50395 59.283 4.64174 57.5779 5.01692ZM124.024 5.13722C122.695 5.70802 122.206 6.13389 121.353 7.46146C120.602 8.63019 119.761 12.6026 120.091 13.4229C120.232 13.7763 120.499 15.2702 120.684 16.7427C120.868 18.2152 121.28 20.6248 121.6 22.0973C121.919 23.5698 122.258 25.4171 122.353 26.2025C122.448 26.9878 122.701 27.9788 122.916 28.4046C123.143 28.8537 123.194 29.6779 123.038 30.368C122.59 32.3413 122.4 38.518 122.787 38.518C122.98 38.518 123.218 39.1206 123.314 39.8566C123.411 40.5931 123.781 42.3197 124.137 43.6941C125.111 47.4558 125.24 50.7793 124.473 52.3574C123.931 53.473 123.874 54.33 124.072 58.3692C124.2 60.9597 124.47 63.5071 124.674 64.03C124.877 64.5526 125.044 65.8534 125.044 66.9204V68.8606H129.769H134.495L134.899 67.6626C135.183 66.8244 135.191 66.174 134.928 65.4961C134.411 64.171 134.311 53.8845 134.805 52.9753C136.779 49.3424 136.282 45.858 133.1 41.0168C131.913 39.2127 131.811 38.8414 131.832 36.4383C131.845 35 132.019 33.7149 132.218 33.5825C133.382 32.8114 134.16 25.018 133.435 21.3834C133.22 20.3035 132.962 18.8578 132.861 18.1706C132.76 17.4834 132.527 16.5999 132.342 16.2073C132.158 15.8146 131.88 13.0838 131.725 10.1388L131.443 4.78418L128.335 4.70208C126.253 4.6471 124.829 4.79096 124.024 5.13722ZM103.355 17.9461C103.25 18.2152 103.348 19.5403 103.574 20.8911C103.799 22.2415 104.008 27.6036 104.039 32.8064C104.072 38.6583 104.252 42.8109 104.51 43.6941C105.084 45.6567 105.025 48.862 104.353 52.2614C103.502 56.5615 103.499 56.5279 104.702 56.6621C106.374 56.8488 107.441 56.4308 107.976 55.3799C108.776 53.8106 109.425 48.5932 109.162 45.8359C109.032 44.4616 108.839 39.2441 108.733 34.2411C108.628 29.2385 108.429 25.0619 108.291 24.9599C107.999 24.7442 107.137 22.6381 106.864 21.4726C106.76 21.0307 106.53 20.6694 106.352 20.6694C106.175 20.6694 106.029 20.2678 106.029 19.777C106.029 19.2861 105.865 18.8846 105.663 18.8846C105.462 18.8846 105.298 18.5633 105.298 18.1706C105.298 17.6555 105.054 17.4567 104.423 17.4567C103.942 17.4567 103.461 17.6769 103.355 17.9461ZM18.3631 26.8961C18.1276 29.5352 17.763 32.025 17.5531 32.4291C17.3432 32.8329 16.9845 33.5175 16.756 33.9505C16.4455 34.5381 16.4455 34.7716 16.756 34.8726C16.9845 34.9468 17.1714 35.1664 17.1714 35.3606C17.1714 35.8757 18.136 36.7331 18.7156 36.7331C19.5866 36.7331 22.1028 34.123 23.0166 32.271C24.5257 29.2132 24.8391 28.0648 24.845 25.5778L24.8504 23.1682L22.9307 23.1568C21.8256 23.1504 20.7096 22.923 20.3012 22.6213C19.9106 22.3333 19.4111 22.0973 19.191 22.0973C18.9423 22.0973 18.6289 23.9132 18.3631 26.8961ZM49.3631 24.2156C49.1551 24.5954 48.9847 26.5941 48.9847 28.6566C48.9847 30.7721 48.8252 32.5034 48.619 32.628C48.4179 32.7493 48.2533 33.1602 48.2533 33.5414C48.2533 33.9227 48.0888 34.2343 47.8876 34.2343C47.6865 34.2343 47.522 34.4571 47.522 34.7291C47.522 35.0011 47.2762 35.6836 46.9757 36.2462C46.6754 36.8084 46.4286 37.5499 46.4272 37.8933C46.4261 38.2367 46.2604 38.518 46.0593 38.518C45.8582 38.518 45.6881 38.7993 45.6816 39.1427C45.668 39.8656 44.4525 43.4181 44.1019 43.7605C43.9717 43.8876 43.8653 44.4373 43.8653 44.982C43.8653 45.5268 43.7007 46.0715 43.4996 46.1929C43.2985 46.3142 43.1339 46.8065 43.1339 47.2866C43.1339 47.7668 42.7226 48.9922 42.2198 50.0096C41.2639 51.944 41.0708 53.6257 41.646 55.0111C41.8332 55.462 42.083 56.273 42.2015 56.8128C42.4048 57.7405 42.528 57.7945 44.4467 57.7945C46.9523 57.7945 47.522 57.3072 47.522 55.1636C47.522 54.2779 47.6865 53.4537 47.8876 53.3323C48.0888 53.2109 48.2533 52.6716 48.2533 52.1332C48.2533 51.5949 48.3886 51.002 48.5543 50.8157C48.7199 50.629 49.1719 49.5127 49.5584 48.3347C49.9449 47.1567 50.3607 46.1126 50.4824 46.0144C50.6038 45.9162 50.8086 45.1934 50.937 44.408C51.0653 43.6227 51.4251 41.695 51.7363 40.1244C52.0475 38.5537 52.3898 36.7867 52.4965 36.1977C52.6037 35.6087 52.8344 34.8055 53.0092 34.4128C53.8451 32.5369 54.3823 24.8178 53.7303 24.0514C53.0268 23.2235 49.8414 23.3435 49.3631 24.2156ZM177.897 30.0217C177.56 30.8435 177.004 31.7662 176.661 32.0718C175.365 33.2284 174.802 35.4066 175.478 36.6489C177.096 39.6214 178.432 42.6489 178.432 43.3446C178.432 43.8079 178.587 44.2809 178.776 44.3952C178.966 44.5098 179.228 45.3026 179.359 46.1572C179.593 47.6772 179.634 47.7164 181.209 47.927C182.095 48.0456 183.231 48.2433 183.734 48.3665C184.984 48.6728 184.948 47.776 183.594 44.8792C181.543 40.4913 180.991 39.1338 180.991 38.4726C180.991 38.105 180.864 37.804 180.709 37.804C180.307 37.804 179.521 34.2832 179.269 31.3507C179.151 29.9789 178.932 28.7827 178.782 28.692C178.632 28.6017 178.234 29.2 177.897 30.0217ZM12.6634 46.6651C12.0213 47.0368 11.3503 47.941 10.8939 49.0486C10.4899 50.0303 10.009 51.1123 9.82581 51.4532C9.29193 52.4459 9.43381 56.4994 10.0445 57.6941C10.4548 58.497 10.9945 58.8757 12.1471 59.1692C15.3577 59.9863 15.1339 60.2051 15.3822 56.0096C15.591 52.4841 16.274 49.5841 16.8953 49.5841C17.0471 49.5841 17.1714 49.412 17.1714 49.2018C17.1714 48.9912 17.4182 48.5782 17.7199 48.2837C18.0216 47.9892 18.2684 47.358 18.2684 46.8815C18.2684 46.0529 18.1664 46.0155 15.983 46.0404C14.5415 46.0569 13.3158 46.2875 12.6634 46.6651Z" clip-rule="evenodd" fill-rule="evenodd"></path>
</svg>
