<svg xmlns="http://www.w3.org/2000/svg" fill="none" viewBox="0 0 200 42" height="42" width="200">
<path fill="#949494" d="M40.1446 0.601219C35.8219 1.25992 32.9747 4.69521 32.7338 9.54277C32.5832 12.5765 33.5192 15.2895 35.3628 17.1624C36.3104 18.125 37.2538 18.7022 38.6882 19.1967C39.4972 19.4757 39.8669 19.5348 41.0939 19.5816C44.0754 19.6956 46.108 18.9116 47.9738 16.928C48.928 15.9137 49.6566 14.5591 50.0619 13.0459C50.2837 12.2179 50.3144 11.8452 50.3091 10.0432C50.3021 7.6473 50.1462 6.88261 49.3229 5.20556C48.2385 2.99692 46.4069 1.48067 44.0161 0.81263C43.0541 0.543834 41.1894 0.442076 40.1446 0.601219ZM121.494 0.602776C119.207 0.936074 117.019 2.26471 115.776 4.07399C113.748 7.0273 113.475 11.5866 115.128 14.906C116 16.657 117.186 17.8328 118.937 18.6826C120.26 19.3241 120.907 19.491 122.38 19.5698C125.577 19.7411 128.105 18.5906 129.555 16.3055C129.948 15.6847 130.442 14.2083 130.442 13.6518V13.2683H128.62H126.797L126.72 13.6792C126.527 14.7099 125.708 15.7175 124.678 16.1924C124.244 16.393 123.951 16.4324 122.878 16.4349C121.652 16.4377 121.565 16.422 120.857 16.0737C119.613 15.4611 118.597 14.1172 118.145 12.4848C118.052 12.1512 117.948 11.2777 117.913 10.5437C117.711 6.33579 119.619 3.70422 122.872 3.70422C124.201 3.70422 125.184 4.1217 125.923 4.9996C126.254 5.39373 126.655 6.21769 126.659 6.51228C126.661 6.68989 126.826 6.7069 128.557 6.7069H130.452L130.38 6.28986C130.267 5.64339 129.829 4.42731 129.516 3.89305C128.065 1.41817 124.876 0.110113 121.494 0.602776ZM0 10.053V19.2934L4.92077 19.246C9.09569 19.2059 9.94262 19.1703 10.5088 19.0113C12.0157 18.5883 13.3591 17.6757 13.9313 16.6864C14.811 15.1652 14.8595 13.0756 14.0496 11.5874C13.572 10.7097 12.5545 9.86384 11.5242 9.48783L11.2051 9.3714L11.8763 9.03598C12.7473 8.60071 13.4047 7.95346 13.7725 7.16898C14.027 6.62594 14.0658 6.40352 14.0563 5.53919C14.0334 3.44765 12.9258 1.94075 10.9129 1.26259C9.86578 0.909828 8.4635 0.818747 4.03114 0.815633L0 0.812741V10.053ZM16.8752 0.876687C16.8294 0.923062 16.7918 5.08256 16.7918 10.1201V19.279L18.6544 19.2486L20.5171 19.2181L20.5463 15.5203L20.5757 11.8226L22.0476 11.8248C24.6909 11.8287 25.819 12.1541 26.4597 13.0973C26.9141 13.7661 27.0195 14.1801 27.1399 15.7706C27.2863 17.702 27.4434 18.7203 27.642 19.0232C27.8008 19.2657 27.8626 19.2737 29.5828 19.2737C31.0879 19.2737 31.3595 19.2482 31.3595 19.1069C31.3595 19.0151 31.3143 18.9401 31.2592 18.9401C31.0456 18.9401 30.8983 18.1283 30.694 15.8262C30.5773 14.5111 30.4046 13.1806 30.3101 12.8695C29.9993 11.8455 29.373 11.1731 28.2796 10.6894L27.7476 10.454L28.1418 10.3176C30.0554 9.65509 31.1371 8.09003 31.1371 5.98403C31.1371 4.10902 30.1729 2.50681 28.5148 1.62636C27.1863 0.920949 27.0022 0.899708 21.7403 0.843435C19.1104 0.81541 16.921 0.830313 16.8752 0.876687ZM56.4475 0.905157C56.4143 0.958872 54.9878 5.02618 53.2775 9.94369C51.5672 14.8611 50.1337 18.9732 50.0919 19.0817C50.0206 19.2667 50.1362 19.2771 51.9378 19.2486L53.8598 19.2181L54.4391 17.3275L55.0185 15.4369L58.3454 15.4076L61.6724 15.3781L62.1548 16.9645C62.4202 17.837 62.7031 18.7135 62.7836 18.9123L62.93 19.2737H64.8381H66.7464L66.6817 19.0235C66.646 18.8858 65.1996 14.7446 63.4673 9.8208L60.3178 0.868347L58.4128 0.837986C57.3651 0.821193 56.4807 0.851442 56.4475 0.905157ZM68.3533 0.886919C68.3125 0.927622 68.2791 5.08634 68.2791 10.1284V19.2958L72.4771 19.2463C77.2023 19.1906 77.6296 19.1313 79.2883 18.3024C80.5637 17.665 81.7728 16.4175 82.4428 15.0477C83.275 13.3465 83.4559 12.4636 83.4455 10.1544C83.4383 8.53965 83.3968 8.06167 83.2022 7.34725C82.6757 5.41508 82.0383 4.23847 80.8991 3.09634C79.5898 1.78361 78.1923 1.1238 76.2858 0.918503C75.2024 0.801843 68.4652 0.77493 68.3533 0.886919ZM83.5481 1.11857C83.6301 1.52449 88.7434 19.077 88.8118 19.1876C88.841 19.235 89.6296 19.2737 90.5642 19.2737H92.2635L93.4497 14.1071C94.1021 11.2654 94.7461 8.30511 94.8807 7.52864L95.1256 6.11693L95.3114 7.16253C95.4135 7.73771 96.0537 10.6636 96.7338 13.6646C97.4141 16.6655 97.9705 19.1553 97.9705 19.1973C97.9705 19.2393 98.7607 19.2737 99.7267 19.2737H101.483L104.076 10.1822C105.502 5.18187 106.676 1.04072 106.685 0.979557C106.694 0.909272 106.025 0.868347 104.865 0.868347H103.03L102.004 4.92753C101.44 7.16008 100.722 10.0877 100.41 11.4334C100.098 12.779 99.8322 13.8902 99.8197 13.9027C99.8024 13.9201 97.7557 4.59001 97.0641 1.34099L96.9517 0.812741H95.188C94.218 0.812741 93.3986 0.854445 93.3671 0.905269C93.3357 0.956203 92.8585 3.07065 92.3067 5.60391C91.755 8.13729 91.181 10.7605 91.0311 11.4334C90.8812 12.1062 90.6991 12.9552 90.6264 13.3199L90.4942 13.9832L90.0757 11.9298C89.8455 10.8005 89.1257 7.86127 88.4761 5.39817C87.8264 2.93519 87.295 0.895927 87.295 0.866345C87.295 0.836874 86.438 0.812741 85.3906 0.812741H83.4862L83.5481 1.11857ZM108.312 10.0432V19.2737H110.147H111.982V10.0432V0.812741H110.147H108.312V10.0432ZM132.384 0.951755C132.355 1.02827 132.344 5.16941 132.359 10.1544L132.388 19.2181L134.251 19.2486L136.113 19.279V15.9098V12.5406L137.044 11.6146L137.975 10.6888L140.901 14.937C142.511 17.2737 143.883 19.2064 143.95 19.2321C144.017 19.2578 145.01 19.2651 146.158 19.2484L148.244 19.2181L144.502 13.8244C142.444 10.8578 140.735 8.36883 140.705 8.29332C140.675 8.21781 142.232 6.54398 144.164 4.57377C146.097 2.60356 147.679 0.95131 147.679 0.902155C147.679 0.853 146.665 0.813409 145.427 0.814187L143.175 0.815522L139.672 4.44899L136.169 8.08247L136.14 4.44766L136.11 0.812741H134.274C132.907 0.812741 132.423 0.848329 132.384 0.951755ZM149.68 10.0432V19.2737H155.852H162.024V17.6611V16.0486H157.687H153.35V8.43067V0.812741H151.515H149.68V10.0432ZM164.026 10.0432V19.279L165.888 19.2486L167.751 19.2181V10.0432V0.868347L165.888 0.837875L164.026 0.807403V10.0432ZM169.252 0.938854C169.252 1.00825 170.285 4.12348 171.547 7.86171C172.809 11.5999 174.189 15.6969 174.614 16.9661L175.387 19.2737H177.084H178.781L181.858 10.1266C183.551 5.09579 184.935 0.942079 184.934 0.896149C184.933 0.850219 184.108 0.812741 183.101 0.812741C181.47 0.812741 181.259 0.833983 181.168 1.00736C181.056 1.22155 177.596 12.7483 177.362 13.6864C177.282 14.008 177.181 14.2332 177.137 14.1868C177.094 14.1403 176.925 13.602 176.763 12.9903C176.371 11.5168 173.258 1.25647 173.127 1.00736C173.036 0.833649 172.822 0.812741 171.139 0.812741C169.806 0.812741 169.252 0.849774 169.252 0.938854ZM186.429 0.950865C186.4 1.02782 186.389 5.16941 186.404 10.1544L186.433 19.2181H193.217H200V17.6611V16.1042L195.079 16.0753L190.158 16.0463V13.6008V11.1553H194.44H198.721V9.59838V8.04143H194.44H190.158V6.03964V4.03785H195.054H199.951L199.92 2.4531L199.889 0.868347L193.186 0.839654C187.882 0.816967 186.471 0.84021 186.429 0.950865ZM40.2813 3.75826C39.4472 3.99303 39.0716 4.21078 38.392 4.85358C37.1318 6.04531 36.5882 7.62828 36.5868 10.1088C36.5856 12.4607 37.0844 13.9724 38.2571 15.1709C39.3217 16.259 40.7229 16.7092 42.3408 16.4829C44.7917 16.1401 46.3096 14.0668 46.54 10.7472C46.7663 7.48727 45.4886 4.71657 43.3919 3.92019C42.5672 3.60702 41.0919 3.53028 40.2813 3.75826ZM3.66972 6.09535V8.28209L6.19961 8.2445C8.56892 8.20947 8.75919 8.19123 9.19755 7.95746C9.83909 7.61549 10.1905 7.20657 10.3345 6.63495C10.5847 5.64095 10.2103 4.74982 9.33678 4.26027C8.8536 3.98947 8.7732 3.98124 6.25521 3.94543L3.66972 3.90873V6.09535ZM20.5727 6.42153V8.93111H22.9594C25.6058 8.93111 26.2252 8.81089 26.8294 8.18011C27.9137 7.04798 27.5873 4.96779 26.2098 4.23147C25.7719 3.99737 25.587 3.98013 23.1582 3.9471L20.5727 3.91185V6.42153ZM72.0601 9.97171V15.9374H74.05C75.7228 15.9374 76.1526 15.9022 76.7467 15.7168C78.5805 15.1444 79.5184 13.6112 79.6956 10.8958C79.8628 8.33647 79.0551 5.92676 77.695 4.92642C76.8038 4.27094 76.2081 4.13093 74.0339 4.06543L72.0601 4.00593V9.97171ZM58.1656 5.01027C58.0594 5.4927 56.7541 9.84738 55.9819 12.2952C55.9247 12.4765 56.0855 12.4899 58.3189 12.4899C59.638 12.4899 60.7173 12.4633 60.7173 12.4308C60.7173 12.3982 60.2947 11.0095 59.7781 9.3447C59.2616 7.67977 58.7319 5.89228 58.6011 5.37237C58.4703 4.85246 58.3504 4.4143 58.3348 4.39861C58.3193 4.38293 58.2431 4.65818 58.1656 5.01027ZM3.69541 13.5653L3.72533 16.1042L5.72699 16.1354C6.82791 16.1527 8.07895 16.1135 8.50709 16.0485C10.0329 15.8167 10.7868 15.0191 10.7868 13.6365C10.7868 12.5212 10.3944 11.8722 9.39817 11.3389C8.98426 11.1175 8.76041 11.0975 6.3087 11.0632L3.6655 11.0264L3.69541 13.5653ZM92.0767 22.0129C88.8179 22.6405 87.0752 24.2179 86.7484 26.836C86.5323 28.5671 87.1184 30.3023 88.2147 31.1772C89.3309 32.068 90.5281 32.5306 93.6478 33.2762C96.3519 33.9226 97.1847 34.3051 97.5919 35.0878C97.7908 35.4702 97.7932 36.4107 97.5964 36.8816C96.8092 38.7658 91.8729 38.9243 90.5953 37.1063C90.4179 36.854 90.1857 36.3291 90.0793 35.9399L89.8858 35.2324L88.0344 35.2019L86.1829 35.1715V35.5956C86.1829 36.2086 86.4692 37.2382 86.8667 38.0552C87.9917 40.3666 91.0629 41.6744 94.9124 41.4812C96.272 41.4129 97.7447 41.0441 98.6865 40.5358C99.4993 40.0972 100.552 39.0643 100.953 38.3116C101.608 37.0827 101.798 35.5804 101.472 34.2003C101.163 32.8886 100.647 32.1612 99.4901 31.4077C98.5381 30.7873 97.3658 30.3783 94.6658 29.7243C92.3009 29.1515 91.5404 28.8848 91.0908 28.4709C90.5045 27.9313 90.3513 26.947 90.7514 26.2907C91.2969 25.3959 92.1969 25.0263 93.856 25.0157C95.117 25.0077 95.6522 25.1637 96.4495 25.7719C96.8558 26.0819 97.346 26.9025 97.467 27.4755L97.5434 27.8369H99.3792H101.215L101.142 27.3643C101.024 26.6 100.751 25.718 100.447 25.1177C100.041 24.3163 98.8478 23.18 97.9705 22.7593C96.6551 22.1284 96.1813 22.0325 94.1896 21.9945C93.1804 21.9752 92.2296 21.9836 92.0767 22.0129ZM159.133 22.0129C155.611 22.6912 153.797 24.5323 153.777 27.4477C153.759 30.1157 154.946 31.5598 157.965 32.5442C158.454 32.7037 159.68 33.0317 160.689 33.2731C164.06 34.079 164.804 34.5638 164.804 35.9533C164.804 37.0252 164.348 37.6165 163.166 38.0795C162.638 38.2859 162.297 38.3317 161.245 38.3379C160.519 38.3421 159.718 38.2815 159.39 38.1974C158.153 37.8803 157.425 37.1324 157.095 35.8414L156.939 35.2324L155.089 35.2019L153.239 35.1715V35.5956C153.239 36.2099 153.525 37.2376 153.927 38.0683C155.04 40.3641 158.126 41.6741 161.968 41.4812C163.328 41.4129 164.801 41.0441 165.742 40.5358C166.556 40.0969 167.608 39.0644 168.009 38.3105C168.513 37.3665 168.733 36.317 168.657 35.2324C168.535 33.489 168.04 32.508 166.839 31.6256C165.813 30.8725 164.75 30.4768 161.746 29.7303C159.148 29.0846 158.491 28.8434 158.056 28.3759C157.533 27.8138 157.426 26.9163 157.807 26.2907C158.353 25.3959 159.253 25.0263 160.912 25.0157C162.176 25.0077 162.708 25.1635 163.512 25.7771C163.894 26.0683 164.409 26.9613 164.524 27.5311L164.586 27.8369H166.425H168.265L168.188 27.3087C167.888 25.2479 166.782 23.6638 165.026 22.7775C163.754 22.1357 163.258 22.0329 161.245 21.9945C160.236 21.9752 159.286 21.9836 159.133 22.0129ZM36.9197 31.6737V41.071H38.9213H40.923V37.6894V34.3079L44.0089 34.26C46.5522 34.2204 47.2023 34.1776 47.7064 34.0165C50.3595 33.1687 51.8176 31.1544 51.8176 28.3374C51.8176 25.3435 50.0435 23.091 47.1841 22.4545C46.5189 22.3065 45.5844 22.2764 41.6517 22.2764H36.9197V31.6737ZM53.7114 31.6686V41.071H55.6575H57.6036V37.2898V33.5086L59.355 33.5104C61.2905 33.5123 62.0853 33.6453 62.8544 34.0961C63.8164 34.6599 64.2103 35.6151 64.3319 37.679C64.4217 39.2029 64.5737 40.3661 64.7351 40.7651L64.8588 41.071H66.7451C67.7825 41.071 68.612 41.0335 68.5884 40.9876C68.2236 40.279 68.1491 39.8965 67.992 37.9264C67.7919 35.4175 67.6115 34.44 67.2269 33.7839C66.8588 33.1557 66.1492 32.5585 65.4699 32.305L64.9235 32.1012L65.5611 31.8573C66.8367 31.3691 67.6986 30.4937 68.1349 29.2436C68.4417 28.3645 68.4057 26.4367 68.0663 25.5744C67.5594 24.2866 66.3258 23.1578 64.8146 22.5991C64.1175 22.3414 64.0458 22.3378 58.9102 22.3022L53.7114 22.2661V31.6686ZM70.8368 31.6737V41.071H77.8456H84.8546L84.8237 39.4862L84.7929 37.9015L79.7609 37.8726L74.7289 37.8436V35.3425V32.8414H79.1245H83.5202L83.4892 31.2566L83.4584 29.6719L79.0937 29.6427L74.7289 29.6137V27.5575V25.5015H79.7331H84.7373V23.8889V22.2764H77.787H70.8368V31.6737ZM103.864 31.6737V41.071H110.873H117.882L117.851 39.4862L117.82 37.9015L112.788 37.8726L107.756 37.8436V35.3425V32.8414H112.149H116.542V31.2288V29.6163H112.149H107.756V27.5589V25.5015H112.761H117.765V23.8889V22.2764H110.815H103.864V31.6737ZM120.211 31.6737V41.071H122.112H124.012L123.974 34.6225L123.937 28.1741L124.513 29.3122C124.829 29.9382 126.559 32.8275 128.357 35.7329L131.625 41.0154L133.48 41.0458L135.335 41.0763V31.6763V22.2764H133.435H131.534L131.572 28.7712L131.61 35.2659L130.994 34.0259C130.655 33.3438 128.965 30.4212 127.237 27.5311L124.097 22.2764H122.154H120.211V31.6737ZM137.225 23.8889V25.5015H140.061H142.897V33.2862V41.071H144.843H146.789V33.2881V25.5053L149.597 25.4756L152.405 25.4459L152.436 23.8611L152.467 22.2764H144.846H137.225V23.8889ZM57.6036 27.9481V30.5205L60.2446 30.4854C62.5675 30.4546 62.9327 30.4253 63.275 30.2427C64.2045 29.7468 64.6374 29.0368 64.6369 28.0087C64.6362 26.9043 64.22 26.164 63.3306 25.6853C62.9172 25.4628 62.6991 25.4434 60.2446 25.4108L57.6036 25.3757V27.9481ZM40.923 28.4039V31.195L43.3417 31.1551C45.6761 31.1165 45.7822 31.1049 46.3839 30.8239C47.4101 30.3448 47.8368 29.6157 47.8402 28.3356C47.8428 27.3968 47.6556 26.9021 47.0899 26.3528C46.4285 25.7103 45.9203 25.6127 43.238 25.6127H40.923V28.4039Z" clip-rule="evenodd" fill-rule="evenodd"></path>
</svg>
