<svg xmlns="http://www.w3.org/2000/svg" fill="none" viewBox="0 0 200 74" height="74" width="200">
<path fill="#949494" d="M132.737 1.86516C129.707 4.72628 124.014 13.6308 118.539 24.074C116.127 28.6727 115.053 30.3526 114.263 30.759C113.133 31.3399 112.736 32.0188 112.736 33.3707C112.736 34.3346 110.048 37.0331 105.334 40.8026C100.697 44.5102 96.4681 46.7124 95.0359 46.1659C93.6758 45.647 95.0902 41.7412 98.4261 36.8017C101.524 32.2151 109.667 25.1327 110.682 26.1418C110.827 26.2864 110.504 27.6356 109.965 29.1403C109.426 30.6451 109.06 31.952 109.153 32.0445C109.403 32.2928 111.162 30.6005 112.408 28.9139C113.826 26.9937 113.805 25.7275 112.331 24.3235C111.379 23.4162 110.842 23.2151 109.37 23.2151C105.565 23.2151 98.8292 27.653 94.5948 32.9503C92.5306 35.5329 83.8956 44.3763 82.0796 45.7678C79.8772 47.4555 80.1429 45.7587 82.8343 40.9532C83.8804 39.085 85.3381 36.8191 86.0737 35.9182C87.408 34.2833 87.4095 34.2769 86.7896 32.9846C86.0103 31.3595 84.5701 30.7338 83.3949 31.5097C82.9349 31.8135 81.295 33.4405 79.7512 35.1253C74.8556 40.4663 65.2966 48.5304 64.9801 47.5861C64.8165 47.0989 67.447 42.2269 69.5143 39.188C71.678 36.0069 76.7292 31.1738 79.6833 29.4585C81.4673 28.4225 82.9337 27.873 84.3595 27.7066C86.2495 27.4858 86.4928 27.5435 87.0599 28.3482C87.4023 28.8346 87.6828 29.5347 87.6828 29.9038C87.6828 30.2726 87.8536 30.5745 88.0624 30.5745C88.748 30.5745 88.4625 28.0606 87.6623 27.0491C84.4024 22.9282 74.0315 26.8246 66.046 35.1706L63.5786 37.7494L60.6368 36.9002C59.0189 36.433 57.6949 35.8925 57.6949 35.6993C57.6949 35.5057 58.795 33.6994 60.1399 31.6848C63.2525 27.0216 66.8234 19.9758 68.3771 15.4314C69.345 12.6009 69.5937 11.2456 69.6195 8.65735C69.6491 5.71131 69.5564 5.27805 68.5805 3.8122C65.338 -1.05975 56.7281 -0.523073 46.4969 5.1886C35.0168 11.5977 24.8468 22.5161 24.0462 29.2906C23.8382 31.053 23.9152 31.3218 24.9633 32.4883C25.9654 33.6036 26.315 33.7523 27.7822 33.6889C30.3372 33.5783 34.4653 31.5071 33.6822 30.7285C33.5687 30.6156 32.5836 30.7866 31.4934 31.1085C30.4032 31.4305 29.3616 31.6018 29.1787 31.4893C27.8148 30.6511 30.9855 24.5783 35.6663 19.0636C37.9515 16.3712 44.2151 10.4885 47.1293 8.29768C51.5838 4.94857 56.7026 2.58902 60.0283 2.35277C65.5533 1.95951 66.834 4.27754 64.6935 10.7969C63.1781 15.4129 60.2575 20.6328 53.4078 30.97L50.5198 35.3279L45.4716 35.7582C37.7617 36.4149 31.2801 38.3506 23.3792 42.3556C4.07121 52.1429 -6.06053 68.1936 3.8723 73.2581C9.11715 75.9324 21.7443 71.1748 33.1109 62.2416C34.791 60.9214 35.0943 60.8052 35.6341 61.2747C39.9117 64.9936 61.3625 68.5628 78.9522 68.482C86.3744 68.448 93.0355 68.2204 95.6907 67.9102C97.0276 67.754 99.5736 67.5147 101.348 67.3785C104.087 67.1682 109.84 66.4217 115.963 65.4824C118.993 65.0174 130.474 62.6454 133.993 61.7574C154.685 56.5344 171.852 49.623 176.674 44.5736C178.215 42.9599 177.442 43.0712 172.701 45.1458C164.012 48.9485 142.007 55.5309 131.336 57.5198C130.814 57.6172 127.825 58.2007 124.693 58.817C117.64 60.2051 106.837 61.7332 99.0706 62.4416C93.3828 62.9601 69.5325 63.0353 67.1847 62.5416C66.6628 62.4318 65.2109 62.2336 63.9582 62.1008C56.2543 61.2852 43.5292 58.3067 41.0554 56.7401C40.1702 56.1793 40.1736 56.1744 44.2918 51.9625C48.3201 47.8427 54.2049 40.8547 55.3919 38.782C55.7191 38.2109 56.246 37.6599 56.5633 37.5576C57.1479 37.3697 62.5199 38.2649 62.865 38.608C62.9682 38.711 62.4656 39.7077 61.7478 40.8233C60.3198 43.0429 59.2133 45.9146 59.2133 47.4012C59.2133 49.3456 61.4415 52.0867 63.0221 52.0867C64.1738 52.0867 67.7697 49.2018 73.5353 43.6524L76.659 40.6456L75.8979 42.7991C75.4792 43.9834 75.0336 45.6994 74.9076 46.6128C74.7015 48.1092 74.7933 48.3873 75.8372 49.4252C78.1812 51.7557 80.1095 50.9235 85.7351 45.1545C87.4824 43.3625 88.9829 41.8967 89.0698 41.8967C89.1564 41.8967 89.1272 42.7032 89.0049 43.6894C88.5718 47.1853 91.0369 49.7079 94.4665 49.2776C97.9785 48.8368 102.562 45.8761 108.463 40.2372C110.396 38.3906 111.977 37.0055 111.977 37.1595C111.977 37.3135 111.649 38.5695 111.248 39.9512C109.889 44.6329 109.897 44.8246 111.553 46.4705C113.237 48.1447 114.481 48.444 114.112 47.086C113.969 46.558 114.332 45.1198 115.071 43.284L116.261 40.3308L119.148 43.3225C126.075 50.4986 133.263 53.751 139.396 52.4848C141.667 52.0161 144.622 50.3385 144.622 49.5177C144.622 49.2354 144.494 49.0701 144.337 49.1501C141.789 50.4544 140.781 50.7144 138.359 50.6937C134.103 50.6567 129.882 48.5674 125.44 44.2985C123.491 42.4258 119.948 37.7686 119.948 37.0799C119.948 36.87 120.736 36.5813 121.698 36.4379C123.816 36.122 129.034 33.513 131.573 31.4999C137.219 27.0238 138.928 23.323 136.51 20.8136C135.919 20.2 135.135 19.6199 134.769 19.5248C133.383 19.1644 130.244 21.191 126.062 25.1474C123.743 27.3409 121.846 29.0558 121.846 28.9577C121.846 28.6105 125.023 22.7776 127.646 18.3088C132.63 9.8175 137.66 3.26005 139.551 2.78792C140.781 2.48109 140.521 1.88629 138.709 0.859746C136.293 -0.507977 135.023 -0.294364 132.737 1.86516ZM186.567 11.5392C179.317 14.1026 173.323 20.0373 174.057 23.9269C174.305 25.2387 174.219 25.3727 171.52 27.8741C161.43 37.2255 155.184 41.5861 152.749 40.9785C151.597 40.6909 151.597 39.967 152.749 37.5052C153.611 35.6661 153.781 35.5261 156.101 34.7588C162.437 32.6623 171.193 24.6979 171.193 21.0314C171.193 18.9334 168.053 17.469 165.313 18.2888C160.651 19.684 155.476 23.6 151.168 28.9939C147.792 33.2194 140.971 40.098 139.307 40.9536C138.681 41.2755 138.169 41.451 138.169 41.3434C138.169 40.8826 140.77 35.3996 142.459 32.2985C144.71 28.1678 146.808 25.4229 147.943 25.124C149.111 24.8164 149.018 24.3024 147.529 22.8222C145.906 21.2088 144.469 20.8181 143.468 21.7194C141.122 23.8295 134.895 34.7305 133.234 39.6338C132.271 42.4741 132.481 43.8452 134.046 44.9533C136.191 46.472 138.308 45.2998 143.961 39.4647L146.907 36.4243L146.669 38.528C146.381 41.0762 147.087 42.7157 148.867 43.6305C151.55 45.0103 155.666 43.5369 161.075 39.2601C164.18 36.8055 171.146 30.1318 173.415 27.4382C174.238 26.4615 174.837 26.0667 175.282 26.2075C176.05 26.4498 178.026 28.2032 178.026 28.6418C178.026 28.8075 176.919 29.6498 175.566 30.5137C172.484 32.4812 168.015 36.6402 167.402 38.1121C166.997 39.0835 167.044 39.3964 167.768 40.5611C168.731 42.1107 169.531 42.2292 172.738 41.2981C176.929 40.081 181.733 36.8032 183.103 34.2248C183.951 32.628 183.751 31.495 182.323 29.8076L181.305 28.6048L182.228 27.9074C183.827 26.6989 188.263 24.4216 194.254 21.7349C199.724 19.2813 200.956 18.4975 199.343 18.4975C197.341 18.4975 188.072 22.6278 182.979 25.7894C180.467 27.3488 180.065 27.4896 179.393 27.0465C178.075 26.1762 177.817 25.4433 178.423 24.2956C179.742 21.7987 186.005 16.7614 189.699 15.2261C191.441 14.5019 191.329 15.162 189.224 18.0385C188.285 19.3225 187.516 20.5453 187.516 20.7559C187.516 22.0379 191.009 19.4965 192.463 17.1562C193.41 15.6341 193.295 14.1637 192.076 12.1759C191.41 11.0912 191.136 10.9524 189.704 10.9758C188.814 10.9905 187.402 11.2441 186.567 11.5392ZM148.433 12.0661C146.515 13.9739 145.46 17.7932 146.505 19.0462C147.318 20.0199 148.008 19.7229 150.019 17.5351C151.078 16.3832 152.437 15.1876 153.039 14.8781C154.056 14.3551 154.094 14.2596 153.574 13.5217C152.793 12.4129 151.046 11.332 150.031 11.3294C149.561 11.3279 148.843 11.6592 148.433 12.0661ZM165.874 21.7688C162.203 24.2092 154.638 32.3555 155.369 33.082C155.669 33.3809 157.596 32.2755 159.814 30.5318C162.579 28.3595 166.267 24.3767 167.888 21.813C169.084 19.9222 168.666 19.9131 165.874 21.7688ZM128.66 24.9651C125.331 27.6017 119.189 33.9866 119.189 34.8113C119.189 35.6434 119.649 35.6544 121.196 34.8588C123.951 33.4424 128.059 29.189 130.704 25.0153C132.396 22.3451 131.981 22.3349 128.66 24.9651ZM176.887 31.6169C174.375 33.5209 170.781 36.7058 170.952 36.8764C171.386 37.3078 176.916 33.2571 178.045 31.6807C179.021 30.3171 178.631 30.2956 176.887 31.6169ZM41.3094 37.5818C37.1839 38.3238 31.342 40.4063 26.1617 42.981C12.9715 49.5373 4.32364 58.2633 3.86129 65.4831C3.7216 67.6638 3.7812 67.874 4.7522 68.6337C6.7295 70.1799 10.8804 69.6002 16.173 67.0395C22.521 63.9678 28.7342 59.2861 36.1742 51.9686C39.3791 48.8161 42.5928 45.5575 43.3155 44.7272C44.8362 42.9806 48.9642 37.4671 48.9642 37.1829C48.9642 36.8138 44.1973 37.0621 41.3094 37.5818Z" clip-rule="evenodd" fill-rule="evenodd"></path>
</svg>
