<svg xmlns="http://www.w3.org/2000/svg" fill="none" viewBox="0 0 200 36" height="36" width="200">
<path fill="#949494" d="M30.2914 7.34248C30.282 7.34248 30.2716 7.33837 30.2653 7.33117C30.2518 7.31677 30.2529 7.29414 30.2674 7.2818L36.5201 1.72844C36.5347 1.71507 36.5576 1.7161 36.5701 1.7305C36.5826 1.7449 36.5826 1.76753 36.568 1.77987L30.3153 7.33323C30.308 7.3394 30.2997 7.34248 30.2914 7.34248Z"></path>
<path fill="#949494" d="M31.7398 9.34103C31.719 9.34103 31.6992 9.33074 31.6888 9.31223C31.6722 9.28446 31.6826 9.24846 31.7107 9.232L38.9956 5.08679C39.0237 5.07033 39.0601 5.08062 39.0768 5.10839C39.0934 5.13616 39.083 5.17216 39.0549 5.18862L31.77 9.33383C31.7606 9.33897 31.7502 9.34206 31.7409 9.34206L31.7398 9.34103Z"></path>
<path fill="#949494" d="M32.7408 11.6307C32.6909 11.6307 32.6441 11.5988 32.6284 11.5494C32.6087 11.4877 32.642 11.4219 32.7044 11.4023L40.7032 8.84731C40.7656 8.82776 40.8322 8.86171 40.852 8.9224C40.8717 8.98308 40.8384 9.04994 40.776 9.06948L32.7772 11.6245C32.7648 11.6286 32.7533 11.6307 32.7408 11.6307Z"></path>
<path fill="#949494" d="M33.2497 14.1353C33.13 14.1353 33.027 14.0458 33.0145 13.9255C33.001 13.7969 33.0957 13.6817 33.2257 13.6693L41.5876 12.8166C41.7167 12.8063 41.8332 12.8969 41.8467 13.0254C41.8603 13.154 41.7656 13.2692 41.6355 13.2816L33.2736 14.1343C33.2653 14.1343 33.2569 14.1353 33.2486 14.1353H33.2497Z"></path>
<path fill="#949494" d="M41.6033 17.578C41.5908 17.578 41.5783 17.578 41.5647 17.5759L33.207 16.6903C33.0124 16.6697 32.8709 16.4969 32.8927 16.3046C32.9136 16.1112 33.0873 15.9713 33.283 15.9939L41.6407 16.8796C41.8353 16.9001 41.9768 17.0729 41.955 17.2653C41.9352 17.4453 41.7822 17.578 41.6033 17.578Z"></path>
<path fill="#949494" d="M40.7146 21.7818C40.6657 21.7818 40.6158 21.7746 40.5669 21.7582L32.5785 19.1713C32.3308 19.091 32.1956 18.8267 32.2767 18.5819C32.3579 18.3371 32.6243 18.2023 32.873 18.2836L40.8613 20.8705C41.109 20.9507 41.2443 21.2151 41.1631 21.4599C41.0975 21.6574 40.9123 21.7818 40.7136 21.7818H40.7146Z"></path>
<path fill="#949494" d="M38.9852 25.7121C38.8843 25.7121 38.7823 25.6863 38.6886 25.6329L31.4193 21.4588C31.1373 21.2963 31.0416 20.9394 31.205 20.6596C31.3694 20.3809 31.7304 20.2862 32.0135 20.4477L39.2828 24.6217C39.5648 24.7843 39.6605 25.1412 39.4972 25.421C39.3879 25.6082 39.1892 25.7121 38.9852 25.7121Z"></path>
<path fill="#949494" d="M36.49 29.2031C36.3203 29.2031 36.1497 29.1434 36.0144 29.0221L29.7836 23.444C29.4932 23.1838 29.4714 22.7405 29.7336 22.4535C29.9969 22.1665 30.4454 22.1439 30.7357 22.4041L36.9665 27.9821C37.2568 28.2424 37.2787 28.6857 37.0165 28.9727C36.877 29.1259 36.6835 29.2031 36.491 29.2031H36.49Z"></path>
<path fill="#949494" d="M33.3402 32.1068C33.0832 32.1068 32.8303 31.9885 32.668 31.7674L27.7482 25.0291C27.4808 24.6629 27.5641 24.1517 27.9355 23.8873C28.306 23.623 28.8231 23.7053 29.0906 24.0725L34.0103 30.8108C34.2777 31.1769 34.1945 31.6882 33.823 31.9525C33.6763 32.0574 33.5077 32.1068 33.3391 32.1068H33.3402Z"></path>
<path fill="#949494" d="M29.6712 34.1856C29.3528 34.1856 29.05 34.0035 28.9137 33.697L25.5214 26.0947C25.3373 25.6812 25.5266 25.1988 25.9449 25.0167C26.3632 24.8336 26.8513 25.0219 27.0354 25.4354L30.4277 33.0377C30.6118 33.4512 30.4225 33.9336 30.0042 34.1156C29.8959 34.1629 29.7825 34.1856 29.6712 34.1856Z"></path>
<path fill="#949494" d="M25.6442 35.5793C25.2062 35.5793 24.8128 35.2759 24.7192 34.8356L23.0023 26.7016C22.8951 26.1955 23.2239 25.7007 23.7348 25.5948C24.2478 25.4909 24.7473 25.8139 24.8544 26.3189L26.5714 34.453C26.6785 34.9591 26.3497 35.4538 25.8388 35.5598C25.7733 35.5731 25.7087 35.5793 25.6442 35.5793Z"></path>
<path fill="#949494" d="M21.4362 36C20.9128 35.9979 20.4914 35.5773 20.4935 35.0619L20.5268 26.753C20.5288 26.2377 20.9524 25.8221 21.4726 25.8221H21.4768C21.9992 25.8242 22.4206 26.2449 22.4185 26.7602L22.3852 35.0691C22.3831 35.5845 21.9596 36 21.4393 36H21.4362Z"></path>
<path fill="#949494" d="M17.2365 35.6626C17.1616 35.6626 17.0856 35.6544 17.0097 35.6379C16.4353 35.5145 16.0711 34.955 16.196 34.3872L17.9784 26.2665C18.1033 25.6987 18.6683 25.3376 19.2438 25.4621C19.8181 25.5855 20.1823 26.1451 20.0575 26.7129L18.275 34.8336C18.1668 35.3263 17.7266 35.6626 17.2365 35.6626Z"></path>
<path fill="#949494" d="M13.2189 34.3543C13.0733 34.3543 12.9245 34.3244 12.7829 34.2607C12.2471 34.022 12.0088 33.3997 12.2502 32.87L15.7038 25.2944C15.9452 24.7647 16.5758 24.5292 17.1106 24.7678C17.6465 25.0064 17.8848 25.6287 17.6434 26.1585L14.1898 33.734C14.0118 34.1239 13.6247 34.3543 13.2189 34.3543Z"></path>
<path fill="#949494" d="M9.56762 32.3639C9.32517 32.3639 9.07959 32.2909 8.8694 32.1376C8.34288 31.756 8.22946 31.0247 8.61551 30.5042L13.5894 23.805C13.9754 23.2846 14.7153 23.1725 15.2418 23.5541C15.7683 23.9357 15.8817 24.667 15.4957 25.1875L10.5218 31.8867C10.2898 32.1983 9.93181 32.3639 9.56762 32.3639Z"></path>
<path fill="#949494" d="M6.44074 29.5528C6.11505 29.5528 5.79143 29.4211 5.55731 29.1619C5.12236 28.6806 5.16606 27.941 5.65304 27.5121L11.9286 21.9834C12.4167 21.5535 13.1638 21.5967 13.5977 22.078C14.0326 22.5594 13.9889 23.299 13.502 23.7279L7.22636 29.2566C7.00056 29.4551 6.71961 29.5528 6.4397 29.5528H6.44074Z"></path>
<path fill="#949494" d="M3.97358 26.2757C3.52198 26.2757 3.08286 26.0422 2.8425 25.6267C2.48662 25.0095 2.7041 24.2247 3.32739 23.8729L10.629 19.7565C11.2523 19.4047 12.0473 19.6197 12.4031 20.2358C12.759 20.853 12.5415 21.6378 11.9182 21.9896L4.61665 26.106C4.41374 26.2202 4.1921 26.2747 3.97358 26.2747V26.2757Z"></path>
<path fill="#949494" d="M2.27331 22.4483C1.72286 22.4483 1.2109 22.0996 1.03401 21.5524C0.81549 20.8767 1.19425 20.1536 1.8779 19.9376L9.88707 17.4144C10.5718 17.1995 11.3033 17.5728 11.5207 18.2486C11.7393 18.9244 11.3605 19.6475 10.6769 19.8635L2.66768 22.3866C2.53657 22.4278 2.40338 22.4473 2.27227 22.4473L2.27331 22.4483Z"></path>
<path fill="#949494" d="M1.41693 18.4718C0.695826 18.4718 0.0798159 17.9318 0.00697687 17.2077C-0.0700244 16.4373 0.49916 15.7502 1.27854 15.6741L9.64358 14.8543C10.425 14.7792 11.118 15.3408 11.195 16.1112C11.272 16.8816 10.7029 17.5687 9.92349 17.6448L1.55845 18.4646C1.51058 18.4687 1.46376 18.4718 1.41693 18.4718Z"></path>
<path fill="#949494" d="M9.79966 15.2112C9.74763 15.2112 9.69456 15.2081 9.64046 15.2019L1.28582 14.2824C0.507485 14.197 -0.0533755 13.5037 0.0329908 12.7333C0.119357 11.9639 0.820693 11.4095 1.60007 11.4949L9.9547 12.4145C10.733 12.4998 11.2939 13.1931 11.2075 13.9635C11.1274 14.6804 10.5124 15.2112 9.79966 15.2112Z"></path>
<path fill="#949494" d="M10.3262 12.9452C10.1659 12.9452 10.0026 12.9205 9.84128 12.867L1.86333 10.2493C1.05794 9.98493 0.621946 9.12503 0.889369 8.3289C1.15679 7.53277 2.02566 7.10076 2.83209 7.36614L10.81 9.9839C11.6154 10.2482 12.0514 11.1081 11.784 11.9043C11.5696 12.542 10.9703 12.9452 10.3251 12.9452H10.3262Z"></path>
<path fill="#949494" d="M11.3438 10.7214C11.0795 10.7214 10.8121 10.6545 10.5676 10.5126L3.31595 6.31081C2.5834 5.886 2.33783 4.95616 2.76758 4.23203C3.19733 3.5079 4.13903 3.26516 4.87054 3.68996L12.1222 7.89175C12.8547 8.31656 13.1003 9.2464 12.6706 9.97053C12.3844 10.4529 11.8714 10.7214 11.3438 10.7214Z"></path>
<path fill="#949494" d="M12.809 8.87405C12.4104 8.87405 12.0108 8.73314 11.6935 8.44616L5.48551 2.84446C4.81019 2.23554 4.76232 1.20078 5.37937 0.533223C5.99538 -0.134331 7.04218 -0.181646 7.7175 0.428307L13.9255 6.03103C14.6008 6.63996 14.6487 7.67472 14.0316 8.34227C13.7049 8.69611 13.2574 8.87508 12.809 8.87508V8.87405Z"></path>
<path fill="#949494" d="M199.042 27.5666C198.786 25.925 198.701 24.2556 198.601 22.5934C198.486 20.6884 198.082 18.9707 196.076 18.1437C196.657 17.7631 197.265 17.4648 197.75 17.0308C199.277 15.6658 199.532 13.8555 199.432 11.9475C199.291 9.22583 197.371 6.8467 194.789 6.31286C193.824 6.11229 192.821 6.01663 191.835 6.01252C185.29 5.9868 178.746 5.99914 172.2 5.99914H171.464V29.8141H180.582V22.4473H186.548C188.607 22.4483 189.342 23.1262 189.478 25.1402C189.565 26.4146 189.655 27.69 189.752 28.9634C189.796 29.5333 189.946 29.8881 190.704 29.8758C193.802 29.8254 196.901 29.8583 200 29.8593V29.7215C199.669 29.0056 199.159 28.3164 199.043 27.5666H199.042ZM187.839 16.3221C186.836 16.4383 185.815 16.4085 184.801 16.4198C183.42 16.4332 182.037 16.4229 180.584 16.4229V12.0565C180.828 12.0442 181.049 12.0246 181.272 12.0236C183.118 12.0205 184.965 12.0184 186.812 12.0267C187.156 12.0277 187.504 12.0586 187.843 12.1162C189.119 12.3332 189.704 13.0265 189.684 14.2669C189.664 15.4971 189.12 16.1729 187.84 16.3231L187.839 16.3221Z"></path>
<path fill="#949494" d="M170.63 24.6464V29.8048H147.437V6.0516H170.609V11.1771H155.199V15.5527H169.628V20.5002H155.195V24.6464H170.63Z"></path>
<path fill="#949494" d="M145.765 15.7759C145.553 13.5624 144.94 11.4671 143.531 9.68664C141.429 7.02773 138.51 6.05263 135.237 6.01457C130.405 5.95697 125.574 5.99915 120.742 5.99915H120.08V29.8285C125.606 29.8285 131.067 29.9972 136.512 29.774C140.6 29.6063 143.516 27.4061 144.976 23.5417C145.925 21.0299 146.018 18.4122 145.765 15.7769V15.7759ZM138.864 21.4352C138.109 23.9501 136.493 25.1597 133.544 25.2811C131.259 25.3747 128.964 25.2975 126.676 25.2944C126.611 25.2944 126.545 25.2605 126.433 25.2286V10.5486C127.89 10.5486 129.296 10.5311 130.702 10.5537C131.925 10.5733 133.165 10.5219 134.367 10.7039C137.099 11.1174 138.6 12.614 139.145 15.4025C139.539 17.4237 139.456 19.4551 138.863 21.4362L138.864 21.4352Z"></path>
<path fill="#949494" d="M117.8 21.5586C117.705 26.3724 115.266 29.2237 110.506 30.1833C107.554 30.7779 104.574 30.7563 101.643 29.9828C97.6727 28.9346 95.3512 26.1811 95.2471 22.0431C95.115 16.7901 95.1899 11.5299 95.1795 6.27275C95.1795 6.20795 95.2076 6.14315 95.2336 6.03H100.052C100.052 6.32624 100.052 6.5947 100.053 6.8611C100.065 11.4784 100.065 16.0958 100.1 20.7131C100.105 21.4599 100.207 22.221 100.379 22.9503C100.921 25.2523 102.546 26.4238 104.813 26.6409C106.176 26.7715 107.603 26.7437 108.944 26.4938C111.317 26.0515 112.654 24.3543 112.837 21.8775C112.916 20.7861 112.964 19.6886 112.968 18.5932C112.983 14.6609 112.973 10.7296 112.973 6.79733V6.03103H117.781C117.803 6.15138 117.851 6.27789 117.849 6.40441C117.842 11.4558 117.899 16.5082 117.8 21.5586Z"></path>
<path fill="#949494" d="M93.2805 13.0717C91.9912 9.42846 89.4189 7.08533 85.6761 6.00429C83.3275 5.32542 80.9228 5.25342 78.5305 5.61445C73.7856 6.33241 70.4704 8.84319 68.9533 13.4389C67.9928 16.3437 67.997 19.2865 68.8731 22.2015C69.8107 25.3284 71.7336 27.7024 74.7419 29.1301C76.7772 30.0959 78.9499 30.4662 81.2006 30.388C81.6866 30.388 82.1735 30.4035 82.6584 30.3829C83.0268 30.3664 83.3952 30.3129 83.7583 30.2584C88.2722 29.5734 91.5719 27.2971 93.2014 22.9976C94.4438 19.7236 94.449 16.3797 93.2794 13.0738L93.2805 13.0717ZM90.1525 21.2696C89.1213 24.6135 86.7322 26.4701 83.314 27.1212C83.0195 27.1778 82.7219 27.2354 82.4233 27.2508C82.0091 27.2724 81.5929 27.256 81.1767 27.256C78.4671 27.2714 76.0166 26.5771 74.0884 24.5734C72.9417 23.3813 72.2903 21.9392 71.9667 20.3377C71.5515 18.2805 71.6264 16.2439 72.3039 14.2546C73.1113 11.8919 74.694 10.1937 77.053 9.29989C79.8625 8.23735 82.7032 8.24353 85.4971 9.3832C87.7884 10.3182 89.3034 12.0082 90.0714 14.3245C90.831 16.6224 90.8643 18.9614 90.1515 21.2685L90.1525 21.2696Z"></path>
<path fill="#949494" d="M69.3778 27.5162V29.7976H52.322V6.05366H54.631V27.5162H69.3778Z"></path>
</svg>
