<svg xmlns="http://www.w3.org/2000/svg" fill="none" viewBox="0 0 200 34" height="34" width="200">
<path fill="#949494" d="M182.794 16.6456L172.159 0.101807H177.926L185.772 12.8641H185.82L193.713 0.101807H199.433L188.798 16.551L200 33.8984H193.95L185.678 20.427H185.631L177.453 33.8984H171.356L182.794 16.6456Z"></path>
<path fill="#949494" d="M145.639 0.101807H169.557V4.59226H150.838V14.1876H167.24V18.6781H150.838V29.4079H170.029V33.8984H145.639V0.101807Z"></path>
<path fill="#949494" d="M119.278 0.101807H124.477V29.4079H141.588V33.8984H119.278V0.101807Z"></path>
<path fill="#949494" d="M89.7832 0.101807H103.869C107.241 0.101807 109.919 0.936873 111.905 2.607C113.921 4.24563 114.93 6.76658 114.93 10.1699C114.93 13.5732 113.921 16.0941 111.905 17.7327C109.919 19.3714 107.241 20.1907 103.869 20.1907H94.9827V33.8984H89.7832V0.101807ZM103.633 15.7002C105.618 15.7002 107.099 15.2591 108.076 14.3767C109.053 13.4629 109.541 12.0606 109.541 10.1699C109.541 8.27916 109.053 6.87688 108.076 5.96303C107.099 5.04919 105.618 4.59226 103.633 4.59226H94.9827V15.7002H103.633Z"></path>
<path fill="#949494" d="M58.7583 0.101807H72.8441C76.5625 0.101807 79.3986 0.952628 81.3523 2.65427C83.3376 4.32441 84.3302 6.71931 84.3302 9.839C84.3302 11.9503 83.7472 13.7465 82.5813 15.2275C81.4153 16.7086 79.887 17.6697 77.9963 18.1109V18.2054C79.6349 18.5205 80.8639 19.2926 81.6832 20.5215C82.534 21.7505 83.0855 23.1055 83.3376 24.5866C83.6212 26.0676 83.826 27.8008 83.952 29.7861C84.0466 31.078 84.1411 32.0077 84.2356 32.5749C84.3302 33.1421 84.5193 33.473 84.8029 33.5675V33.8984H79.2253C79.0047 33.7093 78.8629 33.3784 78.7999 32.9057C78.7683 32.4016 78.7368 31.5822 78.7053 30.4478C78.6738 28.5571 78.532 26.95 78.2799 25.6265C78.0593 24.303 77.5079 23.1528 76.6255 22.1759C75.7747 21.1675 74.4512 20.6633 72.655 20.6633H63.9577V33.8984H58.7583V0.101807ZM71.7097 16.1729C74.1046 16.1729 75.9323 15.6687 77.1927 14.6603C78.4532 13.6204 79.0835 12.1394 79.0835 10.2171C79.0835 8.35794 78.5005 6.95565 77.3345 6.0103C76.2001 5.06494 74.3567 4.59226 71.8042 4.59226H63.9577V16.1729H71.7097Z"></path>
<path fill="#949494" d="M29.4957 0.101807H53.4132V4.59226H34.6951V14.1876H51.0971V18.6781H34.6951V29.4079H53.8859V33.8984H29.4957V0.101807Z"></path>
<path fill="#949494" d="M0 0.101807H14.0858C17.4576 0.101807 20.1361 0.936873 22.1214 2.607C24.1381 4.24563 25.1465 6.76658 25.1465 10.1699C25.1465 13.5732 24.1381 16.0941 22.1214 17.7327C20.1361 19.3714 17.4576 20.1907 14.0858 20.1907H5.19947V33.8984H0V0.101807ZM13.8495 15.7002C15.8347 15.7002 17.3158 15.2591 18.2927 14.3767C19.2695 13.4629 19.758 12.0606 19.758 10.1699C19.758 8.27916 19.2695 6.87688 18.2927 5.96303C17.3158 5.04919 15.8347 4.59226 13.8495 4.59226H5.19947V15.7002H13.8495Z"></path>
</svg>
