<svg xmlns="http://www.w3.org/2000/svg" fill="none" viewBox="0 0 200 82" height="82" width="200">
<path fill="#949494" d="M48.2721 0.9915C46.8715 1.58031 46.7304 2.05645 47.6925 2.94865C48.3125 3.52355 48.3549 3.99392 48.3549 10.3062V17.0495L47.5269 17.3719C45.9395 17.9903 46.6545 18.3901 49.3485 18.3901C50.8058 18.3901 51.9981 18.255 51.9981 18.0897C51.9981 17.9244 51.6122 17.5304 51.1406 17.2138C50.2951 16.646 50.2848 16.5897 50.3954 13.0721C50.503 9.64988 50.5451 9.47341 51.437 8.6881C52.5552 7.70291 53.9621 7.63639 55.0249 8.51808C55.7618 9.12895 55.8069 9.38381 55.8069 12.9336V16.701L54.8133 17.5331L53.8197 18.3656L56.7176 18.3778C59.6226 18.3901 60.4271 18.0106 58.8224 17.3855C58.0537 17.0862 58.0252 16.9447 57.9116 12.8817C57.7745 7.98628 57.393 7.0279 55.4309 6.65086C54.5483 6.48117 53.7746 6.61183 52.5671 7.1348C51.6569 7.52881 50.7839 7.76977 50.6272 7.67067C50.4703 7.57123 50.3421 5.89576 50.3421 3.94675C50.3421 0.0572105 50.3765 0.106759 48.2721 0.9915ZM40.4843 5.58218C38.9611 7.17213 38.7213 8.04601 39.7183 8.37045C40.2982 8.5588 40.3651 8.98981 40.4634 13.1753C40.5661 17.5318 40.6128 17.8067 41.3537 18.4209C42.5252 19.3915 44.7121 19.2911 45.8457 18.2146C46.7665 17.34 46.8814 16.0711 46.017 16.3233C45.7543 16.4 45.0621 16.5303 44.4782 16.6131C43.1322 16.8042 42.9925 16.3219 43.1243 11.942L43.2213 8.71797L44.7117 8.54828C46.0365 8.3976 46.2021 8.28425 46.2021 7.53017C46.2021 6.77609 46.0365 6.66274 44.7134 6.51205C43.3684 6.35866 43.2084 6.24429 43.0547 5.32833C42.8077 3.8524 42.0711 3.92503 40.4843 5.58218ZM63.4502 7.01229C60.7347 8.01174 59.2738 10.8 59.7524 14.0699C60.4055 18.5323 65.8024 20.3401 68.6948 17.0651C69.5893 16.0525 69.1621 15.8543 67.8502 16.6735C66.2985 17.6431 64.5455 17.5807 63.3062 16.5123C62.2354 15.5889 61.4892 13.7878 61.6618 12.5417C61.7638 11.8046 61.9284 11.7652 65.5772 11.6026L69.386 11.4329L69.3134 10.4148C69.2144 9.02781 68.6752 8.08538 67.6213 7.45721C66.2459 6.63728 64.8674 6.49033 63.4502 7.01229ZM63.59 7.62485C62.6617 8.09997 61.467 10.2417 61.889 10.6741C62.0393 10.8282 63.3406 10.9093 64.7807 10.8543L67.3988 10.7542L67.3044 9.73608C67.2014 8.62871 65.8826 7.18774 64.979 7.19589C64.6704 7.1986 64.0454 7.39171 63.59 7.62485ZM2.11106 9.22194C0.908807 9.71945 0 11.381 0 13.0813C0 14.4863 0.177853 14.83 1.98487 16.9155C3.23382 18.3575 4.06247 19.6529 4.22046 20.4103C4.35823 21.0724 4.47117 26.7301 4.47117 32.983C4.47117 44.2895 4.46687 44.3591 3.7018 45.6202C3.27853 46.3176 2.51611 47.1402 2.00772 47.4477C0.0231839 48.6491 -0.592514 51.4343 0.665376 53.5198C1.76661 55.3459 2.69264 55.5394 10.2844 55.5305C18.0301 55.5214 18.8339 55.3018 19.9974 52.8783C20.5389 51.7503 20.5674 51.4031 20.2157 50.2C19.9918 49.4344 19.3579 48.4275 18.7942 47.9425C15.3755 44.9998 15.4474 45.1064 15.3013 42.759C15.1069 39.6296 15.7392 38.9611 19.7063 38.1001C21.3457 37.7444 23.5402 37.1251 24.5832 36.7239C26.7982 35.8721 30.0572 33.5124 31.1094 31.9982C32.628 29.813 33.1443 31.5885 33.137 38.9716C33.1307 45.7095 32.8651 46.8128 30.9746 47.9558C29.525 48.832 29.1454 49.5138 29.1454 51.2409C29.1454 52.9333 30.1075 54.225 31.7413 54.7266C32.5346 54.9699 35.3441 55.0639 39.5894 54.9892C45.2383 54.8895 46.3273 54.7853 47.0619 54.2738C49.7827 52.3791 48.8146 48.3328 45.3887 47.2811C43.0809 46.5728 42.8901 45.948 42.8901 39.107C42.8901 33.7632 42.9577 33.0383 43.5492 32.0358C44.3835 30.6217 45.4006 30.3614 47.3269 31.069C48.1655 31.3768 49.3535 31.6283 49.9668 31.6272C51.0157 31.6255 51.0687 31.6809 50.8627 32.5588C50.299 34.9622 50.2676 40.305 50.8048 42.4875C51.9779 47.2566 54.9368 51.4268 58.5946 53.4668C62.864 55.8478 68.5924 55.9598 73.1921 53.7519C74.9431 52.9116 78.1505 49.9614 79.722 47.7457L80.4443 46.7276L80.4626 48.6959C80.4881 51.4061 81.0746 52.4066 83.1833 53.3362C88.6345 55.7392 95.7884 55.3676 99.4654 52.4908C101.707 50.7369 102.742 48.7244 102.927 45.7566C103.247 40.6464 101.055 37.8839 93.4448 33.806C91.7402 32.8928 89.9888 31.7111 89.5533 31.1806C87.4442 28.6123 89.7931 25.6051 93.1633 26.5587C94.6319 26.9741 95.75 28.4049 96.5313 30.8684C97.2288 33.0679 98.3711 33.861 100.002 33.2786C101.082 32.8931 102.009 31.4966 102.009 30.2565C102.009 29.3368 102.598 29.5299 103.479 30.7381C104.139 31.6432 104.165 32.1489 104.265 45.9884C104.334 55.5431 104.25 60.7171 104.011 61.5496C103.738 62.5016 103.265 63.0418 102.012 63.8319C100.034 65.0784 99.6091 66.1919 100.594 67.5436L101.252 68.4473L107.639 68.5397C114.626 68.6408 115.298 68.4908 115.728 66.7342C116.018 65.5495 115.244 64.3505 113.786 63.7263C111.861 62.9024 111.579 62.093 111.685 57.7144L111.779 53.8544L113.104 53.9307C113.833 53.9728 115.741 54.1035 117.345 54.2209C121.896 54.5545 125.261 53.364 128.276 50.3538C130.211 48.4217 131.051 47.0798 132.016 44.3781C132.459 43.1374 132.825 42.5187 132.936 42.8248C134.206 46.3536 134.641 47.297 135.632 48.6769C138.921 53.2561 145.086 55.1484 150.812 53.3362C153.438 52.505 155.46 50.9989 156.905 48.7991C159.168 45.3535 157.493 43.0556 154.642 45.6949C148.511 51.3695 140.441 48.0406 139.869 39.6008C139.793 38.4808 139.882 37.3355 140.067 37.0555C140.345 36.6333 141.837 36.5176 148.811 36.3767C155.258 36.2468 157.347 36.0985 157.766 35.7414C158.169 35.398 158.313 34.7091 158.313 33.1239C158.313 28.7711 155.9 24.8228 152.061 22.8908C150.385 22.0475 149.849 21.9535 146.714 21.9535C143.462 21.9535 143.085 22.0261 141.075 23.0401C139.861 23.6527 138.158 24.9118 137.173 25.9248C135.528 27.6176 133.165 31.7131 133.123 32.9437C133.113 33.2454 132.7 32.3467 132.205 30.9468C130.626 26.4793 128.522 24.0511 124.642 22.2168C121.689 20.821 118.8 20.934 115.424 22.5772C112.268 24.1129 111.468 24.1536 110.791 22.8121C109.838 20.9228 109.32 20.9085 105.5 22.6658L102.045 24.2551L101.17 23.1901C99.8555 21.589 97.3914 20.9384 92.7354 20.9632C89.6348 20.9798 88.5832 21.1217 87.0789 21.7257C83.7835 23.0493 81.5303 25.6044 80.9726 28.6499L80.7467 29.8849L79.101 27.3637C77.2638 24.5493 74.9249 22.605 71.9094 21.3867C70.4024 20.7775 69.3555 20.6309 66.4052 20.6153C62.1317 20.5926 59.8783 21.2849 57.027 23.4959C55.054 25.0261 54.9792 25.0536 54.9775 24.2442C54.9755 23.298 53.7501 21.4943 52.6389 20.802C50.4921 19.4642 48.6073 19.6193 44.4716 21.4743L42.7414 22.2504L41.2712 21.1688C39.5209 19.8809 38.5693 19.8303 36.0519 20.8912L34.1816 21.6796L33.967 20.3038C33.1781 15.2482 28.8616 11.2466 22.3857 9.56708C20.0891 8.97148 18.7206 8.89037 11.2905 8.90904C6.62926 8.92091 2.49823 9.06175 2.11106 9.22194ZM16.3612 17.6316C15.4752 18.2377 15.2351 19.5371 15.2351 23.7223C15.2351 28.9608 15.4948 29.59 17.6552 29.588C21.2291 29.5849 23.4604 25.9078 22.5142 21.5812C22.1028 19.7 21.1937 18.518 19.6341 17.8372C18.4762 17.3316 16.9404 17.2352 16.3612 17.6316ZM185.984 21.0202C181.802 25.4096 181.496 26.535 184.485 26.535C185.006 26.535 185.552 26.726 185.7 26.9592C185.847 27.1927 186.042 32.2819 186.133 38.2691L186.299 49.1548L187.18 50.5184C188.322 52.2851 190.05 53.1207 192.592 53.1356C194.992 53.1498 196.722 52.3228 198.493 50.3147C200.637 47.8828 199.85 46.4435 197.35 48.2256C196.554 48.7926 195.29 49.3526 194.541 49.4704C193.34 49.6587 193.044 49.562 192.057 48.6583L190.936 47.632V37.4105C190.936 28.6944 191.009 27.1418 191.432 26.8672C191.706 26.6901 193.353 26.5431 195.092 26.5401C198.418 26.5346 199.05 26.2899 199.05 25.0078C199.05 23.7328 198.415 23.4806 195.202 23.4806C193.523 23.4806 191.913 23.388 191.625 23.2746C191.23 23.1195 191.101 22.5813 191.101 21.0908C191.101 18.7925 190.664 17.3719 189.957 17.3719C189.684 17.3719 187.896 19.0138 185.984 21.0202ZM169.012 22.5867C161.973 24.4227 157.316 32.6304 158.582 40.9708C160.052 50.6612 168.358 55.9605 176.927 52.6751C180.978 51.1218 184.569 46.3404 182.525 45.2194C182.015 44.9398 181.586 45.1288 180.241 46.2263C177.849 48.1774 176.056 48.9172 173.695 48.926C168.424 48.9457 165.122 44.7548 164.694 37.5021C164.401 32.5313 165.355 28.8634 167.473 26.8112C168.7 25.6227 169.907 25.1775 171.902 25.1775C174.002 25.1775 175.389 26.3694 176.792 29.3789C177.867 31.6843 178.838 32.6437 180.096 32.6437C181.113 32.6437 182.688 31.7912 182.947 31.1012C183.312 30.1259 183.166 27.8846 182.673 26.9079C182.009 25.5936 180 23.8543 178.206 23.0408C176.307 22.1805 171.484 21.9423 169.012 22.5867ZM143.759 26.2584C141.663 27.3776 140.328 29.214 140.291 31.0266L140.262 32.474L145.351 32.568C148.822 32.6318 150.586 32.5378 150.899 32.2717C151.528 31.7365 151.462 30.3672 150.727 28.7073C149.469 25.8695 146.465 24.8137 143.759 26.2584ZM63.6394 27.4312C58.8068 29.9535 58.7303 42.8336 63.5205 47.4138C64.6058 48.4516 66.539 49.1005 67.6743 48.8083C68.8776 48.4991 70.474 47.0137 71.2254 45.5038C73.674 40.586 72.2618 30.8043 68.7014 28.0218C67.2471 26.8852 65.1536 26.6409 63.6394 27.4312ZM116.309 27.306C114.516 27.6776 112.586 29.5659 112.02 31.5034C111.769 32.3627 111.614 35.082 111.614 38.6349C111.614 43.9213 111.673 44.4965 112.359 45.8724C113.507 48.174 115.196 49.3703 117.545 49.5444C120.117 49.7347 121.625 49.1775 123.005 47.5265C124.72 45.4736 125.318 42.7647 125.108 38.0135C124.911 33.5729 124.349 31.6442 122.662 29.6249C120.817 27.4167 118.991 26.7505 116.309 27.306ZM82.1371 38.3386C82.1371 39.4691 82.0467 40.6352 81.9361 40.9304C81.7738 41.3641 81.9864 41.4673 83.0439 41.4673C84.6529 41.4673 85.1613 41.9981 86.1333 44.6913C86.5977 45.9776 87.3439 47.1962 88.1599 48.0002C89.3595 49.1826 89.5924 49.2729 91.4398 49.2729C93.109 49.2729 93.5585 49.1391 94.2407 48.4397C95.1933 47.464 95.2774 46.3628 94.4894 45.1912C93.6724 43.9763 93.3014 43.7153 89.0922 41.3923C86.9974 40.2364 84.5757 38.6139 83.7103 37.7872L82.1371 36.2838V38.3386ZM121.259 56.6732L119.478 57.5023L120.514 58.3331L121.55 59.1638V67.058C121.55 71.3995 121.649 75.0542 121.771 75.1791C121.893 75.3037 122.266 75.1526 122.6 74.8428C123.116 74.3646 123.401 74.3388 124.487 74.6724C129.014 76.0622 132.61 73.3095 132.599 68.463C132.591 65.0143 130.994 62.8626 128.243 62.5918C127.02 62.4714 126.293 62.6119 125.212 63.1772C124.429 63.5862 123.663 63.7915 123.509 63.6337C123.355 63.4759 123.186 61.6586 123.134 59.5955L123.04 55.8444L121.259 56.6732ZM152.733 56.8632L151.292 57.6353L152.153 58.2133L153.013 58.7909V66.0602C153.013 73.1877 152.999 73.3401 152.277 73.8579C151.581 74.3578 151.665 74.3863 153.841 74.3863C156.018 74.3863 156.102 74.3578 155.406 73.8579C154.678 73.3356 154.669 73.2332 154.669 64.6949C154.669 59.9457 154.558 56.0671 154.421 56.0756C154.284 56.084 153.524 56.4383 152.733 56.8632ZM165.847 56.7621C165.164 57.1317 164.605 57.523 164.605 57.6316C164.605 57.7402 164.985 58.1352 165.449 58.5089C166.201 59.1156 166.282 59.3946 166.194 61.103C166.1 62.9275 166.057 63.012 165.268 62.9034C164.812 62.8406 163.615 62.769 162.607 62.7442C159.08 62.6577 157.003 64.9298 156.993 68.8851C156.981 73.7005 159.979 76.1015 163.865 74.3884C165.592 73.6272 166.261 73.6859 166.261 74.5988C166.261 75.1886 167.047 75.0166 168.911 74.0188C169.799 73.5437 169.911 73.3947 169.391 73.3832C167.983 73.3523 167.917 72.9467 167.917 64.307C167.917 57.9278 167.824 56.0637 167.503 56.0752C167.276 56.0837 166.531 56.3925 165.847 56.7621ZM171.186 57.7249C170.684 58.1413 170.547 58.516 170.707 59.0335C171.094 60.2827 172.917 60.4039 173.364 59.2103C173.917 57.7344 172.412 56.7078 171.186 57.7249ZM148.099 57.7157C147.856 57.8742 147.707 58.368 147.768 58.8136C147.857 59.4611 148.079 59.6237 148.869 59.6237C149.968 59.6237 150.379 58.7637 149.688 57.9105C149.238 57.3543 148.748 57.2942 148.099 57.7157ZM191.674 62.4951C188.522 63.1213 187.17 67.3552 189.447 69.4672C190.296 70.2542 190.28 70.4462 189.28 71.4708C188.349 72.4251 188.209 73.8593 188.949 74.8618C189.379 75.4435 189.329 75.6206 188.442 76.6554C187.178 78.1303 187.184 79.1803 188.461 80.2816C191.012 82.4807 197.032 81.5532 198.73 78.6998C199.551 77.3199 199.561 75.7068 198.754 74.6853C198.187 73.9682 197.787 73.8742 194.624 73.7144C191.876 73.5759 190.997 73.409 190.538 72.9376C189.518 71.8913 190.336 71.1925 192.843 70.9682C194.044 70.8606 195.403 70.5114 195.888 70.1859C197.179 69.3192 198.054 67.6332 198.055 66.0093C198.056 64.7143 198.136 64.5802 198.964 64.4821C199.512 64.4176 199.916 64.139 199.982 63.781C200.073 63.2909 199.842 63.1851 198.66 63.1749C197.873 63.1684 196.334 62.9417 195.241 62.6712C194.148 62.4008 193.179 62.1948 193.088 62.2134C192.997 62.2318 192.361 62.3587 191.674 62.4951ZM142.25 62.8216C141.096 63.0103 141.021 63.0727 141.669 63.3052C142.664 63.6615 142.847 64.6135 142.69 68.616C142.566 71.7742 142.498 72.0549 141.616 72.9983C140.723 73.953 140.713 73.9957 141.428 73.8043C141.941 73.6669 142.323 73.7982 142.62 74.2139C143.04 74.8034 143.115 74.8027 144.64 74.196C145.791 73.7381 146.043 73.5311 145.561 73.4385C144.253 73.1867 144.071 72.4468 144.071 67.3644C144.071 64.6936 143.959 62.5301 143.823 62.5565C143.686 62.583 142.978 62.7021 142.25 62.8216ZM148.146 63.3055L146.756 64.0355L147.566 64.7733C148.332 65.4707 148.377 65.7144 148.377 69.1946C148.377 71.9788 148.251 73.0618 147.861 73.6319C147.348 74.3823 147.354 74.3863 149.061 74.3863C150.618 74.3863 150.734 74.3344 150.321 73.8267C149.997 73.4263 149.82 71.7454 149.701 67.9213L149.536 62.5759L148.146 63.3055ZM170.972 63.2987L169.555 64.0589L170.458 64.7496C171.358 65.4378 171.361 65.4538 171.288 69.3195C171.223 72.7132 171.132 73.2691 170.559 73.7619C170.199 74.0717 169.905 74.4155 169.905 74.5255C169.905 74.6358 172.14 74.7257 174.873 74.7257C177.605 74.7257 179.84 74.6562 179.84 74.5713C179.84 74.4865 179.451 74.0185 178.976 73.5311C178.133 72.6678 178.114 72.5531 178.24 69.067C178.368 65.5301 178.382 65.4782 179.441 64.5079C180.797 63.2672 182.214 63.2132 183.333 64.3596C184.106 65.1517 184.146 65.3923 184.146 69.2876C184.146 73.3265 184.135 73.3883 183.318 73.7694C181.874 74.4434 182.412 74.7257 185.14 74.7257C187.852 74.7257 188.405 74.4434 186.987 73.7816C186.205 73.4164 186.183 73.2942 186.077 68.8325C185.974 64.5351 185.919 64.2049 185.165 63.3829C184.164 62.2925 182.311 62.2216 180.221 63.1932C178.728 63.8876 178.184 63.8353 178.184 62.9974C178.184 62.7283 178.029 62.5083 177.84 62.5083C177.428 62.5083 174.873 63.8163 174.873 64.027C174.873 64.1081 175.245 64.5561 175.701 65.0227C176.471 65.8125 176.529 66.1016 176.529 69.2048C176.529 72.8646 176.095 74.047 174.754 74.047C173.344 74.047 173.217 73.5338 173.217 67.8704C173.217 63.799 173.117 62.5121 172.803 62.5236C172.575 62.5321 171.751 62.881 170.972 63.2987ZM133.804 63.1508C133.804 63.3174 134.016 63.5373 134.275 63.6391C134.645 63.7844 134.77 64.8615 134.855 68.6265C134.963 73.4093 134.967 73.432 135.893 74.2469C136.93 75.1608 138.117 75.264 139.6 74.5683L140.594 74.102L139.21 74.0745C138.128 74.0531 137.677 73.8518 137.14 73.1527C136.52 72.3457 136.454 71.7997 136.454 67.5531V62.8477H135.129C134.4 62.8477 133.804 62.9841 133.804 63.1508ZM161.293 63.0873C159.334 63.821 158.304 66.8598 158.952 69.9898C159.369 72.0033 159.705 72.587 160.953 73.4687C162.217 74.3612 163.76 74.2048 165.014 73.057C166.061 72.099 166.099 71.969 166.21 69.0297C166.298 66.6887 166.198 65.7426 165.774 64.9023C165.005 63.3799 162.847 62.5056 161.293 63.0873ZM191.583 63.6809C190.933 64.3471 190.77 64.8595 190.77 66.2428C190.77 69.7787 192.875 71.5047 194.725 69.4865C196.229 67.8463 195.863 64.1638 194.1 63.1973C193.109 62.6536 192.465 62.7775 191.583 63.6809ZM124.453 64.5167L123.371 65.507V68.9564V72.4058L124.453 73.3961C125.707 74.5442 127.548 74.7294 128.797 73.8328C131.083 72.1926 131.055 66.3402 128.752 64.3549C127.405 63.1932 125.834 63.2522 124.453 64.5167ZM190.337 75.9814C188.984 76.3408 188.988 79.0208 190.343 79.7637C190.95 80.0966 192.558 80.2483 194.842 80.1886C196.187 80.1533 197.725 78.959 197.725 77.9497C197.725 77.6528 197.359 77.0351 196.912 76.577C196.18 75.8263 195.844 75.7476 193.517 75.7832C192.097 75.8049 190.666 75.8942 190.337 75.9814Z" clip-rule="evenodd" fill-rule="evenodd"></path>
</svg>
