<svg width="968" height="495" viewBox="0 0 968 495" fill="none" xmlns="http://www.w3.org/2000/svg">
<path d="M917.576 144.897H902.538C900.415 144.897 898.646 143.997 897.231 142.195C895.815 140.169 894.695 137.692 893.869 134.765C893.044 131.612 892.513 128.235 892.277 124.632C892.041 121.029 892.041 117.539 892.277 114.161L898.469 30.7358C898.705 27.3582 899.177 23.8681 899.884 20.2653C900.71 16.6626 901.713 13.3976 902.892 10.4704C904.189 7.31804 905.664 4.84117 907.315 3.03981C909.084 1.01327 911.03 0 913.153 0H967.998L964.106 53.3654H936.507C933.794 53.3654 931.966 55.0542 931.022 58.4317C930.197 61.8093 929.607 66.0875 929.253 71.2665L929.076 73.9685C928.722 78.0216 928.663 81.8495 928.899 85.4522C929.135 89.0549 930.432 91.0815 932.791 91.5318H948.714C950.837 91.5318 952.606 92.5451 954.022 94.5716C955.437 96.373 956.558 98.8498 957.383 102.002C958.209 104.929 958.74 108.194 958.976 111.797C959.329 115.4 959.388 118.89 959.152 122.268L952.96 205.693C952.724 209.071 952.194 212.561 951.368 216.164C950.542 219.766 949.481 223.144 948.183 226.296C947.004 229.224 945.53 231.7 943.76 233.727C942.109 235.528 940.222 236.429 938.099 236.429H883.254L887.146 183.064H914.746C917.458 183.064 919.228 181.375 920.053 177.997C920.997 174.62 921.704 170.341 922.176 165.163L922.353 162.46C922.471 160.434 922.53 158.407 922.53 156.381C922.648 154.129 922.589 152.215 922.353 150.639C922.117 148.838 921.586 147.487 920.761 146.586C920.053 145.46 918.992 144.897 917.576 144.897Z" fill="#EDEDED"/>
<path d="M809.441 57.7562L813.688 0H889.94L885.694 57.7562C885.576 58.6569 885.34 59.1072 884.986 59.1072H884.278C882.273 57.7562 880.091 56.6304 877.732 55.7297C875.373 54.829 873.133 54.1535 871.009 53.7032H864.64L851.194 236.429H817.403L830.849 53.7032H824.833C822.71 54.1535 820.41 54.829 817.933 55.7297C815.457 56.6304 813.098 57.7562 810.857 59.1072H810.149C809.795 59.1072 809.559 58.6569 809.441 57.7562Z" fill="#EDEDED"/>
<path d="M705.988 236.429L721.203 28.7092C721.321 24.6562 721.321 20.3779 721.203 15.8745C721.085 11.1459 720.791 6.75512 720.319 2.70205L720.496 1.35102C720.496 0.675508 720.732 0.225168 721.203 0H757.118L750.395 91.5318H762.603L769.326 0H803.117L785.779 236.429H751.987L758.71 144.897H746.503L739.78 236.429H705.988Z" fill="#EDEDED"/>
<path d="M697.722 205.693C697.486 209.071 696.955 212.561 696.129 216.164C695.304 219.766 694.242 223.144 692.945 226.296C691.765 229.224 690.291 231.7 688.522 233.727C686.87 235.528 684.983 236.429 682.86 236.429H628.192C626.069 236.429 624.3 235.528 622.885 233.727C621.469 231.7 620.349 229.224 619.523 226.296C618.697 223.144 618.167 219.766 617.931 216.164C617.695 212.561 617.695 209.071 617.931 205.693L630.846 30.7358C631.082 27.3582 631.554 23.8681 632.261 20.2653C633.087 16.6626 634.089 13.3976 635.269 10.4704C636.566 7.31804 638.041 4.84117 639.692 3.03981C641.461 1.01327 643.407 0 645.53 0H712.76L708.514 57.4185C708.396 58.3192 708.16 58.7695 707.806 58.7695H707.098C705.093 57.4185 702.911 56.2926 700.552 55.3919C698.193 54.4912 695.952 53.8157 693.829 53.3654H666.938C664.932 54.2661 663.635 56.2926 663.045 59.445C662.456 62.5974 661.984 66.4253 661.63 70.9287L654.553 165.838C654.435 167.865 654.317 170.004 654.199 172.255C654.199 174.282 654.317 176.196 654.553 177.997C654.789 179.573 655.261 180.924 655.969 182.05C656.794 182.951 657.915 183.401 659.33 183.401C662.279 183.401 664.166 181.6 664.991 177.997C665.935 174.395 666.525 170.341 666.761 165.838L669.414 130.036C669.532 125.983 669.532 121.705 669.414 117.201C669.296 112.473 669.002 108.082 668.53 104.029L668.707 102.678C668.707 102.002 668.943 101.552 669.414 101.327H705.329L697.722 205.693Z" fill="#EDEDED"/>
<path d="M571.227 236.429L586.442 28.7092C586.56 24.6562 586.56 20.3779 586.442 15.8745C586.324 11.1459 586.029 6.75512 585.557 2.70205L585.734 1.35102C585.734 0.675508 585.97 0.225168 586.442 0H622.356L605.018 236.429H571.227Z" fill="#EDEDED"/>
<path d="M526.866 236.429L539.074 70.5909C539.192 68.3392 539.31 66.2001 539.428 64.1736C539.546 61.9219 539.428 60.0079 539.074 58.4317C538.838 56.8555 538.307 55.6171 537.481 54.7164C536.774 53.5906 535.653 53.0276 534.12 53.0276C532.705 53.0276 531.525 53.5906 530.582 54.7164C529.756 55.6171 529.048 56.9681 528.459 58.7695C527.987 60.3457 527.633 62.2596 527.397 64.5113C527.161 66.5379 526.984 68.5644 526.866 70.5909L514.659 236.429H480.867L496.082 28.7092C496.2 24.6562 496.2 20.3779 496.082 15.8745C495.964 11.1459 495.669 6.75512 495.198 2.70205L495.375 1.35102C495.375 0.675508 495.611 0.225168 496.082 0H525.451C526.041 1.80137 526.689 5.06634 527.397 9.79493C528.105 14.5235 528.636 19.1395 528.989 23.6429C529.579 21.6164 530.405 19.2521 531.466 16.55C532.646 13.848 533.943 11.3711 535.358 9.11941C536.774 6.64254 538.307 4.61601 539.958 3.03981C541.728 1.23844 543.615 0.337752 545.62 0.337752V0H565.435C567.558 0 569.327 1.01327 570.742 3.03981C572.158 4.84117 573.278 7.31804 574.104 10.4704C574.929 13.3976 575.46 16.6626 575.696 20.2653C576.05 23.8681 576.109 27.3582 575.873 30.7358L560.658 236.429H526.866Z" fill="#EDEDED"/>
<path d="M439.898 30.7358L426.983 205.693C426.747 209.071 426.217 212.561 425.391 216.164C424.565 219.766 423.504 223.144 422.206 226.296C421.027 229.224 419.553 231.7 417.783 233.727C416.132 235.528 414.245 236.429 412.122 236.429H357.454C355.331 236.429 353.562 235.528 352.146 233.727C350.731 231.7 349.61 229.224 348.785 226.296C347.959 223.144 347.428 219.766 347.193 216.164C346.957 212.561 346.957 209.071 347.193 205.693L360.108 30.7358C360.344 27.3582 360.815 23.8681 361.523 20.2653C362.349 16.6626 363.351 13.3976 364.531 10.4704C365.828 7.31804 367.302 4.84117 368.954 3.03981C370.723 1.01327 372.669 0 374.792 0H429.46C431.583 0 433.352 1.01327 434.768 3.03981C436.183 4.84117 437.304 7.31804 438.129 10.4704C438.955 13.3976 439.486 16.6626 439.722 20.2653C440.075 23.8681 440.134 27.3582 439.898 30.7358ZM396.022 165.838L403.099 70.5909C403.217 68.3392 403.335 66.2001 403.453 64.1736C403.571 61.9219 403.453 60.0079 403.099 58.4317C402.863 56.8555 402.332 55.6171 401.507 54.7164C400.799 53.5906 399.679 53.0276 398.145 53.0276C395.433 53.0276 393.604 54.7164 392.661 58.094C391.835 61.4715 391.246 65.7498 390.892 70.9287L383.815 165.838C383.697 167.865 383.579 170.004 383.461 172.255C383.461 174.282 383.579 176.196 383.815 177.997C384.051 179.573 384.523 180.924 385.23 182.05C386.056 182.951 387.176 183.401 388.592 183.401C391.54 183.401 393.428 181.6 394.253 177.997C395.197 174.395 395.786 170.341 396.022 165.838Z" fill="#EDEDED"/>
<path d="M305.665 0L300.18 74.3063C300.062 76.558 299.945 78.8097 299.827 81.0614C299.827 83.0879 299.945 84.8893 300.18 86.4655C300.534 88.0416 301.065 89.3927 301.773 90.5185C302.598 91.4192 303.719 91.8695 305.134 91.8695H311.149L317.872 0H351.664L336.626 205.693C336.39 209.071 335.859 212.561 335.034 216.164C334.208 219.766 333.146 223.144 331.849 226.296C330.67 229.224 329.195 231.7 327.426 233.727C325.775 235.528 323.888 236.429 321.765 236.429H254.535L258.781 179.011C258.899 178.11 259.135 177.66 259.489 177.66H260.197C262.202 179.011 264.384 180.136 266.743 181.037C269.219 181.938 271.46 182.613 273.466 183.064H300.357C302.362 182.163 303.66 180.136 304.25 176.984C304.957 173.606 305.488 169.666 305.842 165.163L307.257 145.235H273.819C271.696 145.235 269.927 144.334 268.512 142.533C267.096 140.506 265.976 138.029 265.15 135.102C264.325 131.95 263.794 128.572 263.558 124.97C263.322 121.367 263.322 117.877 263.558 114.499L271.873 0H305.665Z" fill="#EDEDED"/>
<path d="M208.579 91.5318H214.594C217.543 91.5318 219.371 90.2934 220.078 87.8165C220.904 85.3396 221.494 81.8495 221.848 77.3461L227.509 0H261.301L255.285 82.0746C254.578 91.5318 252.691 99.075 249.624 104.704C246.675 110.334 243.137 114.724 239.009 117.877V118.552C242.665 121.705 245.555 126.095 247.678 131.725C249.919 137.354 250.686 144.897 249.978 154.354L243.963 236.429H210.171L215.832 159.083C216.186 154.58 216.127 151.089 215.655 148.613C215.302 146.136 213.65 144.897 210.702 144.897H204.686L197.964 236.429H164.172L179.564 28.0337C179.564 24.2058 179.505 20.0402 179.387 15.5368C179.269 11.0334 178.974 6.75512 178.502 2.70205L178.679 1.35102C178.679 0.675508 178.915 0.225168 179.387 0H215.302L208.579 91.5318Z" fill="#EDEDED"/>
<path d="M168.82 30.7358L155.905 205.693C155.669 209.071 155.139 212.561 154.313 216.164C153.487 219.766 152.426 223.144 151.128 226.296C149.949 229.224 148.475 231.7 146.705 233.727C145.054 235.528 143.167 236.429 141.044 236.429H86.3758C84.2527 236.429 82.4835 235.528 81.0682 233.727C79.6528 231.7 78.5323 229.224 77.7067 226.296C76.8811 223.144 76.3503 219.766 76.1144 216.164C75.8785 212.561 75.8785 209.071 76.1144 205.693L89.0296 30.7358C89.2654 27.3582 89.7372 23.8681 90.4449 20.2653C91.2705 16.6626 92.2731 13.3976 93.4525 10.4704C94.75 7.31804 96.2243 4.84117 97.8755 3.03981C99.6447 1.01327 101.591 0 103.714 0H158.382C160.505 0 162.274 1.01327 163.69 3.03981C165.105 4.84117 166.225 7.31804 167.051 10.4704C167.877 13.3976 168.407 16.6626 168.643 20.2653C168.997 23.8681 169.056 27.3582 168.82 30.7358ZM124.944 165.838L132.021 70.5909C132.139 68.3392 132.257 66.2001 132.375 64.1736C132.493 61.9219 132.375 60.0079 132.021 58.4317C131.785 56.8555 131.254 55.6171 130.429 54.7164C129.721 53.5906 128.601 53.0276 127.067 53.0276C124.355 53.0276 122.526 54.7164 121.583 58.094C120.757 61.4715 120.167 65.7498 119.814 70.9287L112.737 165.838C112.619 167.865 112.501 170.004 112.383 172.255C112.383 174.282 112.501 176.196 112.737 177.997C112.973 179.573 113.444 180.924 114.152 182.05C114.978 182.951 116.098 183.401 117.514 183.401C120.462 183.401 122.349 181.6 123.175 177.997C124.119 174.395 124.708 170.341 124.944 165.838Z" fill="#EDEDED"/>
<path d="M0 57.7562L4.24607 0H80.4984L76.2523 57.7562C76.1344 58.6569 75.8985 59.1072 75.5447 59.1072H74.837C72.8319 57.7562 70.6499 56.6304 68.291 55.7297C65.932 54.829 63.6911 54.1535 61.568 53.7032H55.1989L41.753 236.429H7.96138L21.4073 53.7032H15.392C13.269 54.1535 10.969 54.829 8.49214 55.7297C6.01527 56.6304 3.65634 57.7562 1.41536 59.1072H0.707678C0.353839 59.1072 0.117947 58.6569 0 57.7562Z" fill="#EDEDED"/>
</svg>
