<svg xmlns="http://www.w3.org/2000/svg" fill="none" viewBox="0 0 200 50" height="50" width="200">
<path fill="#949494" d="M90.03 3.21678L90.0058 6.43356L87.9101 3.36501C86.2442 0.925883 85.764 0.283785 85.5686 0.234407C85.3035 0.16746 79.3563 0.405658 75.7629 0.627119C71.8345 0.8692 65.3913 1.31295 64.9358 1.37269L64.4921 1.43094L64.5482 2.22719C64.579 2.66512 64.6262 3.20032 64.6529 3.41642C64.6797 3.63261 64.6803 3.80941 64.6545 3.80941C64.6287 3.80941 63.7474 3.38877 62.6962 2.87456C61.645 2.36043 60.6402 1.90383 60.4633 1.86C60.0931 1.76817 49.5355 2.84681 49.3921 2.99107C49.3663 3.01705 49.4142 3.66923 49.4987 4.44041C49.5832 5.2115 49.6306 5.86423 49.604 5.89096C49.5774 5.91777 48.4434 5.60033 47.084 5.1857C42.7647 3.86812 41.5176 3.63695 39.3377 3.74977C34.8752 3.98066 31.4583 5.44415 28.536 8.37594C27.7594 9.15517 27.5792 9.29193 27.3415 9.28269C27.023 9.27039 24.2027 8.82266 22.2832 8.47969C20.6618 8.18999 18.5207 8.09068 17.1374 8.24094C16.0982 8.35384 14.0255 8.78586 6.84577 10.386C1.06178 11.6751 0 11.9386 0 12.0846C0 12.152 1.0152 16.4448 2.25607 21.6241C3.49686 26.8035 4.68058 31.7486 4.88641 32.6132C5.09233 33.4778 5.31599 34.2944 5.38353 34.4279C5.45098 34.5614 5.8076 34.9406 6.17599 35.2705C7.5048 36.4605 10.9729 39.3363 11.1701 39.4117C11.3084 39.4646 16.2626 38.6333 26.9269 36.7677C35.4823 35.271 42.5529 34.0465 42.6395 34.0465C42.7584 34.0465 42.81 34.1536 42.8504 34.4857C42.8799 34.7273 43.1149 36.6726 43.3727 38.8086C43.764 42.0505 43.8749 42.7546 44.0432 43.0691C44.327 43.5997 50.7448 49.9208 51.0734 49.9934C51.2111 50.0238 52.1707 49.9458 53.2058 49.82C63.0737 48.6204 77.7814 47.5151 89.822 47.0682C94.1615 46.9072 112.999 46.9049 116.516 47.065C126.71 47.5291 134.048 48.1065 143.945 49.2234C144.956 49.3374 145.895 49.4016 146.033 49.3661C146.305 49.2958 153.279 43.3236 153.519 42.956C153.609 42.8177 153.729 42.2067 153.831 41.3708C153.923 40.6227 154.146 38.7831 154.328 37.2829C154.683 34.3575 154.704 34.2314 154.85 34.2314C154.902 34.2314 160.164 35.4173 166.543 36.8667C172.921 38.3162 178.248 39.5021 178.379 39.5021C178.574 39.5021 179.176 38.9022 181.681 36.212C183.365 34.4024 184.813 32.7899 184.897 32.6288C184.982 32.4677 185.346 30.9627 185.708 29.2844C186.069 27.6061 186.404 26.0807 186.451 25.8947C186.524 25.6134 187.408 24.7029 191.706 20.4833C194.548 17.6929 197.582 14.7243 198.447 13.8864C199.313 13.0484 200.011 12.3515 200 12.3379C199.952 12.281 188.793 9.66911 188.236 9.58432C188.025 9.55214 187.143 9.62953 186.168 9.76583C182.71 10.2489 181.715 10.3547 181.646 10.2464C181.61 10.1898 181.428 9.72736 181.241 9.21879C181.055 8.71022 180.833 8.21856 180.747 8.12619C180.627 7.99627 179.647 7.78267 176.419 7.18274C174.125 6.75618 171.553 6.27451 170.705 6.11233L169.164 5.81754L168.562 5.98139C167.815 6.18491 167.334 6.13267 166.412 5.74809C165.27 5.27179 163.839 4.95573 161.036 4.5609C159.571 4.35432 156.697 3.94894 154.65 3.65979C152.603 3.37074 150.449 3.11553 149.863 3.0926C148.662 3.04571 149.024 2.94908 145.507 4.25464C144.547 4.61101 143.747 4.88842 143.729 4.87094C143.712 4.85346 143.539 4.29061 143.346 3.62013C143.154 2.94964 142.953 2.3584 142.901 2.30625C142.807 2.211 131.166 1.1332 130.193 1.12968C129.61 1.12765 129.911 0.950849 125.679 3.78657L123.678 5.12773L122.739 4.21146C120.534 2.06111 118.597 1.03305 115.712 0.482683C113.88 0.133062 112.63 0.095612 101.195 0.0471587L90.0541 0L90.03 3.21678ZM93.5308 1.84344C92.0827 1.86878 91.9064 1.88875 91.8768 2.03152C91.8585 2.11937 91.8693 3.35631 91.9007 4.78032C91.9322 6.20433 91.9632 8.31325 91.9697 9.46688C91.9808 11.4575 91.9725 11.5671 91.8055 11.6205C91.3057 11.7801 91.2718 11.7373 88.0127 6.84819C85.7578 3.46524 84.8166 2.12593 84.668 2.08839C84.4773 2.04022 78.9588 2.25252 76.8886 2.38771L75.9926 2.44624L75.9882 2.73484C75.9858 2.89351 76.2219 7.31367 76.513 12.5572L77.0422 22.091L77.4134 22.058C77.6174 22.0398 79.1697 21.9604 80.8628 21.8816C83.0697 21.7787 83.9747 21.7048 84.0599 21.6203C84.1558 21.5252 84.1601 21.0943 84.0821 19.383C84.0288 18.2173 83.9585 16.0673 83.9255 14.6051L83.8656 11.9466H84.1848C84.4153 11.9466 84.5687 12.0172 84.7369 12.2009C84.8649 12.3407 86.3018 14.4416 87.9299 16.8693C89.558 19.2971 90.9693 21.3391 91.0659 21.4073C91.2084 21.5077 91.9855 21.5234 95.1723 21.4901C97.6148 21.4646 99.1465 21.4138 99.2182 21.3558C99.3095 21.2818 99.3285 19.2488 99.3101 11.542L99.2866 1.82134L97.2191 1.8182C96.082 1.81654 94.4222 1.82782 93.5308 1.84344ZM101.801 1.84039C101.211 1.87442 101.19 1.88422 101.138 2.14665C101.065 2.51254 101.052 21.2599 101.124 21.3777C101.158 21.4336 101.738 21.4703 102.577 21.4695C103.345 21.4689 106.11 21.5166 108.721 21.5755C113.88 21.692 114.657 21.658 116.279 21.2439C120.491 20.1686 123.074 17.2761 123.588 13.0586C124.254 7.59366 121.154 3.47643 115.515 2.33408C114.147 2.05695 112.815 1.97318 108.889 1.91723C106.893 1.88875 104.619 1.85186 103.835 1.83531C103.052 1.81875 102.137 1.82107 101.801 1.84039ZM72.1333 2.66909C70.9748 2.73992 67.6344 2.98487 67.1023 3.03795L66.528 3.09518V3.61892C66.528 4.10031 66.873 8.59056 67.2221 12.6544C67.3798 14.4899 67.3307 15.1212 66.9697 15.8939C66.5298 16.8358 65.1877 17.7254 64.0468 17.8315C62.5929 17.9666 61.0727 17.159 60.5039 15.9493C60.2205 15.3464 60.2251 15.3822 59.5972 8.91679C59.2957 5.81264 59.078 3.95033 59.0084 3.88033C58.9226 3.79397 58.5368 3.80534 57.2686 3.93165C54.9188 4.16578 51.4217 4.55507 51.3911 4.58586C51.3766 4.60038 51.5304 6.0648 51.7327 7.84018C52.8224 17.403 52.8747 17.7148 53.6361 19.1857C53.9829 19.8559 54.2534 20.2174 54.904 20.8803C56.1678 22.1683 57.5226 22.8817 59.6823 23.3966C60.6227 23.6207 60.8464 23.6376 62.8984 23.6397C64.7894 23.6417 65.2657 23.6126 66.2405 23.4349C70.3277 22.6904 73.1705 20.652 74.2837 17.6681C74.7028 16.5447 74.8156 15.6299 74.7767 13.673C74.7368 11.6716 74.2753 3.47338 74.1746 2.97719L74.1089 2.65356L73.3738 2.64588C72.9695 2.64163 72.4113 2.65208 72.1333 2.66909ZM130.621 3.19607C130.27 3.73469 121.795 22.0091 121.865 22.0741C121.88 22.0872 123.525 22.2047 125.52 22.3351C128.601 22.5364 129.177 22.5532 129.334 22.4467C129.435 22.3776 129.658 21.9737 129.83 21.5492C130.297 20.3897 130.321 20.3613 130.83 20.3608C131.069 20.3606 132.918 20.509 134.939 20.6904C137.681 20.9365 138.652 21.0548 138.763 21.1561C138.846 21.2316 139.008 21.7267 139.128 22.2688C139.246 22.806 139.39 23.3094 139.446 23.3873C139.526 23.4969 140.266 23.6074 142.712 23.8745C146.847 24.3261 146.931 24.3339 146.931 24.2655C146.931 24.1655 145.22 17.536 144.218 13.7497C142.579 7.56435 141.627 4.16513 141.497 4.03632C141.41 3.94977 140.4 3.82651 138.156 3.62863C136.387 3.47264 134.03 3.26218 132.918 3.16111C131.806 3.05995 130.867 2.97719 130.83 2.97719C130.793 2.97719 130.699 3.07567 130.621 3.19607ZM150.336 5.21955C150.263 5.40365 148.075 23.1813 148.013 24.0998L147.988 24.4632L151.572 24.9434C153.543 25.2076 155.171 25.4099 155.19 25.3928C155.209 25.3756 155.368 24.3718 155.543 23.162C155.718 21.9521 155.88 20.9043 155.901 20.8335C155.95 20.6743 156.433 20.7129 158.694 21.057C159.75 21.2178 160.379 21.3571 160.528 21.463C160.75 21.6216 161.009 22.2694 162.135 25.4779C162.395 26.2196 162.537 26.4993 162.68 26.5549C162.899 26.6396 169.549 27.7767 169.589 27.7362C169.603 27.7218 169.118 26.3167 168.511 24.6136C167.187 20.9025 167.241 21.0744 167.341 20.8942C167.385 20.8145 167.639 20.6238 167.905 20.4704C168.65 20.0401 169.299 19.4073 169.849 18.5748C172.014 15.3013 171.488 11.3383 168.581 9.02026C167.791 8.38991 166.219 7.55446 165.217 7.23239C164.053 6.8578 161.082 6.37752 153.784 5.38386C150.543 4.9426 150.449 4.93807 150.336 5.21955ZM38.1801 5.62326C38.0285 5.6461 37.4594 5.74809 36.9154 5.84972C33.266 6.53213 29.6825 9.00685 28.0871 11.9466C26.7302 14.4468 26.6896 17.9238 27.9855 20.6334C28.5337 21.7797 29.0306 22.4651 29.9677 23.3681C31.6372 24.9768 33.7089 26.0038 36.1126 26.4142C40.7586 27.2075 45.4074 25.7836 48.387 22.6549C50.4884 20.4481 51.4117 17.7643 51.1109 14.7368C50.8038 11.6455 49.3862 9.24764 46.8637 7.55242C44.855 6.20257 43.0098 5.6694 40.1557 5.61438C39.2208 5.59635 38.3317 5.60033 38.1801 5.62326ZM109.188 7.84703L108.705 7.88771L108.704 8.69191C108.703 9.13427 108.662 10.8669 108.612 12.5423C108.548 14.7024 108.55 15.6061 108.62 15.6496C108.805 15.7646 112.405 15.8417 112.92 15.7417C114.138 15.5053 115.251 14.6546 115.735 13.5908C116.392 12.1425 116.152 10.2918 115.16 9.16941C114.369 8.27515 113.208 7.89927 111.059 7.84287C110.295 7.8228 109.453 7.82474 109.188 7.84703ZM171.603 8.49079C171.849 9.07852 176.273 20.0153 176.879 21.5316C177.187 22.3025 177.438 23.0515 177.436 23.196C177.435 23.3406 177.191 24.6864 176.893 26.1867C176.485 28.2482 176.379 28.9398 176.459 29.0181C176.518 29.075 176.835 29.1716 177.163 29.2328C177.492 29.2939 179.056 29.6148 180.64 29.9458C182.223 30.2767 183.533 30.5338 183.549 30.517C183.566 30.5002 183.834 29.3214 184.145 27.8973C184.456 26.4733 184.749 25.1574 184.797 24.973C184.867 24.6971 185.738 23.7928 189.729 19.8492C192.395 17.2154 194.941 14.6616 195.387 14.174L196.198 13.2874L195.341 13.0805C191.995 12.2725 188.706 11.5656 188.516 11.6136C188.386 11.6464 187.184 12.8371 185.618 14.485C184.146 16.0335 182.863 17.3257 182.767 17.3564C182.493 17.4438 182.253 17.2584 182.082 16.827C181.995 16.6094 181.388 14.9541 180.734 13.1487C180.079 11.3432 179.473 9.79672 179.387 9.71202C179.277 9.60383 178.205 9.36508 175.785 8.91032C173.889 8.55404 172.14 8.23336 171.896 8.19757L171.454 8.13257L171.603 8.49079ZM134.978 10.0377C134.811 10.1214 134.505 10.7245 133.679 12.5957C133.084 13.9424 132.598 15.0955 132.597 15.1581C132.597 15.2207 132.69 15.2916 132.803 15.3158C133.173 15.3941 137.489 15.7462 137.533 15.7016C137.584 15.6504 137.447 15.0233 136.765 12.2007C136.31 10.3197 136.235 10.0926 136.058 10.0567C135.499 9.94439 135.175 9.93865 134.978 10.0377ZM16.632 10.1473C14.8178 10.4365 2.4653 13.2202 2.31019 13.3746C2.20517 13.4794 2.45759 14.6381 3.90576 20.6981C6.94409 33.413 6.70224 32.4581 6.87481 32.4186C6.9599 32.3991 9.24179 31.8818 11.9456 31.2691C21.8262 29.03 22.0937 28.9586 23.6856 28.1347C25.2189 27.3412 26.3876 26.2483 26.8464 25.1787C27.5572 23.5212 27.1156 21.3569 25.8017 20.0591C25.3899 19.6524 25.0117 19.404 24.2089 19.0125C23.5315 18.6823 23.1562 18.4478 23.1562 18.3545C23.1562 18.2748 23.4442 17.9045 23.7964 17.5315C24.1485 17.1585 24.5414 16.6451 24.6695 16.3908C24.9849 15.7642 25.131 14.7322 25.0117 13.9709C24.6768 11.832 23.3345 10.5562 20.9851 10.144C20.0048 9.97194 17.7204 9.9737 16.632 10.1473ZM38.0222 11.8128C36.7743 12.1172 35.4914 13.1105 34.98 14.1681C34.5987 14.9564 34.4353 15.8908 34.551 16.6199C34.8892 18.7498 36.3381 20.2141 38.4489 20.5589C39.9134 20.7982 41.6449 20.0521 42.7798 18.6928C43.8866 17.3672 43.9754 15.3187 42.9928 13.7779C41.9637 12.1641 39.9101 11.3522 38.0222 11.8128ZM156.91 13.5584C156.769 14.5466 156.677 15.3937 156.706 15.4408C156.735 15.4879 156.956 15.5518 157.197 15.5828C157.439 15.6138 158.36 15.7457 159.245 15.8759C161.321 16.1817 162.117 16.2054 162.584 15.9752C163.02 15.7603 163.341 15.2859 163.474 14.6598C163.715 13.5241 163.077 12.7056 161.726 12.4159C161.169 12.2966 157.569 11.7617 157.322 11.7617C157.192 11.7617 157.128 12.0398 156.91 13.5584ZM15.8969 15.7051C14.6062 15.959 10.9679 16.783 10.9243 16.8312C10.8636 16.8982 11.3374 19.1327 11.4324 19.2284C11.5139 19.3103 16.789 18.1568 17.2293 17.9608C17.8345 17.6915 18.0563 17.3788 18.0563 16.7955C18.0563 16.3583 18.0202 16.2598 17.7656 16.0036C17.4989 15.7353 17.419 15.7089 16.8007 15.6855C16.4299 15.6713 16.0232 15.6802 15.8969 15.7051ZM17.6887 21.7181C15.2963 22.2009 12.4515 22.8644 12.3562 22.9617C12.251 23.069 12.2717 23.2743 12.4878 24.2691C12.6288 24.9181 12.7692 25.4743 12.7999 25.5052C12.8864 25.5922 18.1977 24.424 18.5731 24.2353C19.5086 23.7653 19.7299 22.7542 19.042 22.0925C18.8391 21.8974 18.1167 21.6261 17.9185 21.6706C17.8932 21.6763 17.7898 21.6976 17.6887 21.7181ZM85.664 24.6146C82.9691 24.9963 80.7386 26.4373 79.7643 28.4261C79.2522 29.4711 79.0847 30.3224 79.1493 31.5498C79.3027 34.4638 80.827 36.6077 83.4235 37.5613C86.1663 38.5685 88.6637 38.1848 90.492 36.475C90.7768 36.2087 91.0403 36.0214 91.0774 36.0589C91.1146 36.0963 91.1575 36.4183 91.1727 36.7743L91.2004 37.4216H92.303H93.4057L93.4053 33.9843C93.405 32.0939 93.3763 30.5184 93.3414 30.4834C93.2678 30.4093 86.4917 30.5706 86.4144 30.6483C86.386 30.6769 86.3921 31.1411 86.4279 31.6798L86.4931 32.6595H87.767C88.4677 32.6595 89.041 32.6811 89.041 32.7075C89.041 32.8548 88.5453 33.5093 88.2864 33.7041C87.8389 34.0404 87.3362 34.1756 86.514 34.1806C85.889 34.1845 85.7002 34.1463 85.2538 33.9257C84.2586 33.4339 83.679 32.4745 83.679 31.3187C83.679 29.601 84.8752 28.4701 86.6978 28.4647C87.4804 28.4623 87.6886 28.536 88.4931 29.0994L88.8892 29.3768L91.1274 29.4046L93.3656 29.4323L93.3102 29.1734C93.0022 27.7335 92.3686 26.7687 91.2114 25.9779C90.4925 25.4866 89.3211 24.9477 88.5684 24.7618C87.8164 24.5761 86.4315 24.5059 85.664 24.6146ZM94.5066 27.5044C94.534 28.9919 94.5815 31.8215 94.6121 33.7922L94.6677 37.3753H96.9083H99.1488V35.2023V33.0293H101.446H103.743V35.2486V37.4678H105.995C107.233 37.4678 108.247 37.4573 108.248 37.4447C108.269 37.2558 108.518 26.6831 108.519 25.9324L108.522 24.8921H106.178H103.835V27.0651V29.2381H101.492H99.1488V27.0189V24.7997H96.8026H94.4565L94.5066 27.5044ZM109.532 26.776V28.6598L111.734 28.7275C113.364 28.7776 113.962 28.8266 114.036 28.9157C114.107 29.0016 114.108 29.5636 114.042 30.8709C113.99 31.88 113.92 33.8343 113.886 35.2136L113.823 37.7215L115.468 37.7826C116.373 37.8162 117.369 37.8677 117.681 37.897L118.25 37.9504L118.297 37.6397C118.323 37.4689 118.433 35.4774 118.542 33.2143C118.65 30.9511 118.755 29.083 118.774 29.0628C118.794 29.0427 119.827 29.0775 121.07 29.1403C122.313 29.2031 123.342 29.2404 123.357 29.2232C123.409 29.1609 123.594 25.6041 123.548 25.557C123.51 25.5195 110.948 24.9167 109.785 24.8966L109.532 24.8921V26.776ZM75.3494 25.5159C74.2123 25.5905 73.2753 25.6575 73.2673 25.6648C73.2509 25.6797 74.0779 38.2454 74.0969 38.2687C74.119 38.2959 78.5191 38.0023 78.5527 37.9713C78.5709 37.9544 78.4358 35.1816 78.2527 31.8094C78.0695 28.4372 77.9202 25.6052 77.921 25.5163C77.922 25.398 77.8543 25.358 77.6696 25.3673C77.5306 25.3744 76.4866 25.4413 75.3494 25.5159ZM129.351 25.723C126.474 26.0891 124.08 28.1389 123.542 30.6978C123.369 31.5186 123.373 32.8662 123.552 33.7498C124.08 36.3681 126.284 38.3865 129.282 38.9977C130.333 39.2121 132.256 39.1441 133.24 38.8578C134.426 38.5126 135.297 37.9861 136.229 37.0517C136.897 36.3818 137.135 36.0662 137.447 35.4335C137.99 34.3321 138.15 33.6499 138.15 32.4283C138.15 31.2928 137.999 30.5822 137.56 29.6575C136.72 27.886 134.843 26.4155 132.778 25.9111C131.886 25.6932 130.279 25.605 129.351 25.723ZM65.8389 26.1969C64.3512 26.3209 60.2722 26.7247 59.2917 26.845C58.517 26.94 58.442 26.9667 58.4449 27.1459C58.456 27.8446 59.707 39.3328 59.7799 39.4062C59.8646 39.4914 64.0888 39.1321 64.1689 39.033C64.1865 39.0113 64.1423 38.3345 64.0708 37.5289C63.9993 36.7234 63.9637 36.0414 63.9916 36.0132C64.0721 35.9323 66.5524 35.7011 66.7712 35.7542C66.9026 35.7861 67.2455 36.2433 67.8003 37.1266C68.6746 38.5184 68.8565 38.6891 69.3934 38.6223C69.561 38.6014 70.4218 38.5358 71.3063 38.4762C72.1907 38.4168 72.9632 38.3423 73.023 38.3107C73.094 38.2733 72.7313 37.6276 71.9781 36.4505C71.3437 35.4588 70.8048 34.5965 70.7808 34.5341C70.7566 34.4717 70.8809 34.2514 71.057 34.0444C72.6961 32.1174 72.5903 29.2944 70.8129 27.5302C69.6187 26.3448 68.3011 25.9916 65.8389 26.1969ZM139.627 27.153C139.572 27.4944 138.385 39.1189 138.385 39.3209C138.386 39.4382 138.762 39.5049 140.522 39.6996C141.697 39.8296 142.677 39.92 142.7 39.9005C142.723 39.8809 142.899 38.5264 143.09 36.8903C143.318 34.9401 143.481 33.873 143.561 33.7919C143.664 33.6884 143.717 33.6954 143.881 33.8342C143.99 33.9255 144.652 35.2694 145.353 36.8205C146.959 40.373 146.98 40.4132 147.231 40.4715C147.579 40.5523 151.556 41.074 151.824 41.074C151.964 41.074 152.079 41.0221 152.081 40.9585C152.084 40.8949 152.471 38.0966 152.943 34.74C153.415 31.3834 153.794 28.6285 153.785 28.618C153.72 28.5372 149.387 28.0258 149.325 28.0916C149.281 28.1374 149.095 29.3815 148.911 30.8563C148.447 34.5708 148.513 34.2465 148.23 34.2132C148.019 34.1883 147.919 34.0225 147.342 32.7519C146.985 31.9636 146.387 30.6113 146.014 29.7467C145.319 28.1373 145.042 27.6512 144.718 27.4772C144.617 27.4227 144.048 27.3385 143.453 27.29C142.858 27.2416 141.765 27.1274 141.023 27.0364L139.674 26.8709L139.627 27.153ZM51.3663 27.7252C50.8356 27.7964 48.9748 28.0434 47.2312 28.274C45.4876 28.5046 43.9886 28.7147 43.9002 28.7407C43.8091 28.7677 43.7408 28.8757 43.7425 28.99C43.7482 29.3645 45.452 41.1638 45.5086 41.2207C45.5802 41.2927 53.225 40.2871 54.4445 40.0452C56.2056 39.696 57.7009 38.7507 58.1947 37.6745C58.4895 37.0321 58.4843 35.6476 58.185 35.0829C57.9147 34.5728 57.3574 34.031 56.7337 33.6719C56.4623 33.5157 56.2138 33.3446 56.1814 33.2918C56.1489 33.239 56.3504 32.9608 56.6291 32.6734C57.3631 31.9166 57.4754 31.6568 57.4748 30.7176C57.4744 30.042 57.4392 29.8643 57.2243 29.452C56.3896 27.8506 54.5252 27.301 51.3663 27.7252ZM129.779 29.6806C128.874 30.0068 128.371 30.5382 128.082 31.4741C127.869 32.1606 127.865 32.6242 128.066 33.3469C128.276 34.1081 129.021 34.884 129.749 35.1016C130.881 35.4398 132.064 35.1977 132.756 34.4866C133.339 33.8871 133.553 33.3259 133.557 32.382C133.561 31.4954 133.392 31.0035 132.879 30.4161C132.213 29.6523 130.792 29.3152 129.779 29.6806ZM64.2852 30.0821C63.8349 30.1256 63.4495 30.1783 63.4288 30.1993C63.374 30.2544 63.6001 32.5085 63.6682 32.5855C63.7532 32.6815 66.619 32.3816 66.9573 32.2411C67.3419 32.0814 67.5655 31.7202 67.5753 31.2436C67.5858 30.7248 67.3857 30.276 67.071 30.1122C66.7817 29.9617 65.6553 29.9495 64.2852 30.0821ZM50.2778 31.3031L48.7759 31.4946L48.8375 32.1001C48.9296 33.0051 48.9703 33.1218 49.1938 33.1216C49.5886 33.1212 52.3395 32.7431 52.6295 32.6493C53.241 32.4516 53.3914 31.8166 52.9355 31.3578C52.6095 31.0298 52.4484 31.0265 50.2778 31.3031ZM50.8149 35.2989C49.981 35.4164 49.2962 35.5155 49.293 35.5192C49.2898 35.5229 49.3243 35.8485 49.3696 36.2426C49.462 37.0481 49.5936 37.2645 49.9648 37.2216C51.4971 37.0445 53.0955 36.7861 53.2918 36.6839C53.5308 36.5596 53.7554 36.2002 53.7554 35.9421C53.7554 35.6807 53.5295 35.3238 53.2826 35.1954C52.9581 35.0265 52.659 35.039 50.8149 35.2989Z" clip-rule="evenodd" fill-rule="evenodd"></path>
</svg>
