<svg xmlns="http://www.w3.org/2000/svg" fill="none" viewBox="0 0 100 76" height="76" width="100">
<path fill="#949494" d="M13.0898 0.34151C9.17785 1.15396 4.41988 3.10676 3.09951 4.44209C1.92194 5.6332 1.23441 7.11826 0.899087 9.19495C0.530315 11.4797 0.679802 12.2559 2.08393 15.3528C3.75097 19.0291 3.82222 20.242 3.54215 40.2528C3.27721 59.1873 3.32054 58.7587 1.47668 60.7092C-0.115616 62.3939 -0.370676 63.6845 0.473603 65.7897C1.26524 67.7636 2.20841 67.9343 6.07383 66.8026C8.98009 65.9519 10.4089 65.6849 16.1112 64.9282C20.7706 64.3095 23.0327 63.52 25.3166 61.7152C33.7009 55.0899 36.0339 29.9389 29.8445 12.8977C27.5394 6.55041 24.4941 2.14052 21.3785 0.638349C19.9098 -0.0699371 15.7823 -0.217923 13.0898 0.34151ZM39.231 4.36374C36.7462 5.29487 35.5099 6.90789 35.2539 9.55243C35.0771 11.3784 35.3185 12.1894 36.4082 13.4275C38.0913 15.3403 38.1678 16.0634 38.3024 31.4028C38.4219 45.0019 38.1951 51.0958 37.5006 52.9297C37.3308 53.3783 36.8797 54.0718 36.4984 54.4707C35.0038 56.035 34.4859 58.6296 35.34 60.2772C36.2922 62.1142 40.9144 63.7086 44.206 63.3352C47.9347 62.9124 50.3102 60.9379 50.549 58.0629C50.665 56.6673 50.556 56.2358 49.6512 54.5125C48.2578 51.859 47.9891 50.0933 47.9911 43.6088C47.9929 37.4272 48.2113 36.2001 49.5462 34.8723C50.5856 33.8384 53.5951 32.6026 54.4295 32.867C55.722 33.2761 55.8415 33.9606 55.9023 41.2921C55.9666 49.0058 55.7932 50.3173 54.2393 53.8799C52.9998 56.7209 52.8259 57.6355 53.2351 59.1615C53.9709 61.9073 57.3256 63.9083 61.1108 63.8589C64.904 63.8096 67.6227 61.7785 68.3358 58.461C68.7858 56.3681 68.4542 54.6863 67.0704 52.0412L65.8754 49.757V32.7454C65.8754 14.2362 65.8751 14.238 67.4919 13.404C67.9743 13.1551 68.4333 12.5814 68.6331 11.9779C69.3645 9.76685 67.4127 8.00006 63.2007 7.0608C60.815 6.52864 56.568 6.44363 55.3517 6.90353C52.7378 7.89154 52.5147 10.3135 54.8652 12.1842C55.9764 13.0686 56.2344 14.473 56.0201 18.4746C55.7868 22.832 55.6565 23.0357 52.7389 23.5989C49.7803 24.1699 48.9456 24.1215 48.5341 23.3543C48.0441 22.4411 47.8416 16.0294 48.2546 14.5125C48.4375 13.8407 49.0585 12.6749 49.6349 11.9216C51.023 10.1072 51.3493 8.90652 50.7622 7.77373C49.5235 5.38395 42.249 3.23269 39.231 4.36374ZM70.862 9.04638C69.639 10.1771 69.8185 11.2255 71.5216 12.898C72.5543 13.9124 73.0101 14.6175 73.1648 15.4413C73.2829 16.0683 73.227 23.8986 73.0409 32.842C72.6741 50.4526 72.5837 51.4202 70.9917 54.7609C70.2521 56.313 70.093 57.0065 70.0942 58.6781C70.0974 63.2867 70.841 64.2773 76.2886 66.9297C79.2449 68.3689 81.3665 69.6616 83.7615 71.4818C89.7674 76.0469 91.3169 76.6612 93.8268 75.473C97.9051 73.5422 100.338 64.1836 99.9618 51.8732C99.7388 44.5762 98.6996 40.4922 95.8178 35.5878C95.1053 34.3752 94.5222 33.0646 94.5222 32.6752C94.5222 32.2861 95.0366 31.2844 95.6654 30.4496C97.1768 28.4423 97.5465 26.6183 97.3531 22.1176C97.1047 16.3399 95.4778 13.1197 91.8823 11.2896C90.3066 10.4876 89.4847 10.2802 86.9492 10.044C85.2758 9.88814 81.5511 9.43839 78.6719 9.04464C72.1701 8.15529 71.8258 8.15529 70.862 9.04638ZM14.3325 15.5037C13.8512 16.2366 13.8169 17.6465 13.8169 36.655C13.8169 56.5953 13.8291 57.0346 14.3968 57.6608C15.15 58.4909 16.7758 58.3151 18.1726 57.2519C19.4223 56.3011 20.8163 53.5007 21.3741 50.8205C22.8236 43.8583 22.5133 28.8639 20.7782 22.0227C19.4913 16.9484 18.022 14.7185 15.9652 14.7185C15.0721 14.7185 14.7449 14.8757 14.3325 15.5037ZM83.4634 15.4627C83.0539 16.5375 83.1004 25.2531 83.5203 26.1732C83.8676 26.9332 84.7445 27.3254 85.7016 27.1487C85.9941 27.0945 86.4906 26.5281 86.8047 25.8897C87.5097 24.4578 87.619 19.6893 86.9963 17.5502C86.2713 15.0612 84.1043 13.781 83.4634 15.4627ZM83.4991 35.9436C83.0917 37.1097 83.0806 50.6594 83.4849 53.4502C83.84 55.9018 84.5156 57.3639 85.5594 57.939C86.2638 58.3273 86.394 58.3191 86.9071 57.856C88.041 56.8321 88.2693 55.0487 88.2693 47.2167C88.2693 38.7767 88.0401 37.5218 86.2044 35.914C84.8582 34.7345 83.9179 34.7446 83.4991 35.9436Z" clip-rule="evenodd" fill-rule="evenodd"></path>
</svg>
