<svg xmlns="http://www.w3.org/2000/svg" fill="none" viewBox="0 0 200 48" height="48" width="200">
<path fill="#949494" d="M179.197 40.3428C188.498 40.3428 196.037 39.5022 196.037 38.4652C196.037 37.4282 188.498 36.5876 179.197 36.5876C169.896 36.5876 162.356 37.4282 162.356 38.4652C162.356 39.5022 169.896 40.3428 179.197 40.3428Z"></path>
<path fill="#949494" d="M179.197 41.9727C172.181 41.9727 166.491 42.5487 166.491 43.1938C166.491 43.8388 172.181 44.4148 179.197 44.4148C186.212 44.4148 191.902 43.8388 191.902 43.1938C191.902 42.5487 186.217 41.9727 179.197 41.9727Z"></path>
<path fill="#949494" d="M179.197 46.6264C175.793 46.6264 173.034 46.9029 173.034 47.2369C173.034 47.571 175.793 47.8475 179.197 47.8475C182.6 47.8475 185.365 47.5768 185.365 47.2369C185.365 46.8971 182.577 46.6264 179.197 46.6264Z"></path>
<path fill="#949494" d="M200 28.3687C200 22.8513 197.808 17.5598 193.907 13.6584C190.005 9.75703 184.714 7.56525 179.197 7.56525C173.679 7.56525 168.388 9.75703 164.486 13.6584C160.585 17.5598 158.393 22.8513 158.393 28.3687C158.393 29.5206 162.131 30.5458 167.787 31.1333C162.92 31.594 159.752 32.3428 159.752 33.1894C159.752 34.589 168.455 35.7236 179.197 35.7236C189.938 35.7236 198.646 34.5717 198.646 33.1894C198.646 32.3428 195.479 31.594 190.612 31.1333C196.268 30.5458 200 29.5264 200 28.3687Z"></path>
<path fill="#949494" d="M50.8337 21.3939C73.6242 16.2103 77.437 10.1628 77.7941 9.49469L77.9726 8.07209C77.4543 6.03897 73.6645 1.31039 49.7106 1.31039C44.7343 1.31039 40.1728 1.51773 35.9914 1.88634L33.9813 0.118164C33.4053 0.815068 32.7948 1.52349 32.2016 2.22616C15.9827 3.99433 6.23758 7.87626 1.41109 9.79995C0.881209 10.0131 0.408927 10.2031 0 10.3759L1.41685 14.0562L2.87977 13.4803C11.0764 10.1252 19.6713 7.84094 28.4521 6.68404C23.8829 12.2324 19.45 17.8998 15.1533 23.6862C14.1857 23.8071 13.5004 23.8763 13.2066 23.8763H13.1721L13.005 26.612C8.55867 32.7287 4.26974 38.9509 0.138229 45.2787L3.45572 47.4385C7.87905 40.6346 12.5136 33.9478 17.3593 27.3781C25.221 26.3183 41.3074 23.5768 50.8337 21.3939ZM34.1829 5.99865C38.8193 5.54941 43.9741 5.27295 49.7336 5.27295C65.532 5.27295 71.3204 7.4155 73.3074 8.59621C71.1591 10.3241 65.1577 14.062 49.9755 17.535C41.3362 19.5105 28.7343 21.6876 20.7171 22.9087C25.0559 17.1491 29.5445 11.5125 34.1829 5.99865Z"></path>
<path fill="#949494" d="M72.9964 27.7121C71.6832 28.9389 70.4795 30.1138 69.3218 31.2542L68.9935 28.3399C66.1478 28.6681 63.3817 29.4927 60.8207 30.7762L60.861 28.5242C60.4118 28.5242 52.2217 28.5242 43.3233 36.1729C44.7716 33.6467 46.6417 31.3871 48.8524 29.4918L46.3816 26.3932L44.5904 27.764C38.9172 32.026 36.527 33.7999 31.6775 38.4594C32.8786 36.3392 34.2258 34.305 35.7091 32.3716C36.4951 31.4731 37.2297 30.5308 37.9093 29.5494L34.7185 27.188C33.987 28.098 33.2844 28.9907 32.622 29.8662L31.9366 30.6437L32.2189 27.764C31.9827 27.764 26.3729 27.2456 18.7819 32.7056C9.964 39.0411 10.8682 44.8007 11.0007 45.4573L13.604 46.9202C18.0765 45.219 22.3473 43.0286 26.3384 40.3889C25.6245 42.1348 25.0675 43.9408 24.6739 45.7855L28.0144 47.5998C32.6681 42.9461 35.5018 40.2276 37.9323 38.0562C36.8962 40.433 36.0451 42.8862 35.3866 45.3939L38.9287 47.0354C45.604 37.4227 52.8668 34.1686 57.1231 33.0627C53.2614 35.8233 50.3964 39.7592 48.9561 44.2823L51.0871 46.8165C55.8216 46.2915 60.3106 44.4363 64.0346 41.4659C63.5623 42.8021 63.1188 44.265 62.7214 45.8777L66.563 46.8395C68.5961 38.6725 71.4068 35.2226 75.7783 30.5113L72.9964 27.7121ZM15.6371 41.7654C16.4147 40.2103 17.9755 38.1542 21.0972 35.9079C25.6357 32.6423 29.2124 31.8763 30.8538 31.7323C25.8373 36.6336 19.4672 40.0087 15.6371 41.7654ZM54.1397 42.2031C56.8697 37.296 62.1397 33.5638 68.1008 32.481C63.2225 37.2614 59.5997 40.6768 54.1397 42.2031Z"></path>
<path fill="#949494" d="M132.556 28.9907L131.104 25.3449C125.185 26.9126 119.418 29.0059 113.872 31.5998C110.098 33.3615 106.458 35.3962 102.981 37.6876C104.945 35.1938 107.202 32.6365 109.794 29.9468L108.066 26.6178C102.802 27.3799 97.766 29.2742 93.3045 32.17C96.6969 28.3514 100.533 24.7172 105.1 20.5012L102.41 17.5868C98.0751 21.4753 93.942 25.5834 90.0274 29.895C88.8732 29.0363 87.48 28.5591 86.0418 28.53C84.4127 28.5339 82.8043 28.8957 81.3305 29.5897C77.7576 31.1345 74.6761 33.6284 72.4204 36.8007C70.9921 38.7992 70.3297 40.6423 70.3816 42.4277C70.3782 43.1946 70.6093 43.9442 71.0439 44.576C71.368 45.0194 71.7957 45.3766 72.2896 45.6166C72.7836 45.8565 73.3288 45.9719 73.8776 45.9526C74.6576 45.9342 75.4272 45.7702 76.1469 45.4688C77.5952 44.8931 79.0121 44.2414 80.3916 43.5163C79.9885 44.2477 79.5796 44.9965 79.1764 45.774L82.5169 47.882C89.9813 38.0275 97.2498 33.9094 102.52 32.0548C98.9035 36.1481 95.7547 40.6318 93.1317 45.4227L96.2707 47.7668C102.063 42.6838 108.55 38.4521 115.536 35.1995C117.437 34.3183 119.274 33.5408 120.991 32.8611C118.733 35.2737 116.932 38.076 115.675 41.1318C114.522 39.7989 113.144 38.6797 111.603 37.8259L109.616 41.2816C113.814 43.7064 113.849 46.1945 113.849 46.2406L117.696 47.0411L117.869 46.5573C119.862 40.8899 121.924 35.0555 132.556 28.9907ZM84.9935 36.2362C81.7494 38.4089 78.3049 40.2662 74.707 41.7827L74.3729 41.8979C74.5657 40.8721 75.0066 39.9091 75.6573 39.093C77.5018 36.5093 80.0199 34.4812 82.9374 33.2298C83.8819 32.7618 84.9187 32.51 85.9726 32.4925C86.5144 32.502 87.0436 32.6572 87.5047 32.9418C86.6292 34.0073 85.8171 35.1016 84.9935 36.2362Z"></path>
<path fill="#949494" d="M116.723 24.792L118.295 21.6243L116.135 18.733L112.818 18.9576L111.188 21.8835L112.939 24.8323L116.723 24.792Z"></path>
<path fill="#949494" d="M142.151 36.5185C144.881 34.6812 146.517 32.1815 146.874 29.2902L146.327 27.6603C144.334 25.6214 137.112 27.5163 132.274 31.3464C130.649 32.6305 129.109 34.0196 127.666 35.5048C127.095 35.4188 126.53 35.3015 125.973 35.1534L125.051 38.6092C122.511 42.1513 122.528 44.3687 122.592 44.9447L124.216 46.6725C125.466 46.863 126.73 46.9516 127.994 46.9375C134.168 46.9609 140.208 45.1311 145.33 41.6848L143.096 38.4133C138.356 41.568 132.745 43.1536 127.055 42.9461C127.651 41.7639 128.392 40.661 129.261 39.6632C133.898 39.9108 138.805 38.7819 142.151 36.5185ZM134.739 34.4508C136.934 32.7222 139.495 31.5185 142.226 30.9317C141.65 31.8584 140.875 32.6453 139.957 33.2355C137.979 34.4738 135.753 35.2604 133.437 35.5393C133.834 35.1765 134.272 34.8194 134.739 34.4508Z"></path>
</svg>
