<svg xmlns="http://www.w3.org/2000/svg" fill="none" viewBox="0 0 200 54" height="54" width="200">
<path fill="#949494" d="M48.4429 0.24843C48.2618 0.300144 47.946 0.361484 47.7411 0.384793C46.8672 0.484069 45.0164 1.25827 44.3245 1.814C43.5348 2.44816 42.6132 3.62296 42.3758 4.29807C42.3004 4.51247 42.1531 4.79709 42.0485 4.93043C41.937 5.07274 41.8586 5.31395 41.859 5.5141C41.8593 5.70171 41.7884 6.32095 41.7017 6.89018C41.5705 7.75054 41.562 8.04988 41.6514 8.66497C41.7856 9.58931 42.2089 10.8365 42.6236 11.5294C43.3025 12.664 44.5862 13.83 45.8637 14.4721C46.5365 14.8103 48.9132 15.5639 50.6751 15.9976C52.6282 16.4784 53.3342 17.0156 53.3342 18.0206C53.3342 18.6522 53.0892 19.1034 52.5956 19.3807C51.8906 19.777 50.2373 19.9402 49.4056 19.6958C49.1851 19.6309 48.7829 19.3981 48.512 19.1784C48.0811 18.8288 47.8217 18.4891 47.0636 17.2818C46.9686 17.1304 46.7712 16.9181 46.6249 16.8099C46.3727 16.6234 46.2459 16.6135 44.1587 16.6195C42.1622 16.6252 41.9408 16.6419 41.7678 16.7988C41.4618 17.0767 41.3964 17.4951 41.5344 18.2915C41.9248 20.5443 42.8538 22.2131 44.4252 23.4851C45.2481 24.1511 46.7174 24.8924 47.7374 25.1561C49.2358 25.5434 51.3311 25.5773 52.9065 25.2398C53.3697 25.1405 53.8565 25.0591 53.9882 25.0588C54.12 25.0585 54.3971 24.9536 54.6041 24.8258C54.811 24.6979 55.065 24.5917 55.1685 24.5899C55.2719 24.5879 55.6529 24.3479 56.015 24.0565C56.3772 23.7651 56.7898 23.4851 56.9322 23.4344C57.0745 23.3836 57.1908 23.3053 57.1908 23.2603C57.1908 23.2153 57.3204 23.0305 57.4786 22.8497C57.8103 22.4706 58.6093 20.7265 58.8007 19.9633C58.8863 19.6225 58.929 18.9259 58.9253 17.9344C58.9185 16.1458 58.7593 15.4349 58.0599 14.0717C57.5233 13.0256 56.6392 12.1072 55.5375 11.451C54.8185 11.0229 52.6958 10.2291 51.4085 9.90714C49.935 9.53864 48.0335 8.87258 47.7821 8.63694C46.9953 7.89955 47.346 6.56348 48.481 5.97452C48.778 5.82042 49.0384 5.77428 49.6187 5.77305C50.7064 5.77059 51.2713 6.05021 52.2546 7.07769C52.9537 7.80811 53.0437 7.87095 53.4775 7.93069C53.7349 7.96617 54.0781 8.02902 54.2399 8.07045C54.4016 8.11178 54.7467 8.10697 55.0066 8.0595C55.3 8.006 55.6322 8.00788 55.8831 8.06441C56.1052 8.11452 56.3255 8.1317 56.3724 8.10263C56.4193 8.07356 56.79 8.04289 57.1962 8.03468C57.8294 8.02176 57.9681 7.98807 58.1693 7.79848C58.4819 7.50386 58.5366 7.1933 58.4127 6.41579C58.1794 4.95063 57.4232 3.58559 56.2024 2.42636C55.2589 1.53024 54.3893 1.05311 52.8169 0.568528C51.7602 0.242863 51.5949 0.218515 50.2301 0.187563C49.4282 0.169255 48.624 0.196716 48.4429 0.24843ZM28.6795 0.512662C28.2449 0.552486 27.8624 0.645061 27.7051 0.748489C27.3906 0.955251 26.7942 2.20922 26.6228 3.02419C26.5573 3.3356 26.4252 3.74582 26.3291 3.93579C26.2332 4.12566 26.0096 4.69895 25.8323 5.20976C25.655 5.72048 25.4211 6.38144 25.3125 6.67861C25.2039 6.97577 25.1151 7.34079 25.1151 7.48971C25.1151 7.63871 25.0338 7.83434 24.9344 7.92456C24.8351 8.01468 24.7027 8.30798 24.6401 8.57617C24.5775 8.84437 24.2953 9.633 24.0128 10.3288C23.6989 11.1023 23.4791 11.799 23.4471 12.1218C23.4184 12.4122 23.3223 12.7559 23.2335 12.8857C23.1448 13.0155 22.9968 13.3552 22.9049 13.6406C22.8129 13.9261 22.6545 14.3256 22.5529 14.5284C22.4514 14.7313 22.305 15.1135 22.2277 15.3777C22.1503 15.642 22.0023 15.9974 21.8987 16.1674C21.7952 16.3374 21.7354 16.5418 21.766 16.6216C21.7965 16.7014 21.6763 17.1568 21.4989 17.6337C20.359 20.6971 19.8475 22.2388 19.8475 22.6104C19.8475 22.7583 19.787 22.9134 19.713 22.9549C19.1897 23.2487 19.1523 24.6926 19.6609 24.9656C19.9528 25.1225 21.3403 25.1718 22.8543 25.0793L24.309 24.9904L24.6886 24.5693C24.9252 24.3067 25.146 23.9201 25.2751 23.5421C26.3304 20.4543 26.3364 20.4419 26.7837 20.4259C26.9265 20.4209 28.5406 20.4167 30.3706 20.4165C34.2143 20.4162 33.9003 20.333 34.2274 21.4395C34.547 22.5206 35.248 24.3078 35.4329 24.513C35.5266 24.6168 35.7724 24.7885 35.9792 24.8944C36.3239 25.0708 36.5209 25.0864 38.3432 25.0809C39.7998 25.0764 40.3832 25.0422 40.5264 24.9524C40.805 24.7779 41.0488 24.28 40.9869 24.0119C40.9255 23.746 39.3013 19.1515 38.7433 17.6654C38.5318 17.1022 38.1963 16.1679 37.9978 15.5893C37.7992 15.0106 37.4054 13.8789 37.1229 13.0744C36.8403 12.2699 36.3557 10.8898 36.0458 10.0075C35.736 9.12511 35.1649 7.53264 34.7769 6.46864C34.3889 5.40463 33.8539 3.84566 33.588 3.00427C32.8732 0.741789 32.593 0.506339 30.5708 0.468875C29.9241 0.45689 29.073 0.476613 28.6795 0.512662ZM105.116 0.499639C104 0.514172 103.251 0.563621 103.122 0.631189C103.008 0.690736 102.845 0.886739 102.76 1.0667C102.619 1.36481 102.605 2.41089 102.602 12.7907C102.6 23.6749 102.607 24.2005 102.772 24.4802C103.073 24.9916 103.323 25.0472 105.354 25.0541C106.921 25.0594 107.233 25.0364 107.515 24.8947C108.061 24.6201 108.175 24.2601 108.169 22.8416C108.156 19.7169 108.207 15.8415 108.264 15.6825C108.316 15.5373 108.443 15.502 108.993 15.4798C109.948 15.4413 110.056 15.5309 110.938 17.0931C113.063 20.8579 115.029 24.137 115.383 24.5074C115.853 24.9998 116.17 25.0821 117.57 25.0762C121.151 25.0614 120.858 25.082 121.111 24.8276C121.388 24.5504 121.418 24.0651 121.187 23.6154C121.102 23.4493 120.642 22.6552 120.165 21.8507C119.688 21.0462 119.206 20.2064 119.094 19.9846C118.982 19.7626 118.761 19.4017 118.602 19.1824C118.309 18.7766 117.786 17.8707 116.818 16.0943C116.24 15.0321 116.237 14.9742 116.76 14.7688C117.237 14.5813 118.877 13.468 119.06 13.2072C119.151 13.0775 119.385 12.7724 119.579 12.5292C119.773 12.286 119.931 12.0509 119.931 12.0068C119.931 11.9628 120.082 11.6264 120.265 11.2594C121.068 9.65405 121.085 6.74788 120.302 4.75585C119.642 3.07515 118.127 1.67849 116.281 1.04868C114.926 0.586081 114.048 0.503508 110.337 0.489353C108.449 0.482087 106.099 0.486711 105.116 0.499639ZM123.056 0.55258C122.886 0.604388 122.63 0.780386 122.488 0.943738L122.228 1.24081L122.216 12.346C122.21 18.4539 122.237 23.6886 122.276 23.9787C122.328 24.3622 122.415 24.5745 122.597 24.7565C122.831 24.9915 122.92 25.0114 124.046 25.0799C124.706 25.1201 125.288 25.1513 125.34 25.1491C126.51 25.1006 126.956 25.0392 127.21 24.8922C127.805 24.548 127.786 24.7824 127.786 17.9578C127.786 14.5455 127.807 11.7537 127.833 11.7541C127.859 11.7545 127.968 11.9137 128.075 12.1079C128.183 12.3021 129.172 14.0323 130.275 15.9527C131.377 17.8731 132.479 19.8053 132.723 20.2464C133.555 21.7467 134.909 23.9727 135.236 24.3766C135.793 25.0662 135.899 25.093 138.091 25.0993C139.808 25.1043 140.054 25.0856 140.286 24.9332C140.839 24.5698 140.826 24.7466 140.862 16.8574C140.88 12.8823 140.896 9.52382 140.899 9.39406C140.933 7.4144 140.812 1.36339 140.734 1.16532C140.521 0.624017 140.309 0.573624 138.148 0.551825C136.02 0.530309 135.695 0.585515 135.414 1.01584C135.322 1.15654 135.27 1.4337 135.276 1.75512C135.287 2.33747 135.284 3.33079 135.271 3.54321C135.266 3.62107 135.27 4.89504 135.278 6.37427C135.317 12.9741 135.31 13.8283 135.217 13.8001C135.165 13.7844 134.975 13.4954 134.794 13.158C134.612 12.8205 134.376 12.4195 134.268 12.2668C134.161 12.1141 133.88 11.6282 133.645 11.1871C133.147 10.2506 132.77 9.58356 131.646 7.64825C131.194 6.8697 130.546 5.74436 130.206 5.14748C128.021 1.31008 127.68 0.822663 127.04 0.627792C126.621 0.499828 123.426 0.439527 123.056 0.55258ZM0.658541 0.632699C0.287083 0.776139 0 1.09973 0 1.375C0 1.51382 0.116357 1.79579 0.258676 2.00142C0.400994 2.20714 2.02435 3.86265 3.86621 5.68028C7.12637 8.89759 7.90136 9.68925 7.90136 9.80202C7.90136 9.83212 6.82527 9.86949 5.51017 9.88497C3.16741 9.91252 3.11427 9.91743 2.89021 10.1288C2.45384 10.5405 2.44547 10.6791 2.43973 17.6332C2.43381 24.7513 2.42309 24.5947 2.94044 24.8913C3.15575 25.0147 3.74177 25.0244 13.2272 25.0625C18.0186 25.0817 17.6994 25.2568 17.7223 22.5975C17.7397 20.5663 17.648 20.0788 17.1834 19.7351C16.8604 19.496 16.5992 19.4841 11.6453 19.4826L8.09927 19.4816L8.07087 18.1889C8.05525 17.4781 8.06362 16.5876 8.08949 16.2102L8.13652 15.524L13.7375 15.5024C18.849 15.4827 19.3599 15.4667 19.5848 15.3189C19.9074 15.1068 19.9978 14.684 19.8064 14.2821C19.7249 14.111 17.8538 12.2086 15.6484 10.0546L11.6386 6.13835L14.2615 6.09116C16.1447 6.05729 16.9439 6.00991 17.0952 5.92319C17.5532 5.66066 17.617 5.34414 17.6232 3.3039C17.6285 1.57082 17.6129 1.38246 17.4397 1.08491C17.3356 0.906085 17.1493 0.709232 17.0257 0.647326C16.7409 0.504924 1.02605 0.490863 0.658541 0.632699ZM61.8092 0.678562C61.3917 0.971954 61.353 1.20523 61.3733 3.30729C61.3944 5.5142 61.4544 5.77503 61.9908 5.99793C62.2063 6.08748 63.016 6.1225 65.0288 6.1292L67.773 6.13835L67.7958 11.1871C67.8084 13.9639 67.8232 18.0597 67.8288 20.289L67.839 24.3421L68.1353 24.6383C68.5233 25.0261 68.794 25.0625 71.0923 25.0348C72.9337 25.0126 72.9843 25.0067 73.2164 24.7878C73.6035 24.4228 73.5799 24.8901 73.5788 17.6041C73.5784 15.2114 73.5734 12.8499 73.5674 12.3195C73.5655 12.1378 73.5666 11.9043 73.5701 11.8005C73.5736 11.6967 73.5633 11.3314 73.5471 10.9889C73.5252 10.5221 73.5582 10.3042 73.679 10.1193C73.8628 9.83778 73.8867 9.4689 73.7389 9.19193C73.621 8.97073 73.5061 6.68861 73.5951 6.33303L73.6556 6.09116L76.3581 6.08173C77.8445 6.07654 79.166 6.04294 79.2948 6.00699C79.6059 5.92007 79.9192 5.43625 79.9872 4.9377C80.0175 4.71565 80.0112 3.78046 79.9732 2.85923L79.9041 1.18447L79.6092 0.888627L79.3143 0.592781L70.661 0.56598C63.1501 0.542671 61.9814 0.557487 61.8092 0.678562ZM81.7415 0.633831C81.4187 0.75283 81.1824 1.08104 81.1757 1.41992C81.1707 1.67066 81.6413 2.16968 85.2889 5.78173L89.4077 9.86043L88.9374 9.88101C88.6787 9.89224 87.5287 9.90413 86.3818 9.90733L84.2964 9.91309L84.0437 10.149C83.9047 10.2788 83.7483 10.4911 83.6963 10.6209C83.6361 10.7713 83.6021 13.2758 83.6025 17.5315C83.6032 23.9236 83.6108 24.2192 83.7824 24.5147C84.1083 25.076 84.0444 25.0713 91.1479 25.0612C94.6917 25.0562 97.7404 25.0179 97.9227 24.976C98.4113 24.864 98.6644 24.7026 98.7216 24.4667C98.7916 24.1785 98.8186 22.9965 98.7906 21.4512C98.7672 20.167 98.7645 20.1522 98.4927 19.8469L98.2183 19.5387L93.7234 19.4915L89.2285 19.4443L89.1978 17.7929C89.1809 16.8846 89.1909 16.0058 89.2201 15.84L89.2732 15.5386L94.7875 15.5358C100.297 15.5329 100.302 15.5327 100.517 15.3301C100.804 15.0594 100.925 14.688 100.821 14.3951C100.775 14.2657 100.023 13.459 99.1505 12.6026C98.2775 11.7462 96.4611 9.96471 95.1141 8.64374C93.7672 7.32286 92.6817 6.21526 92.7018 6.18242C92.722 6.14958 93.9305 6.11259 95.3873 6.10004C97.0106 6.08607 98.1211 6.03841 98.2559 5.97679C98.3769 5.92149 98.5498 5.72294 98.6403 5.53543C98.7832 5.23921 98.8016 4.94157 98.7806 3.26011C98.7545 1.17626 98.7307 1.06679 98.229 0.737071C97.9924 0.581551 97.4489 0.56985 89.9762 0.558903C85.3184 0.552108 81.8785 0.583439 81.7415 0.633831ZM113.889 6.29377C114.787 6.46486 115.227 7.04919 115.195 8.02874C115.17 8.78973 114.827 9.3934 114.265 9.66301C113.894 9.84137 113.657 9.8577 111.073 9.88346C109.537 9.89875 108.256 9.88535 108.224 9.85373C108.139 9.76852 108.158 6.35172 108.244 6.26556C108.408 6.10126 112.999 6.12419 113.889 6.29377ZM30.4107 10.5973C30.6168 11.3671 31.5781 14.1632 31.7541 14.5046C31.8352 14.6619 31.8791 14.8131 31.8517 14.8406C31.7609 14.9318 29.9717 14.9667 29.2068 14.8923C28.527 14.8261 28.4572 14.8009 28.4847 14.631C28.5292 14.3555 29.8173 10.6189 29.9728 10.3142C30.0457 10.1714 30.1413 10.0546 30.1854 10.0546C30.2294 10.0546 30.3308 10.2989 30.4107 10.5973ZM169.691 28.5153C169.303 28.5888 168.77 28.6873 168.506 28.7342C168.242 28.7811 167.882 28.9075 167.707 29.0151C167.531 29.1228 167.233 29.2109 167.045 29.2111C166.858 29.2113 166.653 29.2737 166.59 29.3499C166.527 29.4261 166.215 29.6353 165.896 29.8148C165.266 30.1701 164.718 30.6921 164.483 31.1618C164.385 31.3569 164.239 31.4813 164.062 31.5202C163.647 31.6118 163.321 32.0268 162.904 32.9965C162.037 35.0117 161.828 37.7973 162.018 44.7823C162.046 45.7998 162.333 47.5401 162.615 48.4061C162.921 49.3423 163.604 50.4023 164.424 51.2113C165.54 52.3137 167.05 53.0548 169.11 53.5127C170.166 53.7471 170.394 53.7661 171.65 53.7241C173.174 53.6732 174.96 53.3404 175.595 52.9891C175.986 52.7726 176.453 52.5194 176.619 52.4344C177.646 51.9083 179.292 50.2723 179.473 49.598C179.528 49.3931 179.615 49.1996 179.666 49.1677C179.981 48.9726 180.414 47.608 180.604 46.2133C180.687 45.6059 180.676 45.4708 180.518 45.1124C180.196 44.3806 180.096 44.3536 177.832 44.3854C176.142 44.409 175.818 44.4369 175.617 44.5757C175.481 44.6697 175.163 45.1836 174.864 45.7935C174.277 46.9889 173.928 47.357 173.027 47.7349C172.304 48.038 171.504 48.1251 170.603 47.9993C169.346 47.8239 168.538 47.294 168.009 46.2977C167.778 45.8632 167.696 45.5792 167.674 45.1345C167.595 43.5565 167.568 40.1042 167.621 38.446C167.68 36.6006 167.682 36.5895 167.984 35.9728C168.314 35.3006 168.739 34.878 169.525 34.4411C170.001 34.1766 170.068 34.1658 171.243 34.1658C172.667 34.1658 173.229 34.3327 173.95 34.9692C174.339 35.3129 174.477 35.5411 175.136 36.942C175.466 37.6436 175.944 37.7887 177.941 37.7948C179.49 37.7997 180.161 37.6843 180.487 37.3574C180.696 37.1479 180.711 37.0774 180.654 36.5899C180.29 33.4724 179.211 31.4622 177.181 30.1166C176.178 29.4523 175.841 29.2887 174.67 28.8962C173.278 28.4302 171.042 28.2592 169.691 28.5153ZM189.929 28.5027C189.277 28.5734 188.414 28.7393 187.963 28.8805C187.017 29.1764 185.433 29.9715 185.241 30.2468C185.167 30.3527 184.98 30.5046 184.827 30.5844C184.397 30.8074 183.445 32.3748 183.026 33.5503C182.882 33.9518 182.828 34.4092 182.791 35.5417C182.743 36.9779 182.749 37.0369 183.041 38.0896C183.502 39.7475 184.118 40.7356 185.276 41.6695C186.425 42.5971 187.704 43.15 190.398 43.8842C192.129 44.3559 193.384 44.7707 193.75 44.9919C194.156 45.237 194.363 45.66 194.363 46.245C194.363 47.123 193.893 47.6694 192.864 47.9883C192.125 48.2171 191.647 48.2285 190.906 48.0349C189.744 47.7312 189.085 47.2025 188.39 46.0169C188.165 45.632 187.872 45.2359 187.74 45.1367C187.399 44.8815 186.265 44.7583 184.67 44.8032C183.139 44.8462 182.912 44.9368 182.687 45.5935C182.332 46.6296 183.132 49.1449 184.255 50.5247C184.818 51.2161 185.942 52.1185 186.853 52.6094C187.905 53.1763 188.932 53.5048 190.12 53.6543C191.903 53.8787 194.909 53.4696 196.374 52.8031C197.008 52.515 198.287 51.6035 198.287 51.4402C198.287 51.39 198.432 51.1984 198.61 51.0146C199.174 50.4301 199.681 49.1785 199.891 47.8492C200.068 46.7281 200.024 44.849 199.799 43.9801C199.284 41.9838 198.075 40.4747 196.264 39.5677C195.304 39.0869 193.255 38.4029 190.126 37.5185C189.445 37.3259 188.829 36.9295 188.583 36.525C188.353 36.1478 188.355 35.3889 188.585 35.0151C188.681 34.8594 188.998 34.5894 189.288 34.4151C189.733 34.1483 189.925 34.093 190.501 34.0657C191.771 34.0054 192.535 34.3791 193.4 35.4839C193.766 35.9519 193.962 36.1184 194.226 36.1872C194.416 36.2368 195.536 36.2933 196.715 36.3129C198.635 36.3447 198.887 36.3311 199.131 36.1823C199.524 35.9426 199.635 35.6749 199.574 35.1176C199.493 34.3867 198.903 32.7337 198.531 32.1935C197.562 30.7885 196.481 29.905 194.813 29.1536C193.308 28.476 191.902 28.2885 189.929 28.5027ZM88.0438 28.6104C87.5523 28.6849 86.9196 28.8117 86.6377 28.8923C85.5963 29.1901 84.258 29.9984 83.3094 30.9025C82.6677 31.5141 81.7815 32.8994 81.5906 33.5891C81.1693 35.1114 81.0767 35.5543 80.9807 36.5094C80.8734 37.5756 80.8226 41.5122 80.8783 44.4513C80.9384 47.6296 81.5744 49.4443 83.1937 51.0578C84.6169 52.4759 86.3534 53.2911 88.7347 53.6588C89.9319 53.8436 90.1808 53.8539 91.2033 53.7603C92.6053 53.6321 93.7112 53.3142 94.9575 52.6817C97.3064 51.4892 98.4797 50.1016 99.1229 47.7549C99.494 46.4013 99.5874 45.3513 99.3698 44.9818C99.0576 44.4514 98.8941 44.4158 96.739 44.4091C94.2217 44.4012 94.2737 44.3792 93.7075 45.6876C93.4856 46.2003 93.1893 46.7415 93.049 46.8901C92.2981 47.6859 91.3825 48.0287 90.0191 48.0246C88.4485 48.0198 87.496 47.4917 86.8886 46.2887L86.5329 45.5844L86.4489 42.8949C86.3565 39.9379 86.4477 37.2579 86.6648 36.5496C87.0987 35.1342 88.141 34.3019 89.746 34.0893C91.4333 33.8658 93.0242 34.7165 93.6524 36.1782C94.3222 37.7363 94.2418 37.6941 96.6424 37.7503C98.1973 37.7868 98.5548 37.7694 98.8731 37.6416C99.353 37.449 99.4256 37.2546 99.4251 36.165C99.4248 35.393 99.3808 35.1693 99.0238 34.1186C98.5392 32.6925 98.0441 31.909 96.9525 30.8414C96.2921 30.1955 96.0305 30.0148 95.1456 29.5938C93.7942 28.9509 92.6158 28.6825 90.5835 28.5548C89.7299 28.5012 89.0103 28.4613 88.9844 28.4662C88.9585 28.471 88.5353 28.536 88.0438 28.6104ZM33.0916 28.6957C33.0665 28.7208 30.1286 28.7418 26.5628 28.7423C20.3011 28.7431 20.0694 28.7493 19.778 28.9271C19.612 29.0284 19.4508 29.2129 19.4198 29.3371C19.2576 29.9852 19.2222 29.9422 23.3749 34.1378L27.3256 38.1293L24.974 38.184C22.4381 38.2431 22.0635 38.3085 21.908 38.7189C21.854 38.8613 21.8258 41.3579 21.8368 45.0064C21.847 48.3347 21.8468 51.3763 21.8365 51.7655C21.8212 52.3367 21.8549 52.5336 22.0104 52.7857C22.3989 53.4151 22.1958 53.3985 29.4073 53.3933C35.7129 53.3888 35.9229 53.3828 36.3378 53.1987C37.0285 52.8922 37.0802 52.7125 37.1349 50.4261L37.1818 48.4689L36.8777 48.184C36.4537 47.7866 35.9759 47.6744 35.2611 47.8044C34.9447 47.862 34.5209 47.8811 34.319 47.8468C34.1171 47.8126 32.5403 47.7837 30.8149 47.7824C29.0893 47.7812 27.6218 47.7455 27.5535 47.7032C27.3894 47.6015 27.3052 43.9859 27.4646 43.8871C27.5492 43.8345 31.855 43.808 37.1082 43.8275C38.3251 43.8321 38.8342 43.7351 39.06 43.4554C39.2587 43.2092 39.2721 42.7882 39.0923 42.4419C39.0195 42.3018 38.1412 41.3859 37.1405 40.4065C36.1397 39.427 34.3739 37.6859 33.2164 36.5374L31.1119 34.4489L33.7506 34.4017C36.2479 34.3571 36.4037 34.3439 36.6545 34.1558C36.8003 34.0464 36.9694 33.7916 37.0302 33.5896C37.1584 33.1633 37.1861 30.4992 37.0685 29.8892C36.9778 29.4185 36.6015 28.9762 36.1755 28.8398C35.8718 28.7425 33.1706 28.6164 33.0916 28.6957ZM62.6081 28.7153C62.5956 28.7279 62.1366 28.7493 61.5883 28.7629C60.6909 28.7852 60.5679 28.8097 60.357 29.0086C60.0687 29.2803 59.9827 29.592 60.1063 29.9181C60.158 30.0544 61.9782 31.9399 64.1513 34.1083C66.3243 36.2766 68.1022 38.0763 68.1022 38.1075C68.1022 38.1387 67.3298 38.1462 66.3856 38.1241C65.4414 38.1021 64.288 38.1111 63.8225 38.1442C63.0219 38.2012 62.9588 38.2218 62.6591 38.5224L62.3421 38.8405L62.3667 40.8913C62.3801 42.0193 62.3839 45.0532 62.375 47.6333C62.3615 51.5384 62.3817 52.3793 62.4948 52.6511C62.7719 53.3164 62.3261 53.2786 70.0463 53.2907C75.0592 53.2986 77.0575 53.2718 77.2008 53.1948C77.5646 52.9995 77.6473 52.5094 77.6485 50.5387C77.6496 48.8781 77.6318 48.6688 77.4657 48.3934C77.1174 47.8157 77.1324 47.8174 72.3802 47.776L68.0552 47.7383V45.7648V43.7914L73.5884 43.7667C79.4958 43.7402 79.5175 43.7385 79.7633 43.2776C79.89 43.0402 79.8868 42.582 79.7567 42.3095C79.6997 42.1903 77.8838 40.3729 75.7213 38.2708C73.5588 36.1688 71.7853 34.4125 71.7801 34.368C71.775 34.3236 71.8448 34.3218 71.9353 34.3641C72.0258 34.4064 72.2693 34.4338 72.4762 34.425C72.6831 34.4162 73.699 34.3866 74.7337 34.3592C77.0398 34.2981 77.1537 34.2798 77.4536 33.9222C77.6915 33.6386 77.692 33.6335 77.6924 31.7414C77.6926 30.197 77.6647 29.7857 77.542 29.5263C77.3518 29.1242 76.9812 28.8569 76.5111 28.7829C76.1727 28.7297 62.6591 28.6639 62.6081 28.7153ZM144.392 28.7548C143.787 28.853 143.473 29.0367 143.349 29.3658C143.299 29.4971 143.248 30.461 143.235 31.5077C143.211 33.5912 143.247 33.7765 143.76 34.1573C144.003 34.3385 144.185 34.3584 145.997 34.4017L147.969 34.4489L147.976 41.0425C147.982 46.3502 147.96 47.651 147.862 47.7118C147.794 47.7535 146.975 47.7866 146.04 47.7854C143.436 47.7819 143.253 47.8969 143.197 49.5656C143.179 50.1268 143.19 51.0473 143.222 51.6112C143.276 52.5445 143.303 52.6611 143.529 52.9093C143.705 53.1029 143.927 53.2123 144.294 53.2866C144.766 53.3821 145.778 53.4247 146.363 53.3739C146.493 53.3626 149.18 53.3591 152.334 53.3662C158.813 53.3806 158.211 53.4585 158.406 52.5809C158.523 52.0574 158.533 49.0112 158.42 48.4712C158.38 48.2829 158.243 48.0678 158.089 47.9522C157.846 47.7702 157.668 47.7512 155.787 47.7077L153.747 47.6605L153.731 46.9527C153.722 46.5635 153.713 44.6737 153.711 42.7533C153.709 40.8329 153.704 38.2173 153.7 36.9409C153.694 35.0587 153.717 34.5994 153.824 34.5104C153.912 34.4374 154.591 34.3904 155.854 34.3701C158.559 34.3267 158.481 34.41 158.505 31.5627C158.519 29.9254 158.498 29.5804 158.367 29.3257C158.06 28.7312 158.211 28.7491 153.512 28.7512C151.158 28.7524 149.042 28.7601 148.809 28.7685C148.576 28.7769 147.603 28.7585 146.646 28.7275C145.688 28.6967 144.674 28.7089 144.392 28.7548ZM44.4312 28.8259C42.8345 28.8879 42.687 28.9461 42.5219 29.5803C42.4723 29.7706 42.4344 32.0303 42.4354 34.732C42.4364 37.3791 42.4333 40.9462 42.4285 42.659C42.4237 44.3718 42.4368 46.9622 42.4575 48.4155C42.4781 49.8687 42.4999 51.4286 42.506 51.882C42.516 52.6432 42.5366 52.7276 42.7755 52.9853L43.0342 53.2643L46.4675 53.2813C48.3559 53.2906 51.1428 53.293 52.6606 53.2865C54.1784 53.28 55.4558 53.2967 55.4992 53.3236C55.5426 53.3505 55.923 53.3338 56.3446 53.2865C57.3395 53.1747 57.5132 53.0233 57.6622 52.1368C57.722 51.781 57.7437 51.4457 57.7104 51.3917C57.6771 51.3377 57.6522 50.7182 57.655 50.0153C57.6607 48.5999 57.5653 48.212 57.1432 47.9346C56.9223 47.7893 56.6272 47.7689 54.7132 47.7663C53.515 47.7647 52.1749 47.7709 51.7351 47.7801C51.2954 47.7892 50.2901 47.7873 49.5011 47.7758L48.0666 47.7549L48.0601 47.4718C48.0566 47.3161 48.0378 46.6673 48.0184 46.0301C47.9951 45.2684 48.0239 44.7351 48.1024 44.473C48.1833 44.2028 48.1938 43.9833 48.135 43.7914C48.0865 43.6331 48.0362 40.4456 48.0207 36.564C47.9963 30.3816 47.9765 29.5872 47.8409 29.324C47.757 29.1613 47.6147 28.9891 47.5248 28.9413C47.279 28.8106 46.0273 28.7639 44.4312 28.8259ZM101.661 28.9357C101.01 29.2774 100.981 29.3863 100.946 31.6204L100.915 33.6136L101.161 33.907C101.555 34.3772 101.886 34.4358 103.843 34.3825C104.802 34.3563 106.01 34.3607 106.527 34.3919L107.468 34.4489L107.472 43.4611C107.477 53.3955 107.449 52.9193 108.051 53.1693C108.407 53.3167 112.265 53.3422 112.613 53.1994C113.096 53.0012 113.186 52.7222 113.213 51.3582C113.269 48.4374 113.274 47.2386 113.256 41.0814C113.246 37.5149 113.265 34.5529 113.298 34.4992C113.337 34.4363 114.247 34.4003 115.869 34.3976C118.701 34.393 119.124 34.3435 119.435 33.9807C119.644 33.7372 119.649 33.6774 119.649 31.7023C119.649 29.3619 119.612 29.2153 118.947 28.92C118.556 28.7467 118.217 28.7398 110.276 28.7452C102.259 28.7507 102.002 28.7563 101.661 28.9357ZM122.5 28.9339C122.335 29.0409 122.12 29.3064 122.023 29.5238C121.851 29.905 121.845 30.3203 121.861 41.0568C121.878 52.8831 121.859 52.3747 122.318 52.883C122.627 53.2248 122.81 53.29 123.731 53.3875C124.781 53.4985 124.815 53.4986 126.083 53.3938C127.082 53.3111 127.115 53.3011 127.388 52.994C127.663 52.6857 127.667 52.6649 127.595 52.01C127.507 51.2081 127.466 46.7152 127.532 45.0817C127.583 43.8164 127.649 43.6498 128.105 43.6498C128.483 43.6498 129.258 43.9283 129.504 44.1527C129.622 44.2596 130.506 45.7083 131.469 47.3721C134.093 51.9074 134.675 52.8605 134.918 53.0202C135.343 53.2994 136.203 53.3885 138.139 53.3537C140.428 53.3125 140.72 53.2117 140.72 52.4618C140.72 52.1154 140.28 51.315 137.615 46.8112C136.703 45.2693 135.621 43.4313 135.583 43.359C135.567 43.3287 135.957 43.0952 136.45 42.8401C137.642 42.222 138.13 41.837 138.718 41.0511C139.393 40.1482 139.751 39.4476 139.964 38.6114C140.064 38.2211 140.216 37.7931 140.303 37.6601C140.425 37.473 140.447 37.3071 140.398 36.9246C140.363 36.6529 140.302 36.0272 140.263 35.5342C140.118 33.7271 139.206 31.6892 138.109 30.7203C137.867 30.5068 137.253 30.0974 136.743 29.8105C135.913 29.3429 135.682 29.2615 134.508 29.0222L133.2 28.7552L128 28.7473C122.902 28.7395 122.795 28.7432 122.5 28.9339ZM133.389 34.5776C134.258 34.9132 134.605 35.4118 134.605 36.323C134.605 36.7117 134.54 36.9256 134.299 37.3302C133.828 38.1215 133.873 38.1122 130.515 38.1214L127.598 38.1293L127.581 37.1856C127.572 36.6666 127.562 35.9871 127.56 35.6757C127.557 35.3643 127.553 34.9706 127.55 34.8009C127.546 34.5765 127.595 34.4735 127.731 34.4234C127.833 34.3855 129.03 34.3593 130.391 34.365C132.68 34.3746 132.904 34.3906 133.389 34.5776Z" clip-rule="evenodd" fill-rule="evenodd"></path>
</svg>
