<svg xmlns="http://www.w3.org/2000/svg" fill="none" viewBox="0 0 151 100" height="100" width="151">
<path fill="#949494" d="M2.07577 0.16786C1.279 0.406365 0.528183 1.02571 0.254072 1.67079C0.0424685 2.1686 0 6.01023 0 24.6228C0 46.6488 0.00533146 46.986 0.367687 47.5964C1.13395 48.8877 1.43435 48.9842 4.68856 48.9842C7.94313 48.9842 8.24482 48.8873 9.00612 47.5966C9.33667 47.0362 9.36718 46.6893 9.32637 43.9659C9.24897 38.8075 8.75039 16.4718 8.64303 13.3544C8.5603 10.9499 8.5875 10.3891 8.78679 10.3891C8.97063 10.3891 9.08995 11.0677 9.26 13.0807C11.019 33.9088 12.0868 45.8282 12.2467 46.4254C12.5223 47.4539 13.2472 48.3304 14.1508 48.7271C14.7955 49.0101 15.4318 49.0683 18.0553 49.0842C20.0851 49.0966 21.4598 49.0229 21.9566 48.8753C22.8966 48.5957 23.7128 47.7977 24.0708 46.8085C24.2254 46.3813 24.5411 43.7335 24.812 40.59C25.0716 37.579 25.657 30.8454 26.1131 25.6264C26.5692 20.4074 27.0242 15.1108 27.1244 13.8563C27.3544 10.976 27.4522 10.3891 27.7015 10.3891C27.8442 10.3891 27.8662 11.7442 27.778 15.088C26.9814 45.3134 26.9704 46.084 27.3175 47.2338C27.4713 47.7441 27.7741 48.1813 28.1933 48.499C28.8066 48.9634 28.9465 48.987 31.4668 49.047C33.8899 49.1047 34.1673 49.0771 34.9493 48.7012C35.5915 48.3928 35.8829 48.1098 36.1419 47.5437C36.4705 46.8258 36.485 45.8634 36.4888 24.6158L36.4929 2.43722L36.0792 1.62717C35.3141 0.128625 35.1354 0.0870179 29.1974 0.0227839C24.2456 -0.0306835 23.9757 -0.0159008 23.1029 0.356912C22.6004 0.571512 22.0241 0.925162 21.822 1.14286C20.9434 2.08995 20.8859 2.6124 19.7505 19.9694C18.5388 38.4953 18.5108 38.8564 18.2891 38.8564C18.0363 38.8564 17.9826 38.1683 16.8356 20.2432C15.6708 2.04032 15.6649 1.98922 14.6507 1.02462C13.6586 0.0811794 12.9986 -0.0138941 7.56037 0.00325926C4.8178 0.011836 2.3497 0.0859255 2.07577 0.16786ZM63.8986 0.298516C62.6235 0.961476 62.5128 1.29852 62.4547 4.69928C62.3972 8.06426 62.5279 8.6086 63.5776 9.37247C64.053 9.71828 64.3523 9.7504 67.1034 9.7504C69.8649 9.7504 70.152 9.71938 70.6286 9.36901C71.5891 8.6628 71.6989 8.20641 71.6989 4.9146C71.6989 1.62298 71.5893 1.16659 70.6287 0.460196C70.1655 0.1195 69.8127 0.072967 67.3195 0.0247915C64.9222 -0.0213766 64.4402 0.0171273 63.8986 0.298516ZM89.0614 0.160559C88.2115 0.416583 87.824 0.703446 87.3879 1.39944L86.9579 2.08612L86.9029 10.0697C86.8728 14.4608 86.7823 18.0534 86.7022 18.0534C86.622 18.0534 86.4266 17.3995 86.2679 16.6004C85.532 12.8926 84.0234 11.8917 79.4429 12.0714C77.6666 12.1413 77.0186 12.2431 76.2505 12.5732C75.0888 13.0727 74.1708 14.0338 73.7011 15.2424C73.3706 16.0931 73.3535 16.8521 73.3535 30.6447C73.3535 44.0962 73.3772 45.211 73.6789 45.9607C74.1815 47.2101 74.8174 47.9056 75.9718 48.4682C76.9506 48.9454 77.2223 48.989 79.579 49.0477C82.4282 49.1189 83.354 48.9488 84.4648 48.1501C85.3605 47.5061 86.0523 46.1108 86.3359 44.3765C86.4549 43.6488 86.6135 43.0535 86.6887 43.0535C86.7637 43.0535 86.8558 43.9362 86.8933 45.0152C86.9678 47.166 87.227 47.8707 88.2115 48.6001C88.6667 48.9373 89.0315 48.9915 91.2034 49.0441C93.4271 49.0979 93.7586 49.0645 94.4887 48.7138C95.0872 48.4262 95.4001 48.1194 95.6794 47.547C96.0554 46.776 96.0581 46.6132 96.057 24.702C96.0565 10.7298 95.9894 2.39543 95.8745 1.98447C95.6413 1.15144 94.8766 0.439758 93.9439 0.188115C93.1128 -0.0361569 89.7771 -0.0549529 89.0614 0.160559ZM42.252 12.2163C40.7274 12.5269 39.653 13.3687 38.9937 14.7687C38.6409 15.5181 38.6025 15.9647 38.5551 19.8782C38.4975 24.6093 38.5696 24.989 39.6776 25.7959C40.1449 26.1363 40.4566 26.1739 42.8029 26.1739C46.7591 26.1739 47.142 25.8405 47.3012 22.2594C47.3898 20.2665 47.4204 20.135 47.9046 19.6545C48.3274 19.2346 48.5731 19.1483 49.3448 19.1483C50.1131 19.1483 50.3801 19.2412 50.8757 19.6808L51.4761 20.2132V22.5549C51.4761 26.1691 51.5942 26.056 45.724 28.0709C43.731 28.7553 41.7161 29.496 41.2465 29.7171C40.171 30.2235 39.1932 31.1867 38.6562 32.2688C38.2479 33.0912 38.2394 33.2336 38.2394 39.3126C38.2394 45.4143 38.2464 45.5311 38.6613 46.3672C39.1948 47.4422 39.7929 48.0359 40.8759 48.5654C41.6642 48.9508 41.9738 48.9842 44.7658 48.9842C47.5239 48.9842 47.866 48.9485 48.5346 48.5904C50.019 47.7953 50.7113 46.6838 51.086 44.4946C51.4035 42.6395 51.6478 42.8807 51.7519 45.1521C51.864 47.5994 52.1347 48.2112 53.3399 48.7404C54.0582 49.0558 54.4877 49.0955 56.6232 49.0437C59.3582 48.9775 59.7528 48.8297 60.4844 47.5964C60.8444 46.99 60.8521 46.6488 60.8521 31.4659C60.8521 17.0543 60.8292 15.8975 60.5267 15.1462C60.0168 13.8785 59.3297 13.1254 58.2061 12.6024L57.1753 12.1227L50.0973 12.0913C46.2044 12.074 42.6741 12.1303 42.252 12.2163ZM64.4371 12.2364C63.5848 12.4876 63.038 13.0176 62.6902 13.9294C62.4385 14.5889 62.4108 16.5895 62.4558 30.8272C62.5135 49.1556 62.4109 47.9578 63.9896 48.7163C64.7149 49.0649 65.0496 49.0974 67.3609 49.0437C70.2171 48.9775 70.5931 48.8404 71.3312 47.5964C71.6915 46.9893 71.6989 46.6488 71.6989 30.5534C71.6989 14.3636 71.6936 14.121 71.3248 13.4977C70.6554 12.3668 69.9879 12.1278 67.3786 12.0847C66.1146 12.0637 64.791 12.132 64.4371 12.2364ZM101.417 12.2227C99.6993 12.5685 98.3505 13.7946 97.9127 15.4074C97.7793 15.8997 97.7144 20.8331 97.7138 30.5659C97.7125 46.893 97.6656 46.3012 99.0702 47.6952C100.431 49.0461 100.637 49.0755 108.769 49.0755C115.518 49.0755 115.953 49.0554 116.911 48.6995C118.157 48.2371 119.248 47.0809 119.612 45.8382C119.795 45.2107 119.866 43.8046 119.866 40.7725C119.866 36.0903 119.781 35.7018 118.622 35.073C117.818 34.6367 113.356 34.6011 112.529 35.0243C111.447 35.5777 111.236 36.1084 111.13 38.5495C110.999 41.5365 110.682 42.0154 108.853 41.9907C108.256 41.9827 107.998 41.8674 107.607 41.4338C106.964 40.7192 106.875 40.0066 106.942 36.1192L106.997 32.9257L112.328 32.8345C118.119 32.7354 118.362 32.6932 119.196 31.6409C119.906 30.7447 119.995 29.6383 119.922 22.6154C119.856 16.2488 119.835 15.9099 119.445 14.9391C118.962 13.7347 118.356 13.1136 117.108 12.5431C116.204 12.1296 116.075 12.1221 109.203 12.092C105.361 12.0752 101.857 12.134 101.417 12.2227ZM123.359 12.3057C122.461 12.6209 121.872 13.2643 121.616 14.209C121.486 14.6875 121.439 20.1747 121.472 30.9489C121.527 49.1404 121.425 47.9579 123.003 48.7163C123.729 49.0649 124.063 49.0974 126.375 49.0437C129.231 48.9775 129.607 48.8404 130.345 47.5964C130.701 46.9962 130.716 46.5619 130.805 33.6219L130.896 20.2669L131.436 19.7076C131.878 19.2503 132.123 19.1483 132.781 19.1483C133.719 19.1483 134.197 19.3621 134.523 19.928C134.704 20.2426 134.778 23.3249 134.849 33.5644C134.951 48.2298 134.901 47.6541 136.161 48.5464C136.729 48.9486 136.985 48.989 139.312 49.0437C141.595 49.0974 141.925 49.0647 142.656 48.7134C143.258 48.4244 143.567 48.1198 143.852 47.5348C144.235 46.7506 144.237 46.6539 144.185 31.2591L144.133 15.7723L143.728 14.9512C142.603 12.671 140.837 11.9199 136.963 12.0741C135.589 12.1289 134.509 12.2665 134.1 12.4389C132.478 13.1225 131.446 14.6867 131.205 16.8254C131.135 17.4514 130.98 17.9652 130.85 18.0081C130.677 18.0652 130.62 17.6422 130.617 16.2893C130.611 13.6918 130.073 12.6583 128.506 12.2331C127.457 11.9482 124.248 11.9935 123.359 12.3057ZM83.3299 19.6806L82.7295 20.2131L82.6789 30.3071C82.642 37.6657 82.6863 40.5398 82.8422 40.9134C83.1507 41.6528 83.6987 41.9586 84.7148 41.9586C85.4563 41.9586 85.6984 41.8683 86.1447 41.4252L86.6821 40.8918V30.5868V20.2819L86.1488 19.7151C85.7022 19.2404 85.4783 19.1483 84.7729 19.1483C84.1017 19.1483 83.8081 19.2567 83.3299 19.6806ZM107.778 19.3453C107.05 19.7663 106.905 20.4594 106.905 23.5187V26.4476H108.927H110.949V23.5187C110.949 20.3101 110.787 19.6512 109.918 19.3229C109.318 19.0964 108.188 19.1083 107.778 19.3453ZM50.7233 30.006C50.3091 30.4075 49.4972 31.1465 48.9189 31.6483C48.2265 32.2493 47.7801 32.81 47.6116 33.2907C47.2823 34.2305 47.2584 39.7537 47.5798 40.6641C47.8838 41.5254 48.5955 42.0046 49.5513 41.9915C50.4836 41.9787 51.323 41.2957 51.4811 40.4212C51.537 40.1126 51.5587 37.4787 51.5294 34.5681L51.4761 29.2761L50.7233 30.006ZM4.0929 50.9974C3.39853 51.3799 3.03341 52.1691 3.03341 53.2877C3.03341 53.808 3.48567 57.4458 4.03849 61.3717C4.5913 65.2976 5.87416 74.4223 6.88934 81.6487C7.90453 88.875 8.78146 95.1159 8.83827 95.5174C9.0131 96.753 9.64332 98.4568 10.0742 98.8586C11.0198 99.7404 11.5018 99.8057 17.0456 99.8046C20.0547 99.8041 22.5331 99.7243 22.9288 99.6152C23.9932 99.3218 24.678 98.6365 24.9845 97.559C25.3119 96.4077 31.3521 54.233 31.348 53.1266C31.3445 52.1342 30.9397 51.3496 30.2483 50.9946C29.5116 50.6165 24.6321 50.5997 23.7342 50.9722C22.8539 51.3372 22.2199 52.2685 21.9816 53.5463C21.7994 54.5235 20.9114 62.2843 18.4529 84.3859C17.7506 90.7007 17.5648 91.8451 17.287 91.5692C17.236 91.5186 16.7367 87.3361 16.1773 82.2748C15.6179 77.2132 14.6621 68.5966 14.0535 63.1266C12.5909 49.9822 13.0192 50.8353 7.84643 50.7645C5.22041 50.7286 4.49938 50.7733 4.0929 50.9974ZM36.3091 51.0696C34.6534 51.422 33.5898 52.2295 32.9269 53.6375C32.5456 54.4474 32.5395 54.6578 32.489 68.9572C32.4533 79.016 32.4998 83.753 32.6406 84.4264C32.8879 85.6083 33.7488 86.7874 34.7773 87.352C36.0061 88.0266 37.9157 88.1657 44.8914 88.0883C50.9654 88.021 51.3445 87.9967 52.3156 87.6153C53.5278 87.139 54.1542 86.5379 54.7294 85.2983L55.153 84.3859V69.6048C55.153 55.5859 55.1352 54.7766 54.8075 53.9113C54.3656 52.7441 53.6023 51.9466 52.417 51.4142C51.4883 50.997 51.3822 50.9912 44.2143 50.9622C40.2203 50.9459 36.6629 50.9943 36.3091 51.0696ZM58.4622 51.1209C57.279 51.5326 56.7153 52.4158 56.7162 53.8565C56.7177 55.7948 59.8189 84.739 60.114 85.5669C60.7451 87.337 61.8618 87.9536 64.6775 88.0859L66.6768 88.1801L66.5518 89.0202C66.2748 90.8794 65.4811 91.5843 62.8248 92.3308C60.3749 93.0194 59.7809 93.979 59.9997 96.8944C60.1339 98.682 60.4589 99.3344 61.4121 99.7298C62.2685 100.085 69.2676 100.092 70.6028 99.7391C72.5177 99.2329 73.6721 98.0763 74.2872 96.0473C74.4264 95.588 74.8332 92.4478 75.1912 89.0691C75.5491 85.6905 76.1757 79.7645 76.5832 75.9004C76.991 72.0364 77.6795 65.5152 78.1134 61.4091C78.9747 53.256 78.9736 52.6831 78.0948 51.7727C77.4037 51.0567 76.4397 50.8532 74.0925 50.9284C71.6283 51.0072 71.0005 51.2872 70.3421 52.6005C69.9208 53.4408 69.8715 53.9945 69.0196 67.4697C68.5327 75.1678 68.1298 81.4866 68.1242 81.5118C68.1185 81.537 68.0397 81.5574 67.9487 81.5574C67.7161 81.5574 67.6461 80.6269 66.816 66.5026C66.409 59.5774 65.9933 53.6023 65.8922 53.2246C65.6414 52.2872 64.7858 51.372 63.919 51.1143C63.0382 50.8523 59.2209 50.857 58.4622 51.1209ZM84.1166 51.0948C82.8201 51.3547 81.7446 52.1299 81.0944 53.2726L80.5234 54.2762L80.4658 58.6795C80.3974 63.8969 80.4638 64.1965 81.8171 64.7907C82.5535 65.1143 82.9663 65.1548 84.9946 65.1026C88.62 65.0095 88.9607 64.6978 89.1495 61.3018C89.2386 59.6949 89.3443 59.0963 89.6003 58.7471C90.3053 57.785 92.27 57.8195 93.0071 58.8071C93.3486 59.2648 93.3924 59.5753 93.3924 61.5443C93.3924 65.0431 93.3981 65.038 87.3256 67.1077C82.9124 68.6121 82.3532 68.8827 81.3722 69.9887C80.164 71.3511 80.0211 72.0537 79.9259 77.0966C79.8271 82.3379 80.0139 84.2746 80.7478 85.6157C81.3036 86.631 82.3704 87.4348 83.6459 87.7992C84.8683 88.1483 88.8119 88.0885 89.9312 87.7038C91.6821 87.102 92.7022 85.5593 93.0449 82.9958C93.251 81.4536 93.5729 81.9379 93.6108 83.847C93.6297 84.8051 93.7388 85.8698 93.8527 86.2133C94.3265 87.6377 95.8886 88.2277 98.8169 88.0878C101.645 87.9525 102.546 87.2007 102.767 84.7919C102.833 84.0667 102.858 77.0683 102.822 69.2398C102.764 56.6587 102.722 54.9045 102.456 54.1312C102.011 52.8344 101.293 52.0164 100.122 51.4713L99.0915 50.9915L92.0136 50.9611C88.1207 50.9443 84.567 51.0045 84.1166 51.0948ZM108.2 51.0893C106.449 51.4519 104.951 52.8403 104.527 54.4939C104.397 55.0038 104.331 60.0328 104.331 69.5714C104.331 85.0647 104.302 84.5866 105.323 86.122C106.328 87.6324 109.281 88.3894 112.591 87.9848C113.494 87.8746 114.472 87.662 114.763 87.5126C116.121 86.8155 117.071 85.175 117.316 83.1047C117.395 82.4401 117.519 82.1049 117.685 82.1049C118.022 82.1049 118.031 90.9803 117.695 91.9589C117.285 93.1529 115.365 93.6179 113.903 92.8774C113.382 92.6137 113.09 92.2872 112.799 91.6456C111.961 89.7947 111.744 89.4963 110.939 89.0848C110.261 88.7381 109.849 88.6748 108.291 88.6783C105.998 88.6832 105.111 89.0138 104.617 90.0478C104.131 91.0635 104.187 95.7748 104.7 97.1157C105.165 98.3314 106.013 99.1741 107.224 99.6236C108.146 99.9659 108.659 99.9882 115.637 99.9882C122.691 99.9882 123.121 99.969 124.081 99.6123C125.394 99.1249 126.447 97.9738 126.789 96.6509C126.988 95.8823 127.036 91.6202 127.036 74.4406C127.036 53.2054 127.035 53.1804 126.65 52.4514C126.031 51.2799 125.359 51.0043 122.932 50.9266C120.545 50.8503 119.477 51.072 118.79 51.7864C118.092 52.5131 117.935 53.1213 117.935 55.1093C117.935 56.599 117.886 56.9222 117.66 56.9222C117.487 56.9222 117.384 56.7489 117.384 56.4563C117.384 56.2001 117.254 55.4248 117.096 54.7333C116.709 53.0428 116.001 52.0992 114.66 51.4855C113.734 51.062 113.354 51.0027 111.317 50.9638C110.053 50.9395 108.65 50.9961 108.2 51.0893ZM132.522 51.0846C130.736 51.4488 129.428 52.6018 128.92 54.2587C128.745 54.8288 128.69 58.4472 128.69 69.5135C128.69 85.829 128.639 85.1819 130.059 86.6346C131.379 87.9852 131.733 88.0356 139.905 88.0356C147.001 88.0356 147.084 88.0312 147.994 87.6151C149.842 86.77 150.572 85.6591 150.871 83.2379C151.113 81.2782 150.979 75.8468 150.669 75.0386C150.542 74.7066 150.15 74.2694 149.77 74.0349C149.153 73.6541 148.882 73.6194 146.523 73.6194C144.336 73.6194 143.864 73.6705 143.383 73.9599C142.447 74.5222 142.319 74.893 142.201 77.3603C142.076 79.9762 141.851 80.5162 140.754 80.8424C139.859 81.1089 138.932 80.8561 138.448 80.2134C138.094 79.743 138.062 79.4227 138.01 75.7152L137.955 71.7238L143.342 71.6679C148.039 71.6192 148.804 71.5716 149.312 71.2955C150.143 70.8444 150.638 70.063 150.866 68.8411C151.127 67.4445 150.975 55.2682 150.686 54.3611C150.26 53.0255 149.47 52.0691 148.334 51.5156L147.258 50.9915L140.272 50.9601C136.43 50.9428 132.943 50.9988 132.522 51.0846ZM42.7638 58.2719C41.8278 58.7868 41.8378 58.6648 41.8308 69.5562L41.8244 79.7267L42.3608 80.3227C42.8327 80.847 43.0092 80.9187 43.8273 80.9187C44.5987 80.9187 44.8445 80.8324 45.2672 80.4129L45.777 79.907L45.8275 69.7407C45.8645 62.3133 45.8204 59.4361 45.6637 59.0609C45.2756 58.131 43.7663 57.7202 42.7638 58.2719ZM114.646 58.248C114.404 58.3719 114.052 58.7595 113.865 59.1091C113.544 59.706 113.523 60.3398 113.527 69.4194C113.531 78.5311 113.552 79.1384 113.881 79.858C114.328 80.8352 115.222 81.1715 116.373 80.7946C117.784 80.3322 117.751 80.6054 117.751 69.5135C117.751 60.5832 117.724 59.6965 117.43 59.1146C116.919 58.1043 115.68 57.7184 114.646 58.248ZM138.95 58.1916C138.729 58.2856 138.398 58.5888 138.215 58.8657C137.928 59.3 137.882 59.7828 137.882 62.3883V65.4077L139.963 65.4593L142.043 65.5111L141.985 62.3153C141.927 59.1407 141.924 59.1162 141.443 58.6396C140.911 58.1124 139.665 57.8885 138.95 58.1916ZM92.2958 69.2216C89.1897 71.8577 89.2008 71.8313 89.2874 76.4296C89.3563 80.0921 89.4835 80.4793 90.7408 80.8532C91.7419 81.151 92.6892 80.7747 93.1479 79.8977C93.4624 79.2959 93.486 78.8061 93.4411 73.7672L93.3924 68.2907L92.2958 69.2216Z" clip-rule="evenodd" fill-rule="evenodd"></path>
</svg>
