<svg xmlns="http://www.w3.org/2000/svg" fill="none" viewBox="0 0 100 98" height="98" width="100">
<path fill="#949494" d="M49.8964 0.586054C49.7537 0.726635 47.1194 2.38578 47.0388 2.38578C46.9985 2.38578 46.9655 2.53353 46.9655 2.71421V3.04264L46.5228 2.98933C46.2794 2.96008 45.8523 2.89725 45.5737 2.8496C45.2953 2.80205 45.0331 2.76318 44.9913 2.76318C44.9494 2.76318 44.9152 3.8082 44.9152 5.0855V7.40773L45.3579 7.34631C45.6013 7.31244 45.9111 7.26291 46.0461 7.23611C46.2496 7.19573 46.3255 7.24281 46.4888 7.5103C46.7237 7.89505 46.7364 8.07563 46.5402 8.24046C46.4217 8.34 46.2257 8.34114 45.4917 8.24651C42.7403 7.89175 42.0915 7.90647 41.228 8.34303C40.7207 8.59947 40.0469 9.30379 39.8283 9.8061C39.5861 10.3625 39.611 11.615 39.8794 12.3786C40.1394 13.1182 40.5489 13.8999 40.9668 14.4544L41.2807 14.8709V17.1143C41.2807 18.3599 41.3184 19.3812 41.3655 19.4106C41.4838 19.4847 43.2823 19.116 43.5907 18.9545C43.9549 18.7639 44.1565 18.5086 44.3497 17.9933L44.5195 17.5404L44.6707 17.8364C44.8904 18.2666 45.3929 18.6204 45.8158 18.6424C46.0124 18.6527 47.0494 18.6007 48.1201 18.5269C49.7986 18.4111 50.3313 18.4109 51.9876 18.5255C53.044 18.5987 54.1025 18.655 54.3398 18.6507C54.831 18.6421 55.2536 18.3886 55.5101 17.949C55.7155 17.597 55.8091 17.5971 55.8786 17.9493C55.9722 18.4231 56.4957 18.949 57.003 19.0789C58.442 19.4472 58.8131 19.5012 58.9045 19.3552C58.9485 19.2849 58.9852 18.2404 58.986 17.0344L58.9874 14.8416L59.3203 14.4001C60.242 13.1776 60.8002 11.3886 60.5721 10.3885C60.3445 9.3905 59.7698 8.69608 58.8061 8.25471C58.3676 8.05384 58.146 8.01686 57.3565 8.0127C56.844 8.01006 55.8642 8.08772 55.1795 8.18527C53.8715 8.37171 53.6532 8.34463 53.6039 7.98997C53.5653 7.7122 53.929 7.1778 54.1201 7.23139C54.2087 7.25621 54.5223 7.30423 54.817 7.3382L55.3529 7.3999V5.08154C55.3529 3.8064 55.3187 2.76318 55.2768 2.76318C55.235 2.76318 54.9728 2.80224 54.6944 2.85008C54.4158 2.89782 53.9675 2.96301 53.6979 2.9949L53.2079 3.05292L53.2319 2.76072C53.2552 2.47881 53.2015 2.43361 51.7183 1.48483C50.8726 0.943923 50.1366 0.500669 50.0828 0.500008C50.029 0.499348 49.9452 0.53803 49.8964 0.586054ZM49.0623 2.00857C48.4985 2.37134 47.9806 2.70421 47.9115 2.74827C47.8094 2.81327 47.8239 2.90404 47.9889 3.23153C48.1042 3.46042 48.1571 3.67025 48.111 3.71686C48.065 3.76347 47.6687 3.75017 47.1948 3.68611C46.7355 3.62402 46.171 3.57138 45.9404 3.56911L45.521 3.56515V5.07475V6.58434L46.193 6.5517L46.8651 6.51915L47.1482 7.11091C47.4871 7.8191 47.4934 7.92987 47.2218 8.3952C46.91 8.92912 46.9514 9.76573 47.3353 10.6886C47.717 11.6066 47.7609 12.0363 47.6206 13.4814C47.5429 14.2806 47.5358 14.6943 47.5989 14.7338C47.6507 14.7663 48.148 14.7635 48.7039 14.7277C49.2598 14.6919 50.4012 14.6879 51.2403 14.7188L52.7658 14.7749L52.7114 14.3593C52.6815 14.1307 52.6306 13.4129 52.5984 12.7643C52.5404 11.5989 52.5431 11.5766 52.826 10.8928C52.9834 10.5122 53.1627 9.95348 53.2244 9.65119C53.3335 9.11632 53.3284 9.08499 53.0367 8.48502L52.7369 7.86844L53.0503 7.22639L53.3636 6.58434H54.0554H54.7471V5.07475V3.56515L54.3278 3.5693C54.0971 3.57157 53.515 3.6261 53.0342 3.69064C52.5534 3.75508 52.1385 3.78603 52.1121 3.75942C52.0858 3.73272 52.1331 3.52807 52.2175 3.30465C52.3017 3.08123 52.3707 2.86838 52.3707 2.83177C52.3707 2.79507 52.1506 2.6226 51.8814 2.44833C50.7013 1.68438 50.1649 1.34793 50.1275 1.3484C50.1055 1.34869 49.6262 1.6457 49.0623 2.00857ZM49.5737 2.82432C49.2924 3.01358 49.0455 3.18284 49.0248 3.20039C49.0042 3.21794 49.0619 3.55298 49.1531 3.945C49.2443 4.33703 49.303 4.67385 49.2836 4.69348C49.2642 4.7132 48.6612 4.65498 47.9438 4.56422C47.1035 4.45789 46.5978 4.43119 46.5228 4.48902C46.3421 4.62847 46.3677 5.67896 46.5536 5.75114C46.6346 5.78265 47.2673 5.75661 47.9596 5.69349C48.6518 5.63028 49.2374 5.59792 49.2607 5.6215C49.3215 5.68311 48.9283 7.82938 48.6911 8.7308C48.6385 8.93064 48.6555 8.99026 48.7649 8.99026C48.8431 8.99026 48.921 8.95847 48.9381 8.9195C48.9712 8.84412 49.8198 8.13083 50.0211 8.00931C50.0978 7.96299 50.3772 8.13008 50.7963 8.47285C51.1567 8.7676 51.477 8.9831 51.508 8.95158C51.5612 8.8978 51.441 8.20386 51.1143 6.67869C51.0364 6.31554 50.9728 5.91672 50.9728 5.79256C50.9728 5.57187 50.9858 5.5682 51.5553 5.62924C51.8757 5.66368 52.5067 5.71859 52.9575 5.75152L53.7774 5.81124L53.7497 5.11277L53.722 4.4143L53.3958 4.43855C53.2164 4.45195 52.7342 4.50648 52.3241 4.55988C50.846 4.75217 50.9728 4.75698 50.9728 4.50884C50.9728 4.38581 51.0107 4.18399 51.0571 4.06039C51.1036 3.9368 51.156 3.69158 51.1736 3.51543C51.2032 3.22115 51.1647 3.16605 50.7006 2.83762C50.4228 2.64099 50.1706 2.48013 50.1402 2.48013C50.1098 2.48013 49.8549 2.63505 49.5737 2.82432ZM49.4112 9.81998C49.0905 10.116 48.8283 10.3826 48.8287 10.4122C48.8301 10.5309 50.0607 11.4558 50.1638 11.4158C50.4071 11.3213 51.3456 10.4811 51.3456 10.3579C51.3456 10.2854 51.2877 10.1923 51.217 10.1508C51.1462 10.1093 50.8903 9.8948 50.6483 9.6743C50.4063 9.4538 50.1601 9.2752 50.1013 9.27747C50.0424 9.27964 49.7318 9.52381 49.4112 9.81998ZM41.9331 9.94971C41.7537 10.072 41.5291 10.3329 41.4339 10.5294C41.2854 10.8361 41.2757 10.9493 41.365 11.3301C41.4224 11.574 41.5813 12.0177 41.7182 12.3161C41.9542 12.8301 42.1302 12.9757 42.2594 12.764C42.3527 12.6111 43.0873 12.3039 43.7214 12.1526C44.0839 12.0661 44.781 12.0117 45.5388 12.0109C46.2149 12.0101 46.7927 11.9692 46.8228 11.9198C46.8808 11.8249 46.4313 10.3258 46.3 10.1758C46.1876 10.0474 44.6692 9.84205 43.3776 9.78044C42.3124 9.72978 42.2438 9.7378 41.9331 9.94971ZM56.0877 9.78742C56.0647 9.81063 55.6488 9.88046 55.1635 9.94235C53.9062 10.1029 53.9317 10.0861 53.6447 10.9413C53.2608 12.0849 53.1875 12.0089 54.6772 12.0129C56.0931 12.0165 56.7278 12.1318 57.5592 12.5362C57.8578 12.6815 58.1376 12.8028 58.1811 12.8059C58.2762 12.8126 58.6209 12.1872 58.7797 11.7197C58.9596 11.1905 58.9249 10.5648 58.6996 10.2748C58.3654 9.8447 58.0554 9.74506 57.0505 9.74506C56.544 9.74506 56.1106 9.76412 56.0877 9.78742ZM49.5111 11.8163C49.3991 11.8648 49.2619 11.9908 49.206 12.0964C49.1243 12.2511 49.1412 12.3252 49.2932 12.479C49.3969 12.584 49.5446 12.6699 49.6215 12.6699C49.8469 12.6699 49.7892 12.7769 49.2842 13.2946C49.0213 13.5641 48.8355 13.8302 48.8704 13.8872C48.9471 14.013 51.3093 14.0321 51.3854 13.9076C51.4133 13.8618 51.2281 13.5965 50.974 13.3179C50.7198 13.0394 50.5107 12.7842 50.5093 12.7509C50.5079 12.7176 50.6105 12.6641 50.7371 12.6319C51.0845 12.5436 51.1948 12.2636 50.9853 12.0016C50.849 11.8313 50.702 11.7816 50.2644 11.7579C49.962 11.7416 49.6231 11.7678 49.5111 11.8163ZM20.483 14.157C20.466 14.1964 20.1165 14.4826 19.7065 14.7931C17.6386 16.3584 14.1724 19.6375 12.3764 21.7275C10.1879 24.2742 8.2272 27.0801 6.47563 30.1718C5.9243 31.145 4.58986 33.8319 4.20292 34.7478C2.59124 38.5628 1.48858 42.2386 0.834826 45.9754C0.775835 46.3127 0.691775 46.7797 0.648161 47.0132C0.604453 47.2467 0.521881 47.8412 0.464567 48.3341C0.407253 48.8271 0.340434 49.3791 0.316018 49.5607C0.198687 50.4341 0 53.9047 0 55.0801C0 58.1987 0.479664 62.7456 1.1048 65.553C1.15103 65.7605 1.23388 66.1427 1.28905 66.4021C1.37507 66.8066 1.48755 67.2591 1.81708 68.525C2.23626 70.1353 3.32644 73.3367 3.85009 74.4954C3.98569 74.7953 4.09659 75.0597 4.09659 75.0828C4.09659 75.1059 4.22575 75.4124 4.38353 75.764C7.93979 83.6857 13.3274 90.4773 20.1724 95.6672C20.7875 96.1335 21.617 96.7367 22.0158 97.0076L22.7409 97.5L22.9235 97.2829C23.024 97.1635 24.0317 95.7709 25.1628 94.1881C26.2939 92.6054 27.509 90.9071 27.8629 90.4141C30.944 86.1221 31.775 84.9442 31.775 84.8687C31.775 84.8208 31.4081 84.5346 30.9595 84.233C27.74 82.0674 24.6828 79.1354 22.3037 75.9314C20.6933 73.7628 19.2758 71.2367 18.1211 68.4778C17.7299 67.5433 17.0577 65.6294 16.8618 64.8925C16.1857 62.3491 16.0034 61.3992 15.6397 58.5239C15.4925 57.3608 15.4933 52.7186 15.6407 51.542C15.8973 49.4951 16.0591 48.5171 16.3585 47.2019C18.1704 39.2442 22.6432 32.2423 29.153 27.1734C29.5263 26.8827 29.7078 26.6814 29.6635 26.6073C29.6257 26.5439 28.3012 24.6877 26.7203 22.4823C25.1393 20.2769 23.5016 17.991 23.0808 17.4027C20.7201 14.1015 20.5818 13.9287 20.483 14.157ZM78.9175 14.5333C78.7516 14.7798 78.3375 15.3636 77.9975 15.8306C77.6574 16.2977 76.4832 17.9323 75.3883 19.4631C74.2934 20.9939 73.0921 22.671 72.7188 23.1899C70.2744 26.5879 70.236 26.6464 70.3686 26.7695C70.4391 26.8351 71.042 27.3281 71.7083 27.8651C73.1084 28.9935 75.3697 31.2413 76.5407 32.6688C79.2773 36.0049 81.4239 39.9116 82.7503 43.9699C83.5714 46.4824 83.9774 48.3401 84.3532 51.3061C84.512 52.5593 84.5123 57.7166 84.3536 58.807C84.2895 59.248 84.1922 59.9274 84.1375 60.3166C84.048 60.9534 83.9037 61.7343 83.6752 62.8168C83.6034 63.1567 83.3291 64.2448 83.1281 64.9869C82.9537 65.6306 82.4637 67.039 82.0446 68.1004C79.5138 74.5111 74.8576 80.325 69.2387 84.0906C68.7517 84.417 68.3171 84.7171 68.2727 84.7577C68.204 84.8206 69.3459 86.459 72.9056 91.4048C73.279 91.9237 74.4132 93.5044 75.426 94.9175L77.2673 97.4866L77.9825 97.0029C84.1659 92.8215 89.554 86.9424 93.3977 80.183C94.1606 78.8416 95.3482 76.4535 95.8405 75.271C96.035 74.804 96.2473 74.2945 96.3123 74.1388C96.8093 72.9503 97.4103 71.2262 97.8419 69.7515C98.0014 69.2067 98.1698 68.6335 98.2161 68.4778C98.4841 67.5774 99.0513 64.9312 99.3283 63.2886C99.9121 59.826 100.152 55.0432 99.9009 51.8885C99.7039 49.4174 99.6172 48.6481 99.3327 46.8481C99.2145 46.1006 98.9112 44.5056 98.7722 43.8997C98.7186 43.6662 98.6308 43.2841 98.5772 43.0505C98.0525 40.7663 96.7975 36.9738 95.9304 35.0516C95.8067 34.7777 95.7056 34.531 95.7056 34.5037C95.7056 34.4256 94.156 31.2735 93.8078 30.6435C93.0421 29.2579 92.5058 28.3719 91.6079 27.0094C89.0481 23.1247 86.3858 20.0571 82.798 16.8583C81.5358 15.733 79.4637 14.0852 79.3107 14.0852C79.2604 14.0852 79.0835 14.2869 78.9175 14.5333ZM44.1833 15.1145C43.9781 15.2429 43.9388 16.1789 44.1223 16.5702C44.3367 17.0279 44.4933 17.0061 44.6334 16.4992C44.7251 16.1676 44.7248 16.0089 44.6323 15.7208C44.4728 15.2245 44.3254 15.0255 44.1833 15.1145ZM55.8893 15.1595C55.7485 15.302 55.5403 15.8713 55.5403 16.1137C55.5403 16.3787 55.7493 16.9156 55.8526 16.9156C56.027 16.9156 56.2855 16.3012 56.2806 15.8982C56.2783 15.7053 56.2245 15.4245 56.1611 15.2742C56.0532 15.0183 56.036 15.011 55.8893 15.1595ZM49.505 15.2203C49.034 15.412 49.4428 15.7835 50.1247 15.7835C50.5992 15.7835 50.8796 15.6448 50.8796 15.4105C50.8796 15.1642 49.9565 15.0366 49.505 15.2203ZM48.8494 15.9014C48.6595 16.1348 48.6708 16.9778 48.8676 17.2502C48.9952 17.4269 49.0043 17.4271 49.1882 17.2586C49.3343 17.1248 49.3758 16.9741 49.3701 16.5994C49.3605 15.9713 49.0888 15.6071 48.8494 15.9014ZM51.0468 15.9486C50.8283 16.204 50.8456 17.044 51.0737 17.2529C51.3228 17.4813 51.454 17.3308 51.5067 16.7561C51.5484 16.3021 51.4217 15.7835 51.2692 15.7835C51.2245 15.7835 51.1245 15.8578 51.0468 15.9486ZM49.8592 16.2966C49.7887 16.3827 49.7649 16.54 49.8007 16.6845C49.8491 16.8795 49.9091 16.9217 50.1046 16.898C50.2386 16.8818 50.3942 16.7941 50.4504 16.7034C50.665 16.3563 50.1185 15.9803 49.8592 16.2966ZM45.1676 16.9737C44.7356 17.162 44.7625 17.3013 45.2624 17.4643C45.5529 17.5589 45.732 17.5639 46.0203 17.4853C46.45 17.3682 46.7427 17.1241 46.612 16.9918C46.4455 16.8232 45.5387 16.8119 45.1676 16.9737ZM53.7919 16.9186C53.1566 17.1771 54.2419 17.683 54.9927 17.4783C55.2093 17.4193 55.3529 17.3232 55.3529 17.2374C55.3529 16.9236 54.3053 16.7097 53.7919 16.9186ZM19.1007 18.4724L17.7494 19.8373L18.0925 20.1846L18.4355 20.5319L18.7714 20.2334C18.9561 20.0692 19.2015 19.9348 19.3168 19.9348C19.6846 19.9348 19.7858 20.225 20.5462 23.4584C20.6298 23.8137 20.6772 24.1257 20.6514 24.1517C20.594 24.2097 20.0235 24.0822 18.6813 23.7112C18.1175 23.5552 17.3836 23.3591 17.0505 23.2751C16.1791 23.0555 16.1051 22.9547 16.4738 22.4903C16.6371 22.2844 16.7709 22.0793 16.7709 22.0346C16.7709 21.9898 16.6346 21.8199 16.468 21.6568L16.1651 21.3605L14.4933 22.9883L12.8215 24.6162L13.1511 24.9803L13.4807 25.3444L13.8066 25.0927C14.3228 24.694 14.3654 24.6999 18.0756 25.6782C18.8701 25.8877 19.736 26.1173 19.9999 26.1885C20.2638 26.2598 20.5363 26.3797 20.6057 26.455C20.6749 26.5303 21.0775 26.9612 21.5004 27.4125C22.4045 28.3775 22.4584 28.5812 21.9431 29.0868C21.7637 29.2628 21.6169 29.4493 21.6169 29.5011C21.6169 29.6215 22.0901 30.1246 22.2034 30.1246C22.3371 30.1246 22.7641 29.7375 24.3069 28.2174L25.739 26.8066L25.4303 26.4843C25.2606 26.3069 25.0826 26.1619 25.0348 26.1619C24.987 26.1619 24.7854 26.3105 24.5868 26.4922C24.3883 26.6738 24.1563 26.8224 24.0712 26.8224C23.9861 26.8224 23.4615 26.366 22.9052 25.8081C21.7815 24.681 21.9407 25.0058 21.4251 22.7889C20.5565 19.0534 20.5308 18.8218 20.9156 18.1894C21.0418 17.9818 21.1465 17.7846 21.1481 17.7512C21.1524 17.6592 20.6216 17.1042 20.5311 17.106C20.4876 17.1069 19.8439 17.7218 19.1007 18.4724ZM42.4684 17.2705C42.1423 17.4752 42.1785 17.5757 42.6372 17.738C43.0658 17.8897 43.6818 17.7669 43.9398 17.4783C44.0813 17.3199 44.0788 17.301 43.904 17.2062C43.6125 17.0483 42.7617 17.0864 42.4684 17.2705ZM56.3259 17.24C56.1472 17.3742 56.1472 17.3774 56.3309 17.5151C56.6834 17.7794 57.1964 17.8802 57.5717 17.7589C58.0692 17.598 58.1028 17.5287 57.792 17.3047C57.4582 17.0641 56.6103 17.0267 56.3259 17.24ZM49.4746 17.5366L49.2765 17.7501L49.5608 17.899C49.8954 18.0741 50.1823 18.0868 50.5861 17.9442C51.1461 17.7467 50.8441 17.3477 50.1231 17.3326C49.7682 17.3251 49.6307 17.3683 49.4746 17.5366ZM48.5032 18.9045C45.5844 19.0425 42.8187 19.4765 40.3022 20.1915C39.0367 20.551 39.1373 20.4106 39.1373 21.8174C39.1373 22.486 39.1608 23.0952 39.1896 23.1712C39.2354 23.2918 39.2977 23.2924 39.6789 23.1758C44.651 21.6539 50.1664 21.2414 55.3329 22.0049C56.3349 22.1529 58.2571 22.5543 59.267 22.8264C60.318 23.1095 60.6632 23.2016 60.8513 23.249C60.9699 23.2789 60.995 23.0745 61.0168 21.8973L61.0426 20.5104L60.411 20.3265C57.6406 19.5195 54.7639 19.0434 52.0445 18.9417C51.2757 18.9129 50.4998 18.877 50.3204 18.8618C50.1411 18.8465 49.3233 18.8659 48.5032 18.9045ZM46.4196 19.8338C45.7162 19.9197 45.4834 20.2582 45.8295 20.691C45.9973 20.9008 46.0041 20.9013 47.1575 20.7854C48.3351 20.6672 48.6463 20.5498 48.64 20.2269C48.6325 19.8467 48.4193 19.7456 47.6542 19.7594C47.2497 19.7667 46.6942 19.8002 46.4196 19.8338ZM51.6604 19.9863C51.4383 20.3295 51.6197 20.6497 52.0781 20.7233C52.7446 20.8303 54.1899 20.8882 54.2971 20.8123C54.4748 20.6862 54.5335 20.2804 54.4005 20.0965C54.3094 19.9704 54.0671 19.9053 53.4411 19.8387C52.0601 19.6916 51.8393 19.7099 51.6604 19.9863ZM78.9308 20.2283C77.2341 20.6846 75.4699 22.4471 74.9559 24.1994C74.7403 24.9344 74.7704 26.4295 75.0157 27.1798C75.8319 29.6748 78.3078 31.6276 80.6549 31.6276C82.9896 31.6276 85.4182 29.6501 85.9769 27.2941C86.3403 25.7622 85.8924 23.9536 84.809 22.5781C83.8846 21.4042 82.71 20.5793 81.4976 20.2525C80.9679 20.1097 79.4258 20.0951 78.9308 20.2283ZM42.3058 20.5475C41.1049 20.8381 41.0943 20.844 41.0943 21.2071C41.0943 21.8036 41.2759 21.8265 42.938 21.4391C43.615 21.2812 43.7936 21.2024 43.8908 21.0187C43.9917 20.8278 43.9861 20.7551 43.8549 20.5524C43.665 20.259 43.4994 20.2585 42.3058 20.5475ZM56.4312 20.4605C56.218 20.6763 56.2491 21.0396 56.4945 21.1984C56.7686 21.3757 58.595 21.753 58.8569 21.6864C59.0984 21.625 59.2199 21.2362 59.0802 20.9718C59.0262 20.8698 58.8679 20.7614 58.7284 20.7312C58.589 20.7009 58.2652 20.6314 58.0089 20.5768C57.7526 20.5222 57.4213 20.4403 57.2728 20.3948C56.8723 20.2724 56.5957 20.294 56.4312 20.4605ZM80.7368 21.7629C79.3368 22.1172 77.422 23.7516 76.6714 25.2327C76.0917 26.3765 76.1268 27.2858 76.7904 28.3254C77.6819 29.7218 79.0772 30.2804 80.4859 29.8049C81.8735 29.3364 83.7236 27.5611 84.3391 26.1076C84.4662 25.8072 84.5224 25.461 84.5224 24.9775C84.5224 24.0607 84.2459 23.4166 83.5499 22.712C82.7039 21.8555 81.7039 21.5181 80.7368 21.7629ZM47.8508 23.0551C41.2487 23.5348 35.2668 25.9081 30.0825 30.1049C26.2471 33.2098 22.9013 37.571 21.0196 41.9183C20.8736 42.2556 20.6796 42.7014 20.5884 42.909C19.9871 44.2784 19.2103 46.8724 18.8366 48.7587C18.3394 51.2687 18.2297 52.4389 18.2309 55.2217C18.2319 57.5303 18.2909 58.4278 18.5536 60.1279C19.4337 65.8238 21.6439 70.9068 25.2204 75.4597C25.6688 76.0305 26.6991 77.1749 27.5101 78.0026L28.9845 79.5078L29.2783 79.2103C29.5523 78.9328 29.5802 78.8418 29.6907 77.8604C29.8533 76.4176 30.1901 75.9374 30.4978 76.7098C30.5753 76.9045 30.764 77.3396 30.9171 77.6769C31.0702 78.0142 31.3001 78.5237 31.4278 78.8091C31.5557 79.0945 31.7909 79.6157 31.9507 79.9673C32.1103 80.3188 32.241 80.6425 32.241 80.6866C32.241 80.8161 34.6831 83.5266 34.7999 83.5266C34.8663 83.5266 36.0619 81.7492 36.0619 81.6504C36.0619 81.5972 35.9309 81.3288 35.7706 81.0541C35.3014 80.2493 34.2884 77.8366 34.1481 77.1896C34.0922 76.9324 34.1063 76.9009 34.2576 76.9436C35.3827 77.2617 36.7775 77.5998 38.3379 77.9328C38.6592 78.0013 38.7175 78.0564 38.8182 78.3863C39.7057 81.2958 40.4697 83.4658 40.7608 83.904C40.9206 84.1447 42.4375 85.981 43.0082 86.6247C43.0687 86.6929 43.2354 86.2626 43.4254 85.5484C43.9642 83.5215 43.9525 83.9041 43.5288 82.183C43.1797 80.7648 42.9069 79.5347 42.793 78.8655C42.7483 78.6027 42.7581 78.5941 43.0376 78.6506C43.3564 78.7152 46.5832 78.985 47.4781 79.0219L48.0372 79.045L48.0963 80.2244C48.2858 84.0037 48.3626 84.781 48.5857 85.1747C49.1939 86.2486 49.8821 87.2534 50.0092 87.2534C50.0916 87.2534 50.4661 86.7469 50.8907 86.0614L51.6289 84.8695L51.7205 83.514C51.7708 82.7685 51.8385 81.5217 51.8708 80.7433C51.9032 79.9649 51.9674 79.2538 52.0137 79.1629C52.0799 79.0327 52.2192 78.9978 52.672 78.9978C53.4294 78.9978 55.6982 78.8265 56.5071 78.7083C56.86 78.6566 57.1716 78.6376 57.1996 78.6659C57.2481 78.715 57.1022 79.6166 56.9321 80.3187C56.8881 80.5003 56.7622 81.0311 56.6523 81.4981C56.5424 81.9651 56.3699 82.6375 56.2691 82.9922C56.0723 83.6846 56.0646 83.6045 56.4706 85.0834C56.5133 85.2391 56.617 85.6212 56.7009 85.9325C56.7849 86.2439 56.8845 86.53 56.9223 86.5683C56.9904 86.6374 57.2559 86.3481 58.6461 84.6895C59.1849 84.0467 59.433 83.6579 59.6096 83.1799C60.0137 82.0861 61.0082 79.0716 61.1362 78.5532C61.2029 78.2828 61.3231 78.036 61.4035 78.0048C61.4838 77.9736 61.948 77.8685 62.4352 77.7711C62.9223 77.6737 63.8242 77.4597 64.4392 77.2956C66.1008 76.8522 66.0194 76.8643 65.9357 77.0733C65.8963 77.1718 65.7472 77.5708 65.6044 77.96C65.259 78.9015 65.1765 79.1108 64.954 79.6114C64.245 81.2064 64.1131 81.536 64.1131 81.7117C64.1131 81.9019 65.1387 83.5428 65.2354 83.5072C65.2768 83.4919 65.8218 82.9275 66.4463 82.2529C67.5922 81.0151 67.6064 80.9934 68.3641 79.3045C68.4863 79.032 68.6863 78.5863 68.8086 78.3138C68.9308 78.0413 69.1614 77.5308 69.3212 77.1792C69.4808 76.8277 69.6115 76.4986 69.6115 76.448C69.6115 76.2924 69.8532 76.346 70.0266 76.5401C70.1268 76.6522 70.2207 76.975 70.2667 77.3657C70.4248 78.7096 70.4795 78.9559 70.6651 79.1629C70.7698 79.2796 70.9242 79.3752 71.008 79.3752C71.1862 79.3752 73.5328 77.0099 74.3777 75.9786C75.9596 74.0479 77.2298 72.0894 78.3249 69.8931C79.372 67.793 79.589 67.2754 80.1843 65.4586C80.9417 63.1471 81.2462 61.7758 81.6509 58.8541C81.724 58.3265 81.7685 56.9512 81.7685 55.2217C81.7685 52.5843 81.7277 51.9599 81.4355 50.1268C79.5472 38.2799 71.2889 28.4308 60.0591 24.6325C59.1606 24.3286 59.1207 24.3169 57.7759 23.9644C54.6454 23.1438 51.1008 22.819 47.8508 23.0551ZM47.1519 26.3196C45.853 26.4136 43.9731 26.7311 43.937 26.8628C43.6745 27.8207 43.1872 29.8863 43.009 30.7966C42.9316 31.1921 42.8437 31.5805 42.8137 31.6598C42.7268 31.8891 42.8673 31.9115 43.8023 31.8173C44.2863 31.7687 45.3943 31.6837 46.2647 31.6285C47.1823 31.5702 47.873 31.4856 47.9088 31.4269C47.9427 31.3713 47.9967 30.6416 48.0286 29.8052C48.0607 28.969 48.1117 27.8284 48.1421 27.2705L48.1974 26.2563L47.8843 26.2728C47.7122 26.2818 47.3825 26.3029 47.1519 26.3196ZM51.8793 26.3238C51.8333 26.408 51.95 29.4676 52.0469 30.7143C52.1099 31.5269 52.1148 31.5399 52.3573 31.5418C52.7914 31.5454 55.1808 31.7183 56.1845 31.8188C56.7188 31.8722 57.1722 31.8994 57.1921 31.8793C57.2235 31.8475 57.1117 31.2569 56.8421 30.0303C56.8022 29.8486 56.7245 29.4878 56.6693 29.2283C56.5662 28.7431 56.2667 27.5578 56.1216 27.0609C56.0277 26.739 55.9654 26.7192 54.3744 26.5043C52.9341 26.3098 51.9267 26.2369 51.8793 26.3238ZM88.2268 27.697C87.8761 27.8941 87.8046 28.0284 87.9618 28.1952C88.1159 28.3589 88.4365 28.996 88.4365 29.1388C88.4365 29.2858 87.7043 29.7955 86.3203 30.612C85.3707 31.1722 84.0805 31.9375 83.5438 32.2589C83.3388 32.3817 82.8356 32.6701 82.4255 32.8997C81.3501 33.5021 81.2282 33.5014 80.8412 32.8913C80.6875 32.6489 80.5366 32.4128 80.5059 32.3667C80.4271 32.248 79.6763 32.6629 79.6763 32.8251C79.6763 32.8989 79.7759 33.1175 79.8977 33.3109C80.1033 33.6377 80.8861 34.9879 81.811 36.6112C82.0254 36.9873 82.2415 37.2952 82.2911 37.2952C82.4384 37.2952 83.0291 36.8787 83.0272 36.7763C83.0263 36.7244 82.9222 36.5121 82.7959 36.3045C82.5345 35.875 82.5005 35.4873 82.7059 35.2793C82.8336 35.1501 84.3649 34.1996 85.3315 33.6497L85.7212 33.428L85.8941 33.6504C85.9891 33.7728 86.1453 34.0489 86.2411 34.264C86.4676 34.7726 86.368 35.0014 85.7411 35.4126C85.4808 35.5834 85.2679 35.7419 85.2679 35.765C85.2679 35.9084 85.6957 36.5404 85.7927 36.5404C85.8574 36.5404 86.1746 36.3859 86.4977 36.197C88.1559 35.2275 89.2752 34.5417 89.2752 34.4952C89.2752 34.3422 88.8505 33.7099 88.7478 33.7099C88.6816 33.7099 88.4901 33.7946 88.3222 33.8982C87.7067 34.2783 87.3453 34.1301 86.8516 33.2957C86.597 32.8655 86.5605 32.9126 87.6443 32.2731C88.0031 32.0613 88.5667 31.7249 88.8966 31.5253C89.2265 31.3258 89.541 31.1625 89.5955 31.1626C89.7202 31.1626 90.6589 32.7558 90.8481 33.2883C91.0524 33.8637 90.8844 34.3569 90.2598 35.015L89.7713 35.5295L89.966 35.8927C90.073 36.0924 90.2025 36.2553 90.2538 36.2547C90.305 36.2541 90.6824 36.0424 91.0925 35.7845C91.5025 35.5264 92.0582 35.1777 92.3273 35.0095C92.5965 34.8413 92.8166 34.6702 92.8166 34.6293C92.8166 34.5885 92.5166 34.0358 92.1499 33.4013C91.7832 32.7667 91.2746 31.8866 91.0196 31.4455C90.7646 31.0044 90.4829 30.5162 90.3936 30.3605C90.0231 29.715 89.2856 28.4424 89.0309 28.0088C88.8807 27.7532 88.7169 27.5342 88.6671 27.5223C88.6171 27.5103 88.4191 27.5889 88.2268 27.697ZM39.6964 27.8765C38.4599 28.3258 36.9702 28.95 36.1085 29.3797L35.1765 29.8445L34.8661 30.6686C34.6953 31.1219 34.5193 31.5776 34.475 31.6814C34.3356 32.0078 33.8252 33.5861 33.8252 33.6908C33.8252 33.7531 34.0629 33.7215 34.4543 33.6072C35.0259 33.4402 37.1293 32.9223 38.3781 32.641C38.9343 32.5157 38.8558 32.6468 39.3209 31.0681C39.5796 30.1901 39.8909 29.2415 40.203 28.3795C40.3344 28.0166 40.442 27.7087 40.442 27.6955C40.442 27.6381 40.173 27.7034 39.6964 27.8765ZM59.6171 27.726C59.5843 27.7591 59.5938 27.856 59.6383 27.9412C59.8136 28.2779 60.3001 29.7166 60.6638 30.9738C60.7764 31.363 60.9066 31.7789 60.9531 31.8981C60.9996 32.0173 61.0377 32.1962 61.0377 32.2955C61.0377 32.4835 61.2484 32.5677 62.2111 32.765C62.9539 32.9172 64.1064 33.2 64.9052 33.4262C65.9359 33.718 66.1633 33.7529 66.1633 33.6193C66.1633 33.427 65.7309 32.1668 65.1152 30.5643L64.8309 29.8247L64.0293 29.4273C63.1628 28.9977 61.3043 28.2261 60.4785 27.9531C60.1966 27.8598 59.9008 27.757 59.8213 27.7246C59.7417 27.6922 59.6498 27.6928 59.6171 27.726ZM11.7246 28.4179C10.4362 28.9281 9.4073 30.2453 7.53253 33.784C7.13348 34.5373 7.12947 34.554 7.31204 34.6915C7.74259 35.0156 7.92935 35.0802 8.01136 34.9333C8.26736 34.4747 8.68813 33.993 8.83258 33.993C8.99296 33.993 9.59117 34.3275 10.8764 35.1361C11.6371 35.6147 12.3911 36.0871 13.6489 36.8736C15.4719 38.0134 15.7457 38.2224 15.7457 38.4739C15.7457 38.5995 15.6183 38.921 15.4625 39.1885C15.1499 39.7253 15.1415 39.7002 15.7588 40.0708L16.0048 40.2184L16.9123 38.7333C17.4115 37.9164 18.0171 36.9296 18.2581 36.5404C18.4991 36.1512 18.7252 35.7823 18.7606 35.7207C18.8 35.6523 18.6666 35.4983 18.4181 35.3252L18.0111 35.0418L17.6473 35.6114C17.1356 36.4126 17.0712 36.4324 16.3234 36.0168C15.1437 35.3612 13.9842 34.606 13.9796 34.4905C13.9668 34.163 14.718 34.0115 17.4232 33.7959C18.6728 33.6963 19.6671 33.5395 20.05 33.3818C20.1365 33.3461 20.3713 33.0551 20.5719 32.735C21.4573 31.323 21.8033 30.7472 21.8033 30.6866C21.8033 30.614 21.0534 30.0927 21.0186 30.1411C20.2033 31.2748 19.7054 31.4916 17.3766 31.7259C16.7616 31.7878 16.057 31.8774 15.8111 31.925C15.0739 32.0678 15.1119 32.1136 15.1204 31.0917C15.1269 30.3166 15.0946 30.1017 14.9154 29.7264C14.338 28.5175 12.9308 27.9404 11.7246 28.4179ZM11.0338 30.3897C10.717 30.592 10.197 31.1789 9.94037 31.6236L9.77318 31.9132L10.1268 32.157C10.3212 32.2911 10.7949 32.5952 11.1793 32.8326C11.5637 33.0701 12.0978 33.4071 12.3661 33.5815C12.6344 33.756 12.9112 33.8986 12.9812 33.8986C13.1231 33.8986 13.629 32.9253 13.7904 32.3418C13.8741 32.039 13.8672 31.8992 13.7558 31.6342C13.3338 30.6313 11.7726 29.9174 11.0338 30.3897ZM31.1114 32.4126C30.4077 32.9378 29.7908 33.4423 28.9488 34.1817C28.5719 34.5126 27.3604 36.0652 27.4267 36.1322C27.4568 36.1627 27.6192 36.1235 27.7876 36.0451C27.956 35.9666 28.2406 35.8344 28.42 35.7513C28.5994 35.6681 29.1446 35.4373 29.6315 35.2383L30.5169 34.8764L31.2786 33.3497C31.6975 32.51 32.0091 31.8229 31.971 31.8229C31.9328 31.8229 31.546 32.0883 31.1114 32.4126ZM68.0272 31.864C68.0272 31.8865 68.3596 32.5784 68.7658 33.4014L69.5046 34.8979L70.653 35.3584C71.2846 35.6116 71.939 35.8963 72.1072 35.9909C72.7746 36.3666 72.7494 36.1885 72.0025 35.252C71.2745 34.339 70.7033 33.8061 69.2572 32.6902C68.2081 31.8807 68.0272 31.7591 68.0272 31.864ZM6.36361 35.8992C6.31263 35.9665 6.17648 36.3399 6.06101 36.7291C5.94554 37.1183 5.77435 37.6702 5.6805 37.9557C5.58675 38.2411 5.37725 38.9204 5.21491 39.4653C5.05257 40.0101 4.84288 40.6894 4.74894 40.9748C4.655 41.2603 4.4443 41.9396 4.28074 42.4844C4.11719 43.0293 3.86109 43.8553 3.71151 44.32C3.24946 45.7564 3.17649 45.626 4.74354 46.1632C5.48377 46.4169 6.12178 46.6044 6.16129 46.5796C6.22513 46.5397 6.42456 45.9311 6.42586 45.7721C6.42614 45.7381 6.20378 45.5831 5.93157 45.4276C5.38005 45.1125 4.84214 44.5498 4.84214 44.2878C4.84214 44.1937 4.87969 43.9935 4.92564 43.843C4.97158 43.6926 5.08258 43.3147 5.17232 43.0034C5.45768 42.0127 5.46308 42.0035 5.70156 42.102C5.81833 42.1504 6.48001 42.3645 7.17197 42.5781C7.86393 42.7917 8.53492 43.0035 8.66306 43.0487C8.7912 43.0939 9.46219 43.3082 10.1542 43.5248C12.3733 44.2196 13.0855 44.4795 13.2723 44.6621C13.4647 44.8503 13.4657 44.8363 13.1657 46.1282C13.1287 46.2875 13.1809 46.35 13.4212 46.4349C13.9443 46.6195 14.0351 46.5789 14.187 46.0933C14.2641 45.8469 14.5044 45.072 14.7212 44.3714C14.9379 43.6709 15.2361 42.7206 15.3839 42.2597C15.5317 41.7987 15.6526 41.3686 15.6526 41.3037C15.6526 41.2129 15.0234 40.9748 14.7832 40.9748C14.7606 40.9748 14.671 41.1977 14.5842 41.4702C14.2915 42.3886 14.0822 42.5314 13.3599 42.3056C13.2114 42.2592 12.7752 42.1281 12.3908 42.0144C12.0064 41.9006 11.4612 41.7303 11.1793 41.6359C10.8974 41.5413 10.1006 41.2865 9.40861 41.0694C8.71665 40.8524 7.91984 40.6005 7.63793 40.5097C7.35602 40.4189 6.92091 40.2848 6.67096 40.2116C6.42111 40.1384 6.19726 40.0277 6.17368 39.9656C6.12178 39.8293 6.48383 38.6115 6.72026 38.127C6.99117 37.5718 7.18912 37.4839 8.16765 37.4839H9.02866L9.13219 37.0945C9.18914 36.8804 9.20125 36.6747 9.15913 36.6375C9.11691 36.6003 8.55822 36.4192 7.91751 36.2348C7.27681 36.0505 6.68596 35.8721 6.60442 35.8384C6.52297 35.8047 6.41459 35.832 6.36361 35.8992ZM46.1268 35.9781C44.4972 36.0618 42.3589 36.2426 42.1805 36.312C42.1053 36.3412 42.0269 36.5668 41.9929 36.8523C41.9608 37.1218 41.8906 37.682 41.8368 38.0972C41.7454 38.804 41.6416 39.7411 41.4992 41.1467L41.4389 41.7431L42.3151 41.6873C42.7969 41.6565 43.834 41.5898 44.6198 41.539C45.4055 41.4882 46.3991 41.4466 46.8277 41.4466C47.2562 41.4466 47.6253 41.4147 47.6479 41.3758C47.6704 41.337 47.7043 40.0957 47.7232 38.6175C47.7532 36.2796 47.7395 35.9286 47.6178 35.9194C47.541 35.9134 46.87 35.9399 46.1268 35.9781ZM52.2867 38.1351C52.2918 39.3597 52.3233 40.5951 52.3566 40.8805L52.4173 41.3994L52.8833 41.4201C54.0964 41.4737 57.1536 41.6439 57.7992 41.6936L58.5215 41.7493L58.5215 41.3385C58.5216 40.958 58.4727 40.4784 58.2435 38.6161C58.0618 37.1402 57.9369 36.347 57.8808 36.3119C57.7968 36.2595 54.3598 35.9884 53.2327 35.9452L52.2775 35.9086L52.2867 38.1351ZM37.1802 37.0134C37.0008 37.0552 36.4137 37.182 35.8755 37.2951C34.596 37.5642 33.0412 37.9392 32.7658 38.0453C32.6172 38.1025 32.5301 38.2298 32.4934 38.4435C32.4384 38.7643 32.0353 40.7751 31.8726 41.5409C31.7479 42.1272 31.6495 43.0505 31.7116 43.0505C31.7398 43.0505 32.6357 42.9048 33.7027 42.7266C34.7696 42.5486 35.8732 42.3735 36.1551 42.3375C36.9602 42.2351 37.087 42.1612 37.087 41.7949C37.087 41.6207 37.1283 41.2481 37.1787 40.967C37.2291 40.6859 37.3362 40.0526 37.4166 39.5596C37.4971 39.0666 37.6051 38.4298 37.6566 38.1444C37.8708 36.9588 37.8716 36.917 37.6818 36.9275C37.5853 36.9329 37.3596 36.9715 37.1802 37.0134ZM62.1827 37.1773C62.2091 37.32 62.2743 37.6702 62.3278 37.9557C62.4948 38.8476 62.7353 40.3149 62.9501 41.7521C62.9791 41.9461 63.0743 42.1434 63.1618 42.1905C63.2493 42.2377 63.6774 42.3225 64.1131 42.3792C64.5487 42.4357 65.1568 42.5235 65.4644 42.5742C66.5322 42.7504 67.1451 42.8534 67.7359 42.9556C68.0627 43.0121 68.3505 43.0377 68.3754 43.0124C68.4005 42.9871 68.3775 42.7624 68.3243 42.5131C68.2711 42.2639 68.1827 41.8051 68.1278 41.4938C68.0729 41.1824 67.9599 40.588 67.8766 40.1729C67.7351 39.4678 67.6879 39.2447 67.5119 38.4476C67.4742 38.2771 67.3756 38.1026 67.2926 38.0597C67.2097 38.0169 66.6596 37.8683 66.0701 37.7296C65.4807 37.5909 64.8306 37.4368 64.6256 37.3872C64.1263 37.2663 62.3464 36.9178 62.2285 36.9178C62.1769 36.9178 62.1563 37.034 62.1827 37.1773ZM28.5132 39.3412C28.0619 39.5019 25.0578 40.7266 24.7855 40.8611C24.3404 41.0807 23.8615 42.0462 22.9974 44.4658C22.8954 44.7512 22.7754 45.0787 22.7306 45.1936C22.6858 45.3085 22.679 45.4199 22.7155 45.4413C22.7519 45.4626 23.3899 45.2765 24.1331 45.0278C24.8764 44.779 25.9248 44.4598 26.463 44.3184C27.0012 44.1771 27.4929 44.0207 27.5556 43.971C27.6182 43.9214 27.6969 43.7258 27.7305 43.5364C27.8665 42.7682 28.6181 39.9934 28.8397 39.4417C28.9076 39.2724 28.7997 39.2393 28.5132 39.3412ZM71.2647 39.6775C71.3419 39.8981 71.4442 40.2271 71.492 40.4087C71.5399 40.5904 71.6151 40.8663 71.6592 41.022C71.7033 41.1777 71.8884 41.891 72.0706 42.607C72.4386 44.053 72.4524 44.0884 72.653 44.0884C72.8414 44.0884 75.1383 44.7625 76.3368 45.1696C76.8629 45.3483 77.3083 45.4794 77.3266 45.4609C77.3449 45.4423 77.2967 45.2427 77.2196 45.0173C76.9026 44.0915 76.5231 43.0723 76.3466 42.6731C76.2435 42.4396 76.0412 41.9793 75.8973 41.6501C75.6486 41.0809 75.6069 41.0382 75.0443 40.7774C74.719 40.6265 74.4339 40.5031 74.4109 40.5031C74.3879 40.5031 74.1053 40.3808 73.7831 40.2314C73.4608 40.082 73.0089 39.8947 72.7789 39.8154C72.5489 39.7359 72.1389 39.5822 71.8679 39.4737C71.1412 39.1829 71.0969 39.1979 71.2647 39.6775ZM93.0496 41.2019C92.4076 41.3624 92.0269 41.5807 91.5547 42.0586C90.9733 42.6474 90.7824 43.1274 90.3917 44.9847C90.1729 46.0244 90.034 46.5319 89.8759 46.8693C89.295 48.1086 87.6888 48.0455 87.0829 46.7596C86.4563 45.43 87.0917 44.0723 88.7083 43.2864L89.2907 43.0034L89.2469 42.5942C89.2229 42.3691 89.1669 42.1499 89.1227 42.107C89.0784 42.064 88.2454 42.2089 87.2716 42.4288C85.5793 42.811 85.4997 42.8391 85.4731 43.0631C85.4579 43.1921 85.4883 43.4118 85.5407 43.5514C85.6153 43.7499 85.6977 43.8053 85.9179 43.8053C86.2587 43.8053 86.2697 43.9104 86.0111 44.6927C85.7974 45.3395 85.7779 46.0159 85.9536 46.6835C86.2746 47.904 86.8026 48.6246 87.7136 49.0855C88.1991 49.3311 88.3836 49.372 89.007 49.372C89.932 49.372 90.5987 49.1288 91.217 48.566C91.8628 47.9782 92.125 47.3407 92.5347 45.3621C92.7129 44.5012 93.0049 43.5689 93.1961 43.2509C93.5628 42.6403 94.5167 42.4902 95.0154 42.9645C95.3652 43.2973 95.5636 44.0931 95.4303 44.6291C95.2735 45.2593 94.8459 45.8226 94.2155 46.2296C93.736 46.5391 93.659 46.6285 93.6573 46.8773C93.6562 47.036 93.7123 47.2449 93.7821 47.3414C93.8958 47.4988 93.9534 47.5055 94.3412 47.4066C94.579 47.3459 94.9518 47.2552 95.1697 47.2051C96.6681 46.8605 96.917 46.7876 96.9165 46.6939C96.9162 46.636 96.8724 46.4295 96.8189 46.2348C96.7348 45.928 96.6854 45.881 96.4467 45.881C96.1274 45.881 96.12 45.8403 96.3242 45.2081C96.5456 44.5228 96.4575 43.4208 96.1276 42.7531C95.7041 41.8952 95.1621 41.4399 94.282 41.2027C93.7112 41.0488 93.6612 41.0488 93.0496 41.2019ZM42.9582 46.2832C41.9587 46.332 41.1359 46.3784 41.1296 46.386C41.0679 46.4626 40.9079 49.8756 40.9078 51.1193V52.7214L44.0997 52.6963C45.8553 52.6825 47.3441 52.652 47.4082 52.6286C47.4983 52.5954 47.5247 51.8579 47.5247 49.3749V46.1641L46.1501 46.1792C45.3941 46.1875 43.9577 46.2343 42.9582 46.2832ZM52.486 49.3806L52.5105 52.627L55.7723 52.6742C57.5662 52.7002 59.0634 52.7002 59.0993 52.6742C59.1725 52.6213 59.0269 47.4906 58.933 46.815L58.8727 46.3809L57.6486 46.3186C56.9755 46.2844 55.5329 46.2288 54.443 46.1952L52.4614 46.1341L52.486 49.3806ZM35.5027 46.8257C35.2208 46.8657 34.5498 46.9463 34.0116 47.0047C32.1299 47.2089 31.3545 47.3146 31.2158 47.3857C31.0534 47.4689 30.9973 48.0065 30.8519 50.8706C30.7982 51.9285 30.7797 52.8356 30.8108 52.8864C30.8571 52.9624 34.7589 52.9108 35.8755 52.8193C36.0875 52.8021 36.1143 52.75 36.1728 52.2419C36.2082 51.9348 36.2828 50.7707 36.3389 49.655C36.3948 48.5393 36.4656 47.4248 36.4963 47.1783C36.5518 46.7325 36.5507 46.7303 36.2837 46.7416C36.1361 46.7478 35.7846 46.7857 35.5027 46.8257ZM63.5246 46.8009C63.5025 46.8398 63.5172 47.1689 63.5572 47.5322C63.5971 47.8954 63.683 49.2188 63.7478 50.4731L63.8658 52.7537L64.1525 52.803C64.3102 52.8301 65.5249 52.8817 66.852 52.9175L69.2647 52.9827L69.203 51.3896C69.169 50.5134 69.092 49.2539 69.032 48.5908C68.9325 47.494 68.9053 47.3817 68.7312 47.3481C68.5082 47.3051 67.3149 47.1539 66.1167 47.017C65.6554 46.9643 64.9253 46.8782 64.4943 46.8257C63.5571 46.7115 63.5752 46.712 63.5246 46.8009ZM9.43656 47.6607C8.84954 47.866 8.32766 48.2223 7.99934 48.6419C7.86495 48.8137 7.41669 49.5295 7.0031 50.2327C6.5896 50.9359 6.06847 51.7156 5.84508 51.9655C5.46998 52.3849 5.39925 52.423 4.92247 52.4631C4.44793 52.5029 4.37934 52.4826 4.07525 52.2122C3.22635 51.4577 3.67592 49.9497 4.94279 49.302C5.27185 49.1337 5.63819 48.9957 5.75692 48.9953C6.17908 48.9939 6.33323 48.8308 6.33323 48.3855V47.9717L5.70417 47.9142C5.35824 47.8825 4.66926 47.811 4.1732 47.7553C3.67713 47.6996 3.22635 47.6823 3.17137 47.7166C3.11639 47.751 3.07146 47.9635 3.07146 48.1889C3.07146 48.5594 3.0983 48.6082 3.35104 48.6974C3.69297 48.8181 3.69912 48.8966 3.38963 49.1905C2.65116 49.8914 2.42759 51.7019 2.95348 52.7214C3.5228 53.825 4.79358 54.4446 5.95337 54.1841C7.18632 53.9073 7.86439 53.2525 8.87181 51.3662C9.29677 50.5704 9.92322 49.7065 10.2185 49.5089C10.5505 49.2867 11.3053 49.2793 11.7078 49.4943C12.3702 49.8482 12.6903 50.7184 12.4817 51.5984C12.2246 52.6838 11.4673 53.2883 9.99489 53.5838L9.22986 53.7373L9.16826 54.1536C9.13434 54.3826 9.12968 54.5933 9.15783 54.6219C9.18606 54.6504 9.53712 54.7096 9.93794 54.7536C12.1455 54.9953 12.7898 55.0434 12.8545 54.9714C12.8938 54.9274 12.9522 54.716 12.984 54.5016C13.0392 54.1291 13.0284 54.1064 12.7396 53.99C12.5734 53.923 12.4222 53.8566 12.4037 53.8425C12.3851 53.8283 12.5205 53.6307 12.7046 53.4034C13.605 52.2908 13.846 50.6376 13.2922 49.372C12.6508 47.9062 10.9247 47.1401 9.43656 47.6607ZM26.2766 48.1595C24.3755 48.5593 22.2809 49.0533 21.9564 49.1782C21.783 49.2449 21.7179 49.3735 21.6358 49.8123C21.4852 50.616 21.3534 51.6621 21.2825 52.6147L21.2203 53.4514L22.467 53.3883C24.297 53.2957 26.2902 53.1486 26.3671 53.1005C26.404 53.0774 26.4632 52.5793 26.4987 51.9937C26.5342 51.408 26.6026 50.5679 26.6507 50.1268C26.8383 48.4069 26.8604 48.0514 26.7794 48.0612C26.7335 48.0667 26.5072 48.111 26.2766 48.1595ZM73.1906 48.5464C73.3465 49.7554 73.4366 50.7267 73.4922 51.794C73.5251 52.4256 73.5797 52.9877 73.6135 53.043C73.673 53.1405 74.9856 53.2535 77.6156 53.3878L78.8634 53.4515L78.811 53.228C78.7823 53.105 78.7326 52.6648 78.7005 52.2496C78.6412 51.4832 78.5183 50.5612 78.3599 49.696L78.2724 49.2181L77.0871 48.9234C76.4353 48.7614 75.4826 48.5395 74.9701 48.4304C74.4575 48.3212 73.8623 48.1912 73.6474 48.1415C73.4325 48.0917 73.2274 48.0511 73.1917 48.0511C73.1561 48.0511 73.1556 48.2739 73.1906 48.5464ZM91.4653 49.7117C89.8587 49.9474 88.3727 50.947 87.6222 52.2968C87.0446 53.3355 86.8985 53.9854 86.9012 55.5047C86.9034 56.7555 86.9253 56.9326 87.1568 57.5709C87.4815 58.4665 87.7646 58.95 88.3305 59.5763C89.1525 60.4858 90.2228 60.9933 91.6445 61.1475C94.4726 61.4543 96.7233 59.9307 97.4696 57.2042C97.7088 56.3303 97.7362 54.5766 97.5236 53.7403C97.0472 51.8664 95.7222 50.4308 93.971 49.8907C93.5062 49.7474 91.9699 49.6377 91.4653 49.7117ZM90.6467 52.1588C89.4044 52.4089 88.5608 53.0202 88.1344 53.9791C87.9755 54.3363 87.937 54.6162 87.9312 55.4575C87.9243 56.4369 87.9394 56.5237 88.1985 56.9972C88.8749 58.2333 90.1746 58.7984 92.3506 58.8022C94.5649 58.8062 95.9475 58.1195 96.447 56.7678C96.665 56.1782 96.7028 54.7323 96.5139 54.2136C96.3298 53.7079 95.8518 53.1049 95.3891 52.7947C94.356 52.1019 92.299 51.8261 90.6467 52.1588ZM12.5306 55.6832L12.1578 55.7406L12.189 56.3556C12.2147 56.8599 12.1896 56.9977 12.0492 57.1218C11.8692 57.2809 11.0632 57.3987 8.89604 57.5823C8.22971 57.6387 7.24419 57.7236 6.706 57.7708C4.79731 57.9384 4.05093 57.965 3.9102 57.8705C3.8281 57.8154 3.73193 57.5123 3.67722 57.136L3.58403 56.4954L3.16466 56.5275C2.934 56.5451 2.7205 56.5876 2.6903 56.6218C2.66001 56.6561 2.66682 57.0662 2.7054 57.5332C2.74389 58.0003 2.82404 58.9768 2.8834 59.7033C2.94286 60.4298 3.02058 61.1938 3.05627 61.4011C3.1203 61.7738 3.12533 61.7777 3.49232 61.7472C3.69651 61.7302 3.9021 61.6787 3.94916 61.6327C3.99622 61.5868 4.02502 61.2792 4.01318 60.9494C3.99874 60.545 4.03164 60.3171 4.11402 60.2501C4.24132 60.1467 5.24548 60.0193 7.31176 59.8441C7.97809 59.7877 8.94264 59.7031 9.4552 59.6561C11.4235 59.4757 12.0642 59.459 12.2322 59.5835C12.3332 59.6584 12.4302 59.9323 12.4909 60.3142C12.5443 60.6502 12.596 60.9293 12.6059 60.9344C12.6158 60.9395 12.823 60.9258 13.0664 60.9037C13.5784 60.8574 13.5483 60.9895 13.4155 59.3731C13.3665 58.7763 13.2841 57.7604 13.2324 57.1155C13.1362 55.9146 13.0786 55.589 12.967 55.6125C12.932 55.6198 12.7356 55.6516 12.5306 55.6832ZM21.283 58.0664C21.3161 58.5516 21.3828 59.214 21.4314 59.5385C21.585 60.5677 21.7391 61.4487 21.7654 61.4487C21.7793 61.4487 22.2654 61.5697 22.8454 61.7176C23.4255 61.8654 24.1308 62.0371 24.4127 62.0991C25.7817 62.4002 26.6074 62.5597 26.6524 62.5317C26.6797 62.5147 26.6715 62.1685 26.6341 61.7625C26.5967 61.3564 26.5212 60.2614 26.4664 59.3291C26.4115 58.3967 26.336 57.6053 26.2984 57.5703C26.2607 57.5354 25.4542 57.4594 24.5059 57.4013C23.5577 57.3434 22.4311 57.2707 22.0024 57.2401L21.2229 57.1842L21.283 58.0664ZM76.6941 57.3119C75.9509 57.3567 74.9654 57.4248 74.5041 57.4633L73.6654 57.5332L73.5608 59.2315C73.5034 60.1656 73.4238 61.3014 73.384 61.7554C73.3442 62.2095 73.3284 62.5809 73.3488 62.5809C73.3692 62.5809 73.6794 62.5171 74.0381 62.439C74.3969 62.361 75.005 62.2303 75.3894 62.1484C75.7739 62.0665 76.5681 61.8756 77.1544 61.7242C77.7408 61.5726 78.2293 61.4487 78.2401 61.4487C78.3623 61.4487 78.8791 57.4416 78.7782 57.2764C78.7282 57.1945 78.6106 57.1965 76.6941 57.3119ZM30.8734 59.1494C30.9331 60.7046 31.066 62.4151 31.1712 62.9829C31.2283 63.2914 31.2585 63.3147 31.6666 63.3661C36.54 63.9802 36.615 63.9847 36.4899 63.6549C36.4585 63.5719 36.3924 62.6912 36.3433 61.6979C36.2941 60.7047 36.2266 59.4404 36.1932 58.8886L36.1325 57.8852L34.7692 57.8263C34.0194 57.794 32.8231 57.7416 32.1109 57.7099L30.8159 57.6521L30.8734 59.1494ZM66.4429 57.7717C65.6484 57.8084 64.7428 57.8441 64.4304 57.851L63.8625 57.8635L63.8023 59.2551C63.7694 60.0205 63.7 61.3652 63.6484 62.2432C63.5968 63.1212 63.5746 63.8599 63.5991 63.8847C63.6235 63.9095 64.0952 63.879 64.6471 63.8171C66.9507 63.5587 67.4551 63.497 68.1194 63.3928L68.8174 63.2834L68.8764 62.8143C68.9893 61.9173 69.1415 59.7914 69.1667 58.7598L69.1921 57.7219L68.5397 57.7134C68.1809 57.7087 67.2374 57.735 66.4429 57.7717ZM40.9065 59.3495C40.9058 60.1148 40.9547 61.5317 41.0154 62.4979L41.1255 64.2546L41.9254 64.3133C42.3653 64.3456 43.8051 64.4001 45.1249 64.4346L47.5247 64.4973V61.2888V58.0804L46.6716 58.0191C46.2024 57.9854 44.7137 57.9578 43.3632 57.9578H40.9079L40.9065 59.3495ZM53.0929 58.0278L52.4639 58.0607V61.279V64.4973L54.8636 64.4346C56.1834 64.4001 57.625 64.3454 58.0672 64.313L58.871 64.2542L58.9362 63.6298C59.0197 62.8293 59.1671 58.1221 59.1116 58.0286C59.0712 57.9605 54.3867 57.9599 53.0929 58.0278ZM13.2761 61.6528C13.1224 61.7037 12.8707 61.7812 12.717 61.8252C12.5632 61.8691 12.018 62.0328 11.5055 62.189C10.6401 62.4528 10.2126 62.5826 7.75443 63.3283C7.25472 63.4799 6.48933 63.7126 6.05365 63.8452C5.61797 63.978 5.10708 64.0874 4.91837 64.0886C4.54643 64.0907 4.3771 63.9202 4.0513 63.2153C3.93685 62.9678 3.84031 62.8727 3.73528 62.9041C3.65206 62.929 3.46875 62.9772 3.32775 63.0113C3.01592 63.0866 3.00148 63.2682 3.24499 64.0514C3.4447 64.694 3.74171 65.6997 3.95307 66.4493C4.16966 67.2173 4.18969 67.2368 4.63842 67.1145C4.84866 67.0572 5.03868 66.9795 5.06067 66.9421C5.08276 66.9045 5.0576 66.6355 5.00476 66.3442C4.82778 65.3677 4.93048 65.2511 6.33323 64.8363C7.31101 64.5472 8.00269 64.3378 9.08681 64.0026C9.96003 63.7327 10.3405 63.657 10.3405 63.7533C10.3405 63.7753 9.95258 64.322 9.4785 64.968C9.00443 65.6141 8.13419 66.8111 7.54474 67.6281C6.95529 68.4451 6.20714 69.4766 5.88227 69.9205C5.20326 70.848 5.21156 70.7518 5.67743 72.299C5.84154 72.8438 6.01106 73.4329 6.05412 73.6078C6.168 74.071 6.25066 74.1183 6.70069 73.9785C7.13497 73.8436 7.11969 73.9157 6.92995 72.9014C6.83936 72.4175 7.02705 72.3297 10.224 71.3617C10.7495 71.2026 11.5882 70.9479 12.0879 70.7956C13.7651 70.2846 14.3204 70.1289 14.4661 70.1289C14.6585 70.1289 15.0716 70.6361 15.2529 71.0949C15.3771 71.4089 15.4308 71.4556 15.6147 71.4089C16.1401 71.2754 16.3171 71.1656 16.2721 71.0016C16.1509 70.5606 15.8108 69.3946 15.7424 69.1854C15.7 69.0557 15.5742 68.6311 15.4628 68.2419C15.1065 66.9963 15.1072 66.9976 14.7774 67.0692C14.2466 67.1844 14.1599 67.2703 14.2341 67.607C14.2711 67.7745 14.3013 68.1376 14.3013 68.4137C14.3013 69.0422 14.3237 69.0252 12.9034 69.469C12.5446 69.581 12.1252 69.7082 11.9714 69.7515C11.6694 69.8367 10.3961 70.2213 8.87573 70.6866C8.35198 70.8469 7.8753 70.9781 7.81659 70.9781C7.6576 70.9781 7.6042 71.0551 11.1102 66.231C14.2963 61.8471 13.9806 62.3424 13.8438 61.9424C13.7099 61.5512 13.6599 61.5256 13.2761 61.6528ZM87.7102 61.8392C86.4803 62.3176 85.4846 63.9067 85.1634 65.9039C84.8852 67.6326 85.6528 69.2141 87.0802 69.8533C87.4677 70.0269 88.7028 70.4217 90.4867 70.9422C90.7687 71.0245 91.1041 71.127 91.2323 71.17C91.3604 71.213 91.7714 71.3427 92.1455 71.458C93.0365 71.7327 93.215 71.9495 93.1732 72.7059L93.1428 73.2576L93.5113 73.3871C93.8902 73.5201 94.1213 73.449 94.1213 73.1994C94.1213 73.1364 94.2057 72.8125 94.309 72.4797C94.4122 72.1468 94.5377 71.7258 94.5878 71.5442C94.6378 71.3626 94.7664 70.9285 94.8733 70.5795C94.9803 70.2306 95.0541 69.8763 95.0372 69.7921C95.0204 69.7079 94.8396 69.581 94.6355 69.5102C94.222 69.3666 94.2719 69.3283 93.8921 70.0817C93.6312 70.5994 93.3743 70.6717 92.533 70.4647C92.1621 70.3734 91.6233 70.2223 91.3357 70.1289C91.0482 70.0356 90.2258 69.7839 89.5082 69.5695C87.7819 69.054 87.2846 68.8456 86.9345 68.4907C86.4672 68.0173 86.2783 67.4868 86.2783 66.6481C86.2783 64.9623 87.1658 63.7189 88.3719 63.7147C88.9574 63.7127 89.6417 63.8782 91.9312 64.5756C94.3209 65.3034 94.9478 65.5187 95.0537 65.648C95.1671 65.7863 95.1524 65.9819 94.9769 66.6642C94.8867 67.0151 94.8906 67.0229 95.2212 67.1628C95.7921 67.4043 95.8322 67.3603 96.1719 66.1191C96.2145 65.9634 96.3821 65.3902 96.5443 64.8453C96.7066 64.3005 96.8737 63.7273 96.9159 63.5716C96.958 63.4159 97.0554 63.0863 97.1325 62.839C97.2916 62.3278 97.2536 62.276 96.6316 62.1579L96.303 62.0955L96.1402 62.6185C96.0507 62.9061 95.9182 63.2013 95.846 63.2744C95.6808 63.4417 95.3627 63.3827 93.6087 62.8599C92.8911 62.6461 92.1782 62.4351 92.0244 62.3912C91.8707 62.3472 91.2233 62.1597 90.5859 61.9744C89.2196 61.5772 88.474 61.5421 87.7102 61.8392ZM22.7352 65.3048C22.7352 65.5866 23.5985 67.884 24.2007 69.2049C24.4986 69.8582 24.5757 69.953 24.9617 70.139C25.5879 70.441 27.9654 71.4086 28.2737 71.4869C28.5166 71.5486 28.5323 71.5367 28.4725 71.3368C28.3429 70.904 28.245 70.5363 28.0129 69.61C27.7845 68.699 27.7008 68.3344 27.4764 67.2748C27.4187 67.0024 27.3592 66.7321 27.3442 66.674C27.3293 66.6161 27.2192 66.5461 27.0997 66.5186C26.4904 66.3785 25.2914 66.0212 24.1653 65.6442C22.8333 65.1982 22.7352 65.1749 22.7352 65.3048ZM76.3768 65.4709C76.0229 65.5995 75.0793 65.8971 74.28 66.1322C73.4807 66.3673 72.7811 66.6091 72.7256 66.6696C72.67 66.7301 72.5702 67.0767 72.5036 67.44C72.4372 67.8032 72.238 68.6736 72.061 69.3741C71.6354 71.0592 71.6015 71.1857 71.5227 71.3791C71.4825 71.4776 71.4967 71.5442 71.5579 71.5442C71.6678 71.5442 73.1284 70.9795 73.7808 70.6847C73.9982 70.5866 74.1963 70.5063 74.2212 70.5063C74.246 70.5063 74.5343 70.3822 74.8617 70.2304C75.4396 69.9624 75.4667 69.9335 75.7976 69.2371C76.1853 68.4214 76.8194 66.8417 77.0681 66.0719C77.1604 65.7865 77.2652 65.4787 77.3011 65.3879C77.3907 65.1615 77.1751 65.1809 76.3768 65.4709ZM31.775 67.7466C31.775 67.7959 31.8121 67.9594 31.8574 68.1099C31.9027 68.2603 31.9906 68.6807 32.0529 69.0439C32.1152 69.4072 32.2016 69.853 32.2452 70.0346C32.2889 70.2162 32.4582 70.9447 32.6216 71.6534L32.9188 72.9422L33.3021 73.0442C34.8054 73.4443 37.7273 74.041 37.8038 73.9634C37.8331 73.9338 37.7661 73.4304 37.655 72.8448C37.3675 71.3298 37.3011 70.9391 37.1771 70.0346C37.1166 69.5935 37.0392 69.0628 37.005 68.8552L36.9427 68.4778L36.2926 68.3619C33.2222 67.8145 31.775 67.6174 31.775 67.7466ZM66.1633 67.9521C65.3688 68.0914 64.3651 68.2556 63.9328 68.317C63.5005 68.3784 63.1158 68.4794 63.0779 68.5414C63.04 68.6035 62.9825 68.9117 62.9502 69.2265C62.9178 69.5412 62.8556 70.011 62.8121 70.2705C62.7685 70.5299 62.681 71.0606 62.6179 71.4498C62.5546 71.839 62.4261 72.5585 62.3322 73.0488C62.2384 73.5389 62.1772 73.9558 62.1962 73.9751C62.2342 74.0136 63.8059 73.7446 64.2528 73.6232C64.4066 73.5814 64.784 73.4938 65.0916 73.4286C65.7735 73.2841 67.0343 72.9582 67.0763 72.9156C67.138 72.8533 67.6952 70.4569 67.9327 69.2326C67.9931 68.9213 68.081 68.4885 68.128 68.2709C68.1751 68.0533 68.2136 67.8305 68.2136 67.7756C68.2136 67.6307 67.7862 67.6675 66.1633 67.9521ZM41.5042 69.4841C41.6844 71.1348 41.8182 72.2632 42.0154 73.7965C42.0646 74.179 42.1396 74.5241 42.1821 74.5634C42.3249 74.6956 47.563 75.1222 47.6732 75.0106C47.7433 74.9395 47.7074 70.1699 47.6329 69.6572L47.5712 69.2326L46.8723 69.2134C45.7217 69.1817 42.2897 68.9936 41.8491 68.9381L41.4389 68.8865L41.5042 69.4841ZM57.0304 69.0122C56.3897 69.0574 55.0896 69.1255 54.1414 69.1634L52.4173 69.2326L52.3601 70.3648C52.3286 70.9875 52.2971 72.2931 52.2902 73.2661L52.2775 75.0351H52.5668C53.8358 75.0351 57.7544 74.6577 57.8567 74.5256C57.9009 74.4686 57.9633 74.1883 57.9956 73.9029C58.0277 73.6175 58.0977 73.0443 58.151 72.6292C58.3082 71.4068 58.4299 70.3176 58.4912 69.5864C58.544 68.9546 58.5349 68.9034 58.3718 68.9163C58.2747 68.9238 57.6711 68.967 57.0304 69.0122ZM84.0584 70.3006C82.3785 73.0053 82.4389 72.8899 82.6278 73.0331C82.7215 73.1043 82.9116 73.2229 83.0501 73.2969C83.2958 73.4281 83.3087 73.4211 83.5876 73.0108C83.9175 72.5254 84.2017 72.299 84.481 72.299C84.6801 72.299 85.6253 72.8576 87.8307 74.2785C88.4971 74.7078 89.2908 75.213 89.5946 75.4009C89.8983 75.589 90.1619 75.7895 90.1801 75.8464C90.2013 75.9126 89.9504 75.9721 89.488 76.0107C89.089 76.044 88.2804 76.1132 87.6909 76.1645C87.1015 76.2158 86.095 76.3029 85.4543 76.358C84.8136 76.4132 83.8281 76.4982 83.2643 76.5469C82.7004 76.5957 81.6962 76.6805 81.0326 76.7355C80.3689 76.7905 79.7686 76.8837 79.6984 76.9427C79.6282 77.0017 79.5109 77.1673 79.4376 77.3107L79.3044 77.5716L80.1194 78.0849C80.5676 78.3671 81.8151 79.1604 82.8915 79.8477C83.9679 80.5351 85.1211 81.2677 85.4543 81.4758C85.7875 81.684 86.3012 82.0198 86.5959 82.2222C87.0985 82.5673 87.1318 82.6136 87.1318 82.9678C87.1318 83.1755 87.0479 83.5119 86.9454 83.7153C86.8429 83.9187 86.759 84.1024 86.759 84.1236C86.759 84.1663 87.4777 84.6588 87.54 84.6588C87.5617 84.6588 87.9807 84.0114 88.4712 83.22C88.9616 82.4286 89.4477 81.6538 89.5515 81.4981C89.8097 81.1103 89.7939 81.0394 89.3877 80.7674L89.0343 80.5306L88.5424 81.0851C88.2187 81.4502 87.9789 81.6396 87.8407 81.6396C87.616 81.6396 87.4573 81.5437 83.8479 79.2251C83.4514 78.9704 83.1263 78.7364 83.1257 78.7051C83.125 78.6739 83.4494 78.6213 83.8467 78.5881C84.244 78.5549 85.0303 78.4867 85.5941 78.4365C87.4049 78.2753 88.824 78.1539 90.1558 78.0461C90.8708 77.9883 91.5418 77.9075 91.6469 77.8666C91.752 77.8255 92.085 77.3946 92.3868 76.9089C92.6885 76.4232 93.0765 75.8035 93.2488 75.5319C93.4211 75.2602 93.5621 75.0218 93.5621 75.0019C93.5621 74.9607 92.8413 74.469 92.7807 74.469C92.7588 74.469 92.5902 74.6813 92.4061 74.9408C92.1813 75.2577 92.005 75.4125 91.8693 75.4125C91.6252 75.4125 90.8054 74.9639 89.4207 74.0725C88.8537 73.7075 88.0544 73.1947 87.6443 72.933C85.7144 71.7013 85.1737 71.3192 85.1607 71.1779C85.1277 70.8198 85.2045 70.4397 85.3804 70.0907C85.5892 69.6764 85.5705 69.6407 84.9821 69.3263C84.7439 69.199 84.7398 69.2034 84.0584 70.3006ZM15.9472 71.7312C15.514 71.9757 15.5154 71.9721 15.7171 72.3185C16.0205 72.8396 16.1105 73.1856 15.9873 73.3562C15.874 73.5131 15.4061 73.8075 14.3013 74.417C12.8251 75.2315 11.7212 75.8423 11.1327 76.1702C9.91772 76.847 8.92661 77.3135 8.80425 77.2659C8.73007 77.2371 8.53809 76.9782 8.3777 76.6904C8.21732 76.4027 8.04649 76.1673 7.99813 76.1673C7.85358 76.1673 7.17197 76.5425 7.17197 76.6221C7.17197 76.6626 7.20878 76.7361 7.25379 76.7853C7.2988 76.8347 7.53524 77.2571 7.77912 77.7241C8.0231 78.1911 8.29504 78.7006 8.38348 78.8563C8.47192 79.012 8.74544 79.5215 8.99119 79.9885C9.67132 81.2807 9.56349 81.1809 10.0309 80.951C10.2525 80.842 10.4335 80.7083 10.4334 80.6537C10.4332 80.5992 10.3283 80.3457 10.2004 80.0905C10.0724 79.8352 9.96777 79.5542 9.96777 79.4661C9.96777 79.2372 10.3775 78.9823 13.4159 77.3214C13.8003 77.1113 14.3875 76.7878 14.7206 76.6024C16.1993 75.7799 17.032 75.3852 17.1729 75.4399C17.3063 75.4917 17.678 75.9597 17.9361 76.4005C18.0223 76.5477 18.06 76.5436 18.4253 76.3462C18.643 76.2286 18.8211 76.1017 18.8211 76.0641C18.8211 75.9965 18.2503 74.8781 18.031 74.5162C17.9681 74.4124 17.6928 73.9029 17.4192 73.384C16.7198 72.0576 16.4537 71.6093 16.3491 71.5805C16.2991 71.5668 16.1183 71.6347 15.9472 71.7312ZM18.6338 76.7815L18.3168 77.1127L18.814 77.6225C19.2419 78.0611 19.3026 78.1676 19.2485 78.3857C19.154 78.7667 13.8073 84.1911 13.5284 84.1889C13.4054 84.1878 13.1246 84.0069 12.8664 83.7625C12.6198 83.529 12.3782 83.3379 12.3295 83.3379C12.2808 83.3379 12.1077 83.4772 11.9447 83.6474L11.6483 83.9569L12.9011 85.2226L14.1539 86.4883L15.5322 85.9429C16.2904 85.643 16.9945 85.3629 17.097 85.3207C19.5909 84.292 21.7725 83.4588 21.8274 83.514C21.8867 83.5734 21.7284 84.0501 21.2436 85.2721C21.2024 85.3759 21.043 85.8004 20.8896 86.2156C20.736 86.6307 20.4342 87.4374 20.219 88.0082C20.0038 88.579 19.7021 89.3857 19.5485 89.8009C19.395 90.216 19.2341 90.6406 19.1909 90.7444C18.9689 91.2783 18.9629 91.268 20.266 92.5846L21.5235 93.855L21.8703 93.5038L22.2172 93.1526L21.842 92.7505C21.2384 92.1034 21.2155 92.0606 21.3433 91.8118C21.5019 91.5029 26.2702 86.6533 26.5748 86.4911C26.9619 86.285 27.3159 86.3298 27.8105 86.6474L28.2628 86.9377L28.5977 86.5977L28.9326 86.2576L27.4603 84.7977C26.6506 83.9949 25.9563 83.3379 25.9176 83.3379C25.8788 83.3379 25.7077 83.4836 25.5373 83.6616L25.2273 83.9853L25.5189 84.3436C25.7554 84.6341 25.8106 84.7868 25.8106 85.1518C25.8106 85.5809 25.7794 85.6351 25.135 86.3251C23.2235 88.3715 21.9123 89.6672 21.8523 89.569C21.8165 89.5104 21.8283 89.4112 21.8783 89.3486C21.9285 89.286 22.0328 89.0437 22.1104 88.8102C22.1879 88.5767 22.3643 88.0884 22.5023 87.7252C22.6405 87.3619 22.8709 86.7463 23.0146 86.3571C23.3202 85.5293 23.9439 83.8732 24.3293 82.8662C24.4782 82.477 24.5999 82.1134 24.5996 82.0582C24.5993 82.003 24.4814 81.8438 24.3375 81.7042L24.0759 81.4505L23.1027 81.8374C22.5674 82.0501 22.0456 82.2587 21.9431 82.3009C20.7903 82.7748 16.7575 84.3758 16.7164 84.3758C16.5756 84.3758 16.8389 84.0706 18.3552 82.477C20.068 80.6766 20.7771 80.0357 21.0561 80.0357C21.1484 80.0357 21.4318 80.2248 21.6858 80.456L22.1476 80.8764L22.4414 80.5695C22.603 80.4007 22.7352 80.2217 22.7352 80.1718C22.7352 80.0483 19.1705 76.4504 19.0482 76.4504C18.9947 76.4504 18.8082 76.5994 18.6338 76.7815ZM77.9057 79.6329C75.1676 82.2229 74.1032 83.3468 73.7577 84.0125C73.2983 84.8976 73.1549 85.4349 73.1538 86.2773C73.1507 88.4514 74.824 90.6075 77.2533 91.56C77.6759 91.7257 79.4095 91.7267 79.9093 91.5616C80.466 91.3776 81.0549 91.078 81.68 90.6609C82.3378 90.2218 86.1081 86.4756 86.1037 86.2654C86.0999 86.0759 85.6849 85.6023 85.5228 85.6023C85.4531 85.6023 85.2728 85.7334 85.1223 85.8937C84.9718 86.054 84.7283 86.2488 84.5815 86.3264L84.3143 86.4677L83.2726 85.3981C80.7214 82.7789 78.8376 80.6494 78.8376 80.3849C78.8376 80.2818 79.0473 79.9851 79.3036 79.7256C79.5598 79.4662 79.7695 79.2259 79.7695 79.1915C79.7695 79.1215 79.1784 78.5247 79.1127 78.5285C79.0896 78.5298 78.5464 79.0268 77.9057 79.6329ZM76.0537 82.8426C75.5807 83.318 75.2347 83.7653 75.0648 84.1214C74.8235 84.6272 74.8078 84.7268 74.8609 85.4236C74.9337 86.38 75.3414 87.21 76.1988 88.1476C77.1785 89.2188 78.1207 89.8238 79.1357 90.033C80.1957 90.2515 81.1588 89.8665 82.3789 88.7368C82.8767 88.2758 82.8875 88.2554 82.7517 88.0281C82.6748 87.8993 82.025 87.1629 81.3076 86.3915C80.5902 85.6201 79.6678 84.6281 79.2577 84.187C77.5636 82.3645 77.2922 82.1114 77.0322 82.1114C76.8441 82.1114 76.5995 82.2942 76.0537 82.8426Z" clip-rule="evenodd" fill-rule="evenodd"></path>
</svg>
