<svg xmlns="http://www.w3.org/2000/svg" fill="none" viewBox="0 0 300 34" height="34" width="300">
<path fill="#949494" d="M58.547 0.929191C58.547 1.29477 58.5154 1.35838 58.3333 1.35838C58.1545 1.35838 58.1197 1.422 58.1197 1.74885C58.1197 2.05272 58.0745 2.14981 57.9158 2.18682C57.6858 2.24051 57.5891 2.48076 57.587 3.00361C57.5858 3.29003 57.5453 3.36127 57.384 3.36127C57.2269 3.36127 57.1665 3.45617 57.1103 3.79046C57.0666 4.05084 56.9825 4.21965 56.8966 4.21965C56.8107 4.21965 56.7267 4.38847 56.6829 4.64884C56.626 4.98781 56.5673 5.07803 56.4037 5.07803C56.2333 5.07803 56.1966 5.14566 56.1966 5.45954C56.1966 5.77742 56.161 5.84104 55.9829 5.84104C55.833 5.84104 55.7688 5.90504 55.7677 6.05564C55.7652 6.43866 55.647 6.68073 55.4389 6.72937C55.2802 6.76638 55.235 6.86347 55.235 7.16734C55.235 7.48637 55.1982 7.5578 55.0336 7.5578C54.8765 7.5578 54.816 7.6527 54.7598 7.98699C54.7161 8.24737 54.6321 8.41618 54.5462 8.41618C54.4603 8.41618 54.3763 8.585 54.3325 8.84538C54.2755 9.18434 54.2169 9.27457 54.0533 9.27457C53.8829 9.27457 53.8462 9.34219 53.8462 9.65607C53.8462 9.97396 53.8106 10.0376 53.6325 10.0376C53.4826 10.0376 53.4184 10.1016 53.4173 10.2522C53.415 10.6069 53.2955 10.896 53.1514 10.896C53.0725 10.896 52.9856 11.0755 52.9436 11.3251C52.8866 11.6641 52.828 11.7543 52.6644 11.7543C52.4902 11.7543 52.4573 11.8224 52.4573 12.1835C52.4573 12.5394 52.4231 12.6127 52.2573 12.6127C52.1065 12.6127 52.0404 12.7067 51.9889 12.9942C51.9358 13.2909 51.8733 13.3757 51.7081 13.3757C51.5245 13.3757 51.4957 13.4403 51.4957 13.8526C51.4957 14.2659 51.4672 14.3295 51.2821 14.3295C51.1032 14.3295 51.0684 14.3931 51.0684 14.7199C51.0684 15.0253 51.0235 15.1208 50.8623 15.1585C50.7212 15.1914 50.6341 15.3238 50.5858 15.5787C50.5327 15.8597 50.4654 15.9509 50.3111 15.9509C50.1403 15.9509 50.1068 16.0211 50.1068 16.3801C50.1068 16.7414 50.074 16.8092 49.8993 16.8092C49.7315 16.8092 49.6855 16.8869 49.6589 17.2146C49.6316 17.5516 49.5855 17.6251 49.3857 17.6505C49.1777 17.6768 49.1453 17.7378 49.1453 18.1035C49.1453 18.4624 49.1131 18.526 48.9316 18.526C48.7496 18.526 48.7179 18.5896 48.7179 18.9552C48.7179 19.3208 48.6863 19.3844 48.5043 19.3844C48.3262 19.3844 48.2906 19.448 48.2906 19.7659C48.2906 20.1092 48.2639 20.1474 48.0235 20.1474C47.7782 20.1474 47.7564 20.1824 47.7564 20.5766C47.7564 20.9422 47.7248 21.0058 47.5427 21.0058C47.3607 21.0058 47.3291 21.0694 47.3291 21.435C47.3291 21.7961 47.2962 21.8642 47.1219 21.8642C46.9583 21.8642 46.8997 21.9544 46.8427 22.2934C46.7865 22.6276 46.7261 22.7225 46.569 22.7225C46.4051 22.7225 46.3675 22.7938 46.3675 23.104C46.3675 23.4219 46.3319 23.4855 46.1538 23.4855C45.9718 23.4855 45.9402 23.5492 45.9402 23.9147C45.9402 24.3089 45.9184 24.3439 45.6731 24.3439C45.4278 24.3439 45.406 24.3789 45.406 24.7731C45.406 25.1387 45.3744 25.2023 45.1923 25.2023C45.0103 25.2023 44.9786 25.2659 44.9786 25.6315C44.9786 25.9926 44.9457 26.0607 44.7715 26.0607C44.6079 26.0607 44.5493 26.1509 44.4923 26.4899C44.4361 26.8242 44.3756 26.9191 44.2186 26.9191C44.0547 26.9191 44.0171 26.9903 44.0171 27.3006C44.0171 27.6185 43.9815 27.6821 43.8034 27.6821C43.6214 27.6821 43.5897 27.7457 43.5897 28.1113C43.5897 28.5055 43.5679 28.5405 43.3227 28.5405C43.0652 28.5405 43.0556 28.5627 43.0556 29.1604C43.0556 29.7026 43.0304 29.7803 42.8556 29.7803C42.7048 29.7803 42.6387 29.8743 42.5872 30.1618C42.5459 30.3924 42.4607 30.5434 42.372 30.5434C42.2798 30.5434 42.1983 30.7032 42.153 30.9725C42.096 31.3115 42.0374 31.4017 41.8738 31.4017C41.6996 31.4017 41.6667 31.4698 41.6667 31.8309C41.6667 32.1879 41.6328 32.2601 41.4652 32.2601C41.3089 32.2601 41.2478 32.3543 41.1932 32.6793C41.1421 32.9836 41.0655 33.1119 40.9139 33.1473C40.799 33.1741 40.7051 33.2644 40.7051 33.348C40.7051 33.4865 42.3701 33.5 59.4551 33.5H78.2051V33.1185C78.2051 32.8006 78.1696 32.737 77.9915 32.737C77.8458 32.737 77.7778 32.6734 77.7778 32.5373C77.7778 32.4194 77.6923 32.3176 77.569 32.2889C77.4174 32.2535 77.3408 32.1253 77.2897 31.8209C77.249 31.5787 77.1621 31.4017 77.0837 31.4017C76.9395 31.4017 76.8201 31.1126 76.8177 30.7579C76.8167 30.6107 76.7521 30.5434 76.612 30.5434C76.4568 30.5434 76.3903 30.4514 76.3355 30.1618C76.2928 29.9369 76.2041 29.7803 76.1189 29.7803C76.0298 29.7803 75.9471 29.6162 75.9026 29.3512C75.8464 29.0169 75.7859 28.922 75.6288 28.922C75.4656 28.922 75.4274 28.8508 75.4274 28.5471C75.4274 28.231 75.3896 28.1674 75.187 28.1418C74.9872 28.1164 74.941 28.0429 74.9138 27.7059C74.8872 27.3782 74.8411 27.3006 74.6734 27.3006C74.4986 27.3006 74.4658 27.2328 74.4658 26.8714C74.4658 26.5103 74.4329 26.4422 74.2587 26.4422C74.0951 26.4422 74.0364 26.352 73.9795 26.013C73.9233 25.6787 73.8628 25.5838 73.7058 25.5838C73.5381 25.5838 73.5043 25.5116 73.5043 25.1546C73.5043 24.789 73.4726 24.7254 73.2906 24.7254C73.1125 24.7254 73.0769 24.6618 73.0769 24.3439C73.0769 24.0301 73.0402 23.9624 72.8698 23.9624C72.7062 23.9624 72.6475 23.8722 72.5906 23.5332C72.5344 23.1989 72.4739 23.104 72.3169 23.104C72.1493 23.104 72.1154 23.0318 72.1154 22.6749C72.1154 22.3135 72.0826 22.2457 71.9078 22.2457C71.7401 22.2457 71.694 22.168 71.6674 21.8403C71.6402 21.5034 71.594 21.4298 71.3942 21.4045C71.1916 21.3788 71.1538 21.3153 71.1538 20.9991C71.1538 20.6879 71.1176 20.6243 70.9402 20.6243C70.7581 20.6243 70.7265 20.5607 70.7265 20.1951C70.7265 19.834 70.6936 19.7659 70.5193 19.7659C70.3558 19.7659 70.2971 19.6757 70.2402 19.3367C70.184 19.0024 70.1235 18.9075 69.9665 18.9075C69.7988 18.9075 69.765 18.8353 69.765 18.4783C69.765 18.1169 69.7322 18.0491 69.5574 18.0491C69.3896 18.0491 69.3436 17.9715 69.317 17.6438C69.2897 17.3068 69.2436 17.2333 69.0438 17.2079C68.8411 17.1823 68.8034 17.1187 68.8034 16.8026C68.8034 16.4914 68.7672 16.4277 68.5897 16.4277C68.4077 16.4277 68.3761 16.3641 68.3761 15.9986C68.3761 15.6375 68.3432 15.5694 68.1689 15.5694C68.0053 15.5694 67.9467 15.4791 67.8897 15.1402C67.8335 14.8059 67.7731 14.711 67.616 14.711C67.4484 14.711 67.4145 14.6388 67.4145 14.2818C67.4145 13.9162 67.3829 13.8526 67.2009 13.8526C67.0234 13.8526 66.9872 13.789 66.9872 13.4778C66.9872 13.1616 66.9495 13.0981 66.7468 13.0724C66.547 13.0471 66.5009 12.9735 66.4736 12.6366C66.447 12.3089 66.401 12.2312 66.2332 12.2312C66.0589 12.2312 66.0256 12.1635 66.0256 11.8087C66.0256 11.443 65.9933 11.382 65.7853 11.3557C65.5936 11.3313 65.5382 11.2546 65.5124 10.9772C65.489 10.7274 65.4213 10.6156 65.272 10.5808C65.1088 10.5428 65.0641 10.4485 65.0641 10.1419C65.0641 9.81506 65.0293 9.75144 64.8504 9.75144C64.6684 9.75144 64.6367 9.68783 64.6367 9.32225C64.6367 8.92807 64.615 8.89306 64.3697 8.89306C64.1244 8.89306 64.1026 8.85806 64.1026 8.46387C64.1026 8.0983 64.0709 8.03468 63.8889 8.03468C63.7068 8.03468 63.6752 7.97107 63.6752 7.60549C63.6752 7.2113 63.6534 7.1763 63.4081 7.1763C63.1677 7.1763 63.141 7.13815 63.141 6.7948C63.141 6.47691 63.1054 6.41329 62.9274 6.41329C62.7453 6.41329 62.7137 6.34968 62.7137 5.9841C62.7137 5.61853 62.6821 5.55491 62.5 5.55491C62.318 5.55491 62.2863 5.4913 62.2863 5.12572C62.2863 4.73153 62.2645 4.69653 62.0192 4.69653C61.7739 4.69653 61.7521 4.66153 61.7521 4.26734C61.7521 3.90177 61.7205 3.83815 61.5385 3.83815C61.396 3.83815 61.3248 3.77453 61.3248 3.6474C61.3248 3.52026 61.2535 3.45665 61.1111 3.45665C60.9296 3.45665 60.8974 3.39303 60.8974 3.03413C60.8974 2.66846 60.8651 2.60742 60.6571 2.5811C60.4573 2.55573 60.4111 2.48219 60.3839 2.14523C60.3573 1.81752 60.3112 1.73988 60.1435 1.73988C59.9732 1.73988 59.9359 1.67264 59.9359 1.36506C59.9359 1.04889 59.8982 0.985367 59.6955 0.959711C59.541 0.940064 59.4429 0.852509 59.4209 0.714595C59.3922 0.533668 59.321 0.5 58.9669 0.5H58.547V0.929191ZM279.487 1.91681C279.487 2.06569 279.373 2.10346 278.766 2.15458C278.369 2.18805 277.624 2.21571 277.11 2.2161C276.247 2.21667 276.175 2.23136 276.175 2.40751C276.175 2.58329 276.104 2.59827 275.267 2.59827C274.43 2.59827 274.359 2.61324 274.359 2.78902C274.359 2.9421 274.288 2.97977 273.998 2.97977C273.372 2.97977 272.992 3.08573 272.936 3.2761C272.895 3.41611 272.785 3.45665 272.446 3.45665C272.08 3.45665 272.009 3.48774 272.009 3.6474C272.009 3.80944 271.937 3.83815 271.535 3.83815C271.126 3.83815 271.057 3.86705 271.028 4.05275C271.006 4.19066 270.908 4.27821 270.753 4.29786C270.599 4.31741 270.513 4.3941 270.513 4.51246C270.513 4.66363 270.436 4.69653 270.085 4.69653C269.729 4.69653 269.658 4.72829 269.658 4.88728C269.658 5.0272 269.587 5.07803 269.391 5.07803C269.177 5.07803 269.124 5.12572 269.124 5.31647C269.124 5.50723 269.071 5.55491 268.857 5.55491C268.701 5.55491 268.59 5.60966 268.59 5.68682C268.59 5.7594 268.494 5.84123 268.376 5.8687C268.248 5.89855 268.162 5.99879 268.162 6.1182C268.162 6.2543 268.094 6.31792 267.949 6.31792C267.809 6.31792 267.735 6.38153 267.735 6.50199C267.735 6.62036 267.649 6.69704 267.495 6.71659C267.34 6.73624 267.242 6.82379 267.22 6.96171C267.198 7.09962 267.112 7.1763 266.98 7.1763C266.831 7.1763 266.773 7.24278 266.773 7.41474C266.773 7.58956 266.717 7.65318 266.56 7.65318C266.417 7.65318 266.346 7.71679 266.346 7.84393C266.346 7.96821 266.275 8.03468 266.142 8.03468C265.987 8.03468 265.92 8.12662 265.865 8.41618C265.811 8.70575 265.744 8.79769 265.589 8.79769C265.418 8.79769 265.385 8.86788 265.385 9.22688C265.385 9.58387 265.351 9.65607 265.183 9.65607C265.026 9.65607 264.966 9.75097 264.909 10.0853C264.864 10.3551 264.783 10.5145 264.69 10.5145C264.598 10.5145 264.516 10.6738 264.471 10.9436C264.415 11.2779 264.354 11.3728 264.197 11.3728C264.02 11.3728 263.996 11.4488 263.996 11.9928C263.996 12.545 263.973 12.6127 263.786 12.6127C263.596 12.6127 263.574 12.6912 263.546 13.4473C263.517 14.2304 263.5 14.2837 263.275 14.3123L263.034 14.3427V17.6743C263.034 20.8682 263.042 21.0058 263.234 21.0058C263.486 21.0058 263.568 21.3385 263.568 22.353C263.568 23.0404 263.586 23.104 263.782 23.104C263.974 23.104 263.996 23.1677 263.996 23.724C263.996 24.3217 264.005 24.3439 264.263 24.3439C264.508 24.3439 264.53 24.3789 264.53 24.7731C264.53 25.1387 264.562 25.2023 264.744 25.2023C264.922 25.2023 264.957 25.2659 264.957 25.5838C264.957 25.9017 264.993 25.9653 265.171 25.9653C265.353 25.9653 265.385 26.0289 265.385 26.3945C265.385 26.7887 265.406 26.8237 265.652 26.8237C265.865 26.8237 265.919 26.8714 265.919 27.0621C265.919 27.237 265.976 27.3006 266.132 27.3006C266.289 27.3006 266.346 27.3642 266.346 27.539C266.346 27.7092 266.404 27.7775 266.548 27.7775C266.693 27.7775 266.769 27.8688 266.818 28.1008C266.862 28.3112 266.959 28.4413 267.097 28.4733C267.222 28.5026 267.308 28.6036 267.308 28.7222C267.308 28.8584 267.376 28.922 267.521 28.922C267.661 28.922 267.735 28.9856 267.735 29.106C267.735 29.2244 267.821 29.3011 267.975 29.3206C268.127 29.3399 268.228 29.4277 268.249 29.5583C268.274 29.7164 268.379 29.7802 268.692 29.8274C268.972 29.8696 269.12 29.9479 269.157 30.0732C269.187 30.1744 269.282 30.2572 269.369 30.2572C269.455 30.2572 269.552 30.3431 269.582 30.448C269.616 30.5621 269.728 30.6387 269.862 30.6387C270.009 30.6387 270.085 30.6997 270.085 30.8173C270.085 30.9518 270.191 31.0109 270.513 31.0569C270.771 31.0937 270.94 31.1698 270.94 31.2489C270.94 31.3313 271.119 31.404 271.421 31.4445C271.801 31.4953 271.902 31.5477 271.902 31.6937C271.902 31.8492 271.978 31.8786 272.382 31.8786C272.792 31.8786 272.863 31.9068 272.863 32.0694C272.863 32.2319 272.935 32.2601 273.344 32.2601C273.743 32.2601 273.825 32.2905 273.825 32.4389C273.825 32.6483 274.195 32.737 275.067 32.737C275.57 32.737 275.641 32.7606 275.641 32.9277C275.641 33.1044 275.712 33.1185 276.603 33.1185C277.493 33.1185 277.564 33.1326 277.564 33.3092C277.564 33.4964 277.635 33.5 281.291 33.5C284.928 33.5 285.019 33.4954 285.074 33.3092C285.125 33.1337 285.219 33.1185 286.261 33.1185C287.322 33.1185 287.393 33.1065 287.393 32.9277C287.393 32.7747 287.464 32.737 287.754 32.737C288.381 32.737 288.76 32.631 288.816 32.4407C288.861 32.2884 288.971 32.2601 289.52 32.2601C290.1 32.2601 290.171 32.2392 290.171 32.0694C290.171 31.9073 290.242 31.8786 290.644 31.8786C291.054 31.8786 291.122 31.8497 291.152 31.664C291.18 31.4857 291.263 31.4445 291.64 31.4201C292.007 31.3964 292.094 31.3553 292.094 31.2055C292.094 31.0714 292.168 31.0202 292.361 31.0202C292.553 31.0202 292.628 30.9688 292.628 30.8379C292.628 30.6994 292.731 30.64 293.056 30.591C293.38 30.5421 293.483 30.4827 293.483 30.3442C293.483 30.2255 293.557 30.1618 293.697 30.1618C293.839 30.1618 293.91 30.0982 293.91 29.9711C293.91 29.8312 293.982 29.7803 294.177 29.7803C294.377 29.7803 294.444 29.7301 294.444 29.5806C294.444 29.4645 294.53 29.3611 294.648 29.3334C294.76 29.3073 294.876 29.204 294.905 29.1039C294.936 28.998 295.052 28.922 295.182 28.922C295.335 28.922 295.406 28.8612 295.406 28.7312C295.406 28.6041 295.477 28.5405 295.62 28.5405C295.776 28.5405 295.833 28.4768 295.833 28.302C295.833 28.1308 295.891 28.0636 296.038 28.0636C296.193 28.0636 296.259 27.9716 296.314 27.6821C296.369 27.3925 296.435 27.3006 296.591 27.3006C296.737 27.3006 296.795 27.2333 296.795 27.0621C296.795 26.8909 296.852 26.8237 296.999 26.8237C297.153 26.8237 297.221 26.7325 297.274 26.4515C297.322 26.1966 297.409 26.0642 297.55 26.0313C297.671 26.0031 297.756 25.9005 297.756 25.7835C297.756 25.6474 297.824 25.5838 297.97 25.5838C298.142 25.5838 298.184 25.5202 298.184 25.2619C298.184 24.7573 298.305 24.3439 298.452 24.3439C298.53 24.3439 298.617 24.1625 298.659 23.9147C298.716 23.5758 298.775 23.4855 298.938 23.4855C299.127 23.4855 299.145 23.4134 299.145 22.6749C299.145 21.9278 299.162 21.8642 299.359 21.8642C299.556 21.8642 299.573 21.8004 299.573 21.0296C299.575 19.742 299.685 18.9075 299.855 18.9075C299.968 18.9075 300 18.6777 300 17.8584C300 17.0391 299.968 16.8092 299.855 16.8092C299.678 16.8092 299.574 15.9634 299.573 14.4964C299.573 13.5349 299.559 13.4711 299.359 13.4711C299.166 13.4711 299.145 13.4075 299.145 12.8035C299.145 12.2142 299.122 12.1358 298.945 12.1358C298.737 12.1358 298.611 11.8118 298.611 11.2767C298.611 11.0938 298.546 10.9984 298.397 10.9637C298.228 10.9241 298.184 10.8336 298.184 10.5234C298.184 10.1966 298.149 10.1329 297.97 10.1329C297.788 10.1329 297.756 10.0693 297.756 9.70376C297.756 9.30957 297.735 9.27457 297.489 9.27457C297.249 9.27457 297.222 9.23642 297.222 8.89306C297.222 8.57518 297.187 8.51156 297.009 8.51156C296.852 8.51156 296.795 8.44795 296.795 8.27312C296.795 8.0983 296.738 8.03468 296.581 8.03468C296.436 8.03468 296.368 7.97107 296.368 7.83497C296.368 7.71803 296.282 7.61541 296.161 7.58718C296.02 7.55427 295.933 7.42189 295.885 7.16695C295.832 6.88598 295.765 6.7948 295.61 6.7948C295.477 6.7948 295.406 6.72832 295.406 6.60405C295.406 6.46413 295.335 6.41329 295.139 6.41329C294.928 6.41329 294.872 6.36503 294.872 6.18325C294.872 5.98916 294.805 5.94309 294.444 5.88873C294.167 5.84686 294.017 5.7739 294.017 5.68062C294.017 5.60165 293.925 5.51562 293.813 5.48949C293.701 5.46335 293.585 5.36006 293.556 5.26001C293.525 5.15405 293.409 5.07803 293.279 5.07803C293.132 5.07803 293.056 5.01709 293.056 4.89949C293.056 4.76577 292.951 4.70607 292.641 4.66172C292.349 4.61995 292.21 4.54603 292.17 4.41107C292.136 4.29634 292.024 4.21965 291.89 4.21965C291.738 4.21965 291.667 4.1589 291.667 4.0289C291.667 3.86638 291.595 3.83815 291.186 3.83815C290.776 3.83815 290.705 3.80992 290.705 3.6474C290.705 3.48488 290.634 3.45665 290.224 3.45665C289.826 3.45665 289.744 3.42622 289.744 3.27782C289.744 3.08554 289.379 2.97977 288.715 2.97977C288.426 2.97977 288.355 2.9421 288.355 2.78902C288.355 2.62192 288.283 2.59827 287.78 2.59827C287 2.59827 286.538 2.50527 286.538 2.3479C286.538 2.24967 286.358 2.21657 285.817 2.2161C285.421 2.21571 284.772 2.18805 284.375 2.15458C283.768 2.10346 283.654 2.06569 283.654 1.91681C283.654 1.75057 283.529 1.73988 281.571 1.73988C279.612 1.73988 279.487 1.75057 279.487 1.91681ZM0 18.4783V33.5H9.34829C17.209 33.5 18.6966 33.4791 18.6966 33.3689C18.6966 33.1801 19.1862 33.1185 20.6864 33.1185C21.9373 33.1185 22.0085 33.1082 22.0085 32.9277C22.0085 32.7543 22.0798 32.737 22.7965 32.737C23.8798 32.737 24.2521 32.6608 24.2521 32.4389C24.2521 32.2905 24.3341 32.2601 24.7329 32.2601C25.1424 32.2601 25.2137 32.2319 25.2137 32.0694C25.2137 31.9068 25.2849 31.8786 25.6944 31.8786C26.0989 31.8786 26.1752 31.8492 26.1752 31.6937C26.1752 31.5477 26.2763 31.4953 26.656 31.4445C27.0304 31.3943 27.1368 31.3403 27.1368 31.2001C27.1368 31.0718 27.2134 31.0202 27.4038 31.0202C27.5969 31.0202 27.6709 30.969 27.6709 30.8352C27.6709 30.6903 27.7577 30.6439 28.0716 30.6206C28.3934 30.5969 28.479 30.5488 28.5064 30.3764C28.5283 30.2385 28.6142 30.1618 28.7468 30.1618C28.8817 30.1618 28.953 30.0959 28.953 29.9711C28.953 29.8463 29.0243 29.7803 29.1592 29.7803C29.2918 29.7803 29.3777 29.7037 29.3996 29.5658C29.4216 29.4278 29.5197 29.3403 29.6741 29.3206C29.8286 29.3011 29.9145 29.2244 29.9145 29.106C29.9145 28.9856 29.9884 28.922 30.1282 28.922C30.2681 28.922 30.3419 28.8584 30.3419 28.7379C30.3419 28.6195 30.4278 28.5428 30.5823 28.5233C30.7753 28.4988 30.8292 28.4224 30.8558 28.1351C30.8818 27.8549 30.9339 27.7775 31.0962 27.7775C31.246 27.7775 31.3034 27.7114 31.3034 27.539C31.3034 27.369 31.3612 27.3006 31.5049 27.3006C31.662 27.3006 31.7224 27.2057 31.7786 26.8714C31.8356 26.5324 31.8942 26.4422 32.0578 26.4422C32.2321 26.4422 32.265 26.3741 32.265 26.013C32.265 25.6474 32.2966 25.5838 32.4786 25.5838C32.6607 25.5838 32.6923 25.5202 32.6923 25.1546C32.6923 24.7986 32.7264 24.7254 32.8926 24.7254C33.108 24.7254 33.2265 24.3996 33.2265 23.8074C33.2265 23.5492 33.2687 23.4855 33.4402 23.4855C33.6409 23.4855 33.6538 23.4219 33.6538 22.4364C33.6538 21.4509 33.6668 21.3873 33.8675 21.3873C34.0762 21.3873 34.0812 21.3237 34.0812 18.6691C34.0812 16.4263 34.0556 15.9509 33.9343 15.9509C33.7419 15.9509 33.6538 15.5282 33.6538 14.6037C33.6538 13.9223 33.6345 13.8526 33.4453 13.8526C33.264 13.8526 33.2325 13.7745 33.2049 13.2565C33.1763 12.7211 33.1486 12.6573 32.9327 12.6299C32.7119 12.6019 32.6923 12.5496 32.6923 11.9861C32.6923 11.4364 32.6702 11.3728 32.4786 11.3728C32.3012 11.3728 32.265 11.3092 32.265 10.998C32.265 10.6818 32.2272 10.6183 32.0246 10.5927C31.8525 10.5708 31.7746 10.4877 31.7504 10.2999C31.7312 10.1509 31.651 10.0376 31.5646 10.0376C31.4701 10.0376 31.387 9.89365 31.3444 9.65607C31.2929 9.36851 31.2268 9.27457 31.0761 9.27457C30.9497 9.27457 30.8761 9.20675 30.8761 9.09049C30.8761 8.97213 30.7902 8.89545 30.6357 8.8759C30.4812 8.85625 30.3831 8.76869 30.3611 8.63078C30.3424 8.5128 30.2615 8.41618 30.1816 8.41618C30.1017 8.41618 30.0208 8.31957 30.0021 8.20159C29.9801 8.06368 29.8821 7.97612 29.7276 7.95647C29.5953 7.93978 29.4872 7.86062 29.4872 7.7807C29.4872 7.70077 29.391 7.61284 29.2735 7.58546C29.1552 7.5578 29.0598 7.45537 29.0598 7.35589C29.0598 7.2279 28.9831 7.1763 28.7927 7.1763C28.5969 7.1763 28.5256 7.12547 28.5256 6.98555C28.5256 6.84563 28.4544 6.7948 28.2585 6.7948C28.0668 6.7948 27.9915 6.74339 27.9915 6.61244C27.9915 6.47395 27.8885 6.41453 27.5641 6.36561C27.2397 6.31668 27.1368 6.25726 27.1368 6.11877C27.1368 5.98782 27.0614 5.93642 26.8697 5.93642C26.6738 5.93642 26.6026 5.88558 26.6026 5.74566C26.6026 5.58601 26.5313 5.55491 26.1652 5.55491C25.8248 5.55491 25.716 5.51457 25.6746 5.37294C25.6144 5.16759 25.3453 5.08128 24.7596 5.07937C24.4307 5.07823 24.359 5.04389 24.359 4.88728C24.359 4.72667 24.2873 4.69634 23.9049 4.6952C23.3106 4.69348 22.9701 4.60755 22.9701 4.45924C22.9701 4.37721 22.6684 4.31856 22.0085 4.27249C21.1568 4.21298 21.047 4.18436 21.047 4.02175C21.047 3.84788 20.9524 3.83815 19.2575 3.83767C16.752 3.83701 15.3846 3.74783 15.3846 3.58531C15.3846 3.47849 14.0765 3.45665 7.69231 3.45665H0V18.4783ZM83.4402 3.59971C83.4402 3.67916 83.5351 3.74277 83.6538 3.74277C83.8106 3.74277 83.8675 3.80639 83.8675 3.98121C83.8675 4.17197 83.9209 4.21965 84.1346 4.21965C84.3305 4.21965 84.4017 4.27049 84.4017 4.4104C84.4017 4.53754 84.473 4.60116 84.6154 4.60116C84.7721 4.60116 84.8291 4.66477 84.8291 4.8396C84.8291 5.01442 84.886 5.07803 85.0427 5.07803C85.1884 5.07803 85.2564 5.14165 85.2564 5.27775C85.2564 5.39392 85.3416 5.49731 85.4603 5.52497C85.5723 5.5511 85.688 5.65439 85.7173 5.75444C85.7483 5.8604 85.8641 5.93642 85.9942 5.93642C86.1616 5.93642 86.2179 5.99641 86.2179 6.17486C86.2179 6.3492 86.275 6.41329 86.4303 6.41329C86.5955 6.41329 86.658 6.49808 86.7111 6.7948C86.7626 7.08236 86.8287 7.1763 86.9795 7.1763C87.1082 7.1763 87.1795 7.24421 87.1795 7.36705C87.1795 7.4919 87.2507 7.5578 87.3857 7.5578C87.5183 7.5578 87.6042 7.63449 87.6261 7.7724C87.6481 7.91031 87.7462 7.99787 87.9006 8.01751C88.0551 8.03707 88.141 8.11375 88.141 8.23211C88.141 8.35257 88.2149 8.41618 88.3547 8.41618C88.5114 8.41618 88.5684 8.4798 88.5684 8.65462C88.5684 8.82945 88.6253 8.89306 88.7821 8.89306C88.9245 8.89306 88.9957 8.95668 88.9957 9.08382C88.9957 9.20809 89.067 9.27457 89.2 9.27457C89.3551 9.27457 89.4217 9.36651 89.4765 9.65607C89.5313 9.94563 89.5979 10.0376 89.753 10.0376C89.8997 10.0376 89.9573 10.1048 89.9573 10.276C89.9573 10.4668 90.0107 10.5145 90.2244 10.5145C90.4202 10.5145 90.4915 10.5653 90.4915 10.7052C90.4915 10.8323 90.5627 10.896 90.7051 10.896C90.8619 10.896 90.9188 10.9596 90.9188 11.1344C90.9188 11.3092 90.9757 11.3728 91.1325 11.3728C91.2749 11.3728 91.3462 11.4364 91.3462 11.5636C91.3462 11.7035 91.4174 11.7543 91.6133 11.7543C91.8269 11.7543 91.8803 11.802 91.8803 11.9928C91.8803 12.1676 91.9373 12.2312 92.094 12.2312C92.2507 12.2312 92.3077 12.2948 92.3077 12.4697C92.3077 12.6427 92.365 12.7081 92.5166 12.7081C92.6696 12.7081 92.7436 12.795 92.7937 13.0331C92.8372 13.2402 92.9359 13.3754 93.0656 13.4057C93.1841 13.4333 93.2692 13.5367 93.2692 13.6529C93.2692 13.789 93.3373 13.8526 93.4829 13.8526C93.6228 13.8526 93.6966 13.9162 93.6966 14.0367C93.6966 14.155 93.7825 14.2317 93.937 14.2513C94.0915 14.2709 94.1895 14.3585 94.2115 14.4964C94.2334 14.6343 94.3193 14.711 94.4519 14.711C94.5869 14.711 94.6581 14.7769 94.6581 14.9017C94.6581 15.0266 94.7294 15.0925 94.8643 15.0925C94.9969 15.0925 95.0828 15.1692 95.1047 15.3071C95.1267 15.445 95.2248 15.5325 95.3793 15.5522C95.5533 15.5742 95.6197 15.6466 95.6197 15.8145C95.6197 15.9791 95.6788 16.0462 95.8239 16.0462C95.9791 16.0462 96.0456 16.1382 96.1004 16.4277C96.1552 16.7173 96.2218 16.8092 96.3769 16.8092C96.5099 16.8092 96.5812 16.8757 96.5812 17C96.5812 17.1271 96.6525 17.1908 96.7949 17.1908C96.9347 17.1908 97.0085 17.2544 97.0085 17.3748C97.0085 17.4932 97.0944 17.5699 97.2489 17.5894C97.4034 17.6091 97.5015 17.6966 97.5235 17.8345C97.5454 17.9725 97.6313 18.0491 97.7639 18.0491C97.8988 18.0491 97.9701 18.115 97.9701 18.2399C97.9701 18.367 98.0413 18.4306 98.1838 18.4306C98.3405 18.4306 98.3974 18.4943 98.3974 18.6691C98.3974 18.841 98.4549 18.9075 98.6036 18.9075C98.7362 18.9075 98.8221 18.9842 98.844 19.1221C98.866 19.26 98.9641 19.3476 99.1186 19.3672C99.3213 19.3929 99.359 19.4564 99.359 19.7726C99.359 20.1088 99.3864 20.1474 99.6261 20.1474C99.8219 20.1474 99.8932 20.1982 99.8932 20.3382C99.8932 20.4653 99.9644 20.5289 100.107 20.5289C100.264 20.5289 100.321 20.5925 100.321 20.7673C100.321 20.9422 100.377 21.0058 100.534 21.0058C100.746 21.0058 100.748 21.0694 100.748 27.2529V33.5H102.831H104.915V27.3602C104.915 23.9833 104.945 21.0863 104.981 20.9223C105.02 20.7508 105.115 20.6243 105.205 20.6243C105.291 20.6243 105.387 20.5384 105.418 20.4335C105.449 20.3279 105.563 20.2428 105.675 20.2428C105.817 20.2428 105.876 20.1744 105.876 20.011C105.876 19.8432 105.942 19.7708 106.116 19.7487C106.271 19.7291 106.369 19.6415 106.391 19.5036C106.413 19.3657 106.499 19.289 106.631 19.289C106.766 19.289 106.838 19.2231 106.838 19.0983C106.838 18.9711 106.909 18.9075 107.051 18.9075C107.208 18.9075 107.265 18.8439 107.265 18.6691C107.265 18.4783 107.318 18.4306 107.532 18.4306C107.728 18.4306 107.799 18.3798 107.799 18.2399C107.799 18.117 107.87 18.0491 107.999 18.0491C108.149 18.0491 108.216 17.956 108.265 17.6789C108.312 17.4179 108.395 17.2939 108.546 17.2587C108.675 17.2286 108.761 17.1287 108.761 17.009C108.761 16.8729 108.829 16.8092 108.974 16.8092C109.117 16.8092 109.188 16.7456 109.188 16.6185C109.188 16.4914 109.259 16.4277 109.402 16.4277C109.558 16.4277 109.615 16.3641 109.615 16.1893C109.615 15.9986 109.669 15.9509 109.882 15.9509C110.078 15.9509 110.15 15.9 110.15 15.7601C110.15 15.633 110.221 15.5694 110.363 15.5694C110.52 15.5694 110.577 15.5057 110.577 15.3309C110.577 15.1561 110.634 15.0925 110.791 15.0925C110.933 15.0925 111.004 15.0289 111.004 14.9017C111.004 14.7618 111.076 14.711 111.271 14.711C111.511 14.711 111.538 14.6724 111.538 14.3362C111.538 14.02 111.576 13.9565 111.779 13.9308C111.929 13.9116 112.032 13.8237 112.052 13.6954C112.07 13.5828 112.178 13.4687 112.292 13.4421C112.415 13.4135 112.5 13.3114 112.5 13.1939C112.5 13.0578 112.568 12.9942 112.714 12.9942C112.856 12.9942 112.927 12.9306 112.927 12.8035C112.927 12.6786 112.999 12.6127 113.134 12.6127C113.266 12.6127 113.352 12.536 113.374 12.3981C113.396 12.2602 113.494 12.1727 113.649 12.153C113.803 12.1335 113.889 12.0568 113.889 11.9384C113.889 11.8221 113.962 11.7543 114.089 11.7543C114.239 11.7543 114.306 11.6612 114.355 11.3841C114.402 11.1231 114.485 10.9992 114.636 10.9639C114.754 10.9363 114.85 10.8454 114.85 10.7619C114.85 10.6734 114.94 10.6098 115.064 10.6098C115.221 10.6098 115.278 10.5462 115.278 10.3714C115.278 10.1966 115.335 10.1329 115.491 10.1329C115.648 10.1329 115.705 10.0693 115.705 9.89451C115.705 9.70376 115.759 9.65607 115.972 9.65607C116.168 9.65607 116.239 9.60523 116.239 9.46532C116.239 9.33818 116.311 9.27457 116.453 9.27457C116.61 9.27457 116.667 9.21095 116.667 9.03613C116.667 8.8613 116.724 8.79769 116.88 8.79769C117.023 8.79769 117.094 8.73407 117.094 8.60694C117.094 8.46979 117.165 8.41618 117.347 8.41618C117.559 8.41618 117.612 8.35534 117.667 8.04594C117.714 7.78499 117.797 7.661 117.948 7.62571C118.076 7.59567 118.162 7.49571 118.162 7.37602C118.162 7.23992 118.23 7.1763 118.376 7.1763C118.533 7.1763 118.59 7.11269 118.59 6.93786C118.59 6.76304 118.647 6.69942 118.803 6.69942C118.946 6.69942 119.017 6.63581 119.017 6.50867C119.017 6.38153 119.088 6.31792 119.231 6.31792C119.373 6.31792 119.444 6.2543 119.444 6.12717C119.444 5.98725 119.516 5.93642 119.712 5.93642C119.925 5.93642 119.979 5.88873 119.979 5.69798C119.979 5.52678 120.036 5.45954 120.183 5.45954C120.337 5.45954 120.404 5.36836 120.458 5.08738C120.506 4.83244 120.593 4.70006 120.734 4.66716C120.847 4.64064 120.94 4.55061 120.94 4.46706C120.94 4.37864 121.03 4.31503 121.154 4.31503C121.311 4.31503 121.368 4.25141 121.368 4.07659C121.368 3.90177 121.424 3.83815 121.581 3.83815C121.724 3.83815 121.795 3.77453 121.795 3.6474C121.795 3.46199 121.724 3.45665 119.231 3.45665C117.023 3.45665 116.667 3.47649 116.667 3.59971C116.667 3.67916 116.572 3.74277 116.453 3.74277C116.296 3.74277 116.239 3.80639 116.239 3.98121C116.239 4.15318 116.182 4.21965 116.033 4.21965C115.901 4.21965 115.815 4.29634 115.793 4.43425C115.771 4.57216 115.673 4.65972 115.518 4.67936C115.364 4.69892 115.278 4.7756 115.278 4.89396C115.278 5.01442 115.204 5.07803 115.064 5.07803C114.907 5.07803 114.85 5.14165 114.85 5.31647C114.85 5.48767 114.793 5.55491 114.646 5.55491C114.491 5.55491 114.424 5.64686 114.37 5.93642C114.315 6.22598 114.248 6.31792 114.093 6.31792C113.96 6.31792 113.889 6.3844 113.889 6.50867C113.889 6.63581 113.818 6.69942 113.675 6.69942C113.518 6.69942 113.462 6.76304 113.462 6.93786C113.462 7.12861 113.408 7.1763 113.194 7.1763C112.981 7.1763 112.927 7.22399 112.927 7.41474C112.927 7.58956 112.87 7.65318 112.714 7.65318C112.571 7.65318 112.5 7.71679 112.5 7.84393C112.5 7.96821 112.429 8.03468 112.296 8.03468C112.141 8.03468 112.074 8.12662 112.019 8.41618C111.964 8.70575 111.898 8.79769 111.743 8.79769C111.596 8.79769 111.538 8.86493 111.538 9.03613C111.538 9.21095 111.482 9.27457 111.325 9.27457C111.179 9.27457 111.111 9.33818 111.111 9.47428C111.111 9.59045 111.026 9.69384 110.907 9.7215C110.795 9.74763 110.679 9.85092 110.65 9.95097C110.619 10.0569 110.503 10.1329 110.373 10.1329C110.221 10.1329 110.15 10.1937 110.15 10.3237C110.15 10.4465 110.078 10.5145 109.95 10.5145C109.799 10.5145 109.733 10.6084 109.681 10.896C109.628 11.1927 109.566 11.2775 109.4 11.2775C109.245 11.2775 109.188 11.3415 109.188 11.5159C109.188 11.6907 109.131 11.7543 108.974 11.7543C108.829 11.7543 108.761 11.818 108.761 11.9541C108.761 12.0735 108.675 12.1737 108.547 12.2036C108.429 12.2312 108.333 12.3336 108.333 12.4331C108.333 12.5611 108.257 12.6127 108.066 12.6127C107.853 12.6127 107.799 12.6604 107.799 12.8512C107.799 13.026 107.742 13.0896 107.585 13.0896C107.443 13.0896 107.372 13.1532 107.372 13.2803C107.372 13.4046 107.301 13.4711 107.168 13.4711C107.012 13.4711 106.946 13.563 106.891 13.8526C106.836 14.1422 106.77 14.2341 106.615 14.2341C106.468 14.2341 106.41 14.3013 106.41 14.4725C106.41 14.6445 106.353 14.711 106.204 14.711C106.071 14.711 105.986 14.7877 105.964 14.9256C105.942 15.0635 105.844 15.151 105.689 15.1707C105.535 15.1902 105.449 15.2669 105.449 15.3853C105.449 15.5057 105.375 15.5694 105.235 15.5694C105.089 15.5694 105.021 15.633 105.021 15.7691C105.021 15.8888 104.935 15.9887 104.807 16.0188C104.656 16.0541 104.573 16.1781 104.526 16.439C104.476 16.7162 104.41 16.8092 104.26 16.8092C104.131 16.8092 104.06 16.8772 104.06 17C104.06 17.1271 103.989 17.1908 103.846 17.1908C103.689 17.1908 103.632 17.2544 103.632 17.4292C103.632 17.6517 103.597 17.6676 103.098 17.6676C102.635 17.6676 102.564 17.6422 102.564 17.4769C102.564 17.3497 102.493 17.2861 102.35 17.2861C102.194 17.2861 102.137 17.2225 102.137 17.0477C102.137 16.8729 102.08 16.8092 101.923 16.8092C101.783 16.8092 101.709 16.7456 101.709 16.6252C101.709 16.5068 101.624 16.4301 101.469 16.4106C101.315 16.3909 101.216 16.3034 101.194 16.1655C101.173 16.0275 101.087 15.9509 100.954 15.9509C100.785 15.9509 100.748 15.8827 100.748 15.5694C100.748 15.226 100.721 15.1879 100.481 15.1879C100.267 15.1879 100.214 15.1402 100.214 14.9494C100.214 14.7746 100.157 14.711 100 14.711C99.8576 14.711 99.7863 14.6474 99.7863 14.5202C99.7863 14.3954 99.7151 14.3295 99.5801 14.3295C99.4475 14.3295 99.3616 14.2528 99.3397 14.1149C99.3177 13.977 99.2197 13.8894 99.0652 13.8698C98.8911 13.8477 98.8248 13.7753 98.8248 13.6075C98.8248 13.4682 98.7627 13.3757 98.6693 13.3757C98.5768 13.3757 98.486 13.2429 98.445 13.0472C98.3948 12.8083 98.3134 12.7109 98.1463 12.6896C98.0025 12.6713 97.904 12.5802 97.8825 12.4458C97.8606 12.3079 97.7747 12.2312 97.6421 12.2312C97.5072 12.2312 97.4359 12.1653 97.4359 12.0405C97.4359 11.9133 97.3646 11.8497 97.2222 11.8497C97.0672 11.8497 97.0085 11.7861 97.0085 11.6179C97.0085 11.4501 96.9422 11.3777 96.7682 11.3557C96.6137 11.336 96.5156 11.2485 96.4936 11.1105C96.4749 10.9926 96.3913 10.896 96.3079 10.896C96.2137 10.896 96.1306 10.7516 96.088 10.5145C96.0306 10.1937 95.9793 10.1329 95.7662 10.1329C95.5841 10.1329 95.5128 10.0793 95.5128 9.9422C95.5128 9.81506 95.4416 9.75144 95.2991 9.75144C95.1424 9.75144 95.0855 9.68783 95.0855 9.51301C95.0855 9.33818 95.0285 9.27457 94.8718 9.27457C94.7294 9.27457 94.6581 9.21095 94.6581 9.08382C94.6581 8.95668 94.5869 8.89306 94.4444 8.89306C94.2988 8.89306 94.2308 8.82945 94.2308 8.69335C94.2308 8.57642 94.1454 8.47379 94.0247 8.44556C93.8843 8.41285 93.7966 8.28085 93.7493 8.03096C93.6964 7.75151 93.6249 7.65747 93.4479 7.63496C93.3016 7.61636 93.2032 7.52614 93.1816 7.3909C93.1597 7.25298 93.0738 7.1763 92.9412 7.1763C92.8063 7.1763 92.735 7.1104 92.735 6.98555C92.735 6.85841 92.6638 6.7948 92.5214 6.7948C92.3646 6.7948 92.3077 6.73118 92.3077 6.55636C92.3077 6.38153 92.2507 6.31792 92.094 6.31792C91.9484 6.31792 91.8803 6.2543 91.8803 6.1182C91.8803 5.99955 91.7947 5.89855 91.6693 5.86927C91.5319 5.83723 91.4345 5.70713 91.3903 5.49673C91.3416 5.26478 91.2654 5.17341 91.1206 5.17341C90.9766 5.17341 90.9188 5.10512 90.9188 4.93497C90.9188 4.74422 90.8654 4.69653 90.6517 4.69653C90.438 4.69653 90.3846 4.64884 90.3846 4.45809C90.3846 4.28327 90.3277 4.21965 90.1709 4.21965C90.0285 4.21965 89.9573 4.15604 89.9573 4.0289C89.9573 3.90177 89.886 3.83815 89.7436 3.83815C89.6012 3.83815 89.5299 3.77453 89.5299 3.6474C89.5299 3.46113 89.4587 3.45665 86.485 3.45665C83.8497 3.45665 83.4402 3.47591 83.4402 3.59971ZM144.872 4.88728V6.31792H156.931C163.564 6.31792 169.141 6.34472 169.324 6.37753C169.691 6.44296 169.787 6.69942 169.444 6.69942C169.288 6.69942 169.231 6.76304 169.231 6.93786C169.231 7.11269 169.174 7.1763 169.017 7.1763C168.86 7.1763 168.803 7.23992 168.803 7.41474C168.803 7.58956 168.746 7.65318 168.59 7.65318C168.447 7.65318 168.376 7.71679 168.376 7.84393C168.376 7.98385 168.305 8.03468 168.109 8.03468C167.895 8.03468 167.842 8.08237 167.842 8.27312C167.842 8.44795 167.785 8.51156 167.628 8.51156C167.486 8.51156 167.415 8.57518 167.415 8.70231C167.415 8.84223 167.343 8.89306 167.147 8.89306C166.952 8.89306 166.88 8.9439 166.88 9.08382C166.88 9.21095 166.809 9.27457 166.667 9.27457C166.51 9.27457 166.453 9.33818 166.453 9.51301C166.453 9.68783 166.396 9.75144 166.239 9.75144C166.097 9.75144 166.026 9.81506 166.026 9.9422C166.026 10.0821 165.954 10.1329 165.759 10.1329C165.545 10.1329 165.491 10.1806 165.491 10.3714C165.491 10.5462 165.435 10.6098 165.278 10.6098C165.135 10.6098 165.064 10.6734 165.064 10.8006C165.064 10.9277 164.993 10.9913 164.85 10.9913C164.708 10.9913 164.637 11.0549 164.637 11.1821C164.637 11.322 164.565 11.3728 164.37 11.3728C164.156 11.3728 164.103 11.4205 164.103 11.6113C164.103 11.7861 164.046 11.8497 163.889 11.8497C163.746 11.8497 163.675 11.9133 163.675 12.0405C163.675 12.1804 163.604 12.2312 163.408 12.2312C163.194 12.2312 163.141 12.2789 163.141 12.4697C163.141 12.6445 163.084 12.7081 162.927 12.7081C162.785 12.7081 162.714 12.7717 162.714 12.8988C162.714 13.026 162.642 13.0896 162.5 13.0896C162.358 13.0896 162.286 13.1532 162.286 13.2803C162.286 13.4203 162.215 13.4711 162.019 13.4711C161.806 13.4711 161.752 13.5188 161.752 13.7095C161.752 13.8844 161.695 13.948 161.538 13.948C161.396 13.948 161.325 14.0116 161.325 14.1387C161.325 14.2786 161.254 14.3295 161.058 14.3295C160.862 14.3295 160.791 14.3803 160.791 14.5202C160.791 14.6474 160.719 14.711 160.577 14.711C160.42 14.711 160.363 14.7746 160.363 14.9494C160.363 15.1206 160.306 15.1879 160.159 15.1879C160.004 15.1879 159.937 15.2798 159.882 15.5694C159.826 15.8663 159.763 15.9509 159.596 15.9509C159.475 15.9509 159.359 16.0301 159.328 16.1328C159.299 16.2329 159.183 16.3362 159.071 16.3623C158.953 16.39 158.868 16.4934 158.868 16.6095C158.868 16.7456 158.799 16.8092 158.654 16.8092C158.511 16.8092 158.44 16.8729 158.44 17C158.44 17.13 158.369 17.1908 158.216 17.1908C158.086 17.1908 157.971 17.2668 157.94 17.3727C157.91 17.4728 157.795 17.5761 157.682 17.6022C157.564 17.6299 157.479 17.7332 157.479 17.8494C157.479 17.9855 157.411 18.0491 157.265 18.0491C157.125 18.0491 157.051 18.1127 157.051 18.2332C157.051 18.3516 156.965 18.4283 156.811 18.4478C156.656 18.4675 156.558 18.555 156.536 18.6929C156.514 18.8308 156.429 18.9075 156.296 18.9075C156.161 18.9075 156.09 18.9734 156.09 19.0983C156.09 19.2283 156.018 19.289 155.866 19.289C155.736 19.289 155.62 19.365 155.589 19.471C155.56 19.571 155.444 19.6743 155.332 19.7005C155.213 19.7281 155.128 19.8315 155.128 19.9477C155.128 20.0838 155.06 20.1474 154.915 20.1474C154.772 20.1474 154.701 20.211 154.701 20.3382C154.701 20.4681 154.63 20.5289 154.477 20.5289C154.347 20.5289 154.231 20.6049 154.2 20.7109C154.171 20.8109 154.055 20.9142 153.943 20.9404C153.824 20.968 153.739 21.0714 153.739 21.1876C153.739 21.3267 153.671 21.3873 153.516 21.3873C153.385 21.3873 153.27 21.4633 153.239 21.5693C153.209 21.6693 153.094 21.7726 152.982 21.7987C152.863 21.8264 152.778 21.9298 152.778 22.0459C152.778 22.1821 152.71 22.2457 152.564 22.2457C152.422 22.2457 152.35 22.3093 152.35 22.4364C152.35 22.5664 152.279 22.6272 152.127 22.6272C151.997 22.6272 151.881 22.7032 151.85 22.8091C151.821 22.9092 151.705 23.0125 151.593 23.0386C151.474 23.0663 151.389 23.1697 151.389 23.2858C151.389 23.425 151.321 23.4855 151.165 23.4855C151.035 23.4855 150.919 23.5616 150.888 23.6675C150.859 23.7676 150.743 23.8709 150.631 23.897C150.512 23.9247 150.427 24.028 150.427 24.1442C150.427 24.2803 150.359 24.3439 150.214 24.3439C150.071 24.3439 150 24.4075 150 24.5347C150 24.6647 149.929 24.7254 149.776 24.7254C149.646 24.7254 149.53 24.8014 149.499 24.9074C149.47 25.0075 149.354 25.1108 149.242 25.1369C149.124 25.1645 149.038 25.2679 149.038 25.3841C149.038 25.5202 148.97 25.5838 148.825 25.5838C148.685 25.5838 148.611 25.6474 148.611 25.7679C148.611 25.8863 148.525 25.9629 148.371 25.9825C148.216 26.0021 148.118 26.0897 148.096 26.2276C148.074 26.3655 147.988 26.4422 147.856 26.4422C147.721 26.4422 147.65 26.5081 147.65 26.6329C147.65 26.7629 147.578 26.8237 147.426 26.8237C147.296 26.8237 147.18 26.8997 147.149 27.0057C147.12 27.1057 147.004 27.209 146.892 27.2351C146.773 27.2628 146.688 27.3662 146.688 27.4824C146.688 27.6185 146.62 27.6821 146.474 27.6821C146.332 27.6821 146.261 27.7457 146.261 27.8728C146.261 28.0028 146.189 28.0636 146.037 28.0636C145.907 28.0636 145.791 28.1396 145.76 28.2456C145.731 28.3456 145.615 28.4489 145.503 28.475C145.384 28.5027 145.299 28.6061 145.299 28.7222C145.299 28.8614 145.231 28.922 145.075 28.922C144.945 28.922 144.829 28.998 144.799 29.1039C144.769 29.204 144.654 29.3073 144.541 29.3334C144.349 29.3783 144.338 29.4945 144.338 31.4405V33.5H160.043H175.748V31.8786V30.2572H162.994C155.98 30.2572 150.09 30.2304 149.907 30.1976C149.519 30.1284 149.419 29.7803 149.786 29.7803C149.943 29.7803 150 29.7167 150 29.5419C150 29.3671 150.057 29.3035 150.214 29.3035C150.356 29.3035 150.427 29.2399 150.427 29.1127C150.427 28.9856 150.499 28.922 150.641 28.922C150.783 28.922 150.855 28.8584 150.855 28.7312C150.855 28.5913 150.926 28.5405 151.122 28.5405C151.335 28.5405 151.389 28.4928 151.389 28.302C151.389 28.1272 151.446 28.0636 151.603 28.0636C151.745 28.0636 151.816 28 151.816 27.8728C151.816 27.7329 151.887 27.6821 152.083 27.6821C152.297 27.6821 152.35 27.6344 152.35 27.4436C152.35 27.2688 152.407 27.2052 152.564 27.2052C152.707 27.2052 152.778 27.1416 152.778 27.0145C152.778 26.8873 152.849 26.8237 152.991 26.8237C153.134 26.8237 153.205 26.7601 153.205 26.6329C153.205 26.493 153.276 26.4422 153.472 26.4422C153.686 26.4422 153.739 26.3945 153.739 26.2038C153.739 26.0289 153.796 25.9653 153.953 25.9653C154.095 25.9653 154.167 25.9017 154.167 25.7746C154.167 25.6347 154.238 25.5838 154.434 25.5838C154.63 25.5838 154.701 25.533 154.701 25.3931C154.701 25.2659 154.772 25.2023 154.915 25.2023C155.071 25.2023 155.128 25.1387 155.128 24.9639C155.128 24.789 155.185 24.7254 155.342 24.7254C155.484 24.7254 155.556 24.6618 155.556 24.5347C155.556 24.3948 155.627 24.3439 155.823 24.3439C156.036 24.3439 156.09 24.2962 156.09 24.1055C156.09 23.9307 156.147 23.8671 156.303 23.8671C156.446 23.8671 156.517 23.8034 156.517 23.6763C156.517 23.5364 156.588 23.4855 156.784 23.4855C156.98 23.4855 157.051 23.4347 157.051 23.2948C157.051 23.1677 157.123 23.104 157.265 23.104C157.422 23.104 157.479 23.0404 157.479 22.8656C157.479 22.6749 157.532 22.6272 157.746 22.6272C157.942 22.6272 158.013 22.5763 158.013 22.4364C158.013 22.3093 158.084 22.2457 158.227 22.2457C158.369 22.2457 158.44 22.182 158.44 22.0549C158.44 21.9301 158.511 21.8642 158.646 21.8642C158.779 21.8642 158.865 21.7875 158.887 21.6496C158.909 21.5117 159.007 21.4241 159.161 21.4045C159.316 21.3849 159.402 21.3082 159.402 21.1899C159.402 21.0694 159.476 21.0058 159.615 21.0058C159.755 21.0058 159.829 20.9422 159.829 20.8217C159.829 20.7033 159.915 20.6267 160.069 20.6071C160.224 20.5875 160.322 20.4999 160.344 20.362C160.366 20.2241 160.452 20.1474 160.584 20.1474C160.719 20.1474 160.791 20.0815 160.791 19.9566C160.791 19.8267 160.862 19.7659 161.014 19.7659C161.144 19.7659 161.26 19.6899 161.291 19.5839C161.321 19.4839 161.436 19.3806 161.548 19.3544C161.667 19.3268 161.752 19.2234 161.752 19.1072C161.752 18.9578 161.819 18.9075 162.019 18.9075C162.21 18.9075 162.286 18.8559 162.286 18.7279C162.286 18.6284 162.382 18.526 162.5 18.4984C162.618 18.471 162.714 18.3851 162.714 18.3076C162.714 18.2302 162.81 18.1443 162.927 18.1168C163.055 18.087 163.141 17.9868 163.141 17.8673C163.141 17.7282 163.209 17.6676 163.365 17.6676C163.495 17.6676 163.611 17.5916 163.642 17.4857C163.671 17.3856 163.787 17.2823 163.899 17.2562C164.017 17.2285 164.103 17.1251 164.103 17.009C164.103 16.8595 164.17 16.8092 164.37 16.8092C164.565 16.8092 164.637 16.7584 164.637 16.6185C164.637 16.5076 164.708 16.4277 164.807 16.4277C164.901 16.4277 165.001 16.3459 165.031 16.2458C165.06 16.1457 165.176 16.0424 165.288 16.0163C165.406 15.9886 165.491 15.8852 165.491 15.7691C165.491 15.6299 165.559 15.5694 165.715 15.5694C165.845 15.5694 165.961 15.4933 165.992 15.3874C166.021 15.2873 166.137 15.184 166.249 15.1579C166.368 15.1303 166.453 15.0269 166.453 14.9107C166.453 14.7746 166.521 14.711 166.667 14.711C166.809 14.711 166.88 14.6474 166.88 14.5202C166.88 14.3902 166.952 14.3295 167.104 14.3295C167.238 14.3295 167.35 14.2528 167.384 14.1381C167.423 14.0031 167.562 13.9292 167.854 13.8874C168.201 13.8379 168.269 13.791 168.269 13.602C168.269 13.4393 168.329 13.3757 168.483 13.3757C168.625 13.3757 168.697 13.3121 168.697 13.185C168.697 13.0451 168.768 12.9942 168.964 12.9942C169.16 12.9942 169.231 12.9434 169.231 12.8035C169.231 12.6763 169.302 12.6127 169.444 12.6127C169.601 12.6127 169.658 12.5491 169.658 12.3743C169.658 12.1995 169.715 12.1358 169.872 12.1358C170.014 12.1358 170.085 12.0722 170.085 11.9451C170.085 11.8052 170.157 11.7543 170.353 11.7543C170.566 11.7543 170.62 11.7066 170.62 11.5159C170.62 11.3411 170.677 11.2775 170.833 11.2775C170.976 11.2775 171.047 11.2138 171.047 11.0867C171.047 10.9468 171.118 10.896 171.314 10.896C171.51 10.896 171.581 10.8451 171.581 10.7052C171.581 10.5781 171.652 10.5145 171.795 10.5145C171.94 10.5145 172.009 10.4508 172.009 10.3147C172.009 10.1953 172.094 10.0951 172.222 10.0652C172.34 10.0376 172.436 9.93514 172.436 9.83566C172.436 9.70767 172.513 9.65607 172.703 9.65607C172.899 9.65607 172.97 9.60523 172.97 9.46532C172.97 9.33818 173.041 9.27457 173.184 9.27457C173.34 9.27457 173.397 9.21095 173.397 9.03613C173.397 8.84538 173.451 8.79769 173.665 8.79769C173.86 8.79769 173.932 8.74685 173.932 8.60694C173.932 8.4798 174.003 8.41618 174.145 8.41618C174.302 8.41618 174.359 8.35257 174.359 8.17775C174.359 8.00292 174.416 7.93931 174.573 7.93931C174.78 7.93931 174.786 7.87569 174.786 5.69798V3.45665H159.829H144.872V4.88728ZM223.718 18.4783V33.5H225.801H227.885V26.8781V20.256L228.125 20.2256C228.279 20.206 228.378 20.1184 228.4 19.9805L228.434 19.7659H233.768C239.031 19.7659 239.103 19.7685 239.103 19.9566C239.103 20.1416 239.174 20.1474 241.453 20.1474C243.732 20.1474 243.803 20.1532 243.803 20.3382C243.803 20.4912 243.875 20.5289 244.164 20.5289C244.827 20.5289 245.192 20.6347 245.192 20.827C245.192 20.9541 245.269 21.0058 245.459 21.0058C245.655 21.0058 245.727 21.0566 245.727 21.1965C245.727 21.3237 245.798 21.3873 245.94 21.3873C246.08 21.3873 246.154 21.4509 246.154 21.5714C246.154 21.6897 246.24 21.7664 246.394 21.786C246.549 21.8056 246.647 21.8932 246.669 22.0311C246.691 22.169 246.777 22.2457 246.909 22.2457C247.082 22.2457 247.115 22.3144 247.115 22.6749C247.115 23.0404 247.147 23.104 247.329 23.104C247.516 23.104 247.543 23.1677 247.543 23.6167C247.543 24.3632 247.641 24.7012 247.875 24.7558C248.058 24.7985 248.077 24.9031 248.077 25.861C248.077 26.8555 248.09 26.9191 248.291 26.9191C248.493 26.9191 248.504 26.9827 248.504 28.159C248.504 29.3063 248.519 29.3988 248.704 29.3988C248.955 29.3988 249.036 29.7844 249.037 30.9964C249.038 31.8147 249.054 31.8786 249.252 31.8786C249.444 31.8786 249.466 31.9422 249.466 32.4986C249.466 33.0549 249.488 33.1185 249.679 33.1185C249.822 33.1185 249.893 33.1821 249.893 33.3092C249.893 33.4942 249.964 33.5 252.244 33.5C254.211 33.5 254.594 33.4778 254.594 33.3636C254.594 33.2886 254.486 33.2134 254.354 33.1967C254.154 33.1713 254.108 33.0978 254.08 32.7608C254.054 32.4331 254.008 32.3555 253.84 32.3555C253.654 32.3555 253.632 32.2853 253.632 31.6879C253.632 31.0838 253.612 31.0202 253.419 31.0202C253.221 31.0202 253.205 30.9566 253.205 30.1759C253.205 28.9842 253.095 28.159 252.937 28.159C252.759 28.159 252.674 27.6267 252.672 26.5137C252.671 25.6477 252.656 25.5838 252.457 25.5838C252.257 25.5838 252.244 25.5202 252.244 24.5347C252.244 23.5724 252.227 23.4855 252.043 23.4855C251.828 23.4855 251.709 23.1597 251.709 22.5676C251.709 22.3093 251.667 22.2457 251.496 22.2457C251.314 22.2457 251.282 22.182 251.282 21.8165C251.282 21.4575 251.249 21.3873 251.078 21.3873C250.923 21.3873 250.856 21.2953 250.801 21.0058C250.746 20.7162 250.68 20.6243 250.525 20.6243C250.378 20.6243 250.321 20.557 250.321 20.3858C250.321 20.211 250.264 20.1474 250.107 20.1474C249.969 20.1474 249.893 20.0838 249.893 19.9689C249.893 19.8343 249.788 19.7752 249.466 19.7293C249.204 19.6919 249.038 19.6166 249.038 19.5353C249.038 19.448 248.855 19.3797 248.504 19.3367C248.076 19.2841 247.97 19.2351 247.97 19.0893C247.97 18.929 247.887 18.9075 247.268 18.9075C246.601 18.9075 246.568 18.8967 246.6 18.6929C246.629 18.5146 246.711 18.4734 247.089 18.449C247.456 18.4253 247.543 18.3842 247.543 18.2344C247.543 18.0784 247.619 18.0491 248.024 18.0491C248.428 18.0491 248.504 18.0198 248.504 17.8642C248.504 17.7182 248.605 17.6658 248.985 17.615C249.36 17.5648 249.466 17.5108 249.466 17.3706C249.466 17.2243 249.546 17.1908 249.893 17.1908C250.249 17.1908 250.321 17.159 250.321 17C250.321 16.8601 250.392 16.8092 250.588 16.8092C250.783 16.8092 250.855 16.7584 250.855 16.6185C250.855 16.4885 250.926 16.4277 251.078 16.4277C251.209 16.4277 251.324 16.3517 251.355 16.2458C251.385 16.1457 251.5 16.0424 251.612 16.0163C251.731 15.9886 251.816 15.8852 251.816 15.7691C251.816 15.633 251.884 15.5694 252.03 15.5694C252.187 15.5694 252.244 15.5057 252.244 15.3309C252.244 15.1597 252.301 15.0925 252.448 15.0925C252.602 15.0925 252.669 15.0013 252.723 14.7203C252.771 14.4654 252.858 14.333 252.999 14.3001C253.174 14.2592 253.205 14.1646 253.205 13.6708C253.205 13.1532 253.229 13.0896 253.419 13.0896C253.624 13.0896 253.632 13.026 253.632 11.4205C253.632 9.81506 253.624 9.75144 253.419 9.75144C253.242 9.75144 253.205 9.68783 253.205 9.38186C253.205 8.74332 253.092 8.41618 252.871 8.41618C252.709 8.41618 252.671 8.34408 252.671 8.03468C252.671 7.71679 252.635 7.65318 252.457 7.65318C252.301 7.65318 252.244 7.58956 252.244 7.41474C252.244 7.24354 252.186 7.1763 252.039 7.1763C251.884 7.1763 251.818 7.08436 251.763 6.7948C251.708 6.50524 251.641 6.41329 251.486 6.41329C251.343 6.41329 251.282 6.34625 251.282 6.18706C251.282 5.99688 251.214 5.9511 250.855 5.89979C250.578 5.86031 250.427 5.78868 250.427 5.69683C250.427 5.60899 250.326 5.55491 250.16 5.55491C249.947 5.55491 249.893 5.50723 249.893 5.31647C249.893 5.10188 249.85 5.07803 249.466 5.07803C249.11 5.07803 249.038 5.04627 249.038 4.88728C249.038 4.722 248.967 4.69653 248.504 4.69653C248.052 4.69653 247.97 4.66887 247.97 4.51703C247.97 4.36071 247.853 4.32886 247.062 4.27011C246.266 4.21088 246.154 4.18007 246.154 4.02032C246.154 3.8475 246.051 3.83815 244.151 3.83767C241.443 3.83701 240.064 3.75184 240.064 3.58531C240.064 3.47849 238.679 3.45665 231.891 3.45665H223.718V18.4783ZM186.538 5.26879V6.69942H199.199H211.859V5.26879V3.83815H199.199H186.538V5.26879ZM284.615 5.26879C284.615 5.43903 284.687 5.45963 285.283 5.46087C286.135 5.46249 286.399 5.52802 286.465 5.75444C286.51 5.90838 286.619 5.93642 287.169 5.93642C287.749 5.93642 287.821 5.9573 287.821 6.12717C287.821 6.26098 287.892 6.3183 288.061 6.31925C288.469 6.32145 288.782 6.42932 288.782 6.56752C288.782 6.64468 288.893 6.69942 289.049 6.69942C289.263 6.69942 289.316 6.74711 289.316 6.93786C289.316 7.15246 289.359 7.1763 289.744 7.1763C290.1 7.1763 290.171 7.20806 290.171 7.36705C290.171 7.50697 290.242 7.5578 290.438 7.5578C290.631 7.5578 290.705 7.60912 290.705 7.74188C290.705 7.86024 290.791 7.93692 290.946 7.95647C291.1 7.97612 291.198 8.06368 291.22 8.20159C291.242 8.3395 291.328 8.41618 291.46 8.41618C291.595 8.41618 291.667 8.48209 291.667 8.60694C291.667 8.73407 291.738 8.79769 291.88 8.79769C292.037 8.79769 292.094 8.8613 292.094 9.03613C292.094 9.22688 292.147 9.27457 292.361 9.27457C292.602 9.27457 292.628 9.31272 292.628 9.65607C292.628 9.97396 292.664 10.0376 292.842 10.0376C292.999 10.0376 293.056 10.1012 293.056 10.276C293.056 10.4484 293.113 10.5145 293.263 10.5145C293.426 10.5145 293.485 10.6047 293.542 10.9436C293.598 11.2779 293.659 11.3728 293.816 11.3728C293.992 11.3728 294.017 11.4488 294.017 11.9861C294.017 12.5496 294.037 12.6019 294.257 12.6299C294.473 12.6573 294.501 12.7211 294.53 13.2565C294.557 13.7745 294.589 13.8526 294.77 13.8526C294.967 13.8526 294.979 13.9267 294.979 15.1402C294.979 16.3641 294.989 16.4277 295.192 16.4277C295.396 16.4277 295.406 16.4914 295.406 17.8584C295.406 19.2254 295.396 19.289 295.192 19.289C294.993 19.289 294.979 19.3526 294.979 20.2309C294.979 21.339 294.9 21.7688 294.698 21.7688C294.604 21.7688 294.551 21.8798 294.55 22.0788C294.548 22.73 294.426 23.104 294.217 23.104C294.051 23.104 294.017 23.1777 294.017 23.5332C294.017 23.8946 293.984 23.9624 293.81 23.9624C293.642 23.9624 293.596 24.0401 293.569 24.3678C293.542 24.7047 293.496 24.7783 293.296 24.8036C293.093 24.8293 293.056 24.8928 293.056 25.209C293.056 25.5202 293.019 25.5838 292.842 25.5838C292.685 25.5838 292.628 25.6474 292.628 25.8223C292.628 25.9971 292.571 26.0607 292.415 26.0607C292.272 26.0607 292.201 26.1243 292.201 26.2514C292.201 26.3914 292.13 26.4422 291.934 26.4422C291.72 26.4422 291.667 26.4899 291.667 26.6806C291.667 26.8555 291.61 26.9191 291.453 26.9191C291.311 26.9191 291.239 26.9827 291.239 27.1098C291.239 27.237 291.168 27.3006 291.026 27.3006C290.883 27.3006 290.812 27.3642 290.812 27.4913C290.812 27.6312 290.741 27.6821 290.545 27.6821C290.331 27.6821 290.278 27.7298 290.278 27.9205C290.278 28.1113 290.224 28.159 290.011 28.159C289.815 28.159 289.744 28.2098 289.744 28.3497C289.744 28.5081 289.672 28.5405 289.324 28.5405C288.97 28.5405 288.898 28.5741 288.87 28.7551C288.841 28.9334 288.759 28.9746 288.381 28.9989C288.014 29.0227 287.927 29.0638 287.927 29.2135C287.927 29.3696 287.851 29.3988 287.447 29.3988C287.037 29.3988 286.966 29.4271 286.966 29.5896C286.966 29.7567 286.895 29.7803 286.392 29.7803C285.555 29.7803 285.177 29.8683 285.116 30.0767C285.065 30.2493 284.904 30.2572 281.434 30.2572C279.438 30.2572 277.659 30.2312 277.48 30.1993C277.287 30.1648 277.134 30.0683 277.103 29.9609C277.058 29.8087 276.948 29.7803 276.399 29.7803C275.819 29.7803 275.748 29.7595 275.748 29.5896C275.748 29.4271 275.677 29.3988 275.267 29.3988C274.858 29.3988 274.786 29.3706 274.786 29.2081C274.786 29.0456 274.715 29.0173 274.306 29.0173C273.871 29.0173 273.825 28.9957 273.825 28.7911C273.825 28.6009 273.757 28.5552 273.397 28.5038C273.121 28.4644 272.97 28.3927 272.97 28.3009C272.97 28.2142 272.869 28.159 272.71 28.159C272.522 28.159 272.441 28.0997 272.417 27.9444C272.395 27.8065 272.297 27.7189 272.142 27.6992C271.988 27.6797 271.902 27.603 271.902 27.4847C271.902 27.3642 271.828 27.3006 271.688 27.3006C271.548 27.3006 271.474 27.237 271.474 27.1165C271.474 26.9981 271.388 26.9215 271.234 26.9019C271.079 26.8823 270.981 26.7947 270.959 26.6568C270.938 26.5189 270.852 26.4422 270.719 26.4422C270.584 26.4422 270.513 26.3763 270.513 26.2514C270.513 26.1281 270.442 26.0607 270.311 26.0607C270.154 26.0607 270.094 25.9658 270.038 25.6315C269.981 25.2925 269.922 25.2023 269.758 25.2023C269.584 25.2023 269.551 25.1342 269.551 24.7731C269.551 24.4075 269.52 24.3439 269.338 24.3439C269.16 24.3439 269.124 24.2803 269.124 23.9624C269.124 23.6534 269.086 23.5809 268.924 23.5809C268.715 23.5809 268.593 23.2069 268.591 22.5556C268.59 22.3096 268.546 22.2457 268.376 22.2457C268.179 22.2457 268.162 22.182 268.162 21.435C268.162 20.6879 268.146 20.6243 267.949 20.6243C267.74 20.6243 267.735 20.5607 267.735 17.6676C267.735 14.7746 267.74 14.711 267.949 14.711C268.146 14.711 268.162 14.6474 268.162 13.8913C268.162 13.152 268.183 13.0669 268.376 13.0219C268.521 12.988 268.59 12.8912 268.591 12.7208C268.594 12.1255 268.722 11.7543 268.924 11.7543C269.09 11.7543 269.124 11.6807 269.124 11.3251C269.124 10.9596 269.156 10.896 269.338 10.896C269.515 10.896 269.551 10.8323 269.551 10.5211C269.551 10.205 269.589 10.1414 269.792 10.1158C269.991 10.0904 270.038 10.0169 270.065 9.67991C270.091 9.3522 270.137 9.27457 270.305 9.27457C270.442 9.27457 270.513 9.20914 270.513 9.08382C270.513 8.95897 270.584 8.89306 270.719 8.89306C270.852 8.89306 270.938 8.81638 270.959 8.67847C270.981 8.54056 271.079 8.453 271.234 8.43335C271.393 8.41323 271.474 8.3375 271.474 8.20989C271.474 8.09706 271.563 7.99606 271.688 7.96697C271.806 7.93931 271.902 7.83687 271.902 7.7374C271.902 7.6094 271.978 7.5578 272.169 7.5578C272.365 7.5578 272.436 7.50697 272.436 7.36705C272.436 7.20863 272.507 7.1763 272.856 7.1763C273.21 7.1763 273.281 7.14263 273.31 6.96171C273.332 6.82379 273.43 6.73624 273.584 6.71659C273.717 6.6999 273.825 6.62741 273.825 6.5556C273.825 6.47395 274.005 6.4009 274.306 6.36065C274.68 6.31048 274.786 6.2565 274.786 6.11629C274.786 5.97552 274.865 5.93642 275.147 5.93642C275.81 5.93642 276.175 5.83064 276.175 5.63837C276.175 5.47775 276.266 5.45954 277.071 5.45954C277.877 5.45954 277.972 5.44037 278.022 5.26879C278.077 5.08328 278.168 5.07803 281.347 5.07803C284.544 5.07803 284.615 5.08223 284.615 5.26879ZM17.5057 6.76065C18.0498 6.81149 18.1624 6.8524 18.1624 6.99909C18.1624 7.16152 18.2651 7.1763 19.391 7.1763C20.5484 7.1763 20.6197 7.18736 20.6197 7.36705C20.6197 7.53415 20.6909 7.5578 21.1939 7.5578C21.958 7.5578 22.4359 7.64994 22.4359 7.79729C22.4359 7.86682 22.6391 7.94484 22.9167 7.98203C23.2964 8.03287 23.3974 8.08523 23.3974 8.23125C23.3974 8.38681 23.4737 8.41618 23.8782 8.41618C24.2803 8.41618 24.359 8.44604 24.359 8.59854C24.359 8.73703 24.462 8.79645 24.7863 8.84538C25.1107 8.8943 25.2137 8.95372 25.2137 9.09221C25.2137 9.21095 25.2881 9.27457 25.4274 9.27457C25.5698 9.27457 25.641 9.33818 25.641 9.46532C25.641 9.60523 25.7123 9.65607 25.9081 9.65607C26.1218 9.65607 26.1752 9.70376 26.1752 9.89451C26.1752 10.0693 26.2322 10.1329 26.3889 10.1329C26.5345 10.1329 26.6026 10.1966 26.6026 10.3327C26.6026 10.4524 26.6885 10.5523 26.817 10.5824C26.9682 10.6176 27.051 10.7416 27.0978 11.0026C27.1474 11.2797 27.2143 11.3728 27.3641 11.3728C27.4958 11.3728 27.5641 11.4409 27.5641 11.5725C27.5641 11.6887 27.6493 11.7921 27.7679 11.8198C27.998 11.8735 28.0947 12.1137 28.0968 12.6366C28.0981 12.9302 28.1365 12.9942 28.312 12.9942C28.494 12.9942 28.5256 13.0578 28.5256 13.4234C28.5256 13.7794 28.5597 13.8526 28.726 13.8526C28.9643 13.8526 29.0598 14.1835 29.0598 15.009C29.0598 15.4209 29.0987 15.5694 29.2067 15.5694C29.4467 15.5694 29.4872 16.0328 29.4872 18.7764C29.4872 21.3237 29.4819 21.3873 29.2735 21.3873C29.0841 21.3873 29.0598 21.4509 29.0598 21.9476C29.0598 22.7732 28.9643 23.104 28.726 23.104C28.5506 23.104 28.5256 23.1814 28.5256 23.724C28.5256 24.2662 28.5005 24.3439 28.3256 24.3439C28.1759 24.3439 28.109 24.437 28.0593 24.7142C28.0125 24.9751 27.9297 25.0991 27.7785 25.1344C27.6079 25.1743 27.5641 25.2642 27.5641 25.5749C27.5641 25.9017 27.5293 25.9653 27.3504 25.9653C27.1937 25.9653 27.1368 26.0289 27.1368 26.2038C27.1368 26.3757 27.0793 26.4422 26.9306 26.4422C26.798 26.4422 26.7121 26.5189 26.6902 26.6568C26.6682 26.7947 26.5701 26.8823 26.4156 26.9019C26.2611 26.9215 26.1752 26.9981 26.1752 27.1165C26.1752 27.237 26.1014 27.3006 25.9615 27.3006C25.8191 27.3006 25.7479 27.3642 25.7479 27.4913C25.7479 27.6162 25.6766 27.6821 25.5417 27.6821C25.4091 27.6821 25.3232 27.7588 25.3013 27.8967C25.2793 28.0346 25.1812 28.1221 25.0267 28.1418C24.8722 28.1613 24.7863 28.238 24.7863 28.3564C24.7863 28.4892 24.7119 28.5405 24.5192 28.5405C24.3275 28.5405 24.2521 28.5919 24.2521 28.7228C24.2521 28.8605 24.15 28.9206 23.8353 28.968C23.5497 29.0111 23.4014 29.0889 23.3645 29.2149C23.3187 29.3712 23.2127 29.3988 22.6596 29.3988C22.0948 29.3988 22.0085 29.4225 22.0085 29.5773C22.0085 29.7334 21.8885 29.7641 21.047 29.8229C20.1953 29.8824 20.0855 29.911 20.0855 30.0736C20.0855 30.2487 19.9864 30.2572 17.9487 30.2572C16.1206 30.2572 15.812 30.2779 15.812 30.4003C15.812 30.5255 15.1472 30.5434 10.4701 30.5434C5.79295 30.5434 5.12821 30.5255 5.12821 30.4003C5.12821 30.3113 5.02735 30.2572 4.86111 30.2572H4.59402V18.4783V6.69942H10.7215C14.0917 6.69942 17.1446 6.72699 17.5057 6.76065ZM242.291 6.76142C243.147 6.81559 243.269 6.84544 243.269 6.99986C243.269 7.15913 243.368 7.1763 244.284 7.1763C245.228 7.1763 245.299 7.18965 245.299 7.36705C245.299 7.51355 245.37 7.5578 245.606 7.5578C246.122 7.5578 246.581 7.67054 246.581 7.79729C246.581 7.86682 246.784 7.94484 247.062 7.98203C247.45 8.03401 247.543 8.08361 247.543 8.24022C247.543 8.3541 247.631 8.45472 247.757 8.48409C247.908 8.51938 247.991 8.64337 248.038 8.90432C248.088 9.18148 248.154 9.27457 248.304 9.27457C248.466 9.27457 248.504 9.34667 248.504 9.64939C248.504 9.96556 248.542 10.0291 248.745 10.0547C248.982 10.0849 248.985 10.1041 249.014 11.7782L249.043 13.4711H248.774C248.526 13.4711 248.504 13.5051 248.504 13.9003C248.504 14.2593 248.471 14.3295 248.3 14.3295C248.145 14.3295 248.078 14.4214 248.024 14.711C247.977 14.9586 247.895 15.0925 247.79 15.0925C247.702 15.0925 247.605 15.1753 247.576 15.2765C247.539 15.4018 247.391 15.4801 247.111 15.5223C246.798 15.5696 246.693 15.6334 246.668 15.7914C246.641 15.9612 246.553 16.0038 246.181 16.0278C245.813 16.0516 245.727 16.0927 245.727 16.2424C245.727 16.4083 245.648 16.4277 244.979 16.4277C244.302 16.4277 244.231 16.4459 244.231 16.6185C244.231 16.8075 244.16 16.8092 236.271 16.8092H228.312V16.5708C228.312 16.396 228.255 16.3324 228.098 16.3324C227.888 16.3324 227.885 16.2688 227.885 11.7543C227.885 7.23992 227.888 7.1763 228.098 7.1763C228.255 7.1763 228.312 7.11269 228.312 6.93786V6.69942H234.813C238.388 6.69942 241.753 6.72727 242.291 6.76142ZM59.5085 7.60549C59.5085 7.97107 59.5402 8.03468 59.7222 8.03468C59.9011 8.03468 59.9359 8.0983 59.9359 8.42515C59.9359 8.72797 59.9813 8.82611 60.1381 8.86273C60.3451 8.91109 60.4701 9.25006 60.4701 9.76337C60.4701 9.97396 60.5197 10.0376 60.6838 10.0376C60.8653 10.0376 60.8974 10.1012 60.8974 10.4601C60.8974 10.8258 60.9298 10.8868 61.1378 10.9131C61.3376 10.9385 61.3838 11.012 61.411 11.349C61.4376 11.6767 61.4837 11.7543 61.6514 11.7543C61.8262 11.7543 61.859 11.8221 61.859 12.1835C61.859 12.5491 61.8906 12.6127 62.0727 12.6127C62.2547 12.6127 62.2863 12.6763 62.2863 13.0419C62.2863 13.4361 62.3081 13.4711 62.5534 13.4711C62.7987 13.4711 62.8205 13.5061 62.8205 13.9003C62.8205 14.2659 62.8521 14.3295 63.0342 14.3295C63.2123 14.3295 63.2479 14.3931 63.2479 14.711C63.2479 15.0212 63.2855 15.0925 63.4494 15.0925C63.6064 15.0925 63.6669 15.1874 63.7231 15.5217C63.78 15.8606 63.8387 15.9509 64.0022 15.9509C64.1765 15.9509 64.2094 16.019 64.2094 16.3801C64.2094 16.7456 64.241 16.8092 64.4231 16.8092C64.6051 16.8092 64.6367 16.8729 64.6367 17.2384C64.6367 17.5945 64.6708 17.6676 64.8371 17.6676C65.0525 17.6676 65.1709 17.9934 65.1709 18.5856C65.1709 18.8439 65.2131 18.9075 65.3846 18.9075C65.5627 18.9075 65.5983 18.9711 65.5983 19.289C65.5983 19.5993 65.6359 19.6705 65.7998 19.6705C65.9568 19.6705 66.0173 19.7654 66.0735 20.0997C66.1304 20.4387 66.1891 20.5289 66.3527 20.5289C66.5269 20.5289 66.5598 20.597 66.5598 20.9581C66.5598 21.3237 66.5915 21.3873 66.7735 21.3873C66.9556 21.3873 66.9872 21.4509 66.9872 21.8165C66.9872 22.2107 67.009 22.2457 67.2543 22.2457C67.4996 22.2457 67.5214 22.2807 67.5214 22.6749C67.5214 23.0404 67.553 23.104 67.735 23.104C67.9171 23.104 67.9487 23.1677 67.9487 23.5332C67.9487 23.8988 67.9803 23.9624 68.1624 23.9624C68.3399 23.9624 68.3761 24.026 68.3761 24.3373C68.3761 24.6534 68.4138 24.7169 68.6165 24.7426C68.8162 24.768 68.8624 24.8415 68.8896 25.1785C68.9162 25.5062 68.9623 25.5838 69.13 25.5838C69.3048 25.5838 69.3376 25.6516 69.3376 26.013C69.3376 26.3686 69.3719 26.4422 69.5373 26.4422C69.7411 26.4422 69.868 26.814 69.8706 27.4198C69.8715 27.6182 69.9239 27.6821 70.0855 27.6821C70.2636 27.6821 70.2991 27.7457 70.2991 28.0636C70.2991 28.3815 70.3347 28.4451 70.5128 28.4451C70.6943 28.4451 70.7265 28.5087 70.7265 28.8676C70.7265 29.2333 70.7589 29.2943 70.9669 29.3206C71.2376 29.355 71.3255 29.6804 71.2111 30.2246L71.1441 30.5434H59.2366C48.7234 30.5434 47.3291 30.5266 47.3291 30.4003C47.3291 30.3113 47.2282 30.2572 47.062 30.2572C46.7782 30.2572 46.7523 30.1849 46.8616 29.6969C46.8984 29.5329 46.9891 29.3988 47.0631 29.3988C47.141 29.3988 47.2284 29.2174 47.2701 28.9697C47.327 28.6307 47.3857 28.5405 47.5493 28.5405C47.7197 28.5405 47.7564 28.4728 47.7564 28.159C47.7564 27.8411 47.792 27.7775 47.9701 27.7775C48.12 27.7775 48.1842 27.7135 48.1853 27.5629C48.1876 27.2082 48.3071 26.9191 48.4512 26.9191C48.53 26.9191 48.617 26.7395 48.659 26.4899C48.7159 26.1509 48.7746 26.0607 48.9381 26.0607C49.1124 26.0607 49.1453 25.9926 49.1453 25.6315C49.1453 25.2659 49.1769 25.2023 49.359 25.2023C49.541 25.2023 49.5727 25.1387 49.5727 24.7731C49.5727 24.3789 49.5944 24.3439 49.8397 24.3439C50.085 24.3439 50.1068 24.3089 50.1068 23.9147C50.1068 23.5492 50.1385 23.4855 50.3205 23.4855C50.4959 23.4855 50.5344 23.4216 50.5357 23.1279C50.5376 22.6405 50.6389 22.341 50.8016 22.341C50.8804 22.341 50.9674 22.1614 51.0094 21.9118C51.0663 21.5729 51.125 21.4827 51.2886 21.4827C51.4628 21.4827 51.4957 21.4146 51.4957 21.0535C51.4957 20.6965 51.5296 20.6243 51.6972 20.6243C51.8543 20.6243 51.9147 20.5294 51.9709 20.1951C52.0279 19.8561 52.0865 19.7659 52.2501 19.7659C52.4244 19.7659 52.4573 19.6978 52.4573 19.3367C52.4573 18.9711 52.4889 18.9075 52.6709 18.9075C52.853 18.9075 52.8846 18.8439 52.8846 18.4783C52.8846 18.1169 52.9174 18.0491 53.0922 18.0491C53.2599 18.0491 53.306 17.9715 53.3326 17.6438C53.3598 17.3068 53.406 17.2333 53.6058 17.2079C53.8138 17.1816 53.8462 17.1206 53.8462 16.7549C53.8462 16.396 53.8783 16.3324 54.0598 16.3324C54.2239 16.3324 54.2735 16.2688 54.2735 16.0582C54.2735 15.5974 54.3998 15.1879 54.5418 15.1879C54.6197 15.1879 54.7071 15.0065 54.7487 14.7587C54.8038 14.4303 54.8666 14.3295 55.0158 14.3295C55.165 14.3295 55.2277 14.2287 55.2829 13.9003C55.3262 13.6426 55.4109 13.4711 55.495 13.4711C55.5759 13.4711 55.664 13.3096 55.7034 13.0896C55.7565 12.7929 55.819 12.7081 55.9842 12.7081C56.1678 12.7081 56.1966 12.6435 56.1966 12.2312C56.1966 11.818 56.2251 11.7543 56.4103 11.7543C56.5891 11.7543 56.6239 11.6907 56.6239 11.3639C56.6239 11.0585 56.6688 10.963 56.83 10.9253C56.9712 10.8924 57.0582 10.76 57.1065 10.5051C57.1596 10.2241 57.2269 10.1329 57.3812 10.1329C57.552 10.1329 57.5855 10.0628 57.5855 9.70376C57.5855 9.33818 57.6171 9.27457 57.7991 9.27457C57.9706 9.27457 58.0128 9.21095 58.0128 8.95267C58.0128 8.36049 58.1313 8.03468 58.3467 8.03468C58.5129 8.03468 58.547 7.96153 58.547 7.60549V7.1763H59.0278H59.5085V7.60549ZM186.538 18.4783V20.1474H199.199H211.859V18.4783V16.8092H199.199H186.538V18.4783ZM186.61 30.607C186.571 30.6419 186.538 31.3071 186.538 32.0853V33.5H199.199H211.859V32.0217V30.5434H199.27C192.346 30.5434 186.649 30.572 186.61 30.607Z" clip-rule="evenodd" fill-rule="evenodd"></path>
</svg>
