<svg xmlns="http://www.w3.org/2000/svg" fill="none" viewBox="0 0 300 30" height="30" width="300">
<path fill="#949494" d="M0 0.785645H300V29.2146H0V0.785645ZM70.7861 15.2756V6.16938H78.4335V15.2001C78.4335 15.8593 78.5161 16.442 78.6804 16.9471C78.8456 17.4522 79.107 17.8767 79.4665 18.2185C79.826 18.5614 80.2888 18.8216 80.8549 19.0012C81.4209 19.1808 82.1058 19.2706 82.9085 19.2706C83.7111 19.2706 84.3981 19.1808 84.9693 19.0012C85.5396 18.8216 86.0023 18.5614 86.3577 18.2185C86.7131 17.8767 86.9744 17.4522 87.1438 16.9471C87.3122 16.442 87.3969 15.8593 87.3969 15.2001V6.16938H95.0433V15.2756C95.0433 16.8542 94.8108 18.2134 94.346 19.3532C93.8811 20.493 93.158 21.4308 92.1777 22.1655C91.1974 22.9012 89.9412 23.44 88.4113 23.7819C86.8814 24.1237 85.0386 24.2951 82.9085 24.2951C80.7784 24.2951 78.95 24.1237 77.4242 23.7819C75.8985 23.439 74.6423 22.9002 73.6579 22.1655C72.6734 21.4298 71.9482 20.493 71.4834 19.3532C71.0185 18.2134 70.7861 16.8542 70.7861 15.2756ZM134.847 23.8308H127.353V15.8522L127.379 12.3827H127.366L122.129 23.8308H115.23L110.006 12.3827H109.993L110.019 15.8522V23.8308H102.512V6.16938H113.988L118.667 17.5052H118.693L123.384 6.16938H134.847V23.8308ZM158.775 19.3277C158.935 19.2481 159.058 19.1583 159.143 19.0583L159.141 19.0604C159.225 18.9593 159.268 18.843 159.268 18.7093V18.6971C159.268 18.5216 159.213 18.3757 159.103 18.2583C158.993 18.141 158.801 18.0369 158.526 17.945C158.251 17.8532 157.868 17.7757 157.378 17.7134C156.888 17.6501 156.266 17.594 155.514 17.544L151.988 17.294C150.382 17.2032 148.959 17.0185 147.721 16.743C146.483 16.4675 145.443 16.094 144.602 15.6215C143.76 15.1501 143.12 14.5756 142.681 13.8991C142.242 13.2225 142.022 12.4337 142.022 11.5317V11.5062C142.022 10.8878 142.161 10.3143 142.44 9.78372C142.72 9.2531 143.11 8.7735 143.613 8.34288C144.117 7.91328 144.729 7.53369 145.452 7.20307C146.175 6.87348 146.985 6.59796 147.881 6.37653C148.776 6.1551 149.753 5.98877 150.809 5.8755C151.866 5.76224 152.978 5.70611 154.144 5.70611C155.742 5.70611 157.239 5.82142 158.633 6.05102C160.028 6.28061 161.267 6.63266 162.349 7.10919C163.431 7.58573 164.323 8.1888 165.025 8.91942C165.726 9.65004 166.187 10.5123 166.407 11.5062H157.924C157.797 11.2552 157.607 11.049 157.352 10.8858C157.098 10.7225 156.791 10.5929 156.427 10.497C156.063 10.4011 155.639 10.3358 155.152 10.3031C154.666 10.2705 154.136 10.2531 153.56 10.2531C153.248 10.2531 152.934 10.2572 152.622 10.2654C152.31 10.2735 152.01 10.2939 151.723 10.3276C151.435 10.3603 151.169 10.398 150.924 10.4398C150.678 10.4817 150.467 10.5398 150.29 10.6154C150.112 10.6909 149.971 10.7807 149.865 10.8848C149.759 10.9888 149.702 11.1123 149.694 11.2541V11.2664C149.694 11.4164 149.755 11.5531 149.878 11.6735C150.001 11.795 150.209 11.9011 150.506 11.9929C150.802 12.0848 151.208 12.1603 151.724 12.2184C152.239 12.2766 152.89 12.3266 153.676 12.3684L157.265 12.6184C158.922 12.7358 160.361 12.9184 161.583 13.1695C162.804 13.4205 163.819 13.7634 164.626 14.197C165.433 14.6317 166.033 15.1613 166.426 15.7879C166.82 16.4144 167.016 17.1573 167.016 18.0175V18.043C167.016 19.0451 166.739 19.9369 166.186 20.7175C165.632 21.4981 164.829 22.1543 163.777 22.6839C162.725 23.2145 161.425 23.6155 159.878 23.887C158.331 24.1584 156.568 24.2941 154.59 24.2941C152.79 24.2941 151.145 24.1645 149.658 23.9053C148.17 23.6461 146.873 23.2665 145.765 22.7655C144.658 22.2645 143.753 21.6492 143.051 20.9185C142.349 20.1869 141.876 19.3461 141.631 18.394H150.14C150.284 18.6287 150.484 18.8348 150.742 19.0144C151 19.194 151.321 19.3359 151.706 19.44C152.091 19.544 152.547 19.6257 153.076 19.6838C153.604 19.742 154.21 19.7716 154.895 19.7716C155.376 19.7716 155.823 19.7614 156.233 19.74C156.643 19.7196 157.008 19.693 157.33 19.6593C157.65 19.6257 157.931 19.5828 158.173 19.5277C158.413 19.4736 158.615 19.4073 158.775 19.3277ZM63.1904 12.9338C62.9786 13.4511 62.7017 13.9062 62.3598 14.2991L62.3567 14.3021C62.0148 14.695 61.6171 15.0185 61.1646 15.2726C60.7132 15.5266 60.2287 15.7164 59.7132 15.842C60.2628 15.992 60.7318 16.1695 61.1212 16.3746C61.5096 16.5787 61.8371 16.8267 62.1036 17.1195C62.3701 17.4114 62.5809 17.7501 62.7379 18.1338C62.8939 18.5185 63.0065 18.9522 63.0736 19.4369L63.3153 21.3532C63.3742 21.7543 63.4187 22.088 63.4486 22.3553C63.4775 22.6227 63.5116 22.8461 63.5498 23.0257C63.5881 23.2043 63.6345 23.3533 63.6893 23.4696C63.744 23.5869 63.8226 23.7074 63.9238 23.8329H56.0109C55.9686 23.7074 55.9293 23.591 55.8911 23.4818C55.8529 23.3737 55.8188 23.2614 55.7899 23.1441C55.7609 23.0267 55.7372 22.9063 55.7207 22.7808C55.708 22.6901 55.6964 22.5952 55.6843 22.496L55.6841 22.4948L55.6839 22.4934L55.6838 22.4925L55.6836 22.4909L55.6834 22.4894L55.6833 22.4885L55.67 22.3798L55.4541 20.6634C55.4035 20.1706 55.3147 19.7675 55.1876 19.4542C55.0606 19.141 54.8746 18.8971 54.6298 18.7216C54.3839 18.5461 54.0678 18.4246 53.6784 18.3583C53.29 18.292 52.791 18.2583 52.1826 18.2583H47.5919V23.8319H39.9331V6.17041H52.8923C53.9408 6.17041 54.9304 6.19592 55.8601 6.24592C56.7898 6.29592 57.6483 6.3898 58.4344 6.52755C59.2205 6.66531 59.926 6.85103 60.552 7.0847C61.1781 7.3194 61.7101 7.6194 62.1501 7.98675C62.5902 8.35513 62.9259 8.79901 63.1583 9.32146C63.3908 9.8429 63.5075 10.4592 63.5075 11.1684V11.1807C63.5075 11.8317 63.4021 12.4164 63.1904 12.9338ZM29.1877 21.8512C28.3975 22.3104 27.5184 22.6869 26.5505 22.9788V22.9778C25.5825 23.2696 24.5351 23.4849 23.406 23.6227C22.2779 23.7604 21.092 23.8298 19.8493 23.8298H7.80234V6.16837H19.8493C21.0838 6.16837 22.2666 6.23469 23.3998 6.36837C24.532 6.50204 25.5825 6.71327 26.5505 7.00103C27.5184 7.28879 28.3975 7.66226 29.1877 8.12145C29.978 8.58064 30.6526 9.13881 31.2104 9.79392C31.7682 10.45 32.1969 11.2052 32.4975 12.0613C32.7981 12.9174 32.9479 13.8919 32.9479 14.9858V15.0113C32.9479 16.0889 32.7981 17.0552 32.4975 17.9114C32.1969 18.7675 31.7682 19.5226 31.2104 20.1787C30.6526 20.8349 29.978 21.392 29.1877 21.8512ZM283.955 19.3277C284.116 19.2481 284.238 19.1583 284.323 19.0583L284.324 19.0604C284.409 18.9593 284.451 18.843 284.451 18.7093V18.6971C284.451 18.5216 284.395 18.3757 284.286 18.2583C284.175 18.141 283.983 18.0369 283.708 17.945C283.434 17.8532 283.05 17.7757 282.561 17.7134C282.071 17.6501 281.449 17.594 280.697 17.544L277.171 17.294C275.565 17.2032 274.143 17.0185 272.904 16.743C271.666 16.4675 270.625 16.094 269.784 15.6215C268.943 15.1501 268.303 14.5756 267.863 13.8991C267.424 13.2225 267.204 12.4337 267.204 11.5317V11.5062C267.204 10.8878 267.343 10.3143 267.622 9.78372C267.901 9.2531 268.292 8.7735 268.795 8.34288C269.298 7.91328 269.91 7.53369 270.634 7.20307C271.357 6.87348 272.167 6.59796 273.062 6.37653C273.959 6.1551 274.935 5.98775 275.992 5.8755C277.048 5.76224 278.16 5.70611 279.326 5.70611C280.923 5.70611 282.42 5.82142 283.815 6.05102C285.21 6.28061 286.448 6.63266 287.531 7.10919C288.613 7.58573 289.505 8.1888 290.206 8.91942C290.907 9.65004 291.368 10.5123 291.588 11.5062H283.105C282.979 11.2552 282.788 11.049 282.535 10.8858C282.281 10.7225 281.973 10.5929 281.609 10.497C281.246 10.4011 280.821 10.3358 280.335 10.3031C279.849 10.2705 279.318 10.2531 278.744 10.2531C278.431 10.2531 278.118 10.2572 277.805 10.2654C277.493 10.2735 277.192 10.2939 276.905 10.3276C276.618 10.3603 276.351 10.398 276.106 10.4398C275.861 10.4817 275.65 10.5398 275.472 10.6154C275.294 10.6909 275.154 10.7807 275.048 10.8848C274.941 10.9888 274.884 11.1123 274.876 11.2541V11.2664C274.876 11.4164 274.937 11.5531 275.06 11.6735C275.183 11.795 275.392 11.9011 275.688 11.9929C275.984 12.0848 276.39 12.1603 276.905 12.2184C277.42 12.2766 278.071 12.3266 278.857 12.3684L282.446 12.6184C284.103 12.7358 285.543 12.9184 286.764 13.1695C287.986 13.4205 289.001 13.7634 289.807 14.197C290.615 14.6317 291.215 15.1613 291.609 15.7879C292.001 16.4144 292.198 17.1573 292.198 18.0175V18.043C292.198 19.0451 291.921 19.9369 291.367 20.7175C290.813 21.4981 290.011 22.1543 288.958 22.6839C287.907 23.2145 286.607 23.6155 285.06 23.887C283.512 24.1584 281.75 24.2941 279.772 24.2941C277.971 24.2941 276.326 24.1645 274.839 23.9053C273.351 23.6461 272.054 23.2665 270.947 22.7655C269.839 22.2645 268.934 21.6492 268.233 20.9185C267.53 20.1869 267.057 19.3461 266.812 18.394H275.32C275.464 18.6287 275.664 18.8348 275.923 19.0144C276.181 19.194 276.502 19.3359 276.886 19.44C277.272 19.544 277.727 19.6257 278.256 19.6838C278.784 19.742 279.39 19.7716 280.075 19.7716C280.558 19.7716 281.003 19.7614 281.413 19.74C281.823 19.7196 282.189 19.693 282.51 19.6593C282.83 19.6257 283.112 19.5828 283.353 19.5277C283.594 19.4736 283.795 19.4073 283.955 19.3277ZM257.029 21.8512C256.239 22.3104 255.359 22.6869 254.392 22.9788V22.9778C253.424 23.2696 252.376 23.4849 251.247 23.6227C250.119 23.7604 248.933 23.8298 247.69 23.8298H235.644V6.16837H247.69C248.925 6.16837 250.108 6.23469 251.241 6.36837C252.373 6.50204 253.424 6.71327 254.392 7.00103C255.359 7.28879 256.239 7.66226 257.029 8.12145C257.819 8.58064 258.494 9.13881 259.051 9.79392C259.609 10.45 260.038 11.2052 260.339 12.0613C260.638 12.9174 260.788 13.8919 260.788 14.9858V15.0113C260.788 16.0889 260.638 17.0552 260.339 17.9114C260.038 18.7675 259.609 19.5226 259.051 20.1787C258.494 20.8349 257.819 21.392 257.029 21.8512ZM173.864 23.8308V6.16938H181.524V12.1072H190.678V6.16938H198.338V23.8308H190.678V17.894H181.524V23.8308H173.864ZM228.111 6.16938V11.1919H213.732V12.495H227.389V17.5052H213.732V18.8083H228.225V23.8308H206.072V6.16938H228.111Z" clip-rule="evenodd" fill-rule="evenodd"></path>
<path fill="#949494" d="M249.217 18.7706C248.773 18.8206 248.306 18.8461 247.816 18.8461H243.302V11.1552H247.816C248.306 11.1552 248.774 11.1797 249.217 11.2307C249.661 11.2807 250.068 11.3643 250.44 11.4807C250.812 11.598 251.15 11.7521 251.455 11.9439C251.759 12.1368 252.017 12.3746 252.228 12.6582C252.44 12.9429 252.602 13.2766 252.717 13.6603C252.832 14.044 252.889 14.4868 252.889 14.9879V15.0134C252.889 15.5144 252.832 15.9562 252.717 16.3409C252.603 16.7246 252.44 17.0593 252.228 17.343C252.017 17.6267 251.759 17.8654 251.455 18.0573C251.15 18.2491 250.812 18.4042 250.44 18.5206C250.068 18.6369 249.66 18.7206 249.217 18.7706Z"></path>
<path fill="#949494" d="M55.607 12.2695C55.607 12.545 55.5564 12.7725 55.4552 12.9521C55.3539 13.1317 55.2083 13.2715 55.0172 13.3715C54.8271 13.4715 54.5926 13.5409 54.3137 13.5787C54.0348 13.6164 53.7176 13.6348 53.3623 13.6348H47.5929V10.8919H53.3623C53.7176 10.8919 54.0337 10.9103 54.3137 10.948C54.5926 10.9858 54.8271 11.0562 55.0172 11.1613C55.2072 11.2664 55.3529 11.4041 55.4552 11.5746C55.5564 11.746 55.607 11.9684 55.607 12.245V12.2695Z"></path>
<path fill="#949494" d="M21.3771 18.7706C20.933 18.8206 20.466 18.8461 19.9764 18.8461H15.4621V11.1552H19.9764C20.466 11.1552 20.934 11.1797 21.3771 11.2307C21.8213 11.2807 22.2283 11.3643 22.6002 11.4807C22.9721 11.598 23.3099 11.7521 23.6146 11.9439C23.9194 12.1368 24.1766 12.3746 24.3884 12.6582C24.6001 12.9429 24.7623 13.2766 24.877 13.6603C24.9917 14.044 25.0485 14.4868 25.0485 14.9879V15.0134C25.0485 15.5144 24.9917 15.9562 24.877 16.3409C24.7634 16.7246 24.6001 17.0593 24.3884 17.343C24.1766 17.6267 23.9194 17.8654 23.6146 18.0573C23.3099 18.2491 22.9721 18.4042 22.6002 18.5206C22.2283 18.6369 21.8203 18.7206 21.3771 18.7706Z"></path>
</svg>
