<?xml version="1.0" encoding="UTF-8"?>
<svg id="Layer_2"
    xmlns="http://www.w3.org/2000/svg" viewBox="0 0 2443.78 430.79">
    <defs>
        <style>.cls-1{stroke-width:0px;}</style>
    </defs>
    <g id="Layer_1-2" fill="white">
        <path class="cls-1" d="m2007.95,430.52h-56.58c0-1.28,0-2.52,0-3.77,0-26.1.02-52.2-.03-78.29,0-1.81-.24-3.7-.78-5.43-19.54-62.47-39.13-124.92-58.71-187.38-.22-.7-.49-1.38-1.21-2.02v276.78h-56.62V4.25c1.04-.05,2.18-.15,3.33-.15,16.65-.01,33.3.04,49.95-.06,2.48-.02,3.49.69,4.22,3.16,19.4,65.92,38.9,131.8,58.38,197.7.29.99.6,1.98,1.49,2.88V4.29h56.56v426.24Z"/>
        <path class="cls-1" d="m689.07,207.94V4.3h56.65v426.09h-56.71v-3.53c0-26.1.02-52.2-.03-78.3,0-1.81-.25-3.7-.8-5.42-19.46-62.16-38.97-124.3-58.47-186.44-.28-.9-.6-1.78-1.37-2.62v276.26h-56.74V4.28c1.05-.06,2-.18,2.96-.18,16.87-.01,33.74.05,50.61-.07,2.49-.02,3.26.92,3.91,3.13,19.48,66.12,39.03,132.23,58.58,198.33.24.82.52,1.62.78,2.44.21,0,.43,0,.64.01Z"/>
        <path class="cls-1" d="m1724.4,217.71c0,47.3.18,94.6-.16,141.9-.07,9.14-1.27,18.49-3.49,27.36-6.15,24.61-22.78,38.23-47.49,42.23-5.88.95-11.9,1.29-17.86,1.35-17.95.17-35.92.44-53.86-.1-8.72-.26-17.65-1.29-26.04-3.61-21.72-6-34.08-21.31-38.68-42.83-1.8-8.43-2.7-17.22-2.72-25.85-.18-94.38-.11-188.77-.08-283.15,0-10.37,1.3-20.58,4.49-30.51,7.02-21.9,22.21-34.42,44.53-38.62,4.79-.9,9.71-1.5,14.57-1.52,22.52-.09,45.05-.31,67.56.27,13.71.35,26.6,4.37,37.44,13.32,12.06,9.96,17.79,23.41,20.05,38.4,1.19,7.92,1.71,16.01,1.73,24.02.16,45.78.08,91.56.08,137.34h-.07Zm-56.75.2c0-44.59,0-89.18-.02-133.77,0-2.82-.12-5.66-.38-8.47-.97-10.49-6.95-18.05-17.43-18.87-13.5-1.05-27.19-1.12-40.7-.22-10.08.67-15.86,6.98-17.51,16.16-.61,3.4-.78,6.91-.78,10.38-.04,89.5-.03,179.01-.03,268.51,0,1.85-.02,3.7.09,5.54.69,11.88,7.18,20.22,18.38,20.95,13.75.9,27.61.69,41.38.12,7.71-.32,13.21-5.15,15.19-12.75,1.19-4.56,1.71-9.43,1.73-14.16.12-44.48.07-88.96.07-133.44Z"/>
        <path class="cls-1" d="m274.52,4.25h56.73v4.57c0,112.99-.01,225.97.05,338.96,0,4.43.31,8.94,1.15,13.28,2.04,10.48,8.4,16.6,19.12,17.37,10.07.72,20.24.84,30.32.26,11.63-.67,18.16-7.5,19.72-19.29.47-3.54.66-7.15.67-10.72.03-113.31.03-226.63.03-339.94v-4.43h56.65c.06,1.02.16,1.87.16,2.72,0,115.49.03,230.98-.08,346.46-.01,14.43-2.06,28.63-7.9,42.01-9.19,21.04-25.91,32.71-48.24,34.11-23.29,1.46-46.81,1.64-70.1.2-29.41-1.82-47.26-18.28-54.49-46.83-2.79-11.03-3.76-22.28-3.76-33.61-.03-113.75-.02-227.49-.02-341.24,0-1.17,0-2.35,0-3.87Z"/>
        <path class="cls-1" d="m2333.93,121.58h-57.24c-.07-1.01-.19-1.85-.19-2.69,0-16.53-.08-33.06.08-49.58.1-10.71,1.66-21.24,5.36-31.34,7.93-21.62,23.94-33.48,46.27-36.57,10.39-1.44,21.03-1.35,31.56-1.38,10.42-.02,20.96-.17,31.25,1.24,28.51,3.9,45.85,21.1,50.64,49.57,1.24,7.36,1.92,14.9,1.96,22.36.2,34.58-.05,69.16.16,103.73.09,14.93-4.45,27.67-15.29,38.12-17.85,17.21-35.61,34.52-53.38,51.82-7.87,7.66-15.66,15.41-23.5,23.1-4.91,4.82-7.32,10.6-7.33,17.52-.03,23.27-.17,46.53-.26,69.8,0,.42.1.84.19,1.61h96.36v51.56h-153.98c0-1.17,0-2.31,0-3.46,0-42.19-.05-84.38.05-126.57.01-5.85.42-11.75,1.24-17.54,1.26-8.79,5.72-16.18,11.8-22.45,9.77-10.07,19.72-19.95,29.75-29.76,13.53-13.23,27.26-26.26,40.77-39.52,3.79-3.72,7.2-7.85,10.59-11.96,3.65-4.41,5.47-9.54,5.47-15.33-.02-29.47.11-58.93-.03-88.4-.07-15.03-8.39-23.1-23.38-23.34-2.07-.03-4.14-.04-6.2.01-14.1.38-22.34,8.35-22.6,22.43-.26,14.24-.09,28.49-.11,42.73,0,1.3,0,2.6,0,4.26Z"/>
        <path class="cls-1" d="m1027.73,124.6h-56.66c0-1.23,0-2.38,0-3.54,0-13.05.02-26.1-.02-39.15,0-2.27-.15-4.57-.46-6.82-1.5-10.79-7.03-17.07-17.93-18.43-7.71-.97-15.69-1.03-23.41-.24-10.06,1.03-15.8,7.99-16.85,18.58-.26,2.59-.35,5.21-.35,7.82-.02,89.72-.03,179.43.03,269.15,0,3.89.27,7.86,1.09,11.65,1.86,8.68,7.58,14.07,16.42,14.78,7.67.61,15.46.74,23.11.09,10.54-.9,16.64-7.07,17.71-17.58.74-7.33.5-14.76.67-22.14.06-2.49,0-4.99,0-7.73,18.91,0,37.67,0,56.42,0,.11.18.32.35.32.53-.17,17.25,1.32,34.58-2.43,51.68-6.13,27.9-25.14,45.07-53.72,46.55-19.84,1.03-39.83,1.12-59.67.02-30.76-1.7-50.64-20.68-55.11-51.13-1.1-7.5-1.67-15.15-1.68-22.73-.11-92.44-.08-184.87-.06-277.31,0-11.23.84-22.35,4.13-33.19,6.85-22.53,22.17-35.46,45.09-39.63,5.11-.93,10.36-1.5,15.55-1.54,16.21-.12,32.43-.09,48.63.25,8.41.18,16.6,2.12,24.38,5.41,18.31,7.74,28.22,22.26,32.23,41.06,1.58,7.39,2.42,15.05,2.61,22.61.39,15.98.14,31.97.13,47.95,0,.95-.1,1.9-.17,3Z"/>
        <path class="cls-1" d="m.06,312.92h55.5v3.65c0,12.18,0,24.36,0,36.54,0,1.63,0,3.26.06,4.89.54,13.64,7.28,20.85,20.85,21.9,4.09.32,8.3.2,12.36-.34,9.62-1.3,15.74-7.73,16.98-17.51.39-3.12.56-6.28.56-9.43.03-114.52.02-229.04.02-343.57,0-1.51,0-3.02,0-4.75h55.66c.07,1.17.2,2.31.2,3.45-.11,117.13-.22,234.26-.38,351.39-.02,12.23-1.31,24.31-5.78,35.85-7.82,20.2-23.1,31.11-44.03,34.17-8.77,1.28-17.78,1.37-26.67,1.35-11.51-.02-23.15.26-34.51-1.27-27.33-3.68-43.97-20.21-48.76-47.33-1.15-6.5-1.85-13.16-1.96-19.76-.28-16.3-.09-32.61-.09-49.25Z"/>
        <path class="cls-1" d="m1221.88,430.53h-56.68V56.06h-54.26V4.39h165.06v51.5h-54.13v374.64Z"/>
        <path class="cls-1" d="m1424.38,430.51h-56.19V4.38h56.19v426.13Z"/>
    </g>
</svg>