<svg width="545" height="174" viewBox="0 0 545 174" fill="none" xmlns="http://www.w3.org/2000/svg">
<path fill-rule="evenodd" clip-rule="evenodd" d="M19.7713 1.12128C14.4893 2.54494 10.0739 5.1585 6.98381 8.68899C3.44793 12.7292 2.46474 15.6844 2.46474 22.2718C2.46474 29.461 4.29206 33.729 8.76603 36.9918C13.2355 40.2515 15.81 41.2197 28.3975 44.3785C45.2629 48.611 47.5652 49.9728 47.5652 55.7127C47.5652 61.6946 42.5057 64.7282 32.5317 64.7282C22.8366 64.7282 17.4945 61.6102 16.3068 55.2595L15.8273 52.6965H7.91363H0L0.455515 56.5505C1.44923 64.9665 8.15868 72.394 17.4982 75.4155C23.6342 77.4009 36.0082 78.1286 42.3486 76.8776C51.7671 75.0188 58.6412 70.2796 61.8846 63.4071C64.0758 58.7659 64.2915 50.7736 62.3619 45.7569C59.6311 38.6575 53.4576 35.1662 36.0541 30.8786C20.4207 27.0269 18.2499 25.7329 18.2499 20.2638C18.2499 14.1582 28.1728 10.2484 37.25 12.7767C40.9693 13.8128 45.1501 17.5559 45.9183 20.5375L46.5302 22.9113L54.189 23.1262L61.8471 23.3411V21.4574C61.8471 20.4221 61.1503 17.7052 60.2979 15.4212C57.6181 8.2358 50.7884 2.69575 42.1464 0.695992C37.4033 -0.401915 24.5121 -0.156846 19.7713 1.12128ZM71.6188 7.45309V14.2396H79.1356H86.6523V7.45309V0.666584H79.1356H71.6188V7.45309ZM95.6724 38.3694V76.0722H103.189H110.706V38.3694V0.666584H103.189H95.6724V38.3694ZM442.696 1.16954C442.42 1.44552 442.195 18.4118 442.195 38.8724V76.0722H449.711H457.228V67.1804V58.2886L460.48 55.0876L463.731 51.8859L471.445 63.9787L479.159 76.0722H488.113C493.038 76.0722 497.067 75.9252 497.067 75.7465C497.067 75.567 491.97 68.0446 485.74 59.0306L474.412 42.6411L484.79 32.2103L495.167 21.7802H486.078H476.989L467.461 31.5829C462.221 36.9744 457.775 41.3856 457.581 41.3856C457.387 41.3856 457.228 32.2239 457.228 21.0261V0.666584H450.213C446.354 0.666584 442.971 0.892801 442.696 1.16954ZM188.617 21.0631C176.116 23.1676 167.181 33.6784 166.475 47.1097C165.524 65.1942 177.245 77.6068 195.239 77.5713C201.328 77.5592 207.159 75.9056 211.435 72.9784C215.173 70.4198 219.289 65.0034 220.116 61.5567L220.614 59.483L213.203 59.4875L205.793 59.4928L204.495 61.7814C201.383 67.2656 190.55 67.7904 185.682 62.6923C183.81 60.7317 181.363 55.9367 181.363 54.2287C181.363 53.7137 188.091 53.4505 201.283 53.4505H221.202V49.8386C221.202 38.9915 215.087 27.8171 206.864 23.6367C203.84 22.0991 195.39 20.1039 193.014 20.3663C192.601 20.4123 190.622 20.7252 188.617 21.0631ZM365.346 21.0977C348.887 23.4851 338.332 39.8398 342.519 56.4668C345.973 70.1763 358.105 78.4045 373.33 77.3609C393.253 75.9961 404.975 57.2819 397.86 38.2035C393.283 25.932 380.044 18.9668 365.346 21.0977ZM514.225 21.0834C502.683 22.7831 496.404 29.5884 497.225 39.5126C497.858 47.1806 502.543 51.1062 513.979 53.5531C526.857 56.3084 529.287 57.119 530.574 59.0886C533.28 63.2322 528.913 67.016 521.42 67.0206C515.901 67.0243 512.442 65.0788 510.347 60.7928L508.97 57.9749H502.267C494.841 57.9749 494.813 57.9998 496.295 63.1816C498.977 72.5621 509.701 78.1844 523.347 77.3632C531.287 76.8859 534.463 75.9395 538.578 72.8268C543.316 69.242 545.368 64.7878 544.946 59.0042C544.551 53.581 542.866 50.3386 539.179 47.9112C535.535 45.5118 532.687 44.5979 522.349 42.5092C512.986 40.618 510.597 39.37 510.597 36.3674C510.597 33.7629 513.039 31.7601 516.927 31.1757C523.588 30.1736 528.807 32.4885 529.767 36.8703L530.26 39.1235H536.965C544.432 39.1235 544.412 39.1416 542.813 33.7863C540.825 27.1302 534.196 22.3623 525.093 21.0419C522.288 20.6348 519.655 20.3369 519.241 20.3791C518.828 20.4214 516.57 20.7388 514.225 21.0834ZM71.6188 48.9262V76.0722H79.1356H86.6523V48.9262V21.7802H79.1356H71.6188V48.9262ZM114.464 22.299C114.464 22.6134 118.769 34.8404 124.032 49.4714L133.598 76.0722H140.817H148.036L157.559 49.7662C162.796 35.2974 167.082 23.0696 167.082 22.5923C167.082 21.9838 164.899 21.79 159.753 21.9415L152.424 22.1572L149.94 29.3207C148.573 33.2607 145.977 41.2348 144.17 47.0411C142.364 52.8473 140.714 57.0889 140.504 56.4668C140.293 55.8447 137.776 47.8705 134.911 38.7464L129.7 22.1572L122.082 21.9423C117.892 21.8239 114.464 21.9845 114.464 22.299ZM227.967 48.9262V76.0722H235.484H243.001V60.3554C243.001 45.404 243.085 44.4795 244.732 41.3555C246.858 37.3213 251.509 34.5991 256.273 34.5991H259.538V28.1896V21.7802H255.705C250.75 21.7802 247.121 23.5545 244.417 27.2991L242.249 30.301V26.0406V21.7802H235.108H227.967V48.9262ZM262.331 22.3457C262.165 22.6571 265.64 34.7876 270.055 49.3032L278.081 75.6952L284.916 75.9116L291.752 76.1273L293.633 69.8792C294.667 66.4422 296.921 58.7101 298.64 52.6965C300.36 46.6829 301.844 41.6842 301.936 41.5877C302.03 41.4912 304.276 49.2112 306.929 58.7425L311.753 76.0722H318.661H325.568L326.346 73.6216C326.773 72.2741 330.36 60.6518 334.316 47.7951C338.273 34.9385 341.693 23.8252 341.917 23.0998C342.284 21.9069 341.636 21.7802 335.176 21.7802C330.959 21.7802 327.827 22.1074 327.537 22.578C327.266 23.0176 325.052 30.5348 322.616 39.2841C320.18 48.0326 318.058 55.3206 317.901 55.4782C317.743 55.6358 317.397 54.6503 317.13 53.2884C316.864 51.9258 314.731 44.2669 312.391 36.2686L308.136 21.7251L301.708 21.9415L295.28 22.1572L292.104 33.468C290.358 39.689 288.343 47.2349 287.628 50.236C286.913 53.2371 286.216 55.5815 286.08 55.4443C285.944 55.3078 284.132 48.7799 282.053 40.9385C279.974 33.097 277.921 25.5791 277.491 24.2309L276.71 21.7802H269.671C265.8 21.7802 262.497 22.0343 262.331 22.3457ZM406.114 48.9262V76.0722H413.631H421.148L421.166 61.9337C421.184 46.9823 421.681 43.0808 423.96 39.9356C425.965 37.172 431.389 34.5991 435.213 34.5991H438.436V28.1896V21.7802H434.264C429.202 21.7802 426.654 23.0108 423.102 27.1747L420.396 30.3463V26.0632V21.7802H413.255H406.114V48.9262ZM365.9 32.6718C360.051 34.8148 357.043 40.6851 357.126 49.7926C357.22 60.0757 362.355 66.2695 370.785 66.2695C379.508 66.2695 384.316 59.992 384.316 48.6027C384.316 41.9964 381.853 36.2799 377.971 33.873C374.631 31.8016 369.63 31.3039 365.9 32.6718ZM187.08 33.7425C184.792 35.3012 182.625 38.3445 181.77 41.1971L181.262 42.8938H193.34C206.547 42.8938 206.615 42.8666 204.361 38.5202C202.128 34.2153 199.721 32.7788 194.293 32.5096C190.244 32.3083 188.829 32.5504 187.08 33.7425ZM3.39757 133.946L3.59225 171.46L11.6728 171.675L19.7533 171.889V134.16V96.4318H11.4781H3.20213L3.39757 133.946ZM82.894 134.135V171.837H90.4107H97.9275V134.135V96.4318H90.4107H82.894V134.135ZM259.538 109.905V123.379L256.874 120.859C250.745 115.06 239.795 114.62 231.67 119.846C224.419 124.509 220.405 133.171 220.329 144.314C220.281 151.493 221.179 156.048 223.568 160.745C230.013 173.419 246.813 177.259 257.115 168.413L260.289 165.687V168.762V171.837H267.43H274.571V134.135V96.4318H267.054H259.538V109.905ZM43.9061 116.85C35.8436 118.44 30.3218 123.134 28.741 129.744C26.9844 137.091 29.8295 143.272 36.4397 146.472C38.6316 147.533 44.1451 149.128 48.6927 150.018C59.1538 152.065 61.6554 153.089 62.2793 155.581C63.4113 160.107 58.1225 163.314 50.7816 162.554C45.6823 162.026 43.2251 160.447 41.6518 156.689L40.4243 153.755L33.4713 153.748C25.6599 153.739 25.7952 153.605 27.7631 159.399C29.4378 164.329 34.1358 168.922 39.7425 171.113C43.3205 172.511 45.7154 172.858 52.0753 172.901C62.2665 172.971 66.7465 171.518 71.7128 166.536C75.6831 162.553 76.519 159.975 75.974 153.383C75.2885 145.094 69.8652 141.323 54.1018 138.176C44.0098 136.161 41.5518 135.008 41.5518 132.286C41.5518 128.84 45.2884 126.594 51.0207 126.594C56.102 126.594 59.265 128.22 60.4211 131.426L61.3976 134.135H68.3084H75.2186L74.63 131.517C73.6048 126.954 70.3147 122.25 66.636 120.087C60.5309 116.499 51.9144 115.271 43.9061 116.85ZM124.41 116.875C119.084 117.766 116.043 119.125 112.6 122.157C109.587 124.812 106.992 129.544 106.964 132.438C106.948 134.073 107.193 134.135 113.713 134.135C118.928 134.135 120.478 133.899 120.478 133.105C120.478 131.069 123.617 128.125 126.666 127.301C133.146 125.55 140.021 128.46 140.021 132.951C140.021 135.826 137.287 137.124 127.9 138.707C117.292 140.497 113.266 141.838 109.726 144.765C105.791 148.02 104.505 150.906 104.505 156.486C104.505 162.63 106.995 167.147 112.004 170.093C114.99 171.848 116.57 172.204 122.537 172.466C130.416 172.812 134.753 171.663 137.784 168.425C139.961 166.101 140.773 166.065 140.773 168.293C140.773 171.293 142.124 171.837 149.568 171.837C156.499 171.837 157.432 171.506 155.618 169.689C154.934 169.003 154.577 163.287 154.303 148.613C153.894 126.72 153.787 126.15 149.296 121.967C146.197 119.081 143.103 117.713 137.678 116.83C132.2 115.938 129.974 115.945 124.41 116.875ZM187.952 117.193C185.994 117.823 183.034 119.635 181.375 121.218L178.357 124.098V120.822V117.545H170.84H163.323V144.691V171.837H170.84H178.357V155.109C178.357 139.643 178.476 138.133 179.939 135.101C182.526 129.741 188.206 127.608 193.73 129.923C198.036 131.728 198.238 132.679 198.652 152.986L199.028 171.46L206.357 171.676L213.685 171.892V151.781C213.685 138.7 213.38 130.649 212.813 128.749C211.687 124.979 207.558 120.164 203.802 118.242C199.84 116.214 192.502 115.729 187.952 117.193ZM242.253 129.423C240.641 130.232 238.899 132.053 237.743 134.135C236.102 137.091 235.86 138.449 235.862 144.691C235.864 150.679 236.142 152.378 237.561 155.044C239.632 158.939 242.767 160.679 247.642 160.641C252.364 160.604 256.047 158.372 258.217 154.229C260.63 149.621 260.589 139.7 258.134 134.675C255.214 128.696 248.274 126.401 242.253 129.423ZM134.384 146.704C132.317 147.31 128.815 148.312 126.602 148.931C119.583 150.894 117.012 155.56 120.499 160.005C123.651 164.025 132.91 163.287 137.533 158.649C139.882 156.293 140.021 155.854 140.021 150.799C140.021 144.844 140.226 144.992 134.384 146.704Z" fill="#7F7E7E"/>
</svg>
